<svg width="29" height="41" viewBox="0 0 29 41" fill="none" xmlns="http://www.w3.org/2000/svg">
<g id="Group 47064">
<path id="Vector" d="M28.4167 26.3572C28.2137 24.5058 27.6106 22.5721 26.6725 20.7657C25.8215 19.1206 24.7047 17.5469 23.3558 16.0923C22.9769 15.6815 22.5918 15.2879 22.393 15.1065L21.9349 14.6642C21.8231 14.5509 21.7291 14.46 21.636 14.3794L21.4989 14.2566C21.336 14.1162 21.1811 13.9688 21.0348 13.8147C20.9681 13.7509 20.9001 13.6882 20.8308 13.6267C20.7335 13.5394 20.623 13.4423 20.5248 13.3332L20.486 13.2927C19.7879 12.6148 19.2007 11.9985 18.6917 11.4098C18.0957 10.7166 17.6746 10.1433 17.3246 9.5456C16.9194 8.86481 16.6163 8.10713 16.4244 7.28786C16.2424 6.54588 16.1362 5.69437 16.1077 4.75399C16.0796 3.91901 16.1372 3.11668 16.1966 2.44746C16.2396 2.00186 16.2883 1.60752 16.336 1.25906C16.3543 1.12526 16.3352 0.989541 16.2805 0.863732C16.2258 0.737923 16.1371 0.625838 16.0221 0.537239C15.9072 0.44864 15.7695 0.386214 15.621 0.355398C15.4725 0.324581 15.3177 0.326309 15.1701 0.36043C14.7238 0.463356 14.2662 0.599763 13.8133 0.765105C12.8621 1.10778 11.9264 1.58438 11.0309 2.18333C9.88887 2.94928 8.88811 3.89545 8.05718 4.99373C7.03724 6.3359 6.31533 7.9145 5.97052 9.55346C5.57704 11.3569 5.62056 13.3919 6.09216 15.2801C6.53991 17.1079 7.40686 18.9747 8.60271 20.6839C9.2348 21.5738 9.84068 22.3179 10.4405 22.9425C10.6192 23.1388 11.1114 23.6464 11.1165 23.6522L11.313 23.851C11.4506 23.9887 11.5488 24.0924 11.649 24.1982C11.7416 24.2954 11.8179 24.376 11.903 24.4562L11.9175 24.4694C12.8532 25.4581 13.5129 26.184 14.0575 26.8263C14.6343 27.501 15.1739 28.1998 15.6745 28.9204C16.1924 29.6702 16.5625 30.3258 16.8385 30.981C17.1501 31.7263 17.355 32.534 17.45 33.3851C17.5375 34.1341 17.538 34.974 17.4523 35.9479C17.3663 36.8312 17.2105 37.6364 17.0879 38.2263C16.9962 38.6297 16.9063 39.0022 16.8245 39.3237C16.7902 39.4579 16.7944 39.5974 16.8366 39.7297C16.8788 39.8621 16.9576 39.983 17.066 40.0816C17.1745 40.1802 17.309 40.2534 17.4575 40.2945C17.606 40.3356 17.7637 40.3434 17.9165 40.317C18.3506 40.2423 18.7786 40.1417 19.1975 40.0161C20.1753 39.735 21.14 39.3262 22.0617 38.8041C23.2576 38.1362 24.3365 37.2797 25.2689 36.2608C26.3993 35.0257 27.2821 33.543 27.8216 31.9743C28.4265 30.2291 28.6329 28.2855 28.4167 26.3572Z" fill="url(#paint0_linear_2995_1643)"/>
<path id="Vector_2" d="M8.55922 29.2873C9.16526 29.938 9.6738 30.655 10.0723 31.4206C10.4999 32.2449 10.775 33.1274 10.8686 33.9727C10.965 34.8399 10.8686 35.7514 10.5958 36.538C10.3493 37.2539 9.94644 37.931 9.43085 38.494C9.01715 38.9501 8.5213 39.3429 7.96317 39.6567C7.6616 39.8282 7.34291 39.9748 7.01106 40.0949C6.85661 40.1501 6.68827 40.1679 6.52342 40.1465C6.35858 40.125 6.20322 40.065 6.07339 39.9727C5.94357 39.8804 5.84399 39.7592 5.78495 39.6215C5.7259 39.4839 5.70954 39.3348 5.73754 39.1896C5.79277 38.9108 5.83476 38.63 5.8634 38.3481C5.90176 37.9091 5.90176 37.5255 5.86199 37.1845C5.81848 36.7934 5.72444 36.4235 5.58221 36.0829C5.45636 35.7836 5.28746 35.4847 5.05212 35.145C4.82442 34.8158 4.57833 34.4969 4.31477 34.1893C3.99709 33.8144 3.62514 33.4163 3.33647 33.1117L3.32197 33.098C3.29062 33.0691 3.25693 33.034 3.21763 32.9914C3.16631 32.936 3.11374 32.8816 3.05996 32.8281L2.97809 32.7434C2.90276 32.6661 2.73339 32.4929 2.65526 32.4073C2.38952 32.1304 2.11348 31.791 1.8248 31.3855C1.27694 30.6022 0.881125 29.7494 0.676669 28.914C0.461452 28.0534 0.44227 27.1234 0.622397 26.2983C0.777515 25.5555 1.10157 24.8482 1.57497 24.2192C1.9432 23.7283 2.40143 23.2951 2.93083 22.9373C3.25647 22.7199 3.5966 22.5364 3.94282 22.3905C4.09052 22.3283 4.25411 22.3014 4.41725 22.3125C4.58038 22.3236 4.73736 22.3724 4.87251 22.4539C5.00765 22.5354 5.11623 22.6468 5.1874 22.7769C5.25858 22.9071 5.28985 23.0515 5.2781 23.1957C5.25985 23.4177 5.2374 23.7541 5.24909 24.11C5.26219 24.5387 5.31038 24.9272 5.39273 25.2649C5.47458 25.624 5.61284 25.9711 5.80351 26.2963C6.00563 26.6402 6.23441 26.9217 6.43185 27.1527C6.68714 27.4448 6.9564 27.7271 7.23891 27.9989C7.25006 28.0096 7.26082 28.0206 7.2712 28.0319C7.30912 28.0737 7.35299 28.1136 7.39796 28.1545L7.40454 28.1605L7.48548 28.2349C7.55698 28.31 7.63271 28.3819 7.71239 28.4503L7.77134 28.5028C7.81936 28.546 7.866 28.5904 7.91123 28.6359L8.12692 28.8442C8.21815 28.9277 8.40483 29.1199 8.55922 29.2873Z" fill="#2622B7"/>
</g>
<defs>
<linearGradient id="paint0_linear_2995_1643" x1="-1.62333" y1="-2.52356" x2="37.0627" y2="17.52" gradientUnits="userSpaceOnUse">
<stop stop-color="#FFC25C"/>
<stop offset="1" stop-color="#FB9E39"/>
</linearGradient>
</defs>
</svg>
