<svg width="24" height="24" viewBox="0 0 24 24" fill="none" xmlns="http://www.w3.org/2000/svg">
<g id="Frame" clip-path="url(#clip0_3249_17534)">
<g id="Group">
<path id="Vector" d="M15.119 4.71367C14.866 5.39165 14.1077 5.73621 13.4305 5.48134L10.6723 4.44416C9.90181 4.15423 9.09052 4.02063 8.28247 4.03894L8.95621 1.49023C9.98054 1.57908 10.9967 1.80247 11.9771 2.16402L14.3519 3.04031C15.0281 3.28953 15.3714 4.03856 15.119 4.71367Z" fill="url(#paint0_linear_3249_17534)"/>
<path id="Vector_2" d="M16.8141 4.94098C16.5216 5.58734 15.758 5.87195 15.1135 5.5751L12.4887 4.36701C11.4671 3.89651 10.3478 3.716 9.24795 3.82691L8.22791 1.25383C10.1758 1.08439 12.1345 1.41876 13.9158 2.2248L16.1768 3.24861C16.8206 3.5399 17.1058 4.29745 16.8141 4.94098Z" fill="url(#paint1_linear_3249_17534)"/>
<path id="Vector_3" d="M17.9907 4.89154C17.6505 5.53027 16.8536 5.77201 16.2157 5.43013L13.6181 4.03879C12.6071 3.49695 11.4776 3.24378 10.3492 3.28806L9.47607 0.609236C11.4558 0.558977 13.4329 1.01192 15.2119 1.95032L17.4506 3.13173C18.0881 3.46787 18.3298 4.25559 17.9907 4.89154Z" fill="url(#paint2_linear_3249_17534)"/>
<path id="Vector_4" d="M8.88111 19.2853C9.13414 18.6073 9.89235 18.2628 10.5696 18.5176L13.3278 19.5548C14.0982 19.8447 14.9096 19.9783 15.7176 19.96L15.0439 22.5087C14.0196 22.4199 13.0034 22.1965 12.023 21.8349L9.64821 20.9587C8.97202 20.7094 8.62873 19.9604 8.88111 19.2853Z" fill="url(#paint3_linear_3249_17534)"/>
<path id="Vector_5" d="M7.18594 19.0584C7.47846 18.412 8.24208 18.1274 8.8866 18.4242L11.5114 19.6323C12.533 20.1028 13.6523 20.2833 14.7521 20.1724L15.7722 22.7455C13.8243 22.915 11.8656 22.5806 10.0843 21.7746L7.8233 20.7507C7.17949 20.4594 6.89427 19.7019 7.18594 19.0584Z" fill="url(#paint4_linear_3249_17534)"/>
<path id="Vector_6" d="M6.00939 19.1079C6.34953 18.4692 7.14647 18.2274 7.7843 18.5693L10.3819 19.9607C11.3929 20.5025 12.5224 20.7557 13.6508 20.7114L14.524 23.3902C12.5443 23.4405 10.5672 22.9875 8.78816 22.0491L6.54948 20.8677C5.91197 20.5316 5.67033 19.7439 6.00939 19.1079Z" fill="url(#paint5_linear_3249_17534)"/>
<path id="Vector_7" d="M21.3317 18.7205H2.6684C1.9596 18.7205 1.38501 18.1459 1.38501 17.4371V6.56464C1.38501 5.85584 1.9596 5.28125 2.6684 5.28125H21.3317C22.0405 5.28125 22.6151 5.85584 22.6151 6.56464V17.4371C22.6151 18.1459 22.0405 18.7205 21.3317 18.7205Z" fill="url(#paint6_linear_3249_17534)"/>
<path id="Vector_8" d="M20.3867 17.6356H3.61335C2.99933 17.6356 2.50159 17.1379 2.50159 16.5239V7.477C2.50159 6.86298 2.99933 6.36523 3.61335 6.36523H20.3867C21.0006 6.36523 21.4984 6.86298 21.4984 7.477V16.5239C21.4984 17.1379 21.0007 17.6356 20.3867 17.6356Z" fill="url(#paint7_linear_3249_17534)"/>
<g id="Group_2">
<path id="Vector_9" d="M3.67669 8.68957H5.09203C5.17483 8.68957 5.25424 8.72246 5.31278 8.78101C5.37133 8.83956 5.40422 8.91896 5.40422 9.00176C5.40422 9.08456 5.37133 9.16397 5.31278 9.22251C5.25424 9.28106 5.17483 9.31395 5.09203 9.31395H3.67669C3.59389 9.31395 3.51449 9.28106 3.45594 9.22251C3.39739 9.16397 3.3645 9.08456 3.3645 9.00176C3.3645 8.91896 3.39739 8.83956 3.45594 8.78101C3.51449 8.72246 3.59389 8.68957 3.67669 8.68957ZM6.17434 9.31395C6.09154 9.31395 6.01213 9.28106 5.95359 9.22251C5.89504 9.16397 5.86215 9.08456 5.86215 9.00176C5.86215 8.91896 5.89504 8.83956 5.95359 8.78101C6.01213 8.72246 6.09154 8.68957 6.17434 8.68957H6.52817C6.61097 8.68957 6.69038 8.72246 6.74892 8.78101C6.80747 8.83956 6.84036 8.91896 6.84036 9.00176C6.84036 9.08456 6.80747 9.16397 6.74892 9.22251C6.69038 9.28106 6.61097 9.31395 6.52817 9.31395H6.17434ZM8.49805 7.84313H3.67669C3.59389 7.84313 3.51449 7.81023 3.45594 7.75169C3.39739 7.69314 3.3645 7.61374 3.3645 7.53094C3.3645 7.44814 3.39739 7.36873 3.45594 7.31019C3.51449 7.25164 3.59389 7.21875 3.67669 7.21875H8.49805C8.58085 7.21875 8.66026 7.25164 8.71881 7.31019C8.77735 7.36873 8.81024 7.44814 8.81024 7.53094C8.81024 7.61374 8.77735 7.69314 8.71881 7.75169C8.66026 7.81023 8.58085 7.84313 8.49805 7.84313ZM20.3234 15.3094H18.908C18.8252 15.3094 18.7458 15.2765 18.6873 15.2179C18.6287 15.1594 18.5958 15.08 18.5958 14.9972C18.5958 14.9144 18.6287 14.835 18.6873 14.7764C18.7458 14.7179 18.8252 14.685 18.908 14.685H20.3234C20.4062 14.685 20.4856 14.7179 20.5441 14.7764C20.6027 14.835 20.6356 14.9144 20.6356 14.9972C20.6356 15.08 20.6027 15.1594 20.5441 15.2179C20.4856 15.2765 20.4062 15.3094 20.3234 15.3094ZM17.8257 14.685C17.9085 14.685 17.9879 14.7179 18.0465 14.7764C18.105 14.8349 18.1379 14.9144 18.1379 14.9971C18.1379 15.0799 18.105 15.1594 18.0465 15.2179C17.9879 15.2764 17.9085 15.3093 17.8257 15.3093H17.4719C17.3891 15.3093 17.3097 15.2764 17.2511 15.2179C17.1926 15.1594 17.1597 15.0799 17.1597 14.9971C17.1597 14.9144 17.1926 14.8349 17.2511 14.7764C17.3097 14.7179 17.3891 14.685 17.4719 14.685H17.8257ZM15.502 16.1558H20.3234C20.4062 16.1558 20.4856 16.1887 20.5441 16.2472C20.6027 16.3058 20.6356 16.3852 20.6356 16.468C20.6356 16.5508 20.6027 16.6302 20.5441 16.6887C20.4856 16.7473 20.4062 16.7802 20.3234 16.7802H15.502C15.4192 16.7802 15.3398 16.7473 15.2813 16.6887C15.2227 16.6302 15.1898 16.5508 15.1898 16.468C15.1898 16.3852 15.2227 16.3058 15.2813 16.2472C15.3398 16.1887 15.4192 16.1558 15.502 16.1558Z" fill="#017B4E"/>
</g>
<path id="Vector_10" d="M1.38501 12.2969V17.4366C1.38501 18.1454 1.9596 18.72 2.6684 18.72H21.3317C22.0405 18.72 22.6151 18.1454 22.6151 17.4366V12.2969H1.38501Z" fill="url(#paint8_linear_3249_17534)"/>
<path id="Vector_11" d="M12 15.9049C14.157 15.9049 15.9056 14.1563 15.9056 11.9993C15.9056 9.84233 14.157 8.09375 12 8.09375C9.84306 8.09375 8.09448 9.84233 8.09448 11.9993C8.09448 14.1563 9.84306 15.9049 12 15.9049Z" fill="url(#paint9_linear_3249_17534)"/>
<path id="Vector_12" d="M12.2403 7.12695H1.38501V17.4372C1.38501 18.146 1.9596 18.7206 2.6684 18.7206H21.3317C22.0194 18.7206 22.5806 18.1797 22.6135 17.5002L12.2403 7.12695Z" fill="url(#paint10_linear_3249_17534)"/>
<path id="Vector_13" d="M6.32431 18.6796L7.40511 19.489C7.45259 19.5223 7.5004 19.555 7.54859 19.587C8.84619 20.4516 10.4134 20.8119 11.9655 20.6624C13.2635 20.5373 13.7828 20.4459 15.4545 19.5434C15.746 19.386 15.7862 19.0711 15.5444 18.8447L15.4782 18.7826C14.1827 18.2618 12.938 17.6226 11.7599 16.8731C11.084 16.443 10.8995 15.5377 11.3494 14.8749C11.7589 14.2716 12.5575 14.0772 13.2003 14.4215C14.3061 15.0139 15.5218 15.3729 16.7721 15.4763C17.0115 15.496 17.2522 15.4895 17.491 15.4646C18.2434 15.3862 20.0651 15.2093 20.6752 15.2648L20.6921 15.2664C22.2891 15.4142 23.5972 16.5975 23.9091 18.1708L23.9276 18.2645C24.3309 20.2967 23.0096 22.2715 20.9769 22.6744L17.4669 23.3702L15.256 23.787C11.7859 24.4129 8.20878 23.6404 5.31457 21.6401L4.61221 21.1169C3.9356 20.6495 3.76882 19.7236 4.23951 19.0484C4.71179 18.3709 5.64802 18.2054 6.32431 18.6796Z" fill="url(#paint11_linear_3249_17534)"/>
<path id="Vector_14" d="M11.3494 14.8749C11.7589 14.2716 12.5575 14.0772 13.2002 14.4215C14.4217 15.0759 15.7757 15.4446 17.1603 15.5C17.1812 15.5008 17.2021 15.5018 17.2229 15.5028C19.5709 15.6203 19.8081 18.9984 17.4997 19.444C17.3339 19.4761 17.1622 19.4596 17.0055 19.3966L15.4781 18.7826C14.1826 18.2618 12.9379 17.6226 11.7599 16.873C11.084 16.4431 10.8994 15.5376 11.3494 14.8749Z" fill="url(#paint12_linear_3249_17534)"/>
<path id="Vector_15" d="M17.6759 5.31941L16.5951 4.51009C16.5476 4.47681 16.4998 4.4441 16.4516 4.41198C15.154 3.54741 13.5867 3.18708 12.0347 3.33659C10.7367 3.46167 10.2173 3.5531 8.54564 4.4556C8.25416 4.61296 8.21393 4.92788 8.45572 5.15433L8.52197 5.2164C9.81749 5.73719 11.0622 6.37642 12.2402 7.12595C12.9161 7.55598 13.1007 8.46134 12.6508 9.12416C12.2412 9.72746 11.4427 9.92186 10.7999 9.57758C9.69405 8.98515 8.47832 8.62614 7.22805 8.5228C6.9887 8.50303 6.74795 8.50958 6.50913 8.53447C5.75675 8.61282 3.93506 8.78976 3.32499 8.73423L3.30805 8.73268C1.7111 8.58487 0.40301 7.40158 0.0911041 5.82821L0.072563 5.73456C-0.330731 3.70233 0.990587 1.7276 3.02329 1.32463L6.53327 0.628822L8.74414 0.212022C12.2143 -0.413813 15.7914 0.358705 18.6856 2.35899L19.388 2.88214C20.0646 3.34958 20.2313 4.27546 19.7607 4.95061C19.2883 5.62816 18.3521 5.79362 17.6759 5.31941Z" fill="url(#paint13_linear_3249_17534)"/>
<path id="Vector_16" d="M12.6507 9.12417C12.2412 9.72746 11.4426 9.92182 10.7999 9.57758C9.57841 8.92317 8.22439 8.5544 6.83977 8.49904C6.81891 8.4982 6.79805 8.49725 6.77719 8.49622C4.42919 8.37871 4.19201 5.00069 6.50034 4.55499C6.66623 4.52296 6.83784 4.53945 6.9946 4.60248L8.52194 5.21645C9.81746 5.73724 11.0622 6.37647 12.2402 7.12601C12.9162 7.55603 13.1007 8.46139 12.6507 9.12417Z" fill="url(#paint14_linear_3249_17534)"/>
</g>
</g>
<defs>
<linearGradient id="paint0_linear_3249_17534" x1="11.5362" y1="5.46279" x2="11.7848" y2="4.23968" gradientUnits="userSpaceOnUse">
<stop stop-color="#FFEEE6"/>
<stop offset="1" stop-color="#FFB09E"/>
</linearGradient>
<linearGradient id="paint1_linear_3249_17534" x1="11.9806" y1="5.32347" x2="12.3281" y2="3.82366" gradientUnits="userSpaceOnUse">
<stop stop-color="#FFEEE6"/>
<stop offset="1" stop-color="#FFB09E"/>
</linearGradient>
<linearGradient id="paint2_linear_3249_17534" x1="13.0069" y1="4.37044" x2="13.4624" y2="3.29256" gradientUnits="userSpaceOnUse">
<stop stop-color="#FFEEE6"/>
<stop offset="1" stop-color="#FFB09E"/>
</linearGradient>
<linearGradient id="paint3_linear_3249_17534" x1="12.4664" y1="18.5025" x2="12.2179" y2="19.7251" gradientUnits="userSpaceOnUse">
<stop stop-color="#F1B0A2"/>
<stop offset="1" stop-color="#CA6E59"/>
</linearGradient>
<linearGradient id="paint4_linear_3249_17534" x1="12.0412" y1="18.6789" x2="11.6937" y2="20.1787" gradientUnits="userSpaceOnUse">
<stop stop-color="#F1B0A2"/>
<stop offset="1" stop-color="#CA6E59"/>
</linearGradient>
<linearGradient id="paint5_linear_3249_17534" x1="10.9692" y1="19.6069" x2="10.5138" y2="20.6848" gradientUnits="userSpaceOnUse">
<stop stop-color="#F1B0A2"/>
<stop offset="1" stop-color="#CA6E59"/>
</linearGradient>
<linearGradient id="paint6_linear_3249_17534" x1="2.20176" y1="-7.68091" x2="15.8412" y2="19.7165" gradientUnits="userSpaceOnUse">
<stop stop-color="#B3DAFE"/>
<stop offset="1" stop-color="#4FC123"/>
</linearGradient>
<linearGradient id="paint7_linear_3249_17534" x1="21.7403" y1="28.2813" x2="9.46484" y2="7.76283" gradientUnits="userSpaceOnUse">
<stop stop-color="#B3DAFE"/>
<stop offset="1" stop-color="#4FC123"/>
</linearGradient>
<linearGradient id="paint8_linear_3249_17534" x1="12.0001" y1="13.7794" x2="12.0001" y2="18.3472" gradientUnits="userSpaceOnUse">
<stop stop-color="#4FC123" stop-opacity="0"/>
<stop offset="1" stop-color="#017B4E"/>
</linearGradient>
<linearGradient id="paint9_linear_3249_17534" x1="4.09528" y1="4.09455" x2="12.9643" y2="12.9635" gradientUnits="userSpaceOnUse">
<stop stop-color="#4FC123" stop-opacity="0"/>
<stop offset="1" stop-color="#017B4E"/>
</linearGradient>
<linearGradient id="paint10_linear_3249_17534" x1="11.9993" y1="13.5225" x2="11.9993" y2="7.44159" gradientUnits="userSpaceOnUse">
<stop stop-color="#4FC123" stop-opacity="0"/>
<stop offset="1" stop-color="#017B4E"/>
</linearGradient>
<linearGradient id="paint11_linear_3249_17534" x1="13.67" y1="14.7069" x2="14.2752" y2="23.4312" gradientUnits="userSpaceOnUse">
<stop stop-color="#F1B0A2"/>
<stop offset="1" stop-color="#CA6E59"/>
</linearGradient>
<linearGradient id="paint12_linear_3249_17534" x1="15.0539" y1="16.7879" x2="13.3067" y2="19.633" gradientUnits="userSpaceOnUse">
<stop stop-color="#CA6E59" stop-opacity="0"/>
<stop offset="0.555" stop-color="#A75542" stop-opacity="0.555"/>
<stop offset="1" stop-color="#883F2E"/>
</linearGradient>
<linearGradient id="paint13_linear_3249_17534" x1="7.23407" y1="-0.923319" x2="12.4616" y2="9.90515" gradientUnits="userSpaceOnUse">
<stop stop-color="#FFEEE6"/>
<stop offset="1" stop-color="#FFB09E"/>
</linearGradient>
<linearGradient id="paint14_linear_3249_17534" x1="8.84895" y1="7.32723" x2="11.2013" y2="4.97485" gradientUnits="userSpaceOnUse">
<stop stop-color="#FFB09E" stop-opacity="0"/>
<stop offset="1" stop-color="#EC806B"/>
</linearGradient>
<clipPath id="clip0_3249_17534">
<rect width="24" height="24" fill="white"/>
</clipPath>
</defs>
</svg>
