<svg width="24" height="20" viewBox="0 0 24 20" fill="none" xmlns="http://www.w3.org/2000/svg">
<g id="Group 2738">
<path id="Vector" d="M11.4963 0.533042L0.824877 19.0101C0.775973 19.0942 0.750145 19.1896 0.750001 19.2869C0.749856 19.3841 0.775403 19.4796 0.824056 19.5638C0.87271 19.648 0.942755 19.7179 1.02709 19.7663C1.11143 19.8148 1.20707 19.8402 1.30436 19.8398H22.656C22.7534 19.8397 22.8489 19.8138 22.9331 19.7649C23.0172 19.716 23.0869 19.6457 23.1351 19.5612C23.1834 19.4767 23.2084 19.3809 23.2077 19.2837C23.207 19.1864 23.1805 19.091 23.1311 19.0072L12.4597 0.530117C12.4114 0.444839 12.3412 0.373944 12.2564 0.324717C12.1716 0.275489 12.0752 0.249705 11.9771 0.250003C11.8791 0.2503 11.7828 0.27667 11.6983 0.32641C11.6138 0.376151 11.5441 0.447472 11.4963 0.533042Z" fill="#ED6203"/>
<path id="Vector_2" d="M4.03784 13.4404L8.76251 19.0657L17.2806 8.88281L8.76251 15.8185L4.03784 13.4404Z" fill="white"/>
</g>
</svg>
