<svg width="16" height="17" viewBox="0 0 16 17" fill="none" xmlns="http://www.w3.org/2000/svg">
<path d="M7.99997 9.15132C7.91331 9.15132 7.82664 9.13132 7.74664 9.08465L1.85997 5.67799C1.62664 5.53799 1.53997 5.23132 1.67997 4.99132C1.81997 4.75132 2.12664 4.67132 2.36664 4.81132L7.99997 8.07132L13.6 4.83132C13.84 4.69132 14.1466 4.77799 14.2866 5.01132C14.4266 5.25132 14.34 5.55799 14.1066 5.69799L8.25997 9.08465C8.17331 9.12465 8.08664 9.15132 7.99997 9.15132Z" fill="#808089"/>
<path d="M8 15.1913C7.72667 15.1913 7.5 14.9647 7.5 14.6913V8.64465C7.5 8.37132 7.72667 8.14465 8 8.14465C8.27333 8.14465 8.5 8.37132 8.5 8.64465V14.6913C8.5 14.9647 8.27333 15.1913 8 15.1913Z" fill="#808089"/>
<path d="M7.99993 15.4513C7.41326 15.4513 6.83326 15.3246 6.37326 15.0713L2.81326 13.0913C1.84659 12.558 1.09326 11.2713 1.09326 10.1646V6.39798C1.09326 5.29131 1.84659 4.01131 2.81326 3.47131L6.37326 1.49798C7.2866 0.991314 8.71326 0.991314 9.62659 1.49798L13.1866 3.47798C14.1533 4.01131 14.9066 5.29798 14.9066 6.40465V10.1713C14.9066 11.278 14.1533 12.558 13.1866 13.098L9.62659 15.0713C9.16659 15.3246 8.5866 15.4513 7.99993 15.4513ZM7.99993 2.11798C7.57993 2.11798 7.16659 2.20465 6.85993 2.37131L3.29993 4.35131C2.65993 4.70465 2.09326 5.66465 2.09326 6.39798V10.1646C2.09326 10.898 2.65993 11.858 3.29993 12.218L6.85993 14.198C7.4666 14.538 8.53326 14.538 9.13993 14.198L12.6999 12.218C13.3399 11.858 13.9066 10.9046 13.9066 10.1646V6.39798C13.9066 5.66465 13.3399 4.70465 12.6999 4.34465L9.13993 2.36465C8.83326 2.20465 8.41993 2.11798 7.99993 2.11798Z" fill="#808089"/>
</svg>
