<svg width="16" height="17" viewBox="0 0 16 17" fill="none" xmlns="http://www.w3.org/2000/svg">
<path d="M10.3333 10.7845C10.2133 10.7845 10.0799 10.7778 9.95992 10.7712C9.71325 10.7578 9.51325 10.5578 9.49325 10.3112C9.34658 8.45116 7.83325 6.94448 5.97992 6.79782C5.73325 6.77782 5.53325 6.57783 5.51992 6.33116C5.51325 6.21116 5.50659 6.07783 5.50659 5.95783C5.50659 3.29116 7.67326 1.1245 10.3399 1.1245C13.0066 1.1245 15.1733 3.29116 15.1733 5.95783C15.1733 8.6245 12.9999 10.7845 10.3333 10.7845ZM6.49992 5.85781C8.48659 6.21115 10.0799 7.79782 10.4266 9.78449C12.4999 9.73116 14.1666 8.03782 14.1666 5.95116C14.1666 3.83782 12.4466 2.11782 10.3333 2.11782C8.25325 2.11782 6.55325 3.78448 6.49992 5.85781Z" fill="#808089"/>
<path d="M5.66659 15.4513C2.99992 15.4513 0.833252 13.2847 0.833252 10.618C0.833252 7.95132 2.99992 5.78465 5.66659 5.78465C5.78659 5.78465 5.91992 5.79131 6.03992 5.79798C8.39325 5.98465 10.2999 7.89133 10.4799 10.2313C10.4866 10.3647 10.4932 10.498 10.4932 10.618C10.4999 13.2847 8.33325 15.4513 5.66659 15.4513ZM5.66659 6.78465C3.55325 6.78465 1.83325 8.50465 1.83325 10.618C1.83325 12.7313 3.55325 14.4513 5.66659 14.4513C7.77992 14.4513 9.49992 12.7313 9.49992 10.618C9.49992 10.5113 9.49326 10.4046 9.48659 10.298C9.33993 8.45131 7.82658 6.93799 5.97325 6.79133C5.87991 6.79133 5.77325 6.78465 5.66659 6.78465Z" fill="#808089"/>
<path d="M5.66667 12.7848C5.48667 12.7848 5.31333 12.6848 5.22666 12.5248L4.70667 11.5782L3.76001 11.0582C3.60001 10.9715 3.5 10.8048 3.5 10.6182C3.5 10.4315 3.60001 10.2648 3.76001 10.1782L4.70667 9.65815L5.22666 8.7115C5.4 8.3915 5.92667 8.3915 6.10667 8.7115L6.62667 9.65815L7.57332 10.1782C7.73332 10.2648 7.83333 10.4315 7.83333 10.6182C7.83333 10.8048 7.73332 10.9715 7.57332 11.0582L6.62667 11.5782L6.10667 12.5248C6.02 12.6848 5.84667 12.7848 5.66667 12.7848ZM5.04 10.6182L5.31333 10.7715C5.4 10.8182 5.46666 10.8848 5.51333 10.9715L5.66667 11.2448L5.82001 10.9715C5.86667 10.8848 5.93333 10.8182 6.02 10.7715L6.29333 10.6182L6.02 10.4648C5.93333 10.4181 5.86667 10.3515 5.82001 10.2648L5.66667 9.99149L5.51333 10.2648C5.46666 10.3515 5.4 10.4181 5.31333 10.4648L5.04 10.6182Z" fill="#808089"/>
</svg>
