<svg width="16" height="17" viewBox="0 0 16 17" fill="none" xmlns="http://www.w3.org/2000/svg">
<path d="M7.99992 14.718C7.79325 14.718 7.59325 14.6913 7.42659 14.6313C4.87992 13.758 0.833252 10.658 0.833252 6.07798C0.833252 3.74465 2.71992 1.85132 5.03992 1.85132C6.16659 1.85132 7.21992 2.29132 7.99992 3.07799C8.77992 2.29132 9.83325 1.85132 10.9599 1.85132C13.2799 1.85132 15.1666 3.75132 15.1666 6.07798C15.1666 10.6647 11.1199 13.758 8.57325 14.6313C8.40659 14.6913 8.20659 14.718 7.99992 14.718ZM5.03992 2.85132C3.27325 2.85132 1.83325 4.29798 1.83325 6.07798C1.83325 10.6313 6.21325 13.1647 7.75325 13.6913C7.87325 13.7313 8.13325 13.7313 8.25325 13.6913C9.78659 13.1647 14.1733 10.638 14.1733 6.07798C14.1733 4.29798 12.7333 2.85132 10.9666 2.85132C9.95325 2.85132 9.01325 3.32465 8.40659 4.14465C8.21992 4.39798 7.79325 4.39798 7.60659 4.14465C6.98659 3.31798 6.05325 2.85132 5.03992 2.85132Z" fill="#808089"/>
</svg>
