<svg width="50" height="51" viewBox="0 0 50 51" fill="none" xmlns="http://www.w3.org/2000/svg">
<rect y="0.284653" width="50" height="50" rx="8" fill="#F6F6FA"/>
<g clip-path="url(#clip0_2125_2720)">
<path d="M24.9999 17.9803L20.3042 13.2847L18.739 15.8933L21.8694 21.1107L24.9999 17.9803ZM31.2608 15.8933L29.6955 13.2847L24.9999 17.9803L28.1303 21.1107L31.2608 15.8933ZM24.9999 19.4558L23.4597 20.996L23.9564 22.1542L22.3912 31.5455L24.9999 34.1542L27.6086 31.5455L26.0434 22.1542L26.5401 20.996L24.9999 19.4558ZM24.9999 16.5048L25.6114 15.8933L28.2201 13.2847H21.7797L24.3884 15.8933L24.9999 16.5048Z" fill="url(#paint0_linear_2125_2720)"/>
<path d="M32.3904 15.8976C32.3898 15.9906 32.3642 16.0818 32.3163 16.1616L28.6814 22.2205C28.6406 22.2885 28.5849 22.3462 28.5184 22.3894C28.452 22.4326 28.3766 22.4601 28.2979 22.4698C28.2193 22.4795 28.1395 22.4712 28.0645 22.4454C27.9896 22.4197 27.9215 22.3772 27.8654 22.3212L27.3343 21.7906L27.123 22.2842L28.7263 31.904L25 35.6292L21.2737 31.9029L22.877 22.2836L22.6657 21.7901L22.1346 22.3207C22.0785 22.3767 22.0104 22.4192 21.9355 22.4449C21.8605 22.4707 21.7807 22.479 21.7021 22.4693C21.6234 22.4596 21.548 22.4321 21.4816 22.3889C21.4151 22.3457 21.3594 22.2879 21.3186 22.22L17.6837 16.1616C17.6358 16.0818 17.6102 15.9906 17.6096 15.8976C16.3802 15.9209 15.2089 16.4252 14.3471 17.3023C13.4853 18.1794 13.0017 19.3594 13 20.589V35.7195C13.0004 36.1345 13.1655 36.5323 13.4589 36.8258C13.7523 37.1192 14.1502 37.2843 14.5652 37.2847H35.4348C35.8498 37.2843 36.2477 37.1192 36.5411 36.8258C36.8345 36.5323 36.9996 36.1345 37 35.7195V20.589C36.9983 19.3594 36.5147 18.1794 35.6529 17.3023C34.7911 16.4252 33.6198 15.9209 32.3904 15.8976Z" fill="#2622B7"/>
</g>
<defs>
<linearGradient id="paint0_linear_2125_2720" x1="14.7142" y1="11.794" x2="35.4878" y2="23.1251" gradientUnits="userSpaceOnUse">
<stop stop-color="#FFC25C"/>
<stop offset="1" stop-color="#FB9E39"/>
</linearGradient>
<clipPath id="clip0_2125_2720">
<rect width="24" height="24" fill="white" transform="translate(13 13.2847)"/>
</clipPath>
</defs>
</svg>
