<svg width="50" height="51" viewBox="0 0 50 51" fill="none" xmlns="http://www.w3.org/2000/svg">
<rect y="0.284653" width="50" height="50" rx="8" fill="#F6F6FA"/>
<g clip-path="url(#clip0_2125_2711)">
<path d="M26.4414 18.0769H18.7538C18.4414 18.0769 18.1411 18.0888 17.8529 18.1248C14.6216 18.4003 13 20.3052 13 23.8155V28.6078C13 33.4 14.9219 34.3464 18.7538 34.3464H19.2342C19.4985 34.3464 19.8468 34.5261 20.003 34.7298L21.4444 36.6467C22.0811 37.4973 23.1141 37.4973 23.7508 36.6467L25.1922 34.7298C25.3724 34.4902 25.6607 34.3464 25.961 34.3464H26.4414C29.961 34.3464 31.8709 32.741 32.1472 29.5063C32.1832 29.2188 32.1952 28.9192 32.1952 28.6078V23.8155C32.1952 19.9938 30.2733 18.0769 26.4414 18.0769ZM18.4054 27.6613C17.7327 27.6613 17.2042 27.1222 17.2042 26.4632C17.2042 25.8043 17.7447 25.2652 18.4054 25.2652C19.0661 25.2652 19.6066 25.8043 19.6066 26.4632C19.6066 27.1222 19.0661 27.6613 18.4054 27.6613ZM22.5976 27.6613C21.9249 27.6613 21.3964 27.1222 21.3964 26.4632C21.3964 25.8043 21.9369 25.2652 22.5976 25.2652C23.2583 25.2652 23.7988 25.8043 23.7988 26.4632C23.7988 27.1222 23.2703 27.6613 22.5976 27.6613ZM26.8018 27.6613C26.1291 27.6613 25.6006 27.1222 25.6006 26.4632C25.6006 25.8043 26.1411 25.2652 26.8018 25.2652C27.4625 25.2652 28.003 25.8043 28.003 26.4632C28.003 27.1222 27.4625 27.6613 26.8018 27.6613Z" fill="#2622B7"/>
<path d="M37.0001 19.0233V23.8155C37.0001 26.2116 36.2554 27.841 34.7659 28.7395C34.4055 28.9552 33.9851 28.6677 33.9851 28.2483L33.9971 23.8155C33.9971 19.0233 31.2464 16.2798 26.4415 16.2798L19.1262 16.2918C18.7058 16.2918 18.4175 15.8724 18.6337 15.513C19.5346 14.0274 21.1683 13.2847 23.5587 13.2847H31.2464C35.0782 13.2847 37.0001 15.2015 37.0001 19.0233Z" fill="url(#paint0_linear_2125_2711)"/>
</g>
<defs>
<linearGradient id="paint0_linear_2125_2711" x1="12.6329" y1="12.1755" x2="30.9637" y2="31.9645" gradientUnits="userSpaceOnUse">
<stop stop-color="#FFC25C"/>
<stop offset="1" stop-color="#FB9E39"/>
</linearGradient>
<clipPath id="clip0_2125_2711">
<rect width="24" height="24" fill="white" transform="translate(13 13.2847)"/>
</clipPath>
</defs>
</svg>
