<svg width="50" height="51" viewBox="0 0 50 51" fill="none" xmlns="http://www.w3.org/2000/svg">
<rect y="0.284653" width="50" height="50" rx="8" fill="#F6F6FA"/>
<path d="M14.7141 33.5854C14.7141 34.9734 15.8678 36.1029 17.2855 36.1029H32.7141C34.1318 36.1029 35.2855 34.9734 35.2855 33.5854V20.998H14.7141V33.5854ZM21.5713 22.6764H28.4284C28.6557 22.6764 28.8737 22.7648 29.0345 22.9221C29.1952 23.0795 29.2855 23.293 29.2855 23.5155C29.2855 23.7381 29.1952 23.9515 29.0345 24.1089C28.8737 24.2663 28.6557 24.3547 28.4284 24.3547H21.5713C21.3439 24.3547 21.1259 24.2663 20.9652 24.1089C20.8044 23.9515 20.7141 23.7381 20.7141 23.5155C20.7141 23.293 20.8044 23.0795 20.9652 22.9221C21.1259 22.7648 21.3439 22.6764 21.5713 22.6764Z" fill="#2622B7"/>
<path d="M37 17.6413V15.963C37 15.0374 36.2311 14.2847 35.2857 14.2847H14.7143C13.7689 14.2847 13 15.0374 13 15.963V17.6413C13 18.5669 13.7689 19.3196 14.7143 19.3196H35.2857C36.2311 19.3196 37 18.5669 37 17.6413Z" fill="url(#paint0_linear_2125_2703)"/>
<defs>
<linearGradient id="paint0_linear_2125_2703" x1="5.28571" y1="13.925" x2="7.89786" y2="25.2443" gradientUnits="userSpaceOnUse">
<stop stop-color="#FFC25C"/>
<stop offset="1" stop-color="#FB9E39"/>
</linearGradient>
</defs>
</svg>
