<svg width="16" height="17" viewBox="0 0 16 17" fill="none" xmlns="http://www.w3.org/2000/svg">
<path d="M7.16583 3.59324L4.2125 2.13324C2.61917 1.35324 1.3125 2.14657 1.3125 3.89324V13.7866C1.3125 14.5466 1.94583 15.1666 2.71917 15.1666H7.66583C8.0325 15.1666 8.3325 14.8666 8.3325 14.4999V5.43991C8.3325 4.73991 7.80583 3.90657 7.16583 3.59324ZM5.97917 9.66657H3.66583C3.3925 9.66657 3.16583 9.43991 3.16583 9.16657C3.16583 8.89324 3.3925 8.66657 3.66583 8.66657H5.97917C6.2525 8.66657 6.47917 8.89324 6.47917 9.16657C6.47917 9.43991 6.25917 9.66657 5.97917 9.66657ZM5.97917 6.99991H3.66583C3.3925 6.99991 3.16583 6.77324 3.16583 6.49991C3.16583 6.22657 3.3925 5.99991 3.66583 5.99991H5.97917C6.2525 5.99991 6.47917 6.22657 6.47917 6.49991C6.47917 6.77324 6.25917 6.99991 5.97917 6.99991Z" fill="white"/>
<path d="M14.6673 12.5269V13.5002C14.6673 14.4202 13.9207 15.1669 13.0007 15.1669H9.98065C9.62065 15.1669 9.33398 14.8802 9.33398 14.5202V13.0802C10.0473 13.1669 10.8007 12.9602 11.3407 12.5269C11.794 12.8935 12.374 13.1135 13.0073 13.1135C13.6273 13.1135 14.2073 12.8935 14.6673 12.5269Z" fill="white"/>
<path d="M14.6673 10.5335V10.5402C14.614 11.4135 13.9007 12.1135 13.0073 12.1135C12.0807 12.1135 11.3407 11.3602 11.3407 10.4468C11.3407 11.4668 10.4007 12.2868 9.33398 12.0802V8.50018C9.33398 8.07351 9.72732 7.75351 10.1473 7.84684L11.3407 8.11351L11.6607 8.18684L13.0207 8.49351C13.3473 8.56018 13.6473 8.67351 13.9073 8.84018C13.9073 8.84684 13.914 8.84684 13.914 8.84684C13.9807 8.89351 14.0473 8.94684 14.1073 9.00684C14.414 9.31351 14.614 9.76018 14.6607 10.4135C14.6607 10.4535 14.6673 10.4935 14.6673 10.5335Z" fill="white"/>
</svg>
