<svg width="35" height="24" viewBox="0 0 35 24" fill="none" xmlns="http://www.w3.org/2000/svg">
<g filter="url(#filter0_d_2479_22654)">
<rect x="0.5" y="0.5" width="34" height="23" rx="3.5" fill="white" stroke="#DDDDE3"/>
<path fill-rule="evenodd" clip-rule="evenodd" d="M9.89805 15.2407H8.34244C8.23599 15.2407 8.14545 15.3181 8.12885 15.4231L7.49968 19.4122C7.48717 19.4909 7.54813 19.5619 7.62797 19.5619H8.37064C8.47709 19.5619 8.56763 19.4845 8.58423 19.3793L8.75392 18.3034C8.77029 18.198 8.86105 18.1207 8.96728 18.1207H9.45974C10.4845 18.1207 11.0758 17.6248 11.2304 16.6422C11.3 16.2123 11.2333 15.8745 11.032 15.6379C10.8109 15.3782 10.4187 15.2407 9.89805 15.2407ZM10.0775 16.6977C9.99247 17.2559 9.56597 17.2559 9.15358 17.2559H8.91883L9.08351 16.2134C9.09329 16.1504 9.14788 16.104 9.21158 16.104H9.31917C9.60008 16.104 9.86511 16.104 10.0021 16.2641C10.0836 16.3597 10.1087 16.5016 10.0775 16.6977ZM14.5482 16.6798H13.8032C13.7397 16.6798 13.6849 16.7262 13.6751 16.7893L13.6422 16.9976L13.5901 16.9221C13.4288 16.688 13.0692 16.6098 12.7103 16.6098C11.887 16.6098 11.184 17.2333 11.047 18.1079C10.9758 18.5441 11.077 18.9613 11.3245 19.2522C11.5515 19.5197 11.8764 19.6312 12.2628 19.6312C12.9261 19.6312 13.294 19.2046 13.294 19.2046L13.2607 19.4117C13.2482 19.4908 13.3091 19.5618 13.3885 19.5618H14.0595C14.1663 19.5618 14.2563 19.4844 14.2731 19.3792L14.6757 16.8295C14.6885 16.751 14.6277 16.6798 14.5482 16.6798ZM13.5097 18.1297C13.4379 18.5553 13.1001 18.8409 12.6693 18.8409C12.453 18.8409 12.2801 18.7716 12.1691 18.6401C12.059 18.5096 12.0171 18.3237 12.0522 18.1167C12.1193 17.6947 12.4628 17.3998 12.887 17.3998C13.0985 17.3998 13.2705 17.47 13.3837 17.6026C13.4972 17.7366 13.5423 17.9236 13.5097 18.1297ZM17.767 16.6797H18.5157C18.6205 16.6797 18.6817 16.7973 18.6221 16.8833L16.1323 20.4772C16.092 20.5354 16.0255 20.57 15.9546 20.57H15.2069C15.1016 20.57 15.0402 20.4515 15.1011 20.3653L15.8764 19.2709L15.0519 16.8511C15.0233 16.767 15.0854 16.6797 15.1749 16.6797H15.9105C16.0061 16.6797 16.0904 16.7424 16.118 16.8339L16.5555 18.2954L17.5881 16.7745C17.6285 16.7151 17.6957 16.6797 17.767 16.6797Z" fill="#253B80"/>
<path fill-rule="evenodd" clip-rule="evenodd" d="M25.8832 19.4124L26.5216 15.3504C26.5314 15.2874 26.586 15.2409 26.6495 15.2407H27.3683C27.4476 15.2407 27.5086 15.3119 27.496 15.3906L26.8665 19.3795C26.85 19.4847 26.7595 19.5621 26.6529 19.5621H26.011C25.9316 19.5621 25.8707 19.4912 25.8832 19.4124ZM20.9938 15.2409H19.4379C19.3317 15.2409 19.2412 15.3183 19.2245 15.4234L18.5954 19.4124C18.5829 19.4912 18.6438 19.5621 18.7233 19.5621H19.5216C19.5958 19.5621 19.6593 19.508 19.6709 19.4343L19.8494 18.3036C19.8658 18.1982 19.9565 18.1209 20.0628 18.1209H20.555C21.5799 18.1209 22.1712 17.625 22.3258 16.6424C22.3956 16.2125 22.3286 15.8747 22.1273 15.6381C21.9063 15.3784 21.5144 15.2409 20.9938 15.2409ZM21.1733 16.6979C21.0884 17.2561 20.6619 17.2561 20.2493 17.2561H20.0148L20.1797 16.2136C20.1895 16.1506 20.2436 16.1042 20.3075 16.1042H20.4151C20.6958 16.1042 20.9611 16.1042 21.0979 16.2643C21.1796 16.3599 21.2044 16.5018 21.1733 16.6979ZM25.6435 16.68H24.8991C24.8351 16.68 24.7808 16.7264 24.7712 16.7895L24.7382 16.9978L24.6859 16.9223C24.5247 16.6882 24.1653 16.61 23.8063 16.61C22.9831 16.61 22.2802 17.2335 22.1433 18.1081C22.0723 18.5443 22.1731 18.9615 22.4206 19.2524C22.648 19.5199 22.9724 19.6314 23.3589 19.6314C24.0221 19.6314 24.3899 19.2048 24.3899 19.2048L24.3568 19.4119C24.3442 19.491 24.4052 19.562 24.4851 19.562H25.1558C25.262 19.562 25.3526 19.4846 25.3692 19.3794L25.772 16.8297C25.7844 16.7513 25.7234 16.68 25.6435 16.68ZM24.6052 18.1299C24.5337 18.5555 24.1955 18.8412 23.7647 18.8412C23.5488 18.8412 23.3755 18.7718 23.2644 18.6403C23.1543 18.5098 23.113 18.3239 23.1476 18.1169C23.2151 17.6949 23.5581 17.4 23.9823 17.4C24.1939 17.4 24.3658 17.4702 24.4792 17.6028C24.5931 17.7368 24.6381 17.9238 24.6052 18.1299Z" fill="#179BD7"/>
<path d="M15.6537 13.8133L15.845 12.5986L15.419 12.5887H13.3848L14.7985 3.62486C14.8028 3.59779 14.8171 3.57256 14.8379 3.55465C14.8588 3.53673 14.8855 3.52686 14.9133 3.52686H18.3433C19.482 3.52686 20.2678 3.76381 20.6782 4.23151C20.8705 4.45092 20.993 4.68019 21.0523 4.93251C21.1144 5.19727 21.1155 5.51358 21.0548 5.89937L21.0504 5.92752V6.17471L21.2428 6.28369C21.4048 6.36962 21.5334 6.46799 21.6322 6.58062C21.7968 6.76821 21.9032 7.00663 21.9482 7.2893C21.9946 7.58001 21.9792 7.92594 21.9032 8.31758C21.8154 8.7681 21.6735 9.16047 21.4819 9.48153C21.3056 9.77736 21.0811 10.0227 20.8146 10.2129C20.56 10.3935 20.2576 10.5307 19.9157 10.6185C19.5844 10.7047 19.2067 10.7483 18.7924 10.7483H18.5254C18.3346 10.7483 18.1491 10.817 18.0036 10.9403C17.8577 11.0661 17.7611 11.2378 17.7315 11.4258L17.7114 11.5352L17.3735 13.6762L17.3581 13.7548C17.3541 13.7797 17.3472 13.7922 17.337 13.8006C17.3278 13.8082 17.3147 13.8133 17.3018 13.8133H15.6537Z" fill="#253B80"/>
<path d="M21.425 5.9563C21.4147 6.02175 21.4031 6.08867 21.3899 6.15742C20.9375 8.47983 19.39 9.28213 17.4135 9.28213H16.4072C16.1655 9.28213 15.9618 9.45764 15.9241 9.69607L15.4088 12.9638L15.2629 13.89C15.2384 14.0465 15.3592 14.1877 15.517 14.1877H17.302C17.5134 14.1877 17.6928 14.0341 17.7261 13.8257L17.7437 13.7349L18.0798 11.6023L18.1014 11.4854C18.1342 11.2762 18.3141 11.1226 18.5255 11.1226H18.7924C20.5217 11.1226 21.8755 10.4205 22.2712 8.38878C22.4364 7.54004 22.3509 6.83136 21.9135 6.33294C21.7812 6.18265 21.617 6.05795 21.425 5.9563Z" fill="#179BD7"/>
<path d="M20.9535 5.76807C20.8844 5.74796 20.8131 5.72967 20.7399 5.71322C20.6664 5.69713 20.5911 5.68287 20.5136 5.67044C20.2422 5.62656 19.9449 5.60571 19.6264 5.60571H16.938C16.8718 5.60571 16.8089 5.6207 16.7526 5.64777C16.6286 5.70737 16.5365 5.82476 16.5142 5.96846L15.9422 9.59086L15.9258 9.69653C15.9635 9.45811 16.1672 9.28258 16.4088 9.28258H17.4152C19.3917 9.28258 20.9393 8.47993 21.3916 6.15788C21.4051 6.08914 21.4164 6.02222 21.4266 5.95677C21.3122 5.89606 21.1882 5.84413 21.0547 5.79988C21.0219 5.78891 20.9879 5.77831 20.9535 5.76807Z" fill="#222D65"/>
<path d="M16.5117 5.96818C16.534 5.82446 16.6262 5.70708 16.7501 5.64784C16.8068 5.62078 16.8693 5.60579 16.9355 5.60579H19.624C19.9425 5.60579 20.2398 5.62663 20.511 5.67051C20.5886 5.68294 20.664 5.69721 20.7375 5.71329C20.8106 5.72975 20.8819 5.74804 20.951 5.76814C20.9854 5.77839 21.0194 5.78899 21.0526 5.7996C21.1861 5.84384 21.3101 5.89613 21.4245 5.95647C21.5591 5.09823 21.4235 4.51388 20.9595 3.98474C20.4479 3.40222 19.5245 3.15283 18.343 3.15283H14.9129C14.6716 3.15283 14.4658 3.32835 14.4284 3.56714L12.9998 12.6231C12.9715 12.8023 13.1098 12.964 13.2904 12.964H15.4081L15.9398 9.59056L16.5117 5.96818Z" fill="#253B80"/>
</g>
<defs>
<filter id="filter0_d_2479_22654" x="-20" y="-20" width="75" height="64" filterUnits="userSpaceOnUse" color-interpolation-filters="sRGB">
<feFlood flood-opacity="0" result="BackgroundImageFix"/>
<feColorMatrix in="SourceAlpha" type="matrix" values="0 0 0 0 0 0 0 0 0 0 0 0 0 0 0 0 0 0 127 0" result="hardAlpha"/>
<feOffset/>
<feGaussianBlur stdDeviation="10"/>
<feComposite in2="hardAlpha" operator="out"/>
<feColorMatrix type="matrix" values="0 0 0 0 0 0 0 0 0 0 0 0 0 0 0 0 0 0 0.07 0"/>
<feBlend mode="normal" in2="BackgroundImageFix" result="effect1_dropShadow_2479_22654"/>
<feBlend mode="normal" in="SourceGraphic" in2="effect1_dropShadow_2479_22654" result="shape"/>
</filter>
</defs>
</svg>
