<svg width="75" height="64" viewBox="0 0 75 64" fill="none" xmlns="http://www.w3.org/2000/svg">
<g filter="url(#filter0_d_2479_22648)">
<rect x="20.5" y="20.5" width="34" height="23" rx="3.5" fill="white" stroke="#DDDDE3"/>
<path fill-rule="evenodd" clip-rule="evenodd" d="M37.7518 37.1566C36.5603 38.1848 35.0146 38.8055 33.3257 38.8055C29.5571 38.8055 26.502 35.7149 26.502 31.9025C26.502 28.0901 29.5571 24.9995 33.3257 24.9995C35.0146 24.9995 36.5603 25.6202 37.7518 26.6484C38.9434 25.6202 40.489 24.9995 42.1779 24.9995C45.9466 24.9995 49.0017 28.0901 49.0017 31.9025C49.0017 35.7149 45.9466 38.8055 42.1779 38.8055C40.489 38.8055 38.9434 38.1848 37.7518 37.1566Z" fill="#ED0006"/>
<path fill-rule="evenodd" clip-rule="evenodd" d="M37.752 37.1566C39.2192 35.8904 40.1496 34.0064 40.1496 31.9025C40.1496 29.7986 39.2192 27.9146 37.752 26.6484C38.9435 25.6202 40.4891 24.9995 42.178 24.9995C45.9467 24.9995 49.0018 28.0901 49.0018 31.9025C49.0018 35.7149 45.9467 38.8055 42.178 38.8055C40.4891 38.8055 38.9435 38.1848 37.752 37.1566Z" fill="#F9A000"/>
<path fill-rule="evenodd" clip-rule="evenodd" d="M37.7512 37.1566C39.2185 35.8905 40.1489 34.0064 40.1489 31.9025C40.1489 29.7986 39.2185 27.9146 37.7512 26.6484C36.2839 27.9146 35.3535 29.7986 35.3535 31.9025C35.3535 34.0064 36.2839 35.8905 37.7512 37.1566Z" fill="#FF5E00"/>
</g>
<defs>
<filter id="filter0_d_2479_22648" x="0" y="0" width="75" height="64" filterUnits="userSpaceOnUse" color-interpolation-filters="sRGB">
<feFlood flood-opacity="0" result="BackgroundImageFix"/>
<feColorMatrix in="SourceAlpha" type="matrix" values="0 0 0 0 0 0 0 0 0 0 0 0 0 0 0 0 0 0 127 0" result="hardAlpha"/>
<feOffset/>
<feGaussianBlur stdDeviation="10"/>
<feComposite in2="hardAlpha" operator="out"/>
<feColorMatrix type="matrix" values="0 0 0 0 0 0 0 0 0 0 0 0 0 0 0 0 0 0 0.07 0"/>
<feBlend mode="normal" in2="BackgroundImageFix" result="effect1_dropShadow_2479_22648"/>
<feBlend mode="normal" in="SourceGraphic" in2="effect1_dropShadow_2479_22648" result="shape"/>
</filter>
</defs>
</svg>
