<svg width="17" height="16" viewBox="0 0 17 16" fill="none" xmlns="http://www.w3.org/2000/svg">
<mask id="path-1-inside-1_3045_9962" fill="white">
<path d="M10.6744 11.182L5.01754 5.52514C4.82426 5.33186 4.82426 5.01131 5.01754 4.81803C5.21082 4.62476 5.53137 4.62476 5.72465 4.81803L11.3815 10.4749C11.5748 10.6682 11.5748 10.9887 11.3815 11.182C11.1882 11.3753 10.8677 11.3753 10.6744 11.182Z"/>
</mask>
<path d="M10.6744 11.182L5.01754 5.52514C4.82426 5.33186 4.82426 5.01131 5.01754 4.81803C5.21082 4.62476 5.53137 4.62476 5.72465 4.81803L11.3815 10.4749C11.5748 10.6682 11.5748 10.9887 11.3815 11.182C11.1882 11.3753 10.8677 11.3753 10.6744 11.182Z" fill="#808089"/>
<path d="M11.3815 10.4749L5.72465 4.81803L4.31043 6.23224L9.96729 11.8891L11.3815 10.4749ZM5.72465 4.81803C5.9219 5.01528 5.9219 5.32789 5.72465 5.52514L4.31043 4.11092C3.72663 4.69472 3.72663 5.64844 4.31043 6.23224L5.72465 4.81803ZM5.72465 5.52514C5.5274 5.72239 5.21479 5.72239 5.01754 5.52514L6.43175 4.11092C5.84795 3.52712 4.89423 3.52712 4.31043 4.11092L5.72465 5.52514ZM5.01754 5.52514L10.6744 11.182L12.0886 9.76778L6.43175 4.11092L5.01754 5.52514ZM10.6744 11.182C10.4771 10.9847 10.4771 10.6721 10.6744 10.4749L12.0886 11.8891C12.6724 11.3053 12.6724 10.3516 12.0886 9.76778L10.6744 11.182ZM10.6744 10.4749C10.8716 10.2776 11.1843 10.2776 11.3815 10.4749L9.96729 11.8891C10.5511 12.4729 11.5048 12.4729 12.0886 11.8891L10.6744 10.4749Z" fill="#808089" mask="url(#path-1-inside-1_3045_9962)"/>
<path d="M5.01694 11.182C4.82366 10.9887 4.82366 10.6682 5.01694 10.4749L10.6738 4.81803C10.8671 4.62476 11.1876 4.62476 11.3809 4.81803C11.5742 5.01131 11.5742 5.33186 11.3809 5.52514L5.72404 11.182C5.53077 11.3753 5.21021 11.3753 5.01694 11.182Z" fill="#808089"/>
</svg>
