<svg width="65" height="16" viewBox="0 0 65 16" fill="none" xmlns="http://www.w3.org/2000/svg">
<path d="M23.5481 11.8232C23.5481 12.5183 23.5481 13.2134 23.5481 13.7926C23.5481 14.0243 23.5481 14.1402 23.2164 14.1402C22.7742 14.1402 22.332 14.1402 21.7793 14.1402C21.7793 11.5915 21.7793 9.0429 21.7793 6.37842C21.8898 6.37842 22.0004 6.37842 22.1109 6.37842C23.2164 6.37842 24.3219 6.37842 25.538 6.37842C26.0907 6.37842 26.5329 6.49427 27.0857 6.61011C28.0806 6.84181 28.6334 7.65273 28.6334 8.69536C28.7439 9.85383 28.4123 10.7806 27.5279 11.3598C27.5279 11.3598 27.5279 11.3598 27.4173 11.4757C27.8595 12.2866 28.3017 13.2134 28.8545 14.1402C28.3017 14.1402 27.749 14.1402 27.1962 14.1402C27.0857 14.1402 27.0857 14.0243 26.9751 13.9085C26.6435 13.3292 26.3118 12.6342 25.9802 12.0549C25.9802 11.9391 25.8696 11.8232 25.7591 11.8232C24.9852 11.8232 24.3219 11.8232 23.5481 11.8232ZM23.5481 7.88443C23.5481 8.69536 23.5481 9.39044 23.5481 10.2014L23.6586 10.3172C24.4325 10.3172 25.2063 10.3172 25.8696 10.3172C26.5329 10.3172 26.8646 9.85383 26.8646 9.15875C26.8646 8.46366 26.5329 8.00028 25.8696 8.00028C25.2063 7.88443 24.3219 7.88443 23.5481 7.88443Z" fill="#2622B7"/>
<path d="M38.8027 6.37842C39.3555 6.37842 39.9082 6.37842 40.461 6.37842C40.461 8.92705 40.461 11.4757 40.461 14.0243C39.9082 14.0243 39.3555 14.0243 38.8027 14.0243C38.8027 11.4757 38.8027 8.92705 38.8027 6.37842Z" fill="#2622B7"/>
<path d="M15.1449 7.30434L14.9238 7.76773C14.9238 9.85298 14.9238 11.9382 14.9238 14.0235C17.0243 14.0235 19.0142 14.0235 21.1146 14.0235C21.1146 13.5601 21.1146 13.0967 21.1146 12.5175C20.6724 12.5175 20.3408 12.5175 20.0091 12.5175C19.0142 12.5175 18.0192 12.5175 17.0243 12.5175C16.9137 12.5175 16.8032 12.4016 16.8032 12.4016C16.8032 11.9382 16.8032 11.359 16.8032 10.7798C18.2403 10.7798 19.6775 10.7798 21.1146 10.7798C21.1146 10.3164 21.1146 9.96882 21.1146 9.50543C19.6775 9.50543 18.2403 9.50543 16.8032 9.50543C16.8032 8.9262 16.8032 8.34696 16.8032 7.76773C18.3509 7.76773 19.788 7.76773 21.2252 7.76773C21.2252 7.30434 21.2252 6.84095 21.2252 6.26172C19.4564 6.26172 17.7981 6.26172 16.1399 6.26172L15.1449 7.30434Z" fill="#2622B7"/>
<path d="M1.87891 7.30469L8.18025 15.0664L19.4563 0.933105L8.18025 10.5484L1.87891 7.30469Z" fill="#ED6203"/>
<path d="M30.9539 6.37842C30.5117 6.37842 30.1801 6.37842 29.7379 6.37842C29.6274 6.37842 29.5168 6.37842 29.4062 6.37842C29.4062 9.0429 29.4062 11.5915 29.4062 14.1402C29.5168 14.1402 29.6274 14.1402 29.7379 14.1402C30.2907 14.1402 30.7328 14.1402 31.175 14.1402V6.37842H30.9539Z" fill="#2622B7"/>
<path d="M33.9364 7.88358C35.263 7.88358 36.479 7.88358 37.8056 7.88358H37.9162V6.37757C37.9162 6.26172 37.8056 6.26172 37.5845 6.26172C35.8157 6.26172 33.9364 6.26172 32.1676 6.26172C31.8359 6.26172 31.8359 6.26172 31.8359 6.72511C31.8359 8.57866 31.8359 10.4322 31.8359 12.2858C31.8359 12.7492 31.8359 13.2125 31.8359 13.6759C31.8359 13.7918 31.8359 13.9076 31.8359 13.9076V14.1393H32.057C32.4992 14.1393 33.052 14.1393 33.6047 14.1393H33.7153V13.7918C33.7153 13.2125 33.7153 12.7492 33.7153 12.2858C33.7153 12.0541 33.7153 11.8224 33.7153 11.5907C33.7153 11.0114 33.6047 11.1273 34.1575 11.1273C35.263 11.1273 36.479 11.1273 37.5845 11.1273C37.6951 11.1273 37.8056 11.1273 37.8056 10.8956C37.8056 10.5481 37.8056 10.3164 37.8056 10.0847C37.8056 9.85298 37.6951 9.73713 37.474 9.73713C36.2579 9.73713 35.1524 9.73713 33.9364 9.73713C33.8258 9.73713 33.7153 9.73713 33.6047 9.73713C33.6047 9.15789 33.6047 8.69451 33.6047 8.23112C33.6047 7.99942 33.6047 7.88358 33.9364 7.88358Z" fill="#2622B7"/>
<path d="M48.3076 14.1393L48.1971 14.0235C47.6443 13.2125 47.3127 12.4016 46.8705 11.4748C47.8654 10.7798 48.1971 9.85298 48.0865 8.57866C47.976 7.65188 47.5338 6.9568 46.7599 6.60926C46.2072 6.37757 45.6544 6.26172 44.9911 6.26172C43.8856 6.26172 42.6696 6.26172 41.5641 6.26172C41.343 6.26172 41.2324 6.37757 41.2324 6.60926C41.2324 8.9262 41.2324 11.359 41.2324 13.6759C41.2324 13.7918 41.2324 13.9076 41.2324 14.0235C41.8957 14.0235 42.4485 14.0235 43.0012 14.0235C43.0012 13.2125 43.0012 12.5175 43.0012 11.7065C43.7751 11.7065 44.4384 11.7065 45.2122 11.7065H45.3228L45.8755 12.7492C45.9861 12.9808 46.0966 13.2125 46.2072 13.4442C46.4283 13.9076 46.6494 14.1393 46.981 14.1393H48.3076ZM45.4333 10.4322C45.3228 10.4322 45.1017 10.4322 44.9911 10.4322C44.77 10.4322 44.4384 10.4322 44.2173 10.4322H43.0012V10.3164C43.0012 9.62128 43.0012 9.04205 43.0012 8.34696C43.0012 8.23112 43.0012 8.11527 43.2223 8.11527C43.8856 8.11527 44.4384 8.11527 45.1017 8.11527C45.3228 8.11527 45.4333 8.11527 45.5439 8.11527C46.0966 8.23112 46.4283 8.57866 46.4283 9.27374C46.4283 9.85298 46.0966 10.3164 45.4333 10.4322Z" fill="#2622B7"/>
<path d="M50.9637 7.88418C52.1798 7.88418 53.5064 7.88418 54.7224 7.88418C54.833 7.88418 54.9435 7.88418 55.0541 7.88418C55.0541 7.42079 55.0541 6.9574 55.0541 6.60986H49.1949C48.9738 6.60986 48.8633 6.72571 48.8633 6.9574C48.8633 9.39019 48.8633 11.7071 48.8633 14.1399C48.8633 14.1399 48.8633 14.2558 48.8633 14.3716C50.9637 14.3716 52.9536 14.3716 55.0541 14.3716C55.0541 13.9082 55.0541 13.329 55.0541 12.8656C54.9435 12.8656 54.833 12.8656 54.7224 12.8656C53.5064 12.8656 52.1798 12.8656 50.9637 12.8656C50.7426 12.8656 50.6321 12.7498 50.6321 12.5181C50.6321 12.0547 50.6321 11.7071 50.6321 11.3596C50.6321 11.1279 50.7426 11.012 50.9637 11.012C52.1798 11.012 53.3958 11.012 54.6119 11.012C54.7224 11.012 54.833 11.012 54.9435 11.012C54.9435 10.5487 54.9435 10.2011 54.9435 9.73773C54.833 9.73773 54.7224 9.73773 54.6119 9.73773C53.3958 9.73773 52.1798 9.73773 50.9637 9.73773C50.7426 9.73773 50.6321 9.62189 50.6321 9.39019C50.6321 8.9268 50.6321 8.57926 50.6321 8.23172C50.6321 8.00003 50.7426 7.88418 50.9637 7.88418Z" fill="#2622B7"/>
<path d="M63.1244 10.549C63.1244 9.96979 63.0139 9.39056 62.9033 8.92717C62.4611 7.65285 61.4662 6.95777 60.1396 6.84192C59.2552 6.72607 58.2602 6.72607 57.3758 6.72607C56.9336 6.72607 56.602 6.72607 56.1598 6.72607C55.9387 6.72607 55.8281 6.84192 55.8281 7.07362C55.8281 8.11624 55.8281 9.39056 55.8281 10.549C55.8281 11.7075 55.8281 12.9818 55.8281 14.0244C55.8281 14.2561 55.9387 14.372 56.1598 14.372C56.602 14.372 56.9336 14.372 57.3758 14.372C58.2602 14.372 59.2552 14.372 60.1396 14.2561C61.4662 14.1403 62.4611 13.4452 62.9033 12.1709C63.1244 11.5916 63.1244 11.0124 63.1244 10.549ZM59.6974 12.9818C59.1446 12.9818 58.4813 12.9818 57.818 12.9818C57.5969 12.9818 57.5969 12.866 57.5969 12.866V10.549V8.23209C57.5969 8.11624 57.5969 8.11624 57.818 8.11624C58.4813 8.11624 59.1446 8.11624 59.6974 8.11624C60.4712 8.23208 61.024 8.57963 61.2451 9.39056C61.4662 9.85394 61.4662 10.2015 61.4662 10.549C61.4662 11.0124 61.4662 11.36 61.2451 11.7075C61.024 12.5184 60.4712 12.866 59.6974 12.9818Z" fill="#2622B7"/>
</svg>
