<svg width="13" height="12" viewBox="0 0 13 12" fill="none" xmlns="http://www.w3.org/2000/svg">
<g clip-path="url(#clip0_2688_86753)">
<path d="M9.65991 9.44711C9.57504 9.14491 9.26138 8.96864 8.95903 9.05355L8.7304 9.11775L8.26617 9.77636C7.89893 10.2974 7.29724 10.6014 6.67137 10.6014C6.64679 10.6013 6.62221 10.6008 6.59766 10.5998C6.75865 10.6269 6.92162 10.6405 7.08487 10.6404C7.36753 10.6404 7.65478 10.6005 7.93969 10.5205L9.26637 10.148C9.56855 10.0631 9.74477 9.74934 9.65991 9.44711Z" fill="url(#paint0_linear_2688_86753)"/>
<path d="M9.65991 9.44711C9.57504 9.14491 9.26138 8.96864 8.95903 9.05355L8.7304 9.11775L8.26617 9.77636C7.89893 10.2974 7.29724 10.6014 6.67137 10.6014C6.64679 10.6013 6.62221 10.6008 6.59766 10.5998C6.75865 10.6269 6.92162 10.6405 7.08487 10.6404C7.36753 10.6404 7.65478 10.6005 7.93969 10.5205L9.26637 10.148C9.56855 10.0631 9.74477 9.74934 9.65991 9.44711Z" fill="url(#paint1_linear_2688_86753)"/>
<path d="M6.71917 10.8614C6.60759 10.8603 6.49631 10.8495 6.3866 10.8291C6.07795 10.7718 5.87421 10.4751 5.93153 10.1665C5.98884 9.85791 6.28556 9.65408 6.59411 9.71145C6.90121 9.76845 7.2172 9.64154 7.39961 9.38823L8.15575 8.3379C8.33917 8.08313 8.69437 8.02531 8.94911 8.20871C9.20385 8.39211 9.2617 8.7473 9.0783 9.00207L8.32216 10.0524C7.94969 10.5698 7.345 10.8676 6.71917 10.8614Z" fill="url(#paint2_linear_2688_86753)"/>
<path d="M8.18937 8.43457L7.80312 8.82082L7.39486 9.38791C7.2788 9.54909 7.10862 9.6588 6.92112 9.70282L6.02344 10.6005C6.10875 10.7202 6.23729 10.8021 6.38187 10.8288C6.49158 10.8492 6.60286 10.86 6.71444 10.8611C7.34027 10.8673 7.94496 10.5694 8.31741 10.0521L8.94087 9.18605L8.18937 8.43457Z" fill="url(#paint3_linear_2688_86753)"/>
<path d="M8.18937 8.43457L7.80312 8.82082L7.39486 9.38791C7.2788 9.54909 7.10862 9.6588 6.92112 9.70282L6.02344 10.6005C6.10875 10.7202 6.23729 10.8021 6.38187 10.8288C6.49158 10.8492 6.60286 10.86 6.71444 10.8611C7.34027 10.8673 7.94496 10.5694 8.31741 10.0521L8.94087 9.18605L8.18937 8.43457Z" fill="url(#paint4_linear_2688_86753)"/>
<path d="M5.66977 11.0611C5.65613 11.0594 5.64258 11.0576 5.62894 11.0556L4.58044 10.9032C4.2698 10.858 4.05457 10.5696 4.09974 10.2589C4.14429 9.95243 4.42578 9.73879 4.73166 9.7766C4.73576 9.77711 4.73984 9.77765 4.74396 9.77826L5.79246 9.93065C6.10067 9.97544 6.41232 9.83639 6.58467 9.57607L7.29903 8.49691C7.4723 8.23516 7.82492 8.16339 8.08674 8.33669C8.34846 8.50996 8.42021 8.86263 8.24696 9.12438L7.53258 10.2036C7.1261 10.8176 6.39853 11.1511 5.66977 11.0611Z" fill="url(#paint5_linear_2688_86753)"/>
<path d="M7.34487 8.71777L6.77405 9.28859L6.5838 9.57598C6.48314 9.72802 6.33478 9.8383 6.16751 9.89513L5.08594 10.9767L5.62807 11.0555C5.64171 11.0575 5.65526 11.0593 5.6689 11.061C6.39766 11.151 7.12521 10.8175 7.53171 10.2035L8.04905 9.42195L7.34487 8.71777Z" fill="url(#paint6_linear_2688_86753)"/>
<path d="M7.34487 8.71777L6.77405 9.28859L6.5838 9.57598C6.48314 9.72802 6.33478 9.8383 6.16751 9.89513L5.08594 10.9767L5.62807 11.0555C5.64171 11.0575 5.65526 11.0593 5.6689 11.061C6.39766 11.151 7.12521 10.8175 7.53171 10.2035L8.04905 9.42195L7.34487 8.71777Z" fill="url(#paint7_linear_2688_86753)"/>
<path d="M7.26279 8.63877C7.02054 8.43945 6.66232 8.47431 6.46275 8.71681L6.1192 9.13438C5.8638 9.00024 5.63545 8.81811 5.43741 8.58924L5.37223 8.51422C5.69582 8.31661 6.00827 8.1013 6.30816 7.86929C6.59461 7.6475 6.63984 7.23195 6.40971 6.9523C6.38376 6.92071 6.35483 6.89169 6.32332 6.86565C6.10884 6.68755 5.79764 6.66585 5.55689 6.82499C5.07827 7.14182 4.53895 7.3556 3.97324 7.45274C3.87724 7.4694 3.77948 7.47573 3.68222 7.47446C3.34903 7.47067 2.50151 7.46612 2.22513 7.51714C2.2226 7.51766 2.18573 7.52471 2.17005 7.52825C1.83206 7.60175 1.53094 7.79324 1.31016 8.05974L0.914062 8.53693V11.3632H1.34803C1.82981 11.3632 2.30646 11.2644 2.74856 11.073C2.94219 10.9823 3.15684 10.9461 3.36949 10.9681C3.36949 10.9681 4.85285 11.148 5.01073 11.148C5.58541 11.148 6.1447 10.8928 6.51858 10.4384L7.34058 9.43881C7.54015 9.19656 7.5053 8.83834 7.26279 8.63877Z" fill="url(#paint8_linear_2688_86753)"/>
<path d="M3.99342 7.4502C3.98667 7.45139 3.97999 7.45277 3.97324 7.45392C3.87724 7.47059 3.77948 7.47691 3.68222 7.47565C3.34903 7.47185 2.50151 7.4673 2.22513 7.51833C2.2226 7.51884 2.18573 7.5259 2.17005 7.52944C1.83206 7.60294 1.53094 7.79442 1.31016 8.06093L0.914062 8.53812V11.3644H1.34803C1.82981 11.3644 2.30646 11.2656 2.74856 11.0741C2.94219 10.9835 3.15684 10.9473 3.36949 10.9693C3.36949 10.9693 3.65763 11.0043 3.99342 11.0433V7.4502Z" fill="url(#paint9_linear_2688_86753)"/>
<path d="M6.31324 7.87028C6.01335 8.10229 5.7009 8.31759 5.37731 8.51521L5.44249 8.59024C5.64054 8.8191 5.86891 9.00124 6.12429 9.13537L5.64558 9.71713C5.60514 9.76628 5.55901 9.81046 5.50816 9.84874C5.09702 8.81765 4.26865 8.02528 1.96348 8.24135C1.66997 8.26886 1.38045 8.26788 1.10156 8.31813L1.31527 8.06071C1.53605 7.7942 1.83717 7.60272 2.17516 7.52922C2.19082 7.52568 2.22771 7.5186 2.23024 7.51811C2.50659 7.46709 3.35412 7.47163 3.68733 7.47543C3.78459 7.4767 3.88235 7.47037 3.97835 7.4537C4.54406 7.35656 5.08337 7.14278 5.562 6.82595C5.80275 6.66681 6.11395 6.68854 6.32843 6.86662C6.35994 6.89266 6.38887 6.92168 6.41482 6.95327C6.64491 7.23295 6.59969 7.64849 6.31324 7.87028Z" fill="url(#paint10_linear_2688_86753)"/>
<path d="M5.01339 11.1473C4.85362 11.1473 4.69448 11.1275 4.5396 11.0884L3.25325 10.7627C2.94894 10.6856 2.7647 10.3765 2.84174 10.0722C2.9188 9.76788 3.22799 9.58369 3.53223 9.66068L4.81857 9.98634C5.12122 10.063 5.44489 9.9567 5.6432 9.71559L6.46539 8.7161C6.66482 8.47366 7.02303 8.43884 7.26542 8.63822C7.50786 8.83763 7.54271 9.19582 7.34331 9.43826L6.52112 10.4378C6.14731 10.8922 5.5881 11.1473 5.01339 11.1473Z" fill="url(#paint11_linear_2688_86753)"/>
<path d="M6.3276 6.86664C6.11305 6.68851 5.80173 6.66683 5.56101 6.82595C5.08245 7.14274 4.54319 7.35646 3.97755 7.45351C3.88145 7.47027 3.78379 7.47653 3.68634 7.47543C3.54637 7.47374 3.31539 7.47198 3.07422 7.4743V9.74371C3.20404 9.65526 3.36965 9.62062 3.53385 9.66217L4.8202 9.98783C5.12284 10.0645 5.44652 9.95819 5.64482 9.71708L6.12344 9.13525C5.86811 9.00109 5.63957 8.81887 5.44155 8.59023L5.37637 8.515C5.7 8.31742 6.01247 8.10213 6.31237 7.87011C6.59889 7.64842 6.64403 7.23271 6.41383 6.95312C6.38796 6.92156 6.35909 6.8926 6.3276 6.86664Z" fill="url(#paint12_linear_2688_86753)"/>
<path d="M6.31246 7.87026C6.01257 8.10227 5.70012 8.31757 5.37653 8.51519L3.35765 9.64588L3.35739 9.64614C3.25509 9.65245 3.15733 9.68732 3.07422 9.7439V7.47442C3.31546 7.47215 3.5466 7.47391 3.68655 7.47543C3.78381 7.4767 3.88157 7.47037 3.97757 7.4537C4.54328 7.35656 5.08259 7.14278 5.56122 6.82595C5.80197 6.66681 6.11317 6.68854 6.32765 6.86662C6.35916 6.89266 6.38809 6.92168 6.41404 6.95327C6.64412 7.23292 6.59891 7.64847 6.31246 7.87026Z" fill="url(#paint13_linear_2688_86753)"/>
<path d="M6.31246 7.87026C6.01257 8.10227 5.70012 8.31757 5.37653 8.51519L3.35765 9.64588L3.35739 9.64614C3.25509 9.65245 3.15733 9.68732 3.07422 9.7439V7.47442C3.31546 7.47215 3.5466 7.47391 3.68655 7.47543C3.78381 7.4767 3.88157 7.47037 3.97757 7.4537C4.54328 7.35656 5.08259 7.14278 5.56122 6.82595C5.80197 6.66681 6.11317 6.68854 6.32765 6.86662C6.35916 6.89266 6.38809 6.92168 6.41404 6.95327C6.64412 7.23292 6.59891 7.64847 6.31246 7.87026Z" fill="url(#paint14_linear_2688_86753)"/>
<path d="M2.20454 11.6487H0.872539C0.666781 11.6487 0.5 11.4819 0.5 11.2762V7.09129C0.5 6.88556 0.666781 6.71875 0.872539 6.71875H2.20454C2.41027 6.71875 2.57708 6.88553 2.57708 7.09129V11.2761C2.57705 11.4819 2.41027 11.6487 2.20454 11.6487Z" fill="url(#paint15_linear_2688_86753)"/>
<path d="M2.57705 11.2745V8.43848H0.5V11.2745C0.5 11.4802 0.666781 11.647 0.872539 11.647H2.20454C2.41027 11.647 2.57705 11.4802 2.57705 11.2745Z" fill="url(#paint16_linear_2688_86753)"/>
<path d="M8.71952 7.45414L10.3522 7.96529C10.7888 8.10197 11.2336 7.77882 11.2385 7.32134L11.2569 5.61059C11.2584 5.47149 11.3024 5.33616 11.383 5.22275L12.3736 3.82791C12.6385 3.45493 12.4686 2.93204 12.0351 2.786L10.4137 2.23986C10.2819 2.19545 10.1668 2.11182 10.0838 2.00016L9.06339 0.626959C8.79053 0.259764 8.24071 0.259764 7.96785 0.626959L6.94741 2.00016C6.86444 2.11182 6.74933 2.19545 6.6175 2.23986L4.99617 2.786C4.56262 2.93204 4.39272 3.45493 4.65764 3.82791L5.64829 5.22275C5.72884 5.33616 5.77282 5.47149 5.77432 5.61059L5.79271 7.32134C5.79764 7.7788 6.24243 8.10197 6.67903 7.96529L8.31173 7.45414C8.44448 7.41258 8.58677 7.41258 8.71952 7.45414Z" fill="url(#paint17_linear_2688_86753)"/>
<path d="M4.59934 3.13672C4.49685 3.35012 4.50524 3.61388 4.65749 3.82824L5.64815 5.22308C5.7287 5.33649 5.77267 5.4718 5.77417 5.6109L5.79257 7.32165C5.79749 7.7791 6.24229 8.10228 6.67888 7.96559L8.31158 7.45445C8.44434 7.41289 8.58662 7.41289 8.71937 7.45445L10.3521 7.96559C10.7887 8.10228 11.2335 7.77913 11.2384 7.32165L11.2568 5.6109C11.2576 5.54429 11.2681 5.47816 11.2881 5.41461L4.59934 3.13672Z" fill="url(#paint18_linear_2688_86753)"/>
<path d="M12.4309 3.13672C12.5334 3.35012 12.525 3.61388 12.3728 3.82824L11.3821 5.22308C11.3016 5.33649 11.2576 5.4718 11.2561 5.6109L11.2377 7.32165C11.2328 7.7791 10.788 8.10228 10.3514 7.96559L8.7187 7.45445C8.58595 7.41289 8.44367 7.41289 8.31091 7.45445L6.67821 7.96559C6.24162 8.10228 5.79682 7.77913 5.7919 7.32165L5.7735 5.6109C5.7727 5.54429 5.76215 5.47816 5.74219 5.41461L12.4309 3.13672Z" fill="url(#paint19_linear_2688_86753)"/>
<path d="M12.0351 2.78604L10.4137 2.23988C10.2819 2.19547 10.1668 2.11183 10.0838 2.00018L9.06338 0.626977C8.92695 0.443367 8.72129 0.351562 8.51562 0.351562V7.42298C8.58439 7.42298 8.65316 7.43337 8.71953 7.45416L10.3522 7.9653C10.7888 8.10199 11.2336 7.77884 11.2385 7.32136L11.2569 5.61061C11.2584 5.47151 11.3024 5.3362 11.383 5.22279L12.3736 3.82795C12.6385 3.45497 12.4686 2.93208 12.0351 2.78604Z" fill="url(#paint20_linear_2688_86753)"/>
<path d="M12.0351 2.78604L10.4137 2.23988C10.2819 2.19547 10.1668 2.11183 10.0838 2.00018L9.06338 0.626977C8.92695 0.443367 8.72129 0.351562 8.51562 0.351562V7.42298C8.58439 7.42298 8.65316 7.43337 8.71953 7.45416L10.3522 7.9653C10.7888 8.10199 11.2336 7.77884 11.2385 7.32136L11.2569 5.61061C11.2584 5.47151 11.3024 5.3362 11.383 5.22279L12.3736 3.82795C12.6385 3.45497 12.4686 2.93208 12.0351 2.78604Z" fill="url(#paint21_linear_2688_86753)"/>
<path d="M5.74609 5.42383C5.76404 5.4841 5.77356 5.54657 5.77438 5.60945L5.79278 7.3202C5.7977 7.77766 6.2425 8.10084 6.67909 7.96415L8.3118 7.453C8.44455 7.41145 8.58683 7.41145 8.71959 7.453L10.3523 7.96415C10.7889 8.10084 11.2337 7.77768 11.2386 7.3202L11.257 5.60945C11.2577 5.5462 11.2676 5.48383 11.2853 5.42383H5.74609Z" fill="url(#paint22_linear_2688_86753)"/>
<path d="M8.63212 6.06065L9.5714 6.35472C9.82258 6.43335 10.0785 6.24745 10.0813 5.98427L10.0919 5.00008C10.0927 4.92006 10.118 4.84221 10.1644 4.77696L10.7343 3.97453C10.8867 3.75996 10.789 3.45913 10.5395 3.37511L9.6068 3.06091C9.53096 3.03536 9.46474 2.98725 9.417 2.92303L8.82996 2.13304C8.67298 1.9218 8.35669 1.9218 8.1997 2.13304L7.61266 2.92303C7.56493 2.98726 7.49871 3.03537 7.42287 3.06091L6.49012 3.37511C6.2407 3.45913 6.14297 3.75993 6.29536 3.97453L6.86529 4.77696C6.91162 4.84221 6.93692 4.92006 6.93778 5.00008L6.94837 5.98427C6.95121 6.24745 7.2071 6.43335 7.45826 6.35472L8.39754 6.06065C8.4739 6.03672 8.55576 6.03672 8.63212 6.06065Z" fill="url(#paint23_linear_2688_86753)"/>
</g>
<defs>
<linearGradient id="paint0_linear_2688_86753" x1="7.98061" y1="9.55069" x2="8.26873" y2="10.4691" gradientUnits="userSpaceOnUse">
<stop stop-color="#FFDFCF"/>
<stop offset="1" stop-color="#FFA78F"/>
</linearGradient>
<linearGradient id="paint1_linear_2688_86753" x1="8.97481" y1="10.3221" x2="8.23648" y2="9.96794" gradientUnits="userSpaceOnUse">
<stop stop-color="#F89580" stop-opacity="0"/>
<stop offset="0.286" stop-color="#EE8E79" stop-opacity="0.287"/>
<stop offset="0.762" stop-color="#D57B65" stop-opacity="0.765"/>
<stop offset="0.997" stop-color="#C5715A"/>
</linearGradient>
<linearGradient id="paint2_linear_2688_86753" x1="7.44644" y1="9.35745" x2="8.15777" y2="10.1048" gradientUnits="userSpaceOnUse">
<stop stop-color="#FFDFCF"/>
<stop offset="1" stop-color="#FFA78F"/>
</linearGradient>
<linearGradient id="paint3_linear_2688_86753" x1="8.41057" y1="10.381" x2="7.23553" y2="9.62468" gradientUnits="userSpaceOnUse">
<stop stop-color="#F89580" stop-opacity="0"/>
<stop offset="0.286" stop-color="#EE8E79" stop-opacity="0.287"/>
<stop offset="0.762" stop-color="#D57B65" stop-opacity="0.765"/>
<stop offset="0.997" stop-color="#C5715A"/>
</linearGradient>
<linearGradient id="paint4_linear_2688_86753" x1="7.45287" y1="9.78457" x2="7.70498" y2="10.721" gradientUnits="userSpaceOnUse">
<stop stop-color="#F89580" stop-opacity="0"/>
<stop offset="0.286" stop-color="#EE8E79" stop-opacity="0.287"/>
<stop offset="0.762" stop-color="#D57B65" stop-opacity="0.765"/>
<stop offset="0.997" stop-color="#C5715A"/>
</linearGradient>
<linearGradient id="paint5_linear_2688_86753" x1="6.24476" y1="9.60274" x2="7.15416" y2="10.5122" gradientUnits="userSpaceOnUse">
<stop stop-color="#FFDFCF"/>
<stop offset="1" stop-color="#FFA78F"/>
</linearGradient>
<linearGradient id="paint6_linear_2688_86753" x1="7.10355" y1="10.5553" x2="6.24516" y2="9.87095" gradientUnits="userSpaceOnUse">
<stop stop-color="#F89580" stop-opacity="0"/>
<stop offset="0.286" stop-color="#EE8E79" stop-opacity="0.287"/>
<stop offset="0.762" stop-color="#D57B65" stop-opacity="0.765"/>
<stop offset="0.997" stop-color="#C5715A"/>
</linearGradient>
<linearGradient id="paint7_linear_2688_86753" x1="6.54274" y1="10.0271" x2="6.68681" y2="11.0296" gradientUnits="userSpaceOnUse">
<stop stop-color="#F89580" stop-opacity="0"/>
<stop offset="0.286" stop-color="#EE8E79" stop-opacity="0.287"/>
<stop offset="0.762" stop-color="#D57B65" stop-opacity="0.765"/>
<stop offset="0.997" stop-color="#C5715A"/>
</linearGradient>
<linearGradient id="paint8_linear_2688_86753" x1="3.55355" y1="8.27872" x2="4.67004" y2="11.5922" gradientUnits="userSpaceOnUse">
<stop stop-color="#FFDFCF"/>
<stop offset="1" stop-color="#FFA78F"/>
</linearGradient>
<linearGradient id="paint9_linear_2688_86753" x1="3.16505" y1="9.4073" x2="1.97637" y2="9.4073" gradientUnits="userSpaceOnUse">
<stop stop-color="#F89580" stop-opacity="0"/>
<stop offset="0.286" stop-color="#EE8E79" stop-opacity="0.287"/>
<stop offset="0.762" stop-color="#D57B65" stop-opacity="0.765"/>
<stop offset="0.997" stop-color="#C5715A"/>
</linearGradient>
<linearGradient id="paint10_linear_2688_86753" x1="3.84192" y1="8.0474" x2="3.30166" y2="9.6501" gradientUnits="userSpaceOnUse">
<stop stop-color="#F89580" stop-opacity="0"/>
<stop offset="0.286" stop-color="#EE8E79" stop-opacity="0.287"/>
<stop offset="0.762" stop-color="#D57B65" stop-opacity="0.765"/>
<stop offset="0.997" stop-color="#C5715A"/>
</linearGradient>
<linearGradient id="paint11_linear_2688_86753" x1="5.57446" y1="10.0636" x2="6.33081" y2="10.808" gradientUnits="userSpaceOnUse">
<stop stop-color="#F89580" stop-opacity="0"/>
<stop offset="0.286" stop-color="#EE8E79" stop-opacity="0.287"/>
<stop offset="0.762" stop-color="#D57B65" stop-opacity="0.765"/>
<stop offset="0.997" stop-color="#C5715A"/>
</linearGradient>
<linearGradient id="paint12_linear_2688_86753" x1="4.87464" y1="8.41811" x2="6.47734" y2="9.4806" gradientUnits="userSpaceOnUse">
<stop stop-color="#F89580" stop-opacity="0"/>
<stop offset="0.286" stop-color="#EE8E79" stop-opacity="0.287"/>
<stop offset="0.762" stop-color="#D57B65" stop-opacity="0.765"/>
<stop offset="0.997" stop-color="#C5715A"/>
</linearGradient>
<linearGradient id="paint13_linear_2688_86753" x1="5.07841" y1="8.52433" x2="6.05083" y2="9.10059" gradientUnits="userSpaceOnUse">
<stop stop-color="#F89580" stop-opacity="0"/>
<stop offset="0.286" stop-color="#EE8E79" stop-opacity="0.287"/>
<stop offset="0.762" stop-color="#D57B65" stop-opacity="0.765"/>
<stop offset="0.997" stop-color="#C5715A"/>
</linearGradient>
<linearGradient id="paint14_linear_2688_86753" x1="4.9803" y1="7.8359" x2="6.03845" y2="7.40149" gradientUnits="userSpaceOnUse">
<stop stop-color="#F89580" stop-opacity="0"/>
<stop offset="0.286" stop-color="#EE8E79" stop-opacity="0.287"/>
<stop offset="0.762" stop-color="#D57B65" stop-opacity="0.765"/>
<stop offset="0.997" stop-color="#C5715A"/>
</linearGradient>
<linearGradient id="paint15_linear_2688_86753" x1="0.783336" y1="9.18374" x2="2.46453" y2="9.18374" gradientUnits="userSpaceOnUse">
<stop stop-color="#B3DAFE"/>
<stop offset="1" stop-color="#0182FC"/>
</linearGradient>
<linearGradient id="paint16_linear_2688_86753" x1="1.53854" y1="10.4781" x2="1.53854" y2="11.7352" gradientUnits="userSpaceOnUse">
<stop stop-color="#314DC9" stop-opacity="0"/>
<stop offset="0.276" stop-color="#304BC4" stop-opacity="0.276"/>
<stop offset="0.563" stop-color="#2B45B8" stop-opacity="0.563"/>
<stop offset="0.854" stop-color="#243BA3" stop-opacity="0.854"/>
<stop offset="1" stop-color="#1F3596"/>
</linearGradient>
<linearGradient id="paint17_linear_2688_86753" x1="7.24957" y1="3.47649" x2="11.5466" y2="7.77354" gradientUnits="userSpaceOnUse">
<stop stop-color="#FEF0AE"/>
<stop offset="1" stop-color="#FAC600"/>
</linearGradient>
<linearGradient id="paint18_linear_2688_86753" x1="7.97648" y1="5.15954" x2="8.60401" y2="3.6848" gradientUnits="userSpaceOnUse">
<stop stop-color="#FE9738" stop-opacity="0"/>
<stop offset="1" stop-color="#FE9738"/>
</linearGradient>
<linearGradient id="paint19_linear_2688_86753" x1="9.0019" y1="4.92659" x2="8.6494" y2="3.82498" gradientUnits="userSpaceOnUse">
<stop stop-color="#FE9738" stop-opacity="0"/>
<stop offset="1" stop-color="#FE9738"/>
</linearGradient>
<linearGradient id="paint20_linear_2688_86753" x1="9.11492" y1="4.18835" x2="7.7783" y2="4.23241" gradientUnits="userSpaceOnUse">
<stop stop-color="#FE9738" stop-opacity="0"/>
<stop offset="1" stop-color="#FE9738"/>
</linearGradient>
<linearGradient id="paint21_linear_2688_86753" x1="11.0693" y1="4.69357" x2="12.042" y2="5.00733" gradientUnits="userSpaceOnUse">
<stop stop-color="#FE9738" stop-opacity="0"/>
<stop offset="1" stop-color="#FE9738"/>
</linearGradient>
<linearGradient id="paint22_linear_2688_86753" x1="8.51568" y1="6.66325" x2="8.51568" y2="7.89906" gradientUnits="userSpaceOnUse">
<stop stop-color="#FE9738" stop-opacity="0"/>
<stop offset="1" stop-color="#FE9738"/>
</linearGradient>
<linearGradient id="paint23_linear_2688_86753" x1="9.98161" y1="5.96746" x2="6.24145" y2="2.22731" gradientUnits="userSpaceOnUse">
<stop stop-color="#FEF0AE"/>
<stop offset="1" stop-color="#FAC600"/>
</linearGradient>
<clipPath id="clip0_2688_86753">
<rect width="12" height="12" fill="white" transform="translate(0.5)"/>
</clipPath>
</defs>
</svg>
