<?xml version="1.0" encoding="UTF-8"?>
<svg id="Layer_1" data-name="Layer 1" xmlns="http://www.w3.org/2000/svg" viewBox="0 0 10 10">
  <defs>
    <style>
      .cls-1 {
        fill: #00ab56;
        stroke-width: 0px;
      }
    </style>
  </defs>
  <path class="cls-1" d="m7.39,3.85l-2.84,2.83c-.07.07-.16.11-.26.11s-.2-.04-.26-.11l-1.42-1.42c-.14-.15-.14-.39,0-.53.15-.15.39-.15.53,0l1.15,1.15,2.57-2.57c.15-.15.39-.15.53,0,.14.15.14.38,0,.53ZM5,0C2.24,0,0,2.25,0,5s2.24,5,5,5,5-2.24,5-5S7.75,0,5,0Z"/>
</svg>