<svg width="12" height="13" viewBox="0 0 12 13" fill="none" xmlns="http://www.w3.org/2000/svg">
<path d="M4.19531 9.74499V4.66499C4.19531 4.46499 4.25531 4.26999 4.36531 4.10499L5.73031 2.07499C5.94531 1.74999 6.48031 1.51999 6.93531 1.68999C7.42531 1.85499 7.75031 2.40499 7.64531 2.89499L7.38531 4.52999C7.36531 4.67999 7.40531 4.81499 7.49031 4.91999C7.57531 5.01499 7.70031 5.07499 7.83531 5.07499H9.89031C10.2853 5.07499 10.6253 5.23499 10.8253 5.51499C11.0153 5.78499 11.0503 6.13499 10.9253 6.48999L9.69531 10.235C9.54031 10.855 8.86531 11.36 8.19531 11.36H6.24531C5.91031 11.36 5.44031 11.245 5.22531 11.03L4.58531 10.535C4.34031 10.35 4.19531 10.055 4.19531 9.74499Z" fill="#A6A6B0"/>
<path d="M2.605 3.69H2.09C1.315 3.69 1 3.99 1 4.73V9.76C1 10.5 1.315 10.8 2.09 10.8H2.605C3.38 10.8 3.695 10.5 3.695 9.76V4.73C3.695 3.99 3.38 3.69 2.605 3.69Z" fill="#A6A6B0"/>
</svg>
