<svg width="15" height="15" viewBox="0 0 15 15" fill="none" xmlns="http://www.w3.org/2000/svg">
<path d="M7.32101 12.1565C5.28631 9.68588 3.26126 7.22784 1.22656 4.75726C1.59826 4.37295 1.96272 3.99648 2.32598 3.62001C2.80508 3.12432 3.2854 2.62863 3.76209 2.13138C3.84778 2.04197 3.93226 1.99805 4.0469 1.99805C6.23728 2.00275 8.42766 2.00118 10.6193 2.00432C10.6832 2.00432 10.7604 2.02158 10.8075 2.0702C11.6728 2.96589 12.5333 3.86628 13.4167 4.78863C11.382 7.2451 9.35571 9.69686 7.32101 12.1565ZM7.48996 11.5996C7.49962 11.6074 7.50927 11.6137 7.51893 11.6216C7.54186 11.5651 7.56479 11.5071 7.58651 11.449C8.34801 9.3596 9.10952 7.2702 9.87102 5.18079C9.9024 5.09451 9.93016 5.0302 10.0255 5.02549C10.9161 4.97216 11.8068 4.91098 12.6962 4.84981C12.8941 4.83569 13.0932 4.81843 13.2912 4.80275C13.2912 4.79334 13.2912 4.78392 13.2912 4.77451C12.2231 4.69922 11.1539 4.62393 10.0689 4.54863C10.2801 3.73608 10.4841 2.95177 10.688 2.16903C10.6784 2.16432 10.6699 2.15962 10.6603 2.15491C10.3538 2.90001 10.0472 3.6451 9.73586 4.40275C8.97797 3.6451 8.23578 2.90314 7.49358 2.16275C7.48634 2.17373 7.4791 2.18471 7.47307 2.19726C8.07889 2.96432 8.68592 3.73138 9.30381 4.51412C7.97028 4.51412 6.66691 4.51412 5.33941 4.51412C5.95971 3.72667 6.56433 2.96275 7.16774 2.19883C7.1605 2.18785 7.15205 2.17687 7.14481 2.16589C6.40141 2.90942 5.6568 3.65138 4.90375 4.40432C4.58152 3.63569 4.26775 2.89216 3.95518 2.14707C3.94674 2.15177 3.93708 2.15805 3.92863 2.16275C4.14104 2.95334 4.35344 3.74393 4.56946 4.54863C3.48935 4.62393 2.42976 4.69765 1.37017 4.77294C1.37017 4.7902 1.37017 4.80902 1.37138 4.82628C1.50775 4.82628 1.64412 4.81843 1.78049 4.82785C2.71216 4.89216 3.64262 4.96275 4.57428 5.02236C4.68048 5.02863 4.73358 5.06941 4.77824 5.19334C5.53612 7.28588 6.29762 9.37529 7.05913 11.4647C7.07844 11.518 7.10137 11.5682 7.12309 11.62C7.13274 11.6137 7.1424 11.6074 7.15205 11.6012C6.48106 9.42235 5.81007 7.24353 5.13546 5.05373C6.60174 5.05373 8.04631 5.05373 9.50656 5.05373C8.83074 7.2498 8.16096 9.42549 7.48996 11.5996Z" fill="url(#paint0_linear_3086_18310)"/>
<defs>
<linearGradient id="paint0_linear_3086_18310" x1="1.22711" y1="7.07693" x2="13.416" y2="7.07693" gradientUnits="userSpaceOnUse">
<stop offset="0.0864" stop-color="#F7E47D"/>
<stop offset="0.1624" stop-color="#E6C95F"/>
<stop offset="0.253" stop-color="#D6AF42"/>
<stop offset="0.343" stop-color="#CA9C2D"/>
<stop offset="0.4313" stop-color="#C39120"/>
<stop offset="0.516" stop-color="#C18D1C"/>
<stop offset="0.8502" stop-color="#E6C85E"/>
<stop offset="1" stop-color="#F7E47D"/>
</linearGradient>
</defs>
</svg>
