<svg width="16" height="17" viewBox="0 0 16 17" fill="none" xmlns="http://www.w3.org/2000/svg">
<path d="M14.9064 6.0135L14.7131 4.16683C14.4331 2.1535 13.5198 1.3335 11.5664 1.3335H9.9931H9.00643H6.97977H5.9931H4.3931C2.4331 1.3335 1.52643 2.1535 1.23977 4.18683L1.05977 6.02016C0.9931 6.7335 1.18643 7.42683 1.60643 7.96683C2.1131 8.62683 2.8931 9.00016 3.75977 9.00016C4.59977 9.00016 5.40643 8.58016 5.9131 7.90683C6.36643 8.58016 7.13977 9.00016 7.99977 9.00016C8.85977 9.00016 9.6131 8.60016 10.0731 7.9335C10.5864 8.5935 11.3798 9.00016 12.2064 9.00016C13.0931 9.00016 13.8931 8.60683 14.3931 7.9135C14.7931 7.38016 14.9731 6.70683 14.9064 6.0135Z" fill="#ED6203"/>
<path d="M7.56675 11.6065C6.72008 11.6932 6.08008 12.4132 6.08008 13.2665V15.0932C6.08008 15.2732 6.22674 15.4198 6.40674 15.4198H9.58675C9.76675 15.4198 9.91341 15.2732 9.91341 15.0932V13.4998C9.92008 12.1065 9.10008 11.4465 7.56675 11.6065Z" fill="#ED6203"/>
<path d="M14.2472 10.1001V12.0867C14.2472 13.9267 12.7539 15.4201 10.9139 15.4201C10.7339 15.4201 10.5872 15.2734 10.5872 15.0934V13.5001C10.5872 12.6467 10.3272 11.9801 9.82057 11.5267C9.37391 11.1201 8.76724 10.9201 8.01391 10.9201C7.84724 10.9201 7.68057 10.9267 7.50057 10.9467C6.31391 11.0667 5.41391 12.0667 5.41391 13.2667V15.0934C5.41391 15.2734 5.26724 15.4201 5.08724 15.4201C3.24724 15.4201 1.75391 13.9267 1.75391 12.0867V10.1134C1.75391 9.64672 2.21391 9.33339 2.64724 9.48672C2.82724 9.54672 3.00724 9.59339 3.19391 9.62005C3.27391 9.63339 3.36057 9.64672 3.44057 9.64672C3.54724 9.66005 3.65391 9.66672 3.76057 9.66672C4.53391 9.66672 5.29391 9.38005 5.89391 8.88672C6.46724 9.38005 7.21391 9.66672 8.00057 9.66672C8.79391 9.66672 9.52724 9.39339 10.1006 8.90005C10.7006 9.38672 11.4472 9.66672 12.2072 9.66672C12.3272 9.66672 12.4472 9.66005 12.5606 9.64672C12.6406 9.64005 12.7139 9.63339 12.7872 9.62005C12.9939 9.59339 13.1806 9.53339 13.3672 9.47339C13.8006 9.32672 14.2472 9.64672 14.2472 10.1001Z" fill="#ED6203"/>
</svg>
