<svg width="14" height="15" viewBox="0 0 14 15" fill="none" xmlns="http://www.w3.org/2000/svg">
<path d="M12.0281 5.42909C11.4156 2.73409 9.06481 1.52075 6.99981 1.52075C6.99981 1.52075 6.99981 1.52075 6.99398 1.52075C4.93481 1.52075 2.57814 2.72825 1.96564 5.42325C1.28314 8.43325 3.12648 10.9824 4.79481 12.5866C5.41314 13.1816 6.20648 13.4791 6.99981 13.4791C7.79314 13.4791 8.58648 13.1816 9.19898 12.5866C10.8673 10.9824 12.7106 8.43909 12.0281 5.42909ZM6.99981 8.35159C5.98481 8.35159 5.16231 7.52909 5.16231 6.51409C5.16231 5.49909 5.98481 4.67659 6.99981 4.67659C8.01481 4.67659 8.83731 5.49909 8.83731 6.51409C8.83731 7.52909 8.01481 8.35159 6.99981 8.35159Z" fill="#808089"/>
</svg>
