<svg width="16" height="16" viewBox="0 0 16 16" fill="none" xmlns="http://www.w3.org/2000/svg">
<path d="M10.3333 7.5H5.66663C5.39329 7.5 5.16663 7.27333 5.16663 7C5.16663 6.72667 5.39329 6.5 5.66663 6.5H10.3333C10.6066 6.5 10.8333 6.72667 10.8333 7C10.8333 7.27333 10.6066 7.5 10.3333 7.5Z" fill="#1F0A93"/>
<path d="M10.6667 14.88C10.44 14.88 10.2134 14.8134 10.02 14.6867L7.18003 12.7934H4.66671C2.37337 12.7934 0.833374 11.2534 0.833374 8.96004V4.96004C0.833374 2.66671 2.37337 1.12671 4.66671 1.12671H11.3334C13.6267 1.12671 15.1667 2.66671 15.1667 4.96004V8.96004C15.1667 11.08 13.8467 12.5601 11.8334 12.7667V13.7134C11.8334 14.1467 11.6 14.54 11.22 14.74C11.0467 14.8334 10.8534 14.88 10.6667 14.88ZM4.66671 2.12004C2.94671 2.12004 1.83337 3.23337 1.83337 4.95337V8.95337C1.83337 10.6734 2.94671 11.7867 4.66671 11.7867H7.33337C7.43337 11.7867 7.52672 11.8134 7.61338 11.8734L10.58 13.8467C10.6534 13.8934 10.72 13.8734 10.7534 13.8534C10.7867 13.8334 10.84 13.7934 10.84 13.7067V12.2867C10.84 12.0134 11.0667 11.7867 11.34 11.7867C13.06 11.7867 14.1734 10.6734 14.1734 8.95337V4.95337C14.1734 3.23337 13.06 2.12004 11.34 2.12004H4.66671Z" fill="#1F0A93"/>
</svg>
