<svg width="12" height="12" viewBox="0 0 12 12" fill="none" xmlns="http://www.w3.org/2000/svg">
<path d="M11.17 4.82374C11.016 4.72031 10.877 4.59623 10.7568 4.45499C10.7657 4.2584 10.8053 4.0644 10.874 3.87999C11.003 3.44249 11.164 2.89824 10.854 2.47249C10.5415 2.04324 9.97125 2.02899 9.513 2.01724C9.32018 2.02496 9.12728 2.00424 8.9405 1.95574C8.83789 1.79467 8.75955 1.61938 8.708 1.43549C8.555 0.999992 8.3645 0.457991 7.8545 0.292241C7.3595 0.131242 6.91525 0.436991 6.5235 0.705741C6.36604 0.83146 6.18925 0.930831 6 0.999991C5.81064 0.930904 5.63376 0.831527 5.47625 0.705741C5.085 0.436741 4.6405 0.131991 4.14575 0.292491C3.63575 0.458241 3.44525 0.999992 3.29225 1.43549C3.24074 1.61846 3.1632 1.79308 3.062 1.95399C2.87463 2.00399 2.68076 2.02531 2.487 2.01724C2.02875 2.02899 1.4585 2.04349 1.14625 2.47274C0.83625 2.89874 0.997 3.44274 1.12625 3.88024C1.19415 4.06372 1.23401 4.25638 1.2445 4.45174C1.12464 4.595 0.984893 4.72035 0.8295 4.82399C0.46 5.10574 0 5.45674 0 5.99999C0 6.54324 0.46 6.89424 0.83 7.17624C0.983969 7.27968 1.12302 7.40375 1.24325 7.54499C1.23428 7.74159 1.19472 7.93558 1.126 8.11999C0.997 8.55749 0.836 9.10174 1.146 9.52749C1.4585 9.95649 2.02875 9.97099 2.487 9.98274C2.67982 9.97502 2.87272 9.99574 3.0595 10.0442C3.16211 10.2053 3.24045 10.3806 3.292 10.5645C3.44525 11 3.6355 11.542 4.14575 11.7077C4.23611 11.7375 4.33062 11.7527 4.42575 11.7527C4.80975 11.7527 5.16025 11.5115 5.47675 11.2942C5.63413 11.1685 5.81084 11.0692 6 11C6.18927 11.0691 6.36607 11.1685 6.5235 11.2942C6.91525 11.5632 7.3595 11.8677 7.8545 11.7077C8.3645 11.542 8.555 11.0002 8.708 10.5647C8.75943 10.3818 8.83689 10.2072 8.938 10.0462C9.12537 9.99625 9.31924 9.97492 9.513 9.98299C9.97125 9.97124 10.5417 9.95674 10.854 9.52749C11.164 9.10149 11.0032 8.55749 10.874 8.11999C10.8061 7.93651 10.7662 7.74385 10.7557 7.54849C10.8755 7.40525 11.0152 7.2799 11.1705 7.17624C11.54 6.89424 12 6.54324 12 5.99999C12 5.45674 11.54 5.10574 11.17 4.82374ZM8.2285 5.10374L5.7285 7.60374C5.63474 7.69748 5.50758 7.75013 5.375 7.75013C5.24242 7.75013 5.11526 7.69748 5.0215 7.60374L3.7715 6.35374C3.72504 6.30732 3.68819 6.2522 3.66303 6.19153C3.63788 6.13087 3.62492 6.06584 3.6249 6.00017C3.62488 5.93449 3.63779 5.86946 3.6629 5.80877C3.68801 5.74809 3.72483 5.69295 3.77125 5.64649C3.81767 5.60004 3.87279 5.56318 3.93346 5.53803C3.99412 5.51287 4.05915 5.49991 4.12482 5.49989C4.1905 5.49987 4.25553 5.51278 4.31622 5.53789C4.3769 5.563 4.43204 5.59982 4.4785 5.64624L5.375 6.54299L7.5215 4.39649C7.56762 4.34874 7.6228 4.31064 7.6838 4.28444C7.7448 4.25824 7.81041 4.24444 7.8768 4.24387C7.94319 4.24329 8.00903 4.25594 8.07048 4.28108C8.13192 4.30622 8.18775 4.34335 8.2347 4.39029C8.28164 4.43724 8.31877 4.49307 8.34391 4.55451C8.36905 4.61596 8.3817 4.6818 8.38113 4.74819C8.38055 4.81458 8.36675 4.88019 8.34055 4.94119C8.31435 5.0022 8.27626 5.05737 8.2285 5.10349V5.10374Z" fill="#5CB3FF"/>
</svg>
