<svg width="14" height="15" viewBox="0 0 14 15" fill="none" xmlns="http://www.w3.org/2000/svg">
<path d="M6.56299 11.7811H6.93799H7.06299H7.43799H8.75049C9.11601 11.7811 9.41715 12.0823 9.41715 12.4478V12.5936V12.9686H4.58382V12.5936V12.4478C4.58382 12.0823 4.88496 11.7811 5.25049 11.7811H6.56299Z" fill="#FBBF24" stroke="#FBBF24"/>
<path d="M10.7806 7.42534C11.1656 7.2795 11.5039 7.04034 11.7722 6.772C12.3147 6.17117 12.6706 5.45367 12.6706 4.61367C12.6706 3.77367 12.0114 3.1145 11.1714 3.1145H10.8447C10.4656 2.33867 9.67223 1.802 8.75057 1.802H5.25057C4.3289 1.802 3.53557 2.33867 3.1564 3.1145H2.82973C1.98973 3.1145 1.33057 3.77367 1.33057 4.61367C1.33057 5.45367 1.6864 6.17117 2.2289 6.772C2.49723 7.04034 2.83557 7.2795 3.22057 7.42534C3.82723 8.91867 5.28557 9.96867 7.00057 9.96867C8.71557 9.96867 10.1739 8.91867 10.7806 7.42534ZM8.65723 5.5645L8.29557 6.00784C8.23723 6.072 8.1964 6.20034 8.20223 6.28784L8.23723 6.8595C8.26057 7.2095 8.00973 7.39034 7.68307 7.262L7.15223 7.052C7.07057 7.02284 6.93057 7.02284 6.8489 7.052L6.31807 7.262C5.9914 7.39034 5.74057 7.2095 5.7639 6.8595L5.7989 6.28784C5.80473 6.20034 5.7639 6.072 5.70557 6.00784L5.3439 5.5645C5.1164 5.29617 5.21557 4.99867 5.5539 4.91117L6.10807 4.77117C6.19557 4.74784 6.30057 4.66617 6.34723 4.59034L6.6564 4.112C6.8489 3.8145 7.15223 3.8145 7.34473 4.112L7.6539 4.59034C7.70057 4.66617 7.80557 4.74784 7.89307 4.77117L8.44723 4.91117C8.78557 4.99867 8.88473 5.29617 8.65723 5.5645Z" fill="#FBBF24"/>
</svg>
