<svg width="23" height="24" viewBox="0 0 23 24" fill="none" xmlns="http://www.w3.org/2000/svg">
<path d="M10 1.1547C11.2376 0.440169 12.7624 0.440169 14 1.1547L20.3923 4.8453C21.6299 5.55983 22.3923 6.88034 22.3923 8.3094V15.6906C22.3923 17.1197 21.6299 18.4402 20.3923 19.1547L14 22.8453C12.7624 23.5598 11.2376 23.5598 10 22.8453L3.6077 19.1547C2.37009 18.4402 1.6077 17.1197 1.6077 15.6906V8.3094C1.6077 6.88034 2.37009 5.55983 3.6077 4.8453L10 1.1547Z" fill="#45B36B"/>
<path d="M11.5 16.1666H10C9.26667 16.1666 8.66667 16.7666 8.66667 17.4999V17.6666H8C7.72667 17.6666 7.5 17.8932 7.5 18.1666C7.5 18.4399 7.72667 18.6666 8 18.6666H16C16.2733 18.6666 16.5 18.4399 16.5 18.1666C16.5 17.8932 16.2733 17.6666 16 17.6666H15.3333V17.4999C15.3333 16.7666 14.7333 16.1666 14 16.1666H12.5V14.6399C12.3333 14.6599 12.1667 14.6666 12 14.6666C11.8333 14.6666 11.6667 14.6599 11.5 14.6399V16.1666Z" fill="white"/>
<path d="M16.32 11.7599C16.76 11.5933 17.1467 11.3199 17.4534 11.0133C18.0734 10.3266 18.48 9.50659 18.48 8.54659C18.48 7.58659 17.7267 6.83325 16.7667 6.83325H16.3934C15.96 5.94659 15.0534 5.33325 14 5.33325H10C8.94669 5.33325 8.04002 5.94659 7.60669 6.83325H7.23335C6.27335 6.83325 5.52002 7.58659 5.52002 8.54659C5.52002 9.50659 5.92669 10.3266 6.54669 11.0133C6.85335 11.3199 7.24002 11.5933 7.68002 11.7599C8.37335 13.4666 10.04 14.6666 12 14.6666C13.96 14.6666 15.6267 13.4666 16.32 11.7599ZM13.8934 9.63325L13.48 10.1399C13.4134 10.2133 13.3667 10.3599 13.3734 10.4599L13.4134 11.1133C13.44 11.5133 13.1534 11.7199 12.78 11.5733L12.1734 11.3333C12.08 11.2999 11.92 11.2999 11.8267 11.3333L11.22 11.5733C10.8467 11.7199 10.56 11.5133 10.5867 11.1133L10.6267 10.4599C10.6334 10.3599 10.5867 10.2133 10.52 10.1399L10.1067 9.63325C9.84669 9.32659 9.96002 8.98659 10.3467 8.88659L10.98 8.72659C11.08 8.69992 11.2 8.60659 11.2534 8.51992L11.6067 7.97325C11.8267 7.63325 12.1734 7.63325 12.3934 7.97325L12.7467 8.51992C12.8 8.60659 12.92 8.69992 13.02 8.72659L13.6534 8.88659C14.04 8.98659 14.1534 9.32659 13.8934 9.63325Z" fill="white"/>
</svg>
