<svg width="16" height="17" viewBox="0 0 16 17" fill="none" xmlns="http://www.w3.org/2000/svg">
<path d="M6.65997 15.6667C6.52664 15.6667 6.41997 15.64 6.33997 15.6067C6.0733 15.5067 5.61997 15.18 5.61997 14.1467V9.84667H4.05997C3.16664 9.84667 2.84664 9.42667 2.7333 9.18C2.61997 8.92667 2.51997 8.41334 3.10664 7.74L8.1533 2.00667C8.8333 1.23334 9.38664 1.28667 9.6533 1.38667C9.91997 1.48667 10.3733 1.81334 10.3733 2.84667V7.14667H11.9333C12.8266 7.14667 13.1466 7.56667 13.26 7.81334C13.3733 8.06667 13.4733 8.58 12.8866 9.25334L7.83997 14.9867C7.36664 15.5267 6.9533 15.6667 6.65997 15.6667ZM9.28664 2.32667C9.26664 2.35334 9.12664 2.42 8.90664 2.67334L3.85997 8.40667C3.6733 8.62 3.64664 8.75334 3.64664 8.78C3.65997 8.78667 3.77997 8.85334 4.05997 8.85334H6.11997C6.3933 8.85334 6.61997 9.08 6.61997 9.35334V14.1533C6.61997 14.4867 6.67997 14.6333 6.70664 14.6733C6.72664 14.6467 6.86664 14.58 7.08664 14.3267L12.1333 8.59334C12.32 8.38 12.3466 8.24667 12.3466 8.22C12.3333 8.21334 12.2133 8.14667 11.9333 8.14667H9.8733C9.59997 8.14667 9.3733 7.92 9.3733 7.64667V2.84667C9.37997 2.51334 9.3133 2.37334 9.28664 2.32667Z" fill="white"/>
</svg>
