<svg width="17" height="16" viewBox="0 0 17 16" fill="none" xmlns="http://www.w3.org/2000/svg">
<path d="M13.9734 5.21329L8.84002 8.18663C8.63335 8.30663 8.37335 8.30663 8.16002 8.18663L3.02669 5.21329C2.66002 4.99996 2.56669 4.49996 2.84669 4.18663C3.04002 3.96663 3.26002 3.78663 3.49335 3.65996L7.10669 1.65996C7.88002 1.22663 9.13335 1.22663 9.90669 1.65996L13.52 3.65996C13.7534 3.78663 13.9734 3.97329 14.1667 4.18663C14.4334 4.49996 14.34 4.99996 13.9734 5.21329Z" fill="#7867D4"/>
<path d="M8.12003 9.42675V13.9734C8.12003 14.4801 7.60669 14.8134 7.15336 14.5934C5.78003 13.9201 3.46669 12.6601 3.46669 12.6601C2.65336 12.2001 1.98669 11.0401 1.98669 10.0867V6.64675C1.98669 6.12008 2.54003 5.78675 2.99336 6.04675L7.78669 8.82675C7.98669 8.95342 8.12003 9.18008 8.12003 9.42675Z" fill="#7867D4"/>
<path d="M8.88 9.42675V13.9734C8.88 14.4801 9.39334 14.8134 9.84667 14.5934C11.22 13.9201 13.5333 12.6601 13.5333 12.6601C14.3467 12.2001 15.0133 11.0401 15.0133 10.0867V6.64675C15.0133 6.12008 14.46 5.78675 14.0067 6.04675L9.21334 8.82675C9.01334 8.95342 8.88 9.18008 8.88 9.42675Z" fill="#7867D4"/>
</svg>
