<svg width="17" height="16" viewBox="0 0 17 16" fill="none" xmlns="http://www.w3.org/2000/svg">
<path d="M8.77969 5.22816C10.9288 5.60304 12.8994 6.07528 14.3846 6.55866C14.9745 6.75053 15.4208 6.92355 15.7623 7.08115L10.0534 0.584819C9.84523 0.347841 9.45208 0.278461 9.17513 0.429498L1.64066 4.54378C1.86907 4.52607 2.1306 4.5158 2.43839 4.5158H2.5012V4.56405C3.92878 4.56405 6.35852 4.80588 8.77969 5.22816ZM16.2311 7.67017C15.342 7.02576 12.3355 6.14381 8.69946 5.50996C6.2052 5.07512 3.94962 4.84985 2.43839 4.84985C1.85308 4.84985 1.37998 4.88382 1.04736 4.95235C0.717874 5.01973 0.526578 5.12166 0.502595 5.25842C0.414942 5.76093 2.60999 6.5835 5.73638 7.28644C5.74095 7.33583 5.74523 7.38437 5.75037 7.43548L5.76522 7.57709C5.79691 7.87431 5.83688 8.19266 5.88856 8.51701C5.97878 9.08376 6.13867 9.88149 6.3865 10.4634C6.45359 10.6201 6.5244 10.7526 6.59835 10.8628C6.59071 10.9014 6.5867 10.9406 6.58636 10.9799C6.58636 11.1589 6.66288 11.3196 6.78365 11.4338V14.2233C6.78365 14.2612 6.79871 14.2976 6.8255 14.3244C6.8523 14.3512 6.88865 14.3662 6.92655 14.3662C6.96445 14.3662 7.0008 14.3512 7.0276 14.3244C7.0544 14.2976 7.06945 14.2612 7.06945 14.2233V11.5877C7.07516 11.5892 7.08002 11.5917 7.08573 11.5929L7.19165 15.4405C7.19394 15.5178 7.25732 15.6506 7.33441 15.6506H7.33841C7.41721 15.3651 7.47945 15.5156 7.47717 15.437L7.37181 11.5826C7.46213 11.5588 7.54599 11.5151 7.61727 11.4547C7.68855 11.3944 7.74545 11.3189 7.78381 11.2337C8.85507 11.0869 9.80869 10.0679 10.2709 9.11402C10.3802 8.84243 10.4789 8.5667 10.5667 8.28745C10.5813 8.24177 10.5956 8.19666 10.6101 8.14927C12.1648 8.35227 13.5352 8.45648 14.5617 8.45648C15.7266 8.45648 16.4495 8.32257 16.4975 8.04762C16.5172 7.93627 16.4221 7.80865 16.2311 7.67017ZM10.2795 8.24891L10.2372 8.38167C10.1393 8.6809 10.0499 8.91559 10.0143 8.98954C9.62481 9.79269 8.79511 10.7569 7.83463 10.9359C7.83292 10.9116 7.83178 10.8874 7.82721 10.8637C9.01667 10.5025 9.68306 9.49918 10.0371 8.35398C10.0508 8.30973 10.0645 8.26547 10.0774 8.22093C10.0905 8.17496 10.1019 8.12842 10.1142 8.08217C10.2258 7.65846 10.3006 7.22248 10.3443 6.79706C10.3569 6.67515 10.3672 6.55409 10.3751 6.43446C10.3869 6.43248 10.3987 6.43143 10.4106 6.43132C10.4662 6.43132 10.5071 6.45616 10.5359 6.50127C10.581 6.57179 10.5956 6.69199 10.5896 6.84189C10.5756 7.18251 10.4525 7.67759 10.3218 8.11044C10.3078 8.15783 10.2938 8.2038 10.2795 8.24891ZM7.39837 11.2577C7.38666 11.2657 7.37609 11.2748 7.36353 11.2811C7.31708 11.3058 7.26542 11.3193 7.21278 11.3202C7.16619 11.3201 7.12012 11.3103 7.07745 11.2916C7.07431 11.2902 7.07231 11.2877 7.06945 11.2862C7.02946 11.2674 6.99356 11.2409 6.96381 11.2083C6.90553 11.1463 6.8728 11.0646 6.87216 10.9796C6.87216 10.9764 6.87387 10.9739 6.87387 10.9707C6.87416 10.9633 6.87759 10.957 6.87816 10.9496C6.88272 10.9005 6.89757 10.8557 6.9207 10.8148C6.92355 10.8097 6.92755 10.8051 6.93069 10.8C6.95724 10.7581 6.99275 10.7227 7.03467 10.6962C7.0766 10.6697 7.12388 10.6529 7.17309 10.647C7.18651 10.6452 7.1985 10.639 7.21249 10.639C7.2676 10.639 7.31785 10.6552 7.36382 10.6784C7.4175 10.7055 7.46004 10.7472 7.49287 10.7974C7.51942 10.8383 7.53684 10.8834 7.54398 10.9336C7.54569 10.9447 7.55026 10.955 7.55055 10.9664C7.55083 10.971 7.55311 10.975 7.55311 10.9799C7.55311 11.0264 7.54341 11.0704 7.52656 11.1106C7.49962 11.1714 7.45494 11.2227 7.39837 11.2577ZM6.05958 7.64219L6.04445 7.50086C6.03931 7.45032 6.03417 7.40093 6.0296 7.35153C5.97606 6.78861 5.94197 6.224 5.92739 5.65871L6.21291 5.65729C6.21291 5.65729 6.20805 5.80119 6.20577 6.04102C6.20462 6.17692 6.20405 6.34281 6.20605 6.53239C6.20834 6.78564 6.21576 7.08058 6.23118 7.3955C6.23346 7.44376 6.23632 7.49287 6.23917 7.54226C6.24174 7.5888 6.24403 7.63505 6.24717 7.68216C6.26287 7.93342 6.28428 8.19352 6.31226 8.45334C6.38707 9.14857 6.50984 9.84237 6.69086 10.3352C6.71713 10.4066 6.74539 10.4722 6.77423 10.5342C6.76566 10.5425 6.75881 10.5522 6.75082 10.561C6.71384 10.4928 6.67992 10.423 6.64917 10.3517C6.44075 9.86207 6.28171 9.16913 6.17065 8.47218C6.12712 8.19643 6.09008 7.91969 6.05958 7.64219ZM9.78813 8.17924C9.77499 8.2235 9.76329 8.26804 9.7493 8.31229C9.42667 9.32102 8.82452 10.2766 7.70986 10.6033C7.652 10.526 7.57699 10.4632 7.49073 10.4198C7.40447 10.3765 7.30932 10.3538 7.21278 10.3534C7.1454 10.3534 7.08144 10.3669 7.02034 10.3869C6.9979 10.3373 6.97723 10.2869 6.95839 10.2358C6.80364 9.81468 6.6783 9.1874 6.59578 8.4225C6.57167 8.1967 6.55216 7.97043 6.53725 7.74383C6.53411 7.69672 6.53068 7.64933 6.52811 7.60307L6.52012 7.45603C7.61676 7.68415 8.72002 7.87924 9.82839 8.04106C9.81611 8.08731 9.80183 8.13328 9.78813 8.17924Z" fill="#ED6203"/>
</svg>
