<svg width="52" height="13" viewBox="0 0 52 13" fill="none" xmlns="http://www.w3.org/2000/svg">
<path d="M18.3973 9.57998C18.3973 10.1701 18.3973 10.7603 18.3973 11.2521C18.3973 11.4488 18.3973 11.5472 18.1157 11.5472C17.7403 11.5472 17.3648 11.5472 16.8955 11.5472C16.8955 9.38326 16.8955 7.21933 16.8955 4.95703C16.9894 4.95703 17.0832 4.95703 17.1771 4.95703C18.1157 4.95703 19.0544 4.95703 20.0869 4.95703C20.5562 4.95703 20.9316 5.05539 21.4009 5.15375C22.2457 5.35047 22.715 6.039 22.715 6.92424C22.8089 7.90785 22.5273 8.69474 21.7764 9.18654C21.7764 9.18654 21.7764 9.18654 21.6825 9.2849C22.058 9.97343 22.4334 10.7603 22.9027 11.5472C22.4334 11.5472 21.9641 11.5472 21.4948 11.5472C21.4009 11.5472 21.4009 11.4488 21.3071 11.3505C21.0255 10.8587 20.7439 10.2685 20.4623 9.7767C20.4623 9.67834 20.3684 9.57998 20.2746 9.57998C19.6175 9.57998 19.0544 9.57998 18.3973 9.57998ZM18.3973 6.23572C18.3973 6.92424 18.3973 7.51441 18.3973 8.20293L18.4912 8.30129C19.1482 8.30129 19.8053 8.30129 20.3684 8.30129C20.9316 8.30129 21.2132 7.90785 21.2132 7.31769C21.2132 6.72752 20.9316 6.33408 20.3684 6.33408C19.8053 6.23572 19.0544 6.23572 18.3973 6.23572Z" fill="#2622B7"/>
<path d="M31.3506 4.95703C31.8199 4.95703 32.2892 4.95703 32.7585 4.95703C32.7585 7.12097 32.7585 9.2849 32.7585 11.4488C32.2892 11.4488 31.8199 11.4488 31.3506 11.4488C31.3506 9.2849 31.3506 7.12097 31.3506 4.95703Z" fill="#2622B7"/>
<path d="M11.2639 5.74291L11.0762 6.13635C11.0762 7.90685 11.0762 9.67734 11.0762 11.4478C12.8596 11.4478 14.5491 11.4478 16.3325 11.4478C16.3325 11.0544 16.3325 10.6609 16.3325 10.1691C15.9571 10.1691 15.6755 10.1691 15.3939 10.1691C14.5491 10.1691 13.7043 10.1691 12.8596 10.1691C12.7657 10.1691 12.6718 10.0708 12.6718 10.0708C12.6718 9.67734 12.6718 9.18553 12.6718 8.69373C13.8921 8.69373 15.1123 8.69373 16.3325 8.69373C16.3325 8.30029 16.3325 8.00521 16.3325 7.61176C15.1123 7.61176 13.8921 7.61176 12.6718 7.61176C12.6718 7.11996 12.6718 6.62816 12.6718 6.13635C13.9859 6.13635 15.2062 6.13635 16.4264 6.13635C16.4264 5.74291 16.4264 5.34947 16.4264 4.85767C14.9246 4.85767 13.5166 4.85767 12.1087 4.85767L11.2639 5.74291Z" fill="#2622B7"/>
<path d="M0 5.74333L5.3502 12.3335L14.9242 0.333496L5.3502 8.49743L0 5.74333Z" fill="#ED6203"/>
<path d="M24.6862 4.95703C24.3107 4.95703 24.0291 4.95703 23.6537 4.95703C23.5598 4.95703 23.4659 4.95703 23.3721 4.95703C23.3721 7.21933 23.3721 9.38326 23.3721 11.5472C23.4659 11.5472 23.5598 11.5472 23.6537 11.5472C24.123 11.5472 24.4984 11.5472 24.8739 11.5472V4.95703H24.6862Z" fill="#2622B7"/>
<path d="M27.2199 6.23472C28.3463 6.23472 29.3788 6.23472 30.5051 6.23472H30.599V4.95603C30.599 4.85767 30.5051 4.85767 30.3174 4.85767C28.8156 4.85767 27.2199 4.85767 25.7181 4.85767C25.4365 4.85767 25.4365 4.85767 25.4365 5.25111C25.4365 6.82488 25.4365 8.39865 25.4365 9.97242C25.4365 10.3659 25.4365 10.7593 25.4365 11.1527C25.4365 11.2511 25.4365 11.3495 25.4365 11.3495V11.5462H25.6243C25.9997 11.5462 26.469 11.5462 26.9383 11.5462H27.0322V11.2511C27.0322 10.7593 27.0322 10.3659 27.0322 9.97242C27.0322 9.7757 27.0322 9.57898 27.0322 9.38226C27.0322 8.89045 26.9383 8.98881 27.4077 8.98881C28.3463 8.98881 29.3788 8.98881 30.3174 8.98881C30.4113 8.98881 30.5051 8.98881 30.5051 8.79209C30.5051 8.49701 30.5051 8.30029 30.5051 8.10357C30.5051 7.90685 30.4113 7.80849 30.2235 7.80849C29.1911 7.80849 28.2524 7.80849 27.2199 7.80849C27.1261 7.80849 27.0322 7.80849 26.9383 7.80849C26.9383 7.31668 26.9383 6.92324 26.9383 6.5298C26.9383 6.33308 26.9383 6.23472 27.2199 6.23472Z" fill="#2622B7"/>
<path d="M39.4213 11.5462L39.3274 11.4478C38.8581 10.7593 38.5765 10.0708 38.2011 9.2839C39.0459 8.69373 39.3274 7.90685 39.2336 6.82488C39.1397 6.03799 38.7643 5.44783 38.1072 5.15275C37.6379 4.95603 37.1686 4.85767 36.6054 4.85767C35.6668 4.85767 34.6343 4.85767 33.6957 4.85767C33.5079 4.85767 33.4141 4.95603 33.4141 5.15275C33.4141 7.11996 33.4141 9.18553 33.4141 11.1527C33.4141 11.2511 33.4141 11.3495 33.4141 11.4478C33.9772 11.4478 34.4466 11.4478 34.9159 11.4478C34.9159 10.7593 34.9159 10.1691 34.9159 9.48062C35.5729 9.48062 36.1361 9.48062 36.7931 9.48062H36.887L37.3563 10.3659C37.4502 10.5626 37.544 10.7593 37.6379 10.956C37.8256 11.3495 38.0134 11.5462 38.2949 11.5462H39.4213ZM36.9809 8.39865C36.887 8.39865 36.6993 8.39865 36.6054 8.39865C36.4177 8.39865 36.1361 8.39865 35.9484 8.39865H34.9159V8.30029C34.9159 7.71013 34.9159 7.21832 34.9159 6.62816C34.9159 6.5298 34.9159 6.43144 35.1036 6.43144C35.6668 6.43144 36.1361 6.43144 36.6993 6.43144C36.887 6.43144 36.9809 6.43144 37.0747 6.43144C37.544 6.5298 37.8256 6.82488 37.8256 7.41504C37.8256 7.90685 37.544 8.30029 36.9809 8.39865Z" fill="#2622B7"/>
<path d="M41.676 6.23553C42.7085 6.23553 43.8348 6.23553 44.8673 6.23553C44.9612 6.23553 45.055 6.23553 45.1489 6.23553C45.1489 5.84209 45.1489 5.44865 45.1489 5.15356H40.1742C39.9864 5.15356 39.8926 5.25192 39.8926 5.44865C39.8926 7.51422 39.8926 9.48143 39.8926 11.547C39.8926 11.547 39.8926 11.6454 39.8926 11.7437C41.676 11.7437 43.3655 11.7437 45.1489 11.7437C45.1489 11.3503 45.1489 10.8585 45.1489 10.465C45.055 10.465 44.9612 10.465 44.8673 10.465C43.8348 10.465 42.7085 10.465 41.676 10.465C41.4883 10.465 41.3944 10.3667 41.3944 10.17C41.3944 9.77652 41.3944 9.48143 41.3944 9.18635C41.3944 8.98963 41.4883 8.89127 41.676 8.89127C42.7085 8.89127 43.741 8.89127 44.7735 8.89127C44.8673 8.89127 44.9612 8.89127 45.0551 8.89127C45.0551 8.49783 45.0551 8.20274 45.0551 7.8093C44.9612 7.8093 44.8673 7.8093 44.7735 7.8093C43.741 7.8093 42.7085 7.8093 41.676 7.8093C41.4883 7.8093 41.3944 7.71094 41.3944 7.51422C41.3944 7.12078 41.3944 6.8257 41.3944 6.53061C41.3944 6.33389 41.4883 6.23553 41.676 6.23553Z" fill="#2622B7"/>
<path d="M52.0006 8.49761C52.0006 8.00581 51.9068 7.514 51.8129 7.12056C51.4375 6.03859 50.5927 5.44843 49.4663 5.35007C48.7154 5.25171 47.8707 5.25171 47.1197 5.25171C46.7443 5.25171 46.4627 5.25171 46.0873 5.25171C45.8995 5.25171 45.8057 5.35007 45.8057 5.54679C45.8057 6.43204 45.8057 7.514 45.8057 8.49761C45.8057 9.48122 45.8057 10.5632 45.8057 11.4484C45.8057 11.6452 45.8995 11.7435 46.0873 11.7435C46.4627 11.7435 46.7443 11.7435 47.1197 11.7435C47.8707 11.7435 48.7154 11.7435 49.4663 11.6452C50.5927 11.5468 51.4375 10.9566 51.8129 9.87466C52.0006 9.38286 52.0006 8.89105 52.0006 8.49761ZM49.0909 10.5632C48.6216 10.5632 48.0584 10.5632 47.4952 10.5632C47.3075 10.5632 47.3075 10.4648 47.3075 10.4648V8.49761V6.5304C47.3075 6.43204 47.3075 6.43204 47.4952 6.43204C48.0584 6.43204 48.6216 6.43204 49.0909 6.43204C49.7479 6.5304 50.2172 6.82548 50.405 7.514C50.5927 7.90745 50.5927 8.20253 50.5927 8.49761C50.5927 8.89105 50.5927 9.18614 50.405 9.48122C50.2172 10.1697 49.7479 10.4648 49.0909 10.5632Z" fill="#2622B7"/>
</svg>
