<svg width="918" height="32" viewBox="0 0 918 32" fill="none" xmlns="http://www.w3.org/2000/svg">
    <g clip-path="url(#clip0_294_162167)">
        <mask id="path-1-inside-1_294_162167" fill="white">
            <path d="M0 8C0 3.58172 3.58172 0 8 0H918V32H0V8Z" />
        </mask>
        <path d="M0 8C0 3.58172 3.58172 0 8 0H918V32H0V8Z" fill="#FFFCED" />
        <rect width="9" height="31" fill="#FFD530" />
        <rect x="6" width="9" height="31" fill="#FFE880" />
        <rect x="12" width="9" height="31" fill="#FFF5C7" />
        <path d="M40.9999 8L43.3058 10.7161H38.6939L40.9999 8Z" fill="url(#paint0_linear_294_162167)" />
        <path d="M40.9999 23.5L38.6939 20.7839L43.3059 20.7839L40.9999 23.5Z" fill="url(#paint1_linear_294_162167)" />
        <g filter="url(#filter0_f_294_162167)">
            <path
                d="M40.9999 8.7243L41.267 9.54187L42.0794 9.81075L41.267 10.0796L40.9999 10.8972L40.7327 10.0796L39.9204 9.81075L40.7327 9.54187L40.9999 8.7243Z"
                fill="white" />
            <path
                d="M40.9999 9.04625L41.172 9.57293L41.1877 9.62094L41.2356 9.6368L41.7611 9.81075L41.2356 9.9847L41.1877 10.0006L41.172 10.0486L40.9999 10.5753L40.8278 10.0486L40.8121 10.0006L40.7642 9.9847L40.2386 9.81075L40.7642 9.6368L40.8121 9.62094L40.8278 9.57293L40.9999 9.04625Z"
                stroke="#FAFF00" stroke-width="0.2" />
        </g>
        <path d="M47.6686 19.625L44.1785 20.2769L46.4845 16.257L47.6686 19.625Z"
            fill="url(#paint2_linear_294_162167)" />
        <path d="M34.3314 11.875L37.8215 11.2232L35.5155 15.243L34.3314 11.875Z"
            fill="url(#paint3_linear_294_162167)" />
        <path d="M47.6685 11.875L46.4844 15.243L44.1784 11.2231L47.6685 11.875Z"
            fill="url(#paint4_linear_294_162167)" />
        <path d="M34.3312 19.625L35.5154 16.257L37.8214 20.2769L34.3312 19.625Z"
            fill="url(#paint5_linear_294_162167)" />
        <path
            d="M46.4732 15.6776C46.4732 18.6846 44.052 21.1168 41.072 21.1168C38.0921 21.1168 35.6709 18.6846 35.6709 15.6776C35.6709 12.6705 38.0921 10.2383 41.072 10.2383C44.052 10.2383 46.4732 12.6705 46.4732 15.6776Z"
            fill="url(#paint6_linear_294_162167)" stroke="url(#paint7_linear_294_162167)" />
        <g filter="url(#filter1_i_294_162167)">
            <ellipse cx="41.0721" cy="15.6776" rx="5.18149" ry="5.21495" fill="url(#paint8_linear_294_162167)" />
        </g>
        <g filter="url(#filter2_ii_294_162167)">
            <ellipse cx="41.0718" cy="15.6776" rx="4.3179" ry="4.34579" fill="url(#paint9_linear_294_162167)" />
        </g>
    </g>
    <path d="M0 0H918H0ZM918 33H0V31H918V33ZM0 32V0V32ZM918 0V32V0Z" fill="#FFE880"
        mask="url(#path-1-inside-1_294_162167)" />
    <defs>
        <clipPath id="clip0_294_162167">
            <path d="M0 8C0 3.58172 3.58172 0 8 0H918V32H0V8Z" fill="white" />
        </clipPath>
    </defs>
</svg>