<svg width="23" height="15" viewBox="0 0 23 15" fill="none" xmlns="http://www.w3.org/2000/svg">
<g clip-path="url(#clip0_325_3612)">
<rect x="0.25" y="0.25" width="22.5" height="13.6538" rx="2.40385" fill="url(#paint0_linear_325_3612)" stroke="#F9F9F9" stroke-width="0.5"/>
<path d="M6.47332 6.98031C5.3246 6.98031 4.3877 6.07481 4.3877 4.96458C4.3877 3.85436 5.3246 2.94885 6.47332 2.94885C7.62204 2.94885 8.55895 3.85436 8.55895 4.96458C8.55895 6.07481 7.62204 6.98031 6.47332 6.98031ZM6.47332 4.12994C6.0008 4.12994 5.60974 4.50789 5.60974 4.96458C5.60974 5.42127 6.0008 5.79922 6.47332 5.79922C6.94585 5.79922 7.3369 5.42127 7.3369 4.96458C7.3369 4.50789 6.94585 4.12994 6.47332 4.12994Z" fill="white"/>
<path d="M9.32497 10.9488C9.01538 10.9488 8.74653 10.7205 8.71395 10.4134C8.62433 9.56301 7.91554 8.87798 7.02752 8.79924C6.65276 8.76775 6.278 8.76775 5.90324 8.79924C5.01522 8.87798 4.30643 9.55514 4.21681 10.4134C4.18423 10.7362 3.88279 10.9803 3.54876 10.941C3.21474 10.9095 2.97033 10.6181 3.00291 10.2953C3.14956 8.87798 4.31458 7.75201 5.78918 7.62602C6.23726 7.58665 6.69349 7.58665 7.14158 7.62602C8.60803 7.75988 9.7812 8.88586 9.92784 10.2953C9.96043 10.6181 9.71602 10.9095 9.382 10.941C9.3657 10.9488 9.34126 10.9488 9.32497 10.9488Z" fill="white"/>
<path d="M19.2052 4.26328H13.8092C13.3667 4.26328 12.9998 3.97696 12.9998 3.6317C12.9998 3.28644 13.3667 3.00012 13.8092 3.00012H19.2052C19.6477 3.00012 20.0146 3.28644 20.0146 3.6317C20.0146 3.97696 19.6477 4.26328 19.2052 4.26328Z" fill="white"/>
<path d="M19.2051 7.63193H14.8883C14.4458 7.63193 14.0789 7.34562 14.0789 7.00035C14.0789 6.65509 14.4458 6.36877 14.8883 6.36877H19.2051C19.6476 6.36877 20.0145 6.65509 20.0145 7.00035C20.0145 7.34562 19.6476 7.63193 19.2051 7.63193Z" fill="white"/>
<path d="M19.2054 11.0001H17.047C16.6045 11.0001 16.2375 10.7138 16.2375 10.3685C16.2375 10.0233 16.6045 9.73694 17.047 9.73694H19.2054C19.6478 9.73694 20.0148 10.0233 20.0148 10.3685C20.0148 10.7138 19.6478 11.0001 19.2054 11.0001Z" fill="white"/>
</g>
<defs>
<linearGradient id="paint0_linear_325_3612" x1="2.5" y1="1" x2="20" y2="14" gradientUnits="userSpaceOnUse">
<stop stop-color="#9996EA"/>
<stop offset="0.536458" stop-color="#A29FED"/>
<stop offset="1" stop-color="#967BE2"/>
</linearGradient>
<clipPath id="clip0_325_3612">
<rect width="23" height="14.1538" fill="white"/>
</clipPath>
</defs>
</svg>
