<svg width="44" height="20" viewBox="0 0 44 20" fill="none" xmlns="http://www.w3.org/2000/svg">
<path d="M0 19.1725V0.362305H16.0426C17.4631 0.362305 14.3648 0.616414 15.369 1.12463C16.3794 1.62673 14.818 3.54652 15.5191 3.54652C15.5191 4.63338 13.9913 3.37507 13.9913 4.62419C13.9913 5.87331 13.8934 8.83058 13.3545 9.73068C12.8157 10.6247 12.035 11.3105 11.0124 11.7881C9.996 12.2657 8.76525 12.5045 7.32019 12.5045H2.35128V9.30819H6.67727C7.43653 9.30819 8.06721 9.20409 8.56931 8.99591C9.07141 8.78772 9.44492 8.47544 9.68984 8.05907C9.94089 7.6427 10.0664 7.1253 10.0664 6.50686C10.0664 5.8823 9.94089 5.35571 9.68984 4.92709C9.44492 4.49847 9.06835 4.17395 8.56013 3.95352C8.05803 3.72696 7.42429 3.61368 6.6589 3.61368H3.97697V19.1725H0ZM10.1583 10.6124L14.8333 19.1725H10.443L5.86901 10.6124H10.1583Z" fill="url(#paint0_radial_294_162019)"/>
<path d="M14.818 19.1725V0.362305H35.8937V3.64124H18.7949V8.12336H24.2904V11.4023H18.7949V19.1725H14.818Z" fill="url(#paint1_radial_294_162019)"/>
<path d="M33.8142 12.633H37.1941L38.8933 14.819L40.5649 16.7662L43.7153 19.6379H40.0047L37.8371 18.052L36.7257 16.4722L33.8142 12.633ZM44 9.76742C44 11.8187 43.6112 13.5638 42.8335 15.0027C42.062 16.4416 41.0089 17.5407 39.674 18.3C38.3453 19.0531 36.8512 19.4297 35.1919 19.4297C33.5203 19.4297 32.0201 19.0501 30.6914 18.2908C29.3627 17.5315 28.3126 16.4324 27.541 14.9935C26.7695 13.5546 26.3838 11.8125 26.3838 9.76742C26.3838 7.71618 26.7695 5.97109 27.541 4.53215C28.3126 3.09322 29.3627 1.99718 30.6914 1.24403C32.0201 0.484767 33.5203 0.362687 35.1919 0.362687C36.8512 0.362687 38.3453 0.484767 39.674 1.24403C41.0089 1.99718 42.062 3.09322 42.8335 4.53215C43.6112 5.97109 44 7.71618 44 9.76742ZM39.9679 9.76742C39.9679 8.43871 39.7689 7.31817 39.3709 6.40583C38.979 5.49348 38.4249 4.80157 37.7085 4.33009C36.9921 3.85861 36.1532 3.62287 35.1919 3.62287C34.2306 3.62287 33.3917 3.85861 32.6753 4.33009C31.9589 4.80157 31.4017 5.49348 31.0037 6.40583C30.6118 7.31817 30.4158 8.43871 30.4158 9.76742C30.4158 11.0961 30.6118 12.2167 31.0037 13.129C31.4017 14.0414 31.9589 14.7333 32.6753 15.2048C33.3917 15.6762 34.2306 15.912 35.1919 15.912C36.1532 15.912 36.9921 15.6762 37.7085 15.2048C38.4249 14.7333 38.979 14.0414 39.3709 13.129C39.7689 12.2167 39.9679 11.0961 39.9679 9.76742Z" fill="url(#paint2_radial_294_162019)"/>
<defs>
<radialGradient id="paint0_radial_294_162019" cx="0" cy="0" r="1" gradientUnits="userSpaceOnUse" gradientTransform="translate(0.773437 0.964669) rotate(22.5324) scale(27.5956 41.8471)">
<stop stop-color="#5F5EC7"/>
<stop offset="1" stop-color="#2F2E6C"/>
</radialGradient>
<radialGradient id="paint1_radial_294_162019" cx="0" cy="0" r="1" gradientUnits="userSpaceOnUse" gradientTransform="translate(0.773437 0.964669) rotate(22.5324) scale(27.5956 41.8471)">
<stop stop-color="#5F5EC7"/>
<stop offset="1" stop-color="#2F2E6C"/>
</radialGradient>
<radialGradient id="paint2_radial_294_162019" cx="0" cy="0" r="1" gradientUnits="userSpaceOnUse" gradientTransform="translate(0.773437 0.964669) rotate(22.5324) scale(27.5956 41.8471)">
<stop stop-color="#5F5EC7"/>
<stop offset="1" stop-color="#2F2E6C"/>
</radialGradient>
</defs>
</svg>
