<svg width="60" height="60" viewBox="0 0 60 60" fill="none" xmlns="http://www.w3.org/2000/svg">
<g id="Group 47060">
<path id="Vector" d="M27.9439 41.5023C28.095 41.6492 28.2152 41.8249 28.2971 42.0192C28.379 42.2134 28.421 42.4221 28.4207 42.6328V55.2643C28.4207 56.5205 27.9216 57.7253 27.0333 58.6137C26.145 59.502 24.9402 60.001 23.6839 60.001H15.7893C14.533 60.001 13.3282 59.502 12.4399 58.6137C11.5515 57.7253 11.0525 56.5205 11.0525 55.2643V48.1117C11.0532 47.7507 10.9294 47.4005 10.702 47.1201L1.75577 36.0455C0.619221 34.642 -0.00063011 32.8906 4.80662e-07 31.0846V11.0543C4.80662e-07 9.79801 0.499053 8.59319 1.38737 7.70488C2.27569 6.81656 3.48051 6.3175 4.73678 6.3175C5.99306 6.3175 7.19788 6.81656 8.08619 7.70488C8.97451 8.59319 9.47357 9.79801 9.47357 11.0543V25.5267C8.44583 25.8048 7.50927 26.3483 6.75781 27.1025C6.14901 27.7113 5.66609 28.434 5.33661 29.2294C5.00712 30.0248 4.83754 30.8773 4.83754 31.7382C4.83754 32.5992 5.00712 33.4517 5.33661 34.2471C5.66609 35.0425 6.14901 35.7652 6.75781 36.374L11.4156 41.035C11.5698 41.1888 11.7755 41.28 11.9931 41.2911C12.2106 41.3022 12.4245 41.2323 12.5935 41.095C12.6715 41.0316 12.7353 40.9525 12.7807 40.8629C12.8262 40.7733 12.8523 40.6752 12.8573 40.5748C12.8624 40.4745 12.8463 40.3742 12.8101 40.2805C12.7739 40.1867 12.7184 40.1017 12.6472 40.0308L7.87253 35.2592C6.93979 34.3255 6.41586 33.0596 6.41586 31.7398C6.41586 30.42 6.93979 29.1541 7.87253 28.2204L7.87569 28.2172C8.71832 27.3751 9.85848 26.8984 11.0497 26.8901C12.241 26.8818 13.3877 27.3427 14.2419 28.173L27.9439 41.5023ZM32.0554 41.5023C31.9042 41.6492 31.7841 41.8249 31.7022 42.0192C31.6203 42.2134 31.5782 42.4221 31.5786 42.6328V55.2643C31.5786 56.5205 32.0776 57.7253 32.9659 58.6137C33.8542 59.502 35.0591 60.001 36.3153 60.001H44.21C45.4662 60.001 46.6711 59.502 47.5594 58.6137C48.4477 57.7253 48.9468 56.5205 48.9468 55.2643V48.1117C48.9468 47.7486 49.0699 47.4012 49.2973 47.1201L58.2435 36.0455C59.3803 34.6435 59.9992 32.8909 59.9992 31.0846V11.0543C59.9992 9.79801 59.5002 8.59319 58.6119 7.70488C57.7235 6.81656 56.5187 6.3175 55.2625 6.3175C54.0062 6.3175 52.8014 6.81656 51.9131 7.70488C51.0247 8.59319 50.5257 9.79801 50.5257 11.0543V25.5267C51.5204 25.7952 52.4614 26.3225 53.2414 27.1025C53.8502 27.7113 54.3332 28.434 54.6626 29.2294C54.9921 30.0248 55.1617 30.8773 55.1617 31.7382C55.1617 32.5992 54.9921 33.4517 54.6626 34.2471C54.3332 35.0425 53.8502 35.7652 53.2414 36.374L48.5836 41.035C48.4294 41.1888 48.2237 41.28 48.0062 41.2911C47.7887 41.3022 47.5747 41.2323 47.4057 41.095C47.3278 41.0316 47.264 40.9525 47.2185 40.8629C47.1731 40.7733 47.147 40.6752 47.1419 40.5748C47.1369 40.4745 47.153 40.3742 47.1892 40.2805C47.2253 40.1867 47.2808 40.1017 47.352 40.0308L52.1267 35.2592C53.0595 34.3255 53.5834 33.0596 53.5834 31.7398C53.5834 30.42 53.0595 29.1541 52.1267 28.2204L52.1236 28.2172C51.2809 27.3751 50.1408 26.8984 48.9495 26.8901C47.7582 26.8818 46.6116 27.3427 45.7573 28.173L32.0554 41.5023Z" fill="#2622B7"/>
<g id="Vector_2">
<path d="M31.779 29.1906C31.6478 28.9554 31.579 28.6906 31.5789 28.4214V15.79C31.579 15.497 31.6605 15.2098 31.8144 14.9605C31.9683 14.7112 32.1886 14.5097 32.4505 14.3784L41.9241 9.64163C42.1648 9.52101 42.4324 9.46394 42.7014 9.47587C42.9703 9.48779 43.2318 9.5683 43.4609 9.70975C43.69 9.8512 43.8792 10.0489 44.0103 10.284C44.1415 10.5192 44.2104 10.7839 44.2104 11.0532V23.6846C44.2104 23.9776 44.1288 24.2648 43.9749 24.5141C43.821 24.7634 43.6007 24.9649 43.3388 25.0962L33.8652 29.833C33.6245 29.9536 33.3569 30.0106 33.088 29.9987C32.819 29.9868 32.5575 29.9063 32.3284 29.7648C32.0993 29.6234 31.9102 29.4257 31.779 29.1906Z" fill="url(#paint0_linear_2995_1387)"/>
<path d="M26.9121 29.9987C26.6431 30.0106 26.3755 29.9536 26.1348 29.833L16.6612 25.0962C16.3993 24.9649 16.1791 24.7634 16.0251 24.5141C15.8712 24.2648 15.7897 23.9776 15.7897 23.6846V11.0532C15.7897 10.7839 15.8585 10.5192 15.9897 10.284C16.1209 10.0489 16.31 9.8512 16.5391 9.70975C16.7682 9.5683 17.0297 9.48779 17.2987 9.47587C17.5677 9.46394 17.8352 9.52101 18.076 9.64163L27.5495 14.3784C27.8115 14.5097 28.0317 14.7112 28.1856 14.9605C28.3396 15.2098 28.4211 15.497 28.4211 15.79V28.4214C28.4211 28.6906 28.3522 28.9554 28.221 29.1906C28.0899 29.4257 27.9007 29.6234 27.6716 29.7648C27.4425 29.9063 27.1811 29.9868 26.9121 29.9987Z" fill="url(#paint1_linear_2995_1387)"/>
<path d="M40.817 7.14586C40.6631 7.39515 40.4429 7.5967 40.1809 7.72797L30.7074 12.4648C30.488 12.5753 30.2457 12.6328 30 12.6328C29.7543 12.6328 29.5121 12.5753 29.2927 12.4648L19.8191 7.72797C19.5572 7.5967 19.337 7.39515 19.1831 7.14586C19.0291 6.89657 18.9476 6.60938 18.9476 6.31641C18.9476 6.02344 19.0291 5.73625 19.1831 5.48696C19.337 5.23767 19.5572 5.03612 19.8191 4.90485L29.2927 0.168066C29.5121 0.0575602 29.7543 0 30 0C30.2457 0 30.488 0.0575602 30.7074 0.168066L40.1809 4.90485C40.4429 5.03612 40.6631 5.23767 40.817 5.48696C40.9709 5.73625 41.0524 6.02344 41.0524 6.31641C41.0524 6.60938 40.9709 6.89657 40.817 7.14586Z" fill="url(#paint2_linear_2995_1387)"/>
</g>
</g>
<defs>
<linearGradient id="paint0_linear_2995_1387" x1="6.65445" y1="-2.14288" x2="41.7799" y2="28.108" gradientUnits="userSpaceOnUse">
<stop stop-color="#FFC25C"/>
<stop offset="1" stop-color="#FB9E39"/>
</linearGradient>
<linearGradient id="paint1_linear_2995_1387" x1="6.65445" y1="-2.14288" x2="41.7799" y2="28.108" gradientUnits="userSpaceOnUse">
<stop stop-color="#FFC25C"/>
<stop offset="1" stop-color="#FB9E39"/>
</linearGradient>
<linearGradient id="paint2_linear_2995_1387" x1="6.65445" y1="-2.14288" x2="41.7799" y2="28.108" gradientUnits="userSpaceOnUse">
<stop stop-color="#FFC25C"/>
<stop offset="1" stop-color="#FB9E39"/>
</linearGradient>
</defs>
</svg>
