<svg width="61" height="60" viewBox="0 0 61 60" fill="none" xmlns="http://www.w3.org/2000/svg">
<g id="Frame">
<g id="Group">
<path id="Vector" d="M24.1887 21.7336V15.4224H7.44107C6.85791 15.4223 6.28045 15.5362 5.74166 15.7577C5.20286 15.9792 4.71329 16.3039 4.3009 16.7133C3.88851 17.1227 3.56137 17.6087 3.33819 18.1437C3.115 18.6786 3.00012 19.2519 3.00012 19.831V36.4599H9.35818V36.4642C9.21191 37.8641 9.88354 39.2399 11.1031 39.9567C14.4206 41.9066 17.8333 39.5811 17.8333 36.4642V36.4607H24.1887V30.1495C23.6321 30.1496 23.081 30.0408 22.5668 29.8293C22.0525 29.6179 21.5853 29.3079 21.1918 28.9171C20.7983 28.5263 20.4861 28.0623 20.2733 27.5516C20.0604 27.041 19.951 26.4938 19.9512 25.9411C19.9511 25.3885 20.0606 24.8414 20.2735 24.3308C20.4864 23.8203 20.7986 23.3564 21.1921 22.9657C21.5856 22.575 22.0528 22.2651 22.567 22.0537C23.0811 21.8423 23.6322 21.7335 24.1887 21.7336Z" fill="#2622B7"/>
<path id="Vector_2" d="M24.1922 42.7765H24.1887V36.4601H17.8324C17.8326 37.0127 17.7232 37.56 17.5103 38.0706C17.2975 38.5812 16.9853 39.0452 16.5918 39.436C16.1983 39.8269 15.7311 40.1369 15.2168 40.3483C14.7026 40.5598 14.1515 40.6686 13.5949 40.6684C13.0383 40.6687 12.4871 40.56 11.9728 40.3486C11.4585 40.1373 10.9913 39.8274 10.5976 39.4367C10.204 39.0459 9.89183 38.582 9.67886 38.0714C9.46589 37.5608 9.35633 37.0136 9.35645 36.4609H3.00012V53.0898C3.00001 53.6689 3.11477 54.2422 3.33785 54.7772C3.56094 55.3122 3.88797 55.7983 4.30029 56.2077C4.7126 56.6172 5.20211 56.942 5.74086 57.1636C6.27961 57.3852 6.85705 57.4993 7.4402 57.4993H24.1887V51.1915H24.1922C27.3366 51.1915 29.6804 47.7927 27.701 44.4944C26.9783 43.2895 25.5969 42.627 24.1922 42.7765Z" fill="#2622B7"/>
<path id="Vector_3" d="M45.3775 36.4601V53.0898C45.3775 54.2591 44.9097 55.3804 44.077 56.2072C43.2443 57.0339 42.115 57.4984 40.9374 57.4984H24.188V51.188C24.7445 51.1881 25.2956 51.0794 25.8098 50.868C26.3239 50.6566 26.7911 50.3467 27.1846 49.9559C27.5782 49.5652 27.8903 49.1013 28.1032 48.5908C28.3161 48.0803 28.4257 47.5331 28.4255 46.9805C28.4257 46.428 28.3161 45.8808 28.1032 45.3703C27.8903 44.8597 27.5782 44.3958 27.1846 44.0051C26.7911 43.6144 26.3239 43.3045 25.8098 43.0931C25.2956 42.8817 24.7445 42.7729 24.188 42.773V36.4609H30.5443C30.5443 34.1363 32.4407 32.2534 34.7819 32.2534C37.1231 32.2534 39.0194 34.1363 39.0194 36.4609H45.3766L45.3775 36.4601Z" fill="#2622B7"/>
<path id="Vector_4" d="M34.3695 6.96359C33.9759 7.35424 33.6637 7.81805 33.4506 8.32854C33.2376 8.83902 33.128 9.38618 33.128 9.93875C33.128 10.4913 33.2376 11.0385 33.4506 11.549C33.6637 12.0594 33.9759 12.5233 34.3695 12.9139L29.874 17.3766L34.3695 21.8394C36.0244 20.1962 38.7066 20.1962 40.3623 21.8394C42.018 23.4825 42.018 26.1466 40.3623 27.7905L44.8569 32.2533L56.6997 20.4945C57.1122 20.0851 57.4393 19.599 57.6626 19.064C57.8858 18.5291 58.0007 17.9557 58.0007 17.3766C58.0007 16.7976 57.8858 16.2242 57.6626 15.6892C57.4393 15.1543 57.1122 14.6682 56.6997 14.2588L44.8569 2.5L40.3623 6.96273C39.9689 6.57193 39.5017 6.26191 38.9876 6.0504C38.4735 5.83889 37.9224 5.73003 37.3659 5.73003C36.8094 5.73003 36.2583 5.83889 35.7442 6.0504C35.2301 6.26191 34.7629 6.57193 34.3695 6.96273V6.96359Z" fill="url(#paint0_linear_2995_1393)"/>
</g>
</g>
<defs>
<linearGradient id="paint0_linear_2995_1393" x1="20.8333" y1="0.374766" x2="55.6585" y2="30.3032" gradientUnits="userSpaceOnUse">
<stop stop-color="#FFC25C"/>
<stop offset="1" stop-color="#FB9E39"/>
</linearGradient>
</defs>
</svg>
