<svg width="61" height="60" viewBox="0 0 61 60" fill="none" xmlns="http://www.w3.org/2000/svg">
<g id="Group 47063">
<g id="Group 47060">
<path id="Vector" d="M28.4443 42.305C28.5955 42.4454 28.7156 42.6135 28.7975 42.7993C28.8794 42.9851 28.9215 43.1847 28.9211 43.3863V55.4685C28.9211 56.6702 28.4221 57.8226 27.5337 58.6723C26.6454 59.522 25.4406 59.9994 24.1843 59.9994H16.2895C15.0332 59.9994 13.8284 59.522 12.9401 58.6723C12.0517 57.8226 11.5527 56.6702 11.5527 55.4685V48.627C11.5533 48.2817 11.4295 47.9467 11.2021 47.6785L2.25579 37.0854C1.11923 35.7429 0.49937 34.0676 0.5 32.3401V13.1807C0.5 11.9791 0.999061 10.8266 1.88739 9.97695C2.77573 9.12726 3.98056 8.6499 5.23685 8.6499C6.49315 8.6499 7.69798 9.12726 8.58632 9.97695C9.47465 10.8266 9.97371 11.9791 9.97371 13.1807V27.024C8.94596 27.29 8.00938 27.8098 7.25791 28.5312C6.64911 29.1135 6.16617 29.8048 5.83669 30.5656C5.5072 31.3264 5.33762 32.1419 5.33762 32.9654C5.33762 33.7889 5.5072 34.6043 5.83669 35.3652C6.16617 36.126 6.64911 36.8173 7.25791 37.3996L11.9158 41.8579C12.07 42.005 12.2757 42.0923 12.4932 42.1029C12.7108 42.1135 12.9247 42.0467 13.0937 41.9153C13.1717 41.8547 13.2355 41.7791 13.2809 41.6934C13.3263 41.6076 13.3524 41.5137 13.3575 41.4178C13.3626 41.3218 13.3465 41.2259 13.3103 41.1362C13.2741 41.0466 13.2186 40.9652 13.1474 40.8974L8.37265 36.3333C7.43989 35.4401 6.91596 34.2293 6.91596 32.9669C6.91596 31.7045 7.43989 30.4937 8.37265 29.6005L8.37581 29.5975C9.21845 28.792 10.3586 28.336 11.5499 28.3281C12.7412 28.3201 13.8879 28.7609 14.7421 29.5552L28.4443 42.305ZM32.5559 42.305C32.4047 42.4454 32.2846 42.6135 32.2026 42.7993C32.1207 42.9851 32.0787 43.1847 32.079 43.3863V55.4685C32.079 56.6702 32.5781 57.8226 33.4664 58.6723C34.3548 59.522 35.5596 59.9994 36.8159 59.9994H44.7106C45.9669 59.9994 47.1718 59.522 48.0601 58.6723C48.9484 57.8226 49.4475 56.6702 49.4475 55.4685V48.627C49.4475 48.2796 49.5706 47.9473 49.798 47.6785L58.7444 37.0854C59.8812 35.7443 60.5002 34.0679 60.5002 32.3401V13.1807C60.5002 11.9791 60.0011 10.8266 59.1128 9.97695C58.2244 9.12726 57.0196 8.6499 55.7633 8.6499C54.507 8.6499 53.3022 9.12726 52.4138 9.97695C51.5255 10.8266 51.0264 11.9791 51.0264 13.1807V27.024C52.0212 27.2807 52.9622 27.7851 53.7422 28.5312C54.3511 29.1135 54.834 29.8048 55.1635 30.5656C55.493 31.3264 55.6625 32.1419 55.6625 32.9654C55.6625 33.7889 55.493 34.6043 55.1635 35.3652C54.834 36.126 54.3511 36.8173 53.7422 37.3996L49.0843 41.8579C48.9301 42.005 48.7244 42.0923 48.5069 42.1029C48.2894 42.1135 48.0755 42.0467 47.9064 41.9153C47.8285 41.8547 47.7647 41.7791 47.7193 41.6934C47.6738 41.6076 47.6477 41.5137 47.6426 41.4178C47.6376 41.3218 47.6537 41.2259 47.6899 41.1362C47.7261 41.0466 47.7816 40.9652 47.8528 40.8974L52.6275 36.3333C53.5603 35.4401 54.0842 34.2293 54.0842 32.9669C54.0842 31.7045 53.5603 30.4937 52.6275 29.6005L52.6243 29.5975C51.7817 28.792 50.6415 28.336 49.4502 28.3281C48.259 28.3201 47.1123 28.7609 46.258 29.5552L32.5559 42.305Z" fill="#2622B7"/>
</g>
<g id="Group 47062">
<path id="Vector_2" d="M31.0978 14.6739C35.3341 14.6739 38.7684 11.389 38.7684 7.33695C38.7684 3.28486 35.3341 0 31.0978 0C26.8615 0 23.4272 3.28486 23.4272 7.33695C23.4272 11.389 26.8615 14.6739 31.0978 14.6739Z" fill="url(#paint0_linear_2995_1415)"/>
<path id="Vector_3" d="M40.6851 31.1821H21.5087C20.4497 31.1821 19.5911 30.3608 19.5911 29.3478V23.8451C19.5911 20.5612 21.1031 17.6092 23.4955 15.5911C27.8479 19.2626 34.3517 19.2577 38.6983 15.5911C41.0908 17.6092 42.6028 20.5612 42.6028 23.8451V29.3478C42.6028 30.3608 41.7442 31.1821 40.6851 31.1821Z" fill="url(#paint1_linear_2995_1415)"/>
</g>
</g>
<defs>
<linearGradient id="paint0_linear_2995_1415" x1="18.4962" y1="-1.04814" x2="35.8466" y2="15.4422" gradientUnits="userSpaceOnUse">
<stop stop-color="#FFC25C"/>
<stop offset="1" stop-color="#FB9E39"/>
</linearGradient>
<linearGradient id="paint1_linear_2995_1415" x1="12.1945" y1="14.4774" x2="29.8831" y2="38.2117" gradientUnits="userSpaceOnUse">
<stop stop-color="#FFC25C"/>
<stop offset="1" stop-color="#FB9E39"/>
</linearGradient>
</defs>
</svg>
