<svg width="61" height="60" viewBox="0 0 61 60" fill="none" xmlns="http://www.w3.org/2000/svg">
<g id="Group 47061">
<path id="Vector" d="M46.2763 15.9508L31.3608 1.03017C29.9878 -0.343392 27.7618 -0.343392 26.3889 1.03017C25.0161 2.40351 25.0161 4.63026 26.3889 6.00371L41.3045 20.9244C42.6774 22.2978 44.9033 22.2978 46.2763 20.9244C47.6491 19.5509 47.6491 17.3244 46.2763 15.9508ZM21.4172 40.8188L6.50159 25.898C5.12874 24.5246 2.90277 24.5246 1.52981 25.898C0.15673 27.2713 0.15673 29.4981 1.52981 30.8716L16.4453 45.7924C17.8183 47.1657 20.0441 47.1657 21.4172 45.7924C22.79 44.419 22.79 42.1923 21.4172 40.8188ZM8.98666 23.4113L23.9021 8.49083L38.8172 23.4113L23.9021 38.3318L8.98666 23.4113ZM58.9555 50.9945L56.4543 48.2791L48.9966 55.7396L51.4977 58.4549C53.5571 60.515 56.896 60.515 58.9555 58.4549C61.0148 56.3947 61.0148 53.0547 58.9555 50.9945ZM42.1664 34.2206C42.4628 33.0575 42.2146 31.782 41.3045 30.8716C39.9314 29.4981 37.7055 29.4981 36.3326 30.8716L31.3608 35.8452C29.9878 37.2185 29.9878 39.4453 31.3608 40.8188C32.2709 41.7292 33.546 41.9775 34.7086 41.681L46.5105 53.2527L53.9683 45.7922L42.1664 34.2206Z" fill="#2622B7"/>
<path id="Vector_2" d="M35.4782 56.4842H37.4139C38.3855 56.4842 39.1717 57.2706 39.1717 58.2426C39.1717 59.2145 38.3855 60.001 37.4139 60.001H2.25781C1.28621 60.001 0.5 59.2145 0.5 58.2426C0.5 57.2706 1.28621 56.4842 2.25781 56.4842H4.1935C5.01018 52.476 8.5606 49.4504 12.8046 49.4504H26.8671C31.1111 49.4504 34.6616 52.476 35.4782 56.4842Z" fill="url(#paint0_linear_2995_1402)"/>
</g>
<defs>
<linearGradient id="paint0_linear_2995_1402" x1="-11.9302" y1="48.6968" x2="-5.05233" y2="71.615" gradientUnits="userSpaceOnUse">
<stop stop-color="#FFC25C"/>
<stop offset="1" stop-color="#FB9E39"/>
</linearGradient>
</defs>
</svg>
