<svg width="61" height="56" viewBox="0 0 61 56" fill="none" xmlns="http://www.w3.org/2000/svg">
<g id="Group">
<path id="Vector" d="M15.0765 24.2014C13.9796 24.2014 13.0537 25.3878 13.0537 26.7904C13.0537 28.1943 13.9795 29.3806 15.0765 29.3806C16.1734 29.3806 17.1003 28.1943 17.1003 26.7904C17.1003 25.3878 16.1734 24.2014 15.0765 24.2014ZM32.8144 37.8933C31.7176 37.8933 30.7917 39.0796 30.7917 40.4834C30.7917 41.8861 31.7175 43.0724 32.8144 43.0724C33.9113 43.0724 34.8384 41.8861 34.8384 40.4834C34.8384 39.0796 33.9113 37.8933 32.8144 37.8933Z" fill="#2622B7"/>
<path id="Vector_2" d="M44.3106 16.9179C26.4884 0.815659 27.4 1.43069 25.9831 0.890223C23.9695 0.105924 21.5735 0.516024 19.9184 2.01098L3.41926 16.9179C1.56406 18.5933 0.5 20.9775 0.5 23.4607V49.8583C0.5 52.9685 3.06418 55.5 6.21535 55.5H41.5133C44.6646 55.5 47.2286 52.9685 47.2286 49.8583V23.4607C47.2287 20.9775 46.1646 18.5933 44.3106 16.9179ZM22.1639 11.2589C22.2704 10.2558 23.2074 9.5434 24.2558 9.73659C25.2584 9.94187 25.8232 10.8866 25.6362 11.7664C25.4376 12.7037 24.5396 13.3008 23.5691 13.1219C22.6421 12.932 22.0763 12.1051 22.1639 11.2589ZM9.5389 26.7907C9.5389 23.4595 12.0234 20.7497 15.0774 20.7497C18.1326 20.7497 20.617 23.4595 20.617 26.7907C20.617 30.1219 18.1325 32.8329 15.0774 32.8329C12.0234 32.8329 9.5389 30.1219 9.5389 26.7907ZM19.6162 45.1624C18.374 45.1624 17.5071 43.9118 17.9967 42.7678L26.5539 22.7415C26.9301 21.8624 27.9602 21.4481 28.8555 21.8175C29.7508 22.1857 30.1715 23.1983 29.7965 24.0774L21.2381 44.1037C20.9557 44.7642 20.3041 45.1624 19.6162 45.1624ZM32.8154 46.5248C29.7614 46.5248 27.277 43.8149 27.277 40.4837C27.277 37.1525 29.7615 34.4415 32.8154 34.4415C35.8694 34.4415 38.3549 37.1525 38.3549 40.4837C38.3549 43.8149 35.8694 46.5248 32.8154 46.5248Z" fill="#2622B7"/>
<path id="Vector_3" d="M60.0591 35.8731C54.3357 19.5135 51.1567 10.4177 51.1116 10.3143C50.1167 8.05212 48.183 6.29274 45.8087 5.48842C45.6725 5.44297 46.4764 5.63467 33.7275 2.66467L46.69 14.3762C49.2669 16.7029 50.7448 20.0134 50.7448 23.4596V45.8287L57.0685 43.1707C59.929 41.9555 61.2591 38.6934 60.0591 35.8731Z" fill="url(#paint0_linear_2995_1408)"/>
</g>
<defs>
<linearGradient id="paint0_linear_2995_1408" x1="25.122" y1="-0.418472" x2="68.8498" y2="24.2383" gradientUnits="userSpaceOnUse">
<stop stop-color="#FFC25C"/>
<stop offset="1" stop-color="#FB9E39"/>
</linearGradient>
</defs>
</svg>
