<svg width="478" height="326" viewBox="0 0 478 326" fill="none" xmlns="http://www.w3.org/2000/svg">
<rect x="90.5" y="1.33594" width="387" height="324" fill="white"/>
<path d="M0.167969 4.83594C0.167969 2.6268 1.95883 0.835938 4.16797 0.835938H90.168V26.8359H4.16797C1.95883 26.8359 0.167969 25.0451 0.167969 22.8359V4.83594Z" fill="#A6A6B0"/>
<path d="M12.0085 17.8359H10.6108L13.7514 9.10866H15.2727L18.4134 17.8359H17.0156L14.5483 10.6939H14.4801L12.0085 17.8359ZM12.2429 14.4183H16.777V15.5263H12.2429V14.4183ZM15.0341 8.20526H14.0284L13.9943 7.33594C14.2955 7.32173 14.5085 7.28196 14.6335 7.21662C14.7585 7.14844 14.8196 7.05043 14.8168 6.92258C14.8196 6.76918 14.733 6.6598 14.5568 6.59446C14.3835 6.52912 14.1719 6.49645 13.9219 6.49645L13.9602 5.79332C14.6051 5.79332 15.0938 5.8956 15.4261 6.10014C15.7614 6.30469 15.9276 6.58026 15.9247 6.92685C15.9276 7.2081 15.8352 7.41548 15.6477 7.54901C15.4631 7.67969 15.2585 7.76207 15.0341 7.79616V8.20526ZM20.8455 13.9496V17.8359H19.5714V11.2905H20.7944V12.3558H20.8754C21.0259 12.0092 21.2617 11.7308 21.5827 11.5206C21.9066 11.3104 22.3143 11.2053 22.8058 11.2053C23.2518 11.2053 23.6424 11.299 23.9776 11.4865C24.3129 11.6712 24.5728 11.9467 24.7575 12.3132C24.9421 12.6797 25.0344 13.1328 25.0344 13.6726V17.8359H23.7603V13.826C23.7603 13.3516 23.6367 12.9808 23.3896 12.7138C23.1424 12.4439 22.8029 12.3089 22.3711 12.3089C22.0756 12.3089 21.8129 12.3729 21.5827 12.5007C21.3555 12.6286 21.1751 12.8161 21.0415 13.0632C20.9109 13.3075 20.8455 13.603 20.8455 13.9496ZM28.0174 13.9496V17.8359H26.7433V9.10866H28.0004V12.3558H28.0813C28.2347 12.0036 28.4691 11.7237 28.7844 11.5163C29.0998 11.3089 29.5117 11.2053 30.0202 11.2053C30.4691 11.2053 30.8612 11.2976 31.1964 11.4822C31.5344 11.6669 31.7958 11.9425 31.9805 12.3089C32.168 12.6726 32.2617 13.1271 32.2617 13.6726V17.8359H30.9876V13.826C30.9876 13.3459 30.864 12.9737 30.6168 12.7095C30.3697 12.4425 30.0259 12.3089 29.5856 12.3089C29.2844 12.3089 29.0146 12.3729 28.7759 12.5007C28.5401 12.6286 28.354 12.8161 28.2177 13.0632C28.0842 13.3075 28.0174 13.603 28.0174 13.9496ZM40.1932 11.2905V12.3132H36.6179V11.2905H40.1932ZM37.5767 9.7223H38.8509V15.9141C38.8509 16.1612 38.8878 16.3473 38.9616 16.4723C39.0355 16.5945 39.1307 16.6783 39.2472 16.7237C39.3665 16.7663 39.4957 16.7876 39.6349 16.7876C39.7372 16.7876 39.8267 16.7805 39.9034 16.7663C39.9801 16.7521 40.0398 16.7408 40.0824 16.7322L40.3125 17.7848C40.2386 17.8132 40.1335 17.8416 39.9972 17.87C39.8608 17.9013 39.6903 17.9183 39.4858 17.9212C39.1506 17.9268 38.8381 17.8672 38.5483 17.7422C38.2585 17.6172 38.0241 17.424 37.8452 17.1626C37.6662 16.9013 37.5767 16.5732 37.5767 16.1783V9.7223ZM47.8413 10.9751H48.783C48.7802 11.4297 48.7163 11.8104 48.5913 12.1172C48.4691 12.4212 48.256 12.6499 47.9521 12.8033C47.6481 12.9567 47.2262 13.0334 46.6864 13.0334V12.2962C47.0529 12.2962 47.3157 12.2507 47.4748 12.1598C47.6367 12.0661 47.7376 11.9226 47.7773 11.7294C47.82 11.5334 47.8413 11.282 47.8413 10.9751ZM45.766 15.1214V11.2905H47.0401V17.8359H45.7873V16.7024H45.7191C45.5685 17.0518 45.3285 17.343 44.9989 17.576C44.6694 17.8061 44.2575 17.9212 43.7631 17.9212C43.3455 17.9212 42.9748 17.8288 42.6509 17.6442C42.3271 17.4567 42.0728 17.1797 41.8881 16.8132C41.7063 16.4467 41.6154 15.9936 41.6154 15.4538V11.2905H42.8896V15.3004C42.8896 15.7464 43.0131 16.1016 43.2603 16.3658C43.5103 16.63 43.8313 16.7621 44.2234 16.7621C44.462 16.7621 44.6992 16.7024 44.935 16.5831C45.1737 16.4638 45.3711 16.2834 45.5273 16.0419C45.6864 15.8004 45.766 15.4936 45.766 15.1214ZM44.4237 20.0945C44.2049 20.0945 44.016 20.0206 43.8569 19.8729C43.6978 19.7251 43.6183 19.5462 43.6183 19.3359C43.6183 19.1257 43.6978 18.9467 43.8569 18.799C44.016 18.6513 44.2049 18.5774 44.4237 18.5774C44.6452 18.5774 44.8342 18.6513 44.9904 18.799C45.1495 18.9467 45.229 19.1257 45.229 19.3359C45.229 19.5462 45.1495 19.7251 44.9904 19.8729C44.8342 20.0206 44.6452 20.0945 44.4237 20.0945ZM55.3519 17.968C54.7184 17.968 54.1729 17.8246 53.7156 17.5376C53.261 17.2479 52.9116 16.8487 52.6673 16.3402C52.4229 15.8317 52.3008 15.2493 52.3008 14.593C52.3008 13.9283 52.4258 13.3416 52.6758 12.8331C52.9258 12.3217 53.2781 11.9226 53.7326 11.6357C54.1871 11.3487 54.7227 11.2053 55.3391 11.2053C55.8363 11.2053 56.2795 11.2976 56.6687 11.4822C57.0579 11.6641 57.3718 11.9197 57.6104 12.2493C57.8519 12.5788 57.9954 12.9638 58.0408 13.4041H56.8008C56.7326 13.0973 56.5763 12.8331 56.332 12.6115C56.0906 12.3899 55.7667 12.2791 55.3604 12.2791C55.0053 12.2791 54.6942 12.3729 54.4272 12.5604C54.163 12.745 53.957 13.0092 53.8093 13.353C53.6616 13.6939 53.5877 14.0973 53.5877 14.5632C53.5877 15.0405 53.6602 15.4524 53.805 15.799C53.9499 16.1456 54.1545 16.4141 54.4187 16.6044C54.6857 16.7947 54.9996 16.8899 55.3604 16.8899C55.6019 16.8899 55.8207 16.8459 56.0167 16.7578C56.2156 16.6669 56.3817 16.5376 56.5153 16.37C56.6516 16.2024 56.7468 16.0007 56.8008 15.7649H58.0408C57.9954 16.1882 57.8576 16.5661 57.6275 16.8984C57.3974 17.2308 57.0891 17.4922 56.7028 17.6825C56.3192 17.8729 55.869 17.968 55.3519 17.968ZM60.6776 13.9496V17.8359H59.4034V9.10866H60.6605V12.3558H60.7415C60.8949 12.0036 61.1293 11.7237 61.4446 11.5163C61.7599 11.3089 62.1719 11.2053 62.6804 11.2053C63.1293 11.2053 63.5213 11.2976 63.8565 11.4822C64.1946 11.6669 64.456 11.9425 64.6406 12.3089C64.8281 12.6726 64.9219 13.1271 64.9219 13.6726V17.8359H63.6477V13.826C63.6477 13.3459 63.5241 12.9737 63.277 12.7095C63.0298 12.4425 62.6861 12.3089 62.2457 12.3089C61.9446 12.3089 61.6747 12.3729 61.4361 12.5007C61.2003 12.6286 61.0142 12.8161 60.8778 13.0632C60.7443 13.3075 60.6776 13.603 60.6776 13.9496ZM69.3793 17.968C68.7656 17.968 68.2301 17.8274 67.7727 17.5462C67.3153 17.2649 66.9602 16.8714 66.7074 16.3658C66.4545 15.8601 66.3281 15.2692 66.3281 14.593C66.3281 13.9141 66.4545 13.3203 66.7074 12.8118C66.9602 12.3033 67.3153 11.9084 67.7727 11.6271C68.2301 11.3459 68.7656 11.2053 69.3793 11.2053C69.9929 11.2053 70.5284 11.3459 70.9858 11.6271C71.4432 11.9084 71.7983 12.3033 72.0511 12.8118C72.304 13.3203 72.4304 13.9141 72.4304 14.593C72.4304 15.2692 72.304 15.8601 72.0511 16.3658C71.7983 16.8714 71.4432 17.2649 70.9858 17.5462C70.5284 17.8274 69.9929 17.968 69.3793 17.968ZM69.3835 16.8984C69.7813 16.8984 70.1108 16.7933 70.3722 16.5831C70.6335 16.3729 70.8267 16.093 70.9517 15.7436C71.0795 15.3942 71.1435 15.0092 71.1435 14.5888C71.1435 14.1712 71.0795 13.7876 70.9517 13.4382C70.8267 13.0859 70.6335 12.8033 70.3722 12.5902C70.1108 12.3771 69.7813 12.2706 69.3835 12.2706C68.983 12.2706 68.6506 12.3771 68.3864 12.5902C68.125 12.8033 67.9304 13.0859 67.8026 13.4382C67.6776 13.7876 67.6151 14.1712 67.6151 14.5888C67.6151 15.0092 67.6776 15.3942 67.8026 15.7436C67.9304 16.093 68.125 16.3729 68.3864 16.5831C68.6506 16.7933 68.983 16.8984 69.3835 16.8984ZM69.3793 20.0945C69.1605 20.0945 68.9716 20.0206 68.8125 19.8729C68.6534 19.7251 68.5739 19.5462 68.5739 19.3359C68.5739 19.1257 68.6534 18.9467 68.8125 18.799C68.9716 18.6513 69.1605 18.5774 69.3793 18.5774C69.6009 18.5774 69.7898 18.6513 69.946 18.799C70.1051 18.9467 70.1847 19.1257 70.1847 19.3359C70.1847 19.5462 70.1051 19.7251 69.946 19.8729C69.7898 20.0206 69.6009 20.0945 69.3793 20.0945ZM75.1268 13.9496V17.8359H73.8526V11.2905H75.0756V12.3558H75.1566C75.3072 12.0092 75.543 11.7308 75.864 11.5206C76.1879 11.3104 76.5955 11.2053 77.087 11.2053C77.533 11.2053 77.9237 11.299 78.2589 11.4865C78.5941 11.6712 78.854 11.9467 79.0387 12.3132C79.2234 12.6797 79.3157 13.1328 79.3157 13.6726V17.8359H78.0415V13.826C78.0415 13.3516 77.918 12.9808 77.6708 12.7138C77.4237 12.4439 77.0842 12.3089 76.6523 12.3089C76.3569 12.3089 76.0941 12.3729 75.864 12.5007C75.6367 12.6286 75.4563 12.8161 75.3228 13.0632C75.1921 13.3075 75.1268 13.603 75.1268 13.9496Z" fill="white"/>
<rect width="323" height="323" transform="translate(122.5 1.83594)" fill="#EBEBF0"/>
<path d="M325.75 183.01L312.708 152.51C310.333 146.927 306.792 143.76 302.75 143.552C298.75 143.344 294.875 146.135 291.917 151.469L284 165.677C282.333 168.677 279.958 170.469 277.375 170.677C274.75 170.927 272.125 169.552 270 166.844L269.083 165.677C266.125 161.969 262.458 160.177 258.708 160.552C254.958 160.927 251.75 163.51 249.625 167.719L242.417 182.094C239.833 187.302 240.083 193.344 243.125 198.26C246.167 203.177 251.458 206.135 257.25 206.135H310.417C316 206.135 321.208 203.344 324.292 198.677C327.458 194.01 327.958 188.135 325.75 183.01Z" fill="#808089"/>
<path d="M263.041 147.843C270.819 147.843 277.125 141.538 277.125 133.76C277.125 125.982 270.819 119.677 263.041 119.677C255.263 119.677 248.958 125.982 248.958 133.76C248.958 141.538 255.263 147.843 263.041 147.843Z" fill="#808089"/>
<rect x="90.5" y="1.33594" width="387" height="324" stroke="#A6A6B0"/>
</svg>
