<svg width="477" height="166" viewBox="0 0 477 166" fill="none" xmlns="http://www.w3.org/2000/svg">
<rect x="89.5" y="1.05273" width="387" height="164.283" fill="white"/>
<g clip-path="url(#clip0_1774_177166)">
<rect width="322.5" height="131.283" transform="translate(121.75 33.5527)" fill="#F6F6FA"/>
<rect width="196.925" height="131.283" transform="translate(212.208 49.0371)" fill="#EBEBF0"/>
<path d="M327.847 123.85L321.891 109.923C320.807 107.373 319.19 105.927 317.344 105.832C315.517 105.737 313.748 107.012 312.397 109.447L308.782 115.935C308.021 117.305 306.937 118.123 305.757 118.218C304.558 118.333 303.36 117.705 302.389 116.468L301.971 115.935C300.62 114.242 298.945 113.424 297.233 113.595C295.521 113.766 294.056 114.946 293.085 116.868L289.794 123.432C288.614 125.81 288.728 128.569 290.117 130.814C291.506 133.059 293.922 134.41 296.567 134.41H320.845C323.394 134.41 325.773 133.135 327.181 131.004C328.627 128.873 328.855 126.191 327.847 123.85Z" fill="#808089"/>
<path d="M299.211 107.792C302.762 107.792 305.642 104.912 305.642 101.361C305.642 97.8089 302.762 94.9297 299.211 94.9297C295.659 94.9297 292.78 97.8089 292.78 101.361C292.78 104.912 295.659 107.792 299.211 107.792Z" fill="#808089"/>
<g clip-path="url(#clip1_1774_177166)">
<rect width="114.159" height="64.2146" transform="translate(351.14 2.82129)" fill="#EBEBF0"/>
<path d="M432.935 66.5577L429.586 58.7237C428.975 57.2896 428.066 56.4762 427.028 56.4227C426 56.3692 425.005 57.0862 424.245 58.4561L422.212 62.1056C421.784 62.8761 421.174 63.3363 420.51 63.3898C419.836 63.454 419.162 63.1009 418.616 62.4052L418.38 62.1056C417.62 61.1531 416.679 60.6929 415.715 60.7892C414.752 60.8855 413.928 61.5491 413.382 62.63L411.531 66.3222C410.867 67.66 410.932 69.2118 411.713 70.4747C412.494 71.7375 413.853 72.4974 415.341 72.4974H428.997C430.431 72.4974 431.769 71.7803 432.561 70.5817C433.374 69.3831 433.503 67.8741 432.935 66.5577Z" fill="#808089"/>
<path d="M416.829 57.5247C418.827 57.5247 420.446 55.9052 420.446 53.9074C420.446 51.9096 418.827 50.29 416.829 50.29C414.831 50.29 413.211 51.9096 413.211 53.9074C413.211 55.9052 414.831 57.5247 416.829 57.5247Z" fill="#808089"/>
</g>
<g clip-path="url(#clip2_1774_177166)">
<rect width="114.159" height="64.2146" transform="translate(351.14 74.1719)" fill="#EBEBF0"/>
<path d="M435.789 135.055L432.439 127.221C431.829 125.787 430.919 124.973 429.881 124.92C428.854 124.866 427.858 125.583 427.099 126.953L425.065 130.603C424.637 131.373 424.027 131.833 423.364 131.887C422.689 131.951 422.015 131.598 421.469 130.902L421.234 130.603C420.474 129.65 419.532 129.19 418.569 129.286C417.606 129.383 416.782 130.046 416.236 131.127L414.384 134.819C413.721 136.157 413.785 137.709 414.566 138.972C415.348 140.235 416.707 140.994 418.194 140.994H431.85C433.285 140.994 434.622 140.277 435.414 139.079C436.228 137.88 436.356 136.371 435.789 135.055Z" fill="#808089"/>
<path d="M419.682 126.022C421.68 126.022 423.3 124.402 423.3 122.404C423.3 120.407 421.68 118.787 419.682 118.787C417.684 118.787 416.065 120.407 416.065 122.404C416.065 124.402 417.684 126.022 419.682 126.022Z" fill="#808089"/>
</g>
</g>
<path d="M0 5.55273C0 3.3436 1.79086 1.55273 4 1.55273H90V27.5527H4C1.79086 27.5527 0 25.7619 0 23.5527V5.55273Z" fill="#1A94FF"/>
<path d="M11.8406 18.5527H10.4428L13.5835 9.82546H15.1048L18.2454 18.5527H16.8477L14.3803 11.4107H14.3121L11.8406 18.5527ZM12.0749 15.1351H16.609V16.2431H12.0749V15.1351ZM14.8661 8.92205H13.8604L13.8263 8.05273C14.1275 8.03853 14.3406 7.99876 14.4656 7.93342C14.5906 7.86523 14.6516 7.76722 14.6488 7.63938C14.6516 7.48597 14.565 7.3766 14.3888 7.31126C14.2156 7.24592 14.0039 7.21325 13.7539 7.21325L13.7923 6.51012C14.4371 6.51012 14.9258 6.61239 15.2582 6.81694C15.5934 7.02148 15.7596 7.29705 15.7567 7.64364C15.7596 7.92489 15.6673 8.13228 15.4798 8.2658C15.2951 8.39648 15.0906 8.47887 14.8661 8.51296V8.92205ZM20.6776 14.6664V18.5527H19.4034V12.0073H20.6264V13.0726H20.7074C20.858 12.726 21.0938 12.4476 21.4148 12.2374C21.7386 12.0272 22.1463 11.9221 22.6378 11.9221C23.0838 11.9221 23.4744 12.0158 23.8097 12.2033C24.1449 12.388 24.4048 12.6635 24.5895 13.03C24.7741 13.3965 24.8665 13.8496 24.8665 14.3894V18.5527H23.5923V14.5428C23.5923 14.0684 23.4688 13.6976 23.2216 13.4306C22.9744 13.1607 22.6349 13.0257 22.2031 13.0257C21.9077 13.0257 21.6449 13.0897 21.4148 13.2175C21.1875 13.3453 21.0071 13.5328 20.8736 13.78C20.7429 14.0243 20.6776 14.3198 20.6776 14.6664ZM27.8494 14.6664V18.5527H26.5753V9.82546H27.8324V13.0726H27.9134C28.0668 12.7203 28.3011 12.4405 28.6165 12.2331C28.9318 12.0257 29.3438 11.9221 29.8523 11.9221C30.3011 11.9221 30.6932 12.0144 31.0284 12.199C31.3665 12.3837 31.6278 12.6593 31.8125 13.0257C32 13.3894 32.0938 13.8439 32.0938 14.3894V18.5527H30.8196V14.5428C30.8196 14.0627 30.696 13.6905 30.4489 13.4263C30.2017 13.1593 29.858 13.0257 29.4176 13.0257C29.1165 13.0257 28.8466 13.0897 28.608 13.2175C28.3722 13.3453 28.1861 13.5328 28.0497 13.78C27.9162 14.0243 27.8494 14.3198 27.8494 14.6664ZM40.0252 12.0073V13.03H36.4499V12.0073H40.0252ZM37.4087 10.4391H38.6829V16.6309C38.6829 16.878 38.7198 17.0641 38.7937 17.1891C38.8675 17.3113 38.9627 17.3951 39.0792 17.4405C39.1985 17.4831 39.3278 17.5044 39.467 17.5044C39.5692 17.5044 39.6587 17.4973 39.7354 17.4831C39.8121 17.4689 39.8718 17.4576 39.9144 17.449L40.1445 18.5016C40.0707 18.53 39.9656 18.5584 39.8292 18.5868C39.6928 18.6181 39.5224 18.6351 39.3178 18.638C38.9826 18.6436 38.6701 18.584 38.3803 18.459C38.0906 18.334 37.8562 18.1408 37.6772 17.8794C37.4982 17.6181 37.4087 17.29 37.4087 16.8951V10.4391ZM47.6733 11.6919H48.6151C48.6122 12.1465 48.5483 12.5272 48.4233 12.834C48.3011 13.138 48.0881 13.3667 47.7841 13.5201C47.4801 13.6735 47.0582 13.7502 46.5185 13.7502V13.013C46.8849 13.013 47.1477 12.9675 47.3068 12.8766C47.4688 12.7828 47.5696 12.6394 47.6094 12.4462C47.652 12.2502 47.6733 11.9988 47.6733 11.6919ZM45.598 15.8382V12.0073H46.8722V18.5527H45.6193V17.4192H45.5511C45.4006 17.7686 45.1605 18.0598 44.831 18.2928C44.5014 18.5229 44.0895 18.638 43.5952 18.638C43.1776 18.638 42.8068 18.5456 42.483 18.361C42.1591 18.1735 41.9048 17.8965 41.7202 17.53C41.5384 17.1635 41.4474 16.7104 41.4474 16.1706V12.0073H42.7216V16.0172C42.7216 16.4632 42.8452 16.8184 43.0923 17.0826C43.3423 17.3468 43.6634 17.4789 44.0554 17.4789C44.294 17.4789 44.5313 17.4192 44.767 17.2999C45.0057 17.1806 45.2031 17.0002 45.3594 16.7587C45.5185 16.5172 45.598 16.2104 45.598 15.8382ZM44.2557 20.8113C44.0369 20.8113 43.848 20.7374 43.6889 20.5897C43.5298 20.4419 43.4503 20.263 43.4503 20.0527C43.4503 19.8425 43.5298 19.6635 43.6889 19.5158C43.848 19.3681 44.0369 19.2942 44.2557 19.2942C44.4773 19.2942 44.6662 19.3681 44.8224 19.5158C44.9815 19.6635 45.0611 19.8425 45.0611 20.0527C45.0611 20.263 44.9815 20.4419 44.8224 20.5897C44.6662 20.7374 44.4773 20.8113 44.2557 20.8113ZM55.1839 18.6848C54.5504 18.6848 54.005 18.5414 53.5476 18.2544C53.093 17.9647 52.7436 17.5655 52.4993 17.057C52.255 16.5485 52.1328 15.9661 52.1328 15.3098C52.1328 14.6451 52.2578 14.0584 52.5078 13.5499C52.7578 13.0385 53.1101 12.6394 53.5646 12.3524C54.0192 12.0655 54.5547 11.9221 55.1712 11.9221C55.6683 11.9221 56.1115 12.0144 56.5007 12.199C56.8899 12.3809 57.2038 12.6365 57.4425 12.9661C57.6839 13.2956 57.8274 13.6806 57.8729 14.1209H56.6328C56.5646 13.8141 56.4084 13.5499 56.1641 13.3283C55.9226 13.1067 55.5987 12.9959 55.1925 12.9959C54.8374 12.9959 54.5263 13.0897 54.2592 13.2772C53.995 13.4618 53.7891 13.726 53.6413 14.0698C53.4936 14.4107 53.4197 14.8141 53.4197 15.28C53.4197 15.7573 53.4922 16.1692 53.6371 16.5158C53.782 16.8624 53.9865 17.1309 54.2507 17.3212C54.5178 17.5115 54.8317 17.6067 55.1925 17.6067C55.4339 17.6067 55.6527 17.5627 55.8487 17.4746C56.0476 17.3837 56.2138 17.2544 56.3473 17.0868C56.4837 16.9192 56.5788 16.7175 56.6328 16.4817H57.8729C57.8274 16.905 57.6896 17.2828 57.4595 17.6152C57.2294 17.9476 56.9212 18.209 56.5348 18.3993C56.1513 18.5897 55.701 18.6848 55.1839 18.6848ZM60.5096 14.6664V18.5527H59.2354V9.82546H60.4925V13.0726H60.5735C60.7269 12.7203 60.9613 12.4405 61.2766 12.2331C61.592 12.0257 62.0039 11.9221 62.5124 11.9221C62.9613 11.9221 63.3533 12.0144 63.6886 12.199C64.0266 12.3837 64.288 12.6593 64.4727 13.0257C64.6602 13.3894 64.7539 13.8439 64.7539 14.3894V18.5527H63.4798V14.5428C63.4798 14.0627 63.3562 13.6905 63.109 13.4263C62.8619 13.1593 62.5181 13.0257 62.0778 13.0257C61.7766 13.0257 61.5067 13.0897 61.2681 13.2175C61.0323 13.3453 60.8462 13.5328 60.7099 13.78C60.5763 14.0243 60.5096 14.3198 60.5096 14.6664ZM69.2113 18.6848C68.5977 18.6848 68.0621 18.5442 67.6048 18.263C67.1474 17.9817 66.7923 17.5882 66.5394 17.0826C66.2866 16.5769 66.1602 15.986 66.1602 15.3098C66.1602 14.6309 66.2866 14.0371 66.5394 13.5286C66.7923 13.0201 67.1474 12.6252 67.6048 12.3439C68.0621 12.0627 68.5977 11.9221 69.2113 11.9221C69.8249 11.9221 70.3604 12.0627 70.8178 12.3439C71.2752 12.6252 71.6303 13.0201 71.8832 13.5286C72.136 14.0371 72.2624 14.6309 72.2624 15.3098C72.2624 15.986 72.136 16.5769 71.8832 17.0826C71.6303 17.5882 71.2752 17.9817 70.8178 18.263C70.3604 18.5442 69.8249 18.6848 69.2113 18.6848ZM69.2156 17.6152C69.6133 17.6152 69.9428 17.5101 70.2042 17.2999C70.4656 17.0897 70.6587 16.8098 70.7837 16.4604C70.9116 16.111 70.9755 15.726 70.9755 15.3056C70.9755 14.888 70.9116 14.5044 70.7837 14.155C70.6587 13.8027 70.4656 13.5201 70.2042 13.307C69.9428 13.0939 69.6133 12.9874 69.2156 12.9874C68.815 12.9874 68.4826 13.0939 68.2184 13.307C67.957 13.5201 67.7624 13.8027 67.6346 14.155C67.5096 14.5044 67.4471 14.888 67.4471 15.3056C67.4471 15.726 67.5096 16.111 67.6346 16.4604C67.7624 16.8098 67.957 17.0897 68.2184 17.2999C68.4826 17.5101 68.815 17.6152 69.2156 17.6152ZM69.2113 20.8113C68.9925 20.8113 68.8036 20.7374 68.6445 20.5897C68.4854 20.4419 68.4059 20.263 68.4059 20.0527C68.4059 19.8425 68.4854 19.6635 68.6445 19.5158C68.8036 19.3681 68.9925 19.2942 69.2113 19.2942C69.4329 19.2942 69.6218 19.3681 69.7781 19.5158C69.9371 19.6635 70.0167 19.8425 70.0167 20.0527C70.0167 20.263 69.9371 20.4419 69.7781 20.5897C69.6218 20.7374 69.4329 20.8113 69.2113 20.8113ZM74.9588 14.6664V18.5527H73.6847V12.0073H74.9077V13.0726H74.9886C75.1392 12.726 75.375 12.4476 75.696 12.2374C76.0199 12.0272 76.4276 11.9221 76.919 11.9221C77.3651 11.9221 77.7557 12.0158 78.0909 12.2033C78.4261 12.388 78.6861 12.6635 78.8707 13.03C79.0554 13.3965 79.1477 13.8496 79.1477 14.3894V18.5527H77.8736V14.5428C77.8736 14.0684 77.75 13.6976 77.5028 13.4306C77.2557 13.1607 76.9162 13.0257 76.4844 13.0257C76.1889 13.0257 75.9261 13.0897 75.696 13.2175C75.4688 13.3453 75.2884 13.5328 75.1548 13.78C75.0241 14.0243 74.9588 14.3198 74.9588 14.6664Z" fill="white"/>
<rect x="89.5" y="1.05273" width="387" height="164.283" stroke="#1A94FF"/>
<defs>
<clipPath id="clip0_1774_177166">
<rect width="322.5" height="131.283" fill="white" transform="translate(121.75 33.5527)"/>
</clipPath>
<clipPath id="clip1_1774_177166">
<rect width="40" height="57.0796" fill="white" transform="translate(404.25 33.5527)"/>
</clipPath>
<clipPath id="clip2_1774_177166">
<rect width="40" height="62.7876" fill="white" transform="translate(404.25 102.048)"/>
</clipPath>
</defs>
</svg>
