<svg width="39" height="39" viewBox="0 0 39 39" fill="none" xmlns="http://www.w3.org/2000/svg">
<circle cx="19.5" cy="19.5" r="19.5" fill="#FFF0F1"/>
<path d="M30 29.25H10C9.59 29.25 9.25 29.59 9.25 30C9.25 30.41 9.59 30.75 10 30.75H30C30.41 30.75 30.75 30.41 30.75 30C30.75 29.59 30.41 29.25 30 29.25Z" fill="url(#paint0_linear_2268_30035)"/>
<path d="M25 10H15C12 10 11 11.79 11 14V30H29V14C29 11.79 28 10 25 10ZM18 25.25H15C14.59 25.25 14.25 24.91 14.25 24.5C14.25 24.09 14.59 23.75 15 23.75H18C18.41 23.75 18.75 24.09 18.75 24.5C18.75 24.91 18.41 25.25 18 25.25ZM18 20.75H15C14.59 20.75 14.25 20.41 14.25 20C14.25 19.59 14.59 19.25 15 19.25H18C18.41 19.25 18.75 19.59 18.75 20C18.75 20.41 18.41 20.75 18 20.75ZM18 16.25H15C14.59 16.25 14.25 15.91 14.25 15.5C14.25 15.09 14.59 14.75 15 14.75H18C18.41 14.75 18.75 15.09 18.75 15.5C18.75 15.91 18.41 16.25 18 16.25ZM25 25.25H22C21.59 25.25 21.25 24.91 21.25 24.5C21.25 24.09 21.59 23.75 22 23.75H25C25.41 23.75 25.75 24.09 25.75 24.5C25.75 24.91 25.41 25.25 25 25.25ZM25 20.75H22C21.59 20.75 21.25 20.41 21.25 20C21.25 19.59 21.59 19.25 22 19.25H25C25.41 19.25 25.75 19.59 25.75 20C25.75 20.41 25.41 20.75 25 20.75ZM25 16.25H22C21.59 16.25 21.25 15.91 21.25 15.5C21.25 15.09 21.59 14.75 22 14.75H25C25.41 14.75 25.75 15.09 25.75 15.5C25.75 15.91 25.41 16.25 25 16.25Z" fill="url(#paint1_linear_2268_30035)"/>
<defs>
<linearGradient id="paint0_linear_2268_30035" x1="20" y1="29.25" x2="20" y2="30.75" gradientUnits="userSpaceOnUse">
<stop stop-color="#ED6203"/>
<stop offset="1" stop-color="#F4741D"/>
</linearGradient>
<linearGradient id="paint1_linear_2268_30035" x1="20" y1="10" x2="20" y2="30" gradientUnits="userSpaceOnUse">
<stop stop-color="#ED6203"/>
<stop offset="1" stop-color="#F4741D"/>
</linearGradient>
</defs>
</svg>
