<svg width="39" height="39" viewBox="0 0 39 39" fill="none" xmlns="http://www.w3.org/2000/svg">
<circle cx="19.5" cy="19.5" r="19.5" fill="#F6F6FA"/>
<path d="M13 16C11.34 16 10 17.34 10 19V27C10 28.66 11.34 30 13 30H14.5C15.6 30 16.5 29.1 16.5 28V18C16.5 16.9 15.6 16 14.5 16H13ZM14 25C14 25.41 13.66 25.75 13.25 25.75C12.84 25.75 12.5 25.41 12.5 25V21C12.5 20.59 12.84 20.25 13.25 20.25C13.66 20.25 14 20.59 14 21V25Z" fill="#808089"/>
<path d="M27 10H21C19.34 10 18 11.34 18 13V27C18 28.66 19.34 30 21 30H21.5C21.78 30 22 29.78 22 29.5V26C22 25.45 22.45 25 23 25H25C25.55 25 26 25.45 26 26V29.5C26 29.78 26.22 30 26.5 30H27C28.66 30 30 28.66 30 27V13C30 11.34 28.66 10 27 10ZM22.75 21C22.75 21.41 22.41 21.75 22 21.75C21.59 21.75 21.25 21.41 21.25 21V16C21.25 15.59 21.59 15.25 22 15.25C22.41 15.25 22.75 15.59 22.75 16V21ZM26.75 21C26.75 21.41 26.41 21.75 26 21.75C25.59 21.75 25.25 21.41 25.25 21V16C25.25 15.59 25.59 15.25 26 15.25C26.41 15.25 26.75 15.59 26.75 16V21Z" fill="#808089"/>
</svg>
