<svg width="20" height="21" viewBox="0 0 20 21" fill="none" xmlns="http://www.w3.org/2000/svg">
<g id="vuesax/outline/call-calling">
<g id="call-calling">
<path id="Vector" d="M14.5417 19.4577C13.6001 19.4577 12.6084 19.2327 11.5834 18.7993C10.5834 18.3743 9.57508 17.791 8.59175 17.0827C7.61675 16.366 6.67508 15.566 5.78341 14.691C4.90008 13.7993 4.10008 12.8577 3.39175 11.891C2.67508 10.891 2.10008 9.89102 1.69175 8.92435C1.25841 7.89102 1.04175 6.89102 1.04175 5.94935C1.04175 5.29935 1.15841 4.68268 1.38341 4.10768C1.61675 3.51602 1.99175 2.96602 2.50008 2.49102C3.14175 1.85768 3.87508 1.54102 4.65842 1.54102C4.98342 1.54102 5.31675 1.61602 5.60008 1.74935C5.92508 1.89935 6.20008 2.12435 6.40008 2.42435L8.33342 5.14935C8.50842 5.39102 8.64175 5.62435 8.73341 5.85768C8.84175 6.10768 8.90008 6.35768 8.90008 6.59935C8.90008 6.91602 8.80841 7.22435 8.63341 7.51602C8.50841 7.74102 8.31675 7.98268 8.07508 8.22435L7.50842 8.81602C7.51675 8.84102 7.52508 8.85768 7.53341 8.87435C7.63342 9.04935 7.83341 9.34935 8.21675 9.79935C8.62508 10.266 9.00842 10.691 9.39175 11.0827C9.88342 11.566 10.2917 11.9493 10.6751 12.266C11.1501 12.666 11.4584 12.866 11.6417 12.9577L11.6251 12.9993L12.2334 12.3993C12.4917 12.141 12.7417 11.9493 12.9834 11.8243C13.4417 11.541 14.0251 11.491 14.6084 11.7327C14.8251 11.8243 15.0584 11.9493 15.3084 12.1243L18.0751 14.091C18.3834 14.2993 18.6084 14.566 18.7417 14.8827C18.8667 15.1993 18.9251 15.491 18.9251 15.7827C18.9251 16.1827 18.8334 16.5827 18.6584 16.9577C18.4834 17.3327 18.2667 17.6577 17.9917 17.9577C17.5167 18.4827 17.0001 18.8577 16.4001 19.0993C15.8251 19.3327 15.2001 19.4577 14.5417 19.4577ZM4.65842 2.79102C4.20008 2.79102 3.77508 2.99102 3.36675 3.39102C2.98341 3.74935 2.71675 4.14102 2.55008 4.56602C2.37508 4.99935 2.29175 5.45768 2.29175 5.94935C2.29175 6.72435 2.47508 7.56602 2.84175 8.43268C3.21675 9.31602 3.74175 10.2327 4.40841 11.1493C5.07508 12.066 5.83342 12.9577 6.66675 13.7993C7.50008 14.6243 8.40008 15.391 9.32508 16.066C10.2251 16.7243 11.1501 17.2577 12.0667 17.641C13.4917 18.2493 14.8251 18.391 15.9251 17.9327C16.3501 17.7577 16.7251 17.491 17.0667 17.1077C17.2584 16.8994 17.4084 16.6743 17.5334 16.4077C17.6334 16.1993 17.6834 15.9827 17.6834 15.766C17.6834 15.6327 17.6584 15.4993 17.5917 15.3493C17.5667 15.2993 17.5167 15.2077 17.3584 15.0993L14.5917 13.1327C14.4251 13.016 14.2751 12.9327 14.1334 12.8743C13.9501 12.7993 13.8751 12.7243 13.5917 12.8993C13.4251 12.9827 13.2751 13.1077 13.1084 13.2743L12.4751 13.8993C12.1501 14.216 11.6501 14.291 11.2667 14.1493L11.0417 14.0493C10.7001 13.866 10.3001 13.5827 9.85841 13.2077C9.45842 12.866 9.02508 12.466 8.50008 11.9493C8.09175 11.5327 7.68341 11.091 7.25842 10.5993C6.86675 10.141 6.58342 9.74935 6.40841 9.42435L6.30841 9.17435C6.25842 8.98268 6.24175 8.87435 6.24175 8.75768C6.24175 8.45768 6.35008 8.19102 6.55841 7.98268L7.18341 7.33268C7.35008 7.16602 7.47508 7.00768 7.55841 6.86602C7.62508 6.75768 7.65008 6.66602 7.65008 6.58268C7.65008 6.51602 7.62508 6.41602 7.58342 6.31602C7.52508 6.18268 7.43341 6.03268 7.31675 5.87435L5.38341 3.14102C5.30008 3.02435 5.20008 2.94102 5.07508 2.88268C4.94175 2.82435 4.80008 2.79102 4.65842 2.79102ZM11.6251 13.0077L11.4917 13.5743L11.7167 12.991C11.6751 12.9827 11.6417 12.991 11.6251 13.0077Z" fill="#ED6203"/>
<path id="Vector_2" d="M15.4167 8.62565C15.075 8.62565 14.7917 8.34232 14.7917 8.00065C14.7917 7.70065 14.4917 7.07565 13.9917 6.54232C13.5 6.01732 12.9583 5.70898 12.5 5.70898C12.1583 5.70898 11.875 5.42565 11.875 5.08398C11.875 4.74232 12.1583 4.45898 12.5 4.45898C13.3083 4.45898 14.1583 4.89232 14.9 5.68398C15.5917 6.42565 16.0417 7.33398 16.0417 8.00065C16.0417 8.34232 15.7583 8.62565 15.4167 8.62565Z" fill="#ED6203"/>
<path id="Vector_3" d="M18.3333 8.62435C17.9917 8.62435 17.7083 8.34102 17.7083 7.99935C17.7083 5.12435 15.375 2.79102 12.5 2.79102C12.1583 2.79102 11.875 2.50768 11.875 2.16602C11.875 1.82435 12.1583 1.54102 12.5 1.54102C16.0583 1.54102 18.9583 4.44102 18.9583 7.99935C18.9583 8.34102 18.675 8.62435 18.3333 8.62435Z" fill="#ED6203"/>
</g>
</g>
</svg>
