<svg width="20" height="21" viewBox="0 0 20 21" fill="none" xmlns="http://www.w3.org/2000/svg">
<path d="M7.5 15.292C7.41667 15.292 7.34167 15.2753 7.25833 15.242C7.025 15.1503 6.875 14.917 6.875 14.667V9.66699C6.875 9.32533 7.15833 9.04199 7.5 9.04199C7.84167 9.04199 8.125 9.32533 8.125 9.66699V13.1587L8.725 12.5587C8.96667 12.317 9.36667 12.317 9.60833 12.5587C9.85 12.8003 9.85 13.2003 9.60833 13.442L7.94167 15.1087C7.825 15.2253 7.65833 15.292 7.5 15.292Z" fill="#515158"/>
<path d="M7.50003 15.2915C7.3417 15.2915 7.18337 15.2332 7.05837 15.1082L5.3917 13.4415C5.15003 13.1999 5.15003 12.7999 5.3917 12.5582C5.63337 12.3165 6.03337 12.3165 6.27503 12.5582L7.9417 14.2249C8.18337 14.4665 8.18337 14.8665 7.9417 15.1082C7.8167 15.2332 7.65837 15.2915 7.50003 15.2915Z" fill="#515158"/>
<path d="M12.4998 19.4587H7.49984C2.97484 19.4587 1.0415 17.5253 1.0415 13.0003V8.00033C1.0415 3.47533 2.97484 1.54199 7.49984 1.54199H11.6665C12.0082 1.54199 12.2915 1.82533 12.2915 2.16699C12.2915 2.50866 12.0082 2.79199 11.6665 2.79199H7.49984C3.65817 2.79199 2.2915 4.15866 2.2915 8.00033V13.0003C2.2915 16.842 3.65817 18.2087 7.49984 18.2087H12.4998C16.3415 18.2087 17.7082 16.842 17.7082 13.0003V8.83366C17.7082 8.49199 17.9915 8.20866 18.3332 8.20866C18.6748 8.20866 18.9582 8.49199 18.9582 8.83366V13.0003C18.9582 17.5253 17.0248 19.4587 12.4998 19.4587Z" fill="#515158"/>
<path d="M18.3332 9.45841H14.9998C12.1498 9.45841 11.0415 8.35007 11.0415 5.50007V2.16674C11.0415 1.91674 11.1915 1.68341 11.4248 1.59174C11.6582 1.49174 11.9248 1.55007 12.1082 1.72507L18.7748 8.39174C18.9498 8.56674 19.0082 8.84174 18.9082 9.07507C18.8082 9.3084 18.5832 9.45841 18.3332 9.45841ZM12.2915 3.67507V5.50007C12.2915 7.65007 12.8498 8.20841 14.9998 8.20841H16.8248L12.2915 3.67507Z" fill="#515158"/>
</svg>
