<svg width="855" height="10" viewBox="0 0 855 10" fill="none" xmlns="http://www.w3.org/2000/svg">
<path d="M3.33807 0.386363L0.994318 9.09375H0.227273L2.57102 0.386363H3.33807ZM8.90252 0.386363L6.55877 9.09375H5.79173L8.13548 0.386363H8.90252ZM14.467 0.386363L12.1232 9.09375H11.3562L13.6999 0.386363H14.467ZM20.0314 0.386363L17.6877 9.09375H16.9206L19.2644 0.386363H20.0314ZM25.5959 0.386363L23.2521 9.09375H22.4851L24.8288 0.386363H25.5959ZM31.1603 0.386363L28.8166 9.09375H28.0495L30.3933 0.386363H31.1603ZM36.7248 0.386363L34.381 9.09375H33.614L35.9577 0.386363H36.7248ZM42.2892 0.386363L39.9455 9.09375H39.1784L41.5222 0.386363H42.2892ZM47.8537 0.386363L45.5099 9.09375H44.7429L47.0866 0.386363H47.8537ZM53.4181 0.386363L51.0744 9.09375H50.3074L52.6511 0.386363H53.4181ZM58.9826 0.386363L56.6388 9.09375H55.8718L58.2156 0.386363H58.9826ZM64.5471 0.386363L62.2033 9.09375H61.4363L63.78 0.386363H64.5471ZM70.1115 0.386363L67.7678 9.09375H67.0007L69.3445 0.386363H70.1115ZM75.676 0.386363L73.3322 9.09375H72.5652L74.9089 0.386363H75.676ZM81.2404 0.386363L78.8967 9.09375H78.1296L80.4734 0.386363H81.2404ZM86.8049 0.386363L84.4611 9.09375H83.6941L86.0378 0.386363H86.8049ZM92.3693 0.386363L90.0256 9.09375H89.2585L91.6023 0.386363H92.3693ZM97.9338 0.386363L95.59 9.09375H94.823L97.1667 0.386363H97.9338ZM103.498 0.386363L101.154 9.09375H100.387L102.731 0.386363H103.498ZM109.063 0.386363L106.719 9.09375H105.952L108.296 0.386363H109.063ZM114.627 0.386363L112.283 9.09375H111.516L113.86 0.386363H114.627ZM120.192 0.386363L117.848 9.09375H117.081L119.425 0.386363H120.192ZM125.756 0.386363L123.412 9.09375H122.645L124.989 0.386363H125.756ZM131.32 0.386363L128.977 9.09375H128.21L130.553 0.386363H131.32ZM136.885 0.386363L134.541 9.09375H133.774L136.118 0.386363H136.885ZM142.449 0.386363L140.106 9.09375H139.339L141.682 0.386363H142.449ZM148.014 0.386363L145.67 9.09375H144.903L147.247 0.386363H148.014ZM153.578 0.386363L151.235 9.09375H150.468L152.811 0.386363H153.578ZM159.143 0.386363L156.799 9.09375H156.032L158.376 0.386363H159.143ZM164.707 0.386363L162.363 9.09375H161.596L163.94 0.386363H164.707ZM170.272 0.386363L167.928 9.09375H167.161L169.505 0.386363H170.272ZM175.836 0.386363L173.492 9.09375H172.725L175.069 0.386363H175.836ZM181.401 0.386363L179.057 9.09375H178.29L180.634 0.386363H181.401ZM186.965 0.386363L184.621 9.09375H183.854L186.198 0.386363H186.965ZM192.529 0.386363L190.186 9.09375H189.419L191.762 0.386363H192.529ZM198.094 0.386363L195.75 9.09375H194.983L197.327 0.386363H198.094ZM203.658 0.386363L201.315 9.09375H200.548L202.891 0.386363H203.658ZM209.223 0.386363L206.879 9.09375H206.112L208.456 0.386363H209.223ZM214.787 0.386363L212.444 9.09375H211.676L214.02 0.386363H214.787ZM220.352 0.386363L218.008 9.09375H217.241L219.585 0.386363H220.352ZM225.916 0.386363L223.572 9.09375H222.805L225.149 0.386363H225.916ZM231.481 0.386363L229.137 9.09375H228.37L230.714 0.386363H231.481ZM237.045 0.386363L234.701 9.09375H233.934L236.278 0.386363H237.045ZM242.61 0.386363L240.266 9.09375H239.499L241.843 0.386363H242.61ZM248.174 0.386363L245.83 9.09375H245.063L247.407 0.386363H248.174ZM253.738 0.386363L251.395 9.09375H250.628L252.971 0.386363H253.738ZM259.303 0.386363L256.959 9.09375H256.192L258.536 0.386363H259.303ZM264.867 0.386363L262.524 9.09375H261.757L264.1 0.386363H264.867ZM270.432 0.386363L268.088 9.09375H267.321L269.665 0.386363H270.432ZM275.996 0.386363L273.653 9.09375H272.885L275.229 0.386363H275.996ZM281.561 0.386363L279.217 9.09375H278.45L280.794 0.386363H281.561ZM287.125 0.386363L284.781 9.09375H284.014L286.358 0.386363H287.125ZM292.69 0.386363L290.346 9.09375H289.579L291.923 0.386363H292.69ZM298.254 0.386363L295.91 9.09375H295.143L297.487 0.386363H298.254ZM303.819 0.386363L301.475 9.09375H300.708L303.051 0.386363H303.819ZM309.383 0.386363L307.039 9.09375H306.272L308.616 0.386363H309.383ZM314.947 0.386363L312.604 9.09375H311.837L314.18 0.386363H314.947ZM320.512 0.386363L318.168 9.09375H317.401L319.745 0.386363H320.512ZM326.076 0.386363L323.733 9.09375H322.966L325.309 0.386363H326.076ZM331.641 0.386363L329.297 9.09375H328.53L330.874 0.386363H331.641ZM337.205 0.386363L334.862 9.09375H334.094L336.438 0.386363H337.205ZM342.77 0.386363L340.426 9.09375H339.659L342.003 0.386363H342.77ZM348.334 0.386363L345.99 9.09375H345.223L347.567 0.386363H348.334ZM353.899 0.386363L351.555 9.09375H350.788L353.132 0.386363H353.899ZM359.463 0.386363L357.119 9.09375H356.352L358.696 0.386363H359.463ZM365.028 0.386363L362.684 9.09375H361.917L364.26 0.386363H365.028ZM370.592 0.386363L368.248 9.09375H367.481L369.825 0.386363H370.592ZM376.156 0.386363L373.813 9.09375H373.046L375.389 0.386363H376.156ZM381.721 0.386363L379.377 9.09375H378.61L380.954 0.386363H381.721ZM387.285 0.386363L384.942 9.09375H384.175L386.518 0.386363H387.285ZM392.85 0.386363L390.506 9.09375H389.739L392.083 0.386363H392.85ZM398.414 0.386363L396.07 9.09375H395.303L397.647 0.386363H398.414ZM403.979 0.386363L401.635 9.09375H400.868L403.212 0.386363H403.979ZM409.543 0.386363L407.199 9.09375H406.432L408.776 0.386363H409.543ZM415.108 0.386363L412.764 9.09375H411.997L414.341 0.386363H415.108ZM420.672 0.386363L418.328 9.09375H417.561L419.905 0.386363H420.672ZM426.237 0.386363L423.893 9.09375H423.126L425.469 0.386363H426.237ZM431.801 0.386363L429.457 9.09375H428.69L431.034 0.386363H431.801ZM437.365 0.386363L435.022 9.09375H434.255L436.598 0.386363H437.365ZM442.93 0.386363L440.586 9.09375H439.819L442.163 0.386363H442.93ZM448.494 0.386363L446.151 9.09375H445.384L447.727 0.386363H448.494ZM454.059 0.386363L451.715 9.09375H450.948L453.292 0.386363H454.059ZM459.623 0.386363L457.279 9.09375H456.512L458.856 0.386363H459.623ZM465.188 0.386363L462.844 9.09375H462.077L464.421 0.386363H465.188ZM470.752 0.386363L468.408 9.09375H467.641L469.985 0.386363H470.752ZM476.317 0.386363L473.973 9.09375H473.206L475.55 0.386363H476.317ZM481.881 0.386363L479.537 9.09375H478.77L481.114 0.386363H481.881ZM487.445 0.386363L485.102 9.09375H484.335L486.678 0.386363H487.445ZM493.01 0.386363L490.666 9.09375H489.899L492.243 0.386363H493.01ZM498.574 0.386363L496.231 9.09375H495.464L497.807 0.386363H498.574ZM504.139 0.386363L501.795 9.09375H501.028L503.372 0.386363H504.139ZM509.703 0.386363L507.36 9.09375H506.593L508.936 0.386363H509.703ZM515.268 0.386363L512.924 9.09375H512.157L514.501 0.386363H515.268ZM520.832 0.386363L518.488 9.09375H517.721L520.065 0.386363H520.832ZM526.397 0.386363L524.053 9.09375H523.286L525.63 0.386363H526.397ZM531.961 0.386363L529.617 9.09375H528.85L531.194 0.386363H531.961ZM537.526 0.386363L535.182 9.09375H534.415L536.759 0.386363H537.526ZM543.09 0.386363L540.746 9.09375H539.979L542.323 0.386363H543.09ZM548.654 0.386363L546.311 9.09375H545.544L547.887 0.386363H548.654ZM554.219 0.386363L551.875 9.09375H551.108L553.452 0.386363H554.219ZM559.783 0.386363L557.44 9.09375H556.673L559.016 0.386363H559.783ZM565.348 0.386363L563.004 9.09375H562.237L564.581 0.386363H565.348ZM570.912 0.386363L568.569 9.09375H567.801L570.145 0.386363H570.912ZM576.477 0.386363L574.133 9.09375H573.366L575.71 0.386363H576.477ZM582.041 0.386363L579.697 9.09375H578.93L581.274 0.386363H582.041ZM587.606 0.386363L585.262 9.09375H584.495L586.839 0.386363H587.606ZM593.17 0.386363L590.826 9.09375H590.059L592.403 0.386363H593.17ZM598.735 0.386363L596.391 9.09375H595.624L597.968 0.386363H598.735ZM604.299 0.386363L601.955 9.09375H601.188L603.532 0.386363H604.299ZM609.863 0.386363L607.52 9.09375H606.753L609.096 0.386363H609.863ZM615.428 0.386363L613.084 9.09375H612.317L614.661 0.386363H615.428ZM620.992 0.386363L618.649 9.09375H617.882L620.225 0.386363H620.992ZM626.557 0.386363L624.213 9.09375H623.446L625.79 0.386363H626.557ZM632.121 0.386363L629.778 9.09375H629.01L631.354 0.386363H632.121ZM637.686 0.386363L635.342 9.09375H634.575L636.919 0.386363H637.686ZM643.25 0.386363L640.906 9.09375H640.139L642.483 0.386363H643.25ZM648.815 0.386363L646.471 9.09375H645.704L648.048 0.386363H648.815ZM654.379 0.386363L652.035 9.09375H651.268L653.612 0.386363H654.379ZM659.944 0.386363L657.6 9.09375H656.833L659.176 0.386363H659.944ZM665.508 0.386363L663.164 9.09375H662.397L664.741 0.386363H665.508ZM671.072 0.386363L668.729 9.09375H667.962L670.305 0.386363H671.072ZM676.637 0.386363L674.293 9.09375H673.526L675.87 0.386363H676.637ZM682.201 0.386363L679.858 9.09375H679.091L681.434 0.386363H682.201ZM687.766 0.386363L685.422 9.09375H684.655L686.999 0.386363H687.766ZM693.33 0.386363L690.987 9.09375H690.219L692.563 0.386363H693.33ZM698.895 0.386363L696.551 9.09375H695.784L698.128 0.386363H698.895ZM704.459 0.386363L702.115 9.09375H701.348L703.692 0.386363H704.459ZM710.024 0.386363L707.68 9.09375H706.913L709.257 0.386363H710.024ZM715.588 0.386363L713.244 9.09375H712.477L714.821 0.386363H715.588ZM721.153 0.386363L718.809 9.09375H718.042L720.385 0.386363H721.153ZM726.717 0.386363L724.373 9.09375H723.606L725.95 0.386363H726.717ZM732.281 0.386363L729.938 9.09375H729.171L731.514 0.386363H732.281ZM737.846 0.386363L735.502 9.09375H734.735L737.079 0.386363H737.846ZM743.41 0.386363L741.067 9.09375H740.3L742.643 0.386363H743.41ZM748.975 0.386363L746.631 9.09375H745.864L748.208 0.386363H748.975ZM754.539 0.386363L752.195 9.09375H751.428L753.772 0.386363H754.539ZM760.104 0.386363L757.76 9.09375H756.993L759.337 0.386363H760.104ZM765.668 0.386363L763.324 9.09375H762.557L764.901 0.386363H765.668ZM771.233 0.386363L768.889 9.09375H768.122L770.466 0.386363H771.233ZM776.797 0.386363L774.453 9.09375H773.686L776.03 0.386363H776.797ZM782.362 0.386363L780.018 9.09375H779.251L781.594 0.386363H782.362ZM787.926 0.386363L785.582 9.09375H784.815L787.159 0.386363H787.926ZM793.49 0.386363L791.147 9.09375H790.38L792.723 0.386363H793.49ZM799.055 0.386363L796.711 9.09375H795.944L798.288 0.386363H799.055ZM804.619 0.386363L802.276 9.09375H801.509L803.852 0.386363H804.619ZM810.184 0.386363L807.84 9.09375H807.073L809.417 0.386363H810.184ZM815.748 0.386363L813.404 9.09375H812.637L814.981 0.386363H815.748ZM821.313 0.386363L818.969 9.09375H818.202L820.546 0.386363H821.313ZM826.877 0.386363L824.533 9.09375H823.766L826.11 0.386363H826.877ZM832.442 0.386363L830.098 9.09375H829.331L831.675 0.386363H832.442ZM838.006 0.386363L835.662 9.09375H834.895L837.239 0.386363H838.006ZM843.57 0.386363L841.227 9.09375H840.46L842.803 0.386363H843.57ZM849.135 0.386363L846.791 9.09375H846.024L848.368 0.386363H849.135ZM854.699 0.386363L852.356 9.09375H851.589L853.932 0.386363H854.699Z" fill="black" fill-opacity="0.2"/>
</svg>
