<svg width="20" height="21" viewBox="0 0 20 21" fill="none" xmlns="http://www.w3.org/2000/svg">
<path d="M7.42467 17.7243C7.26634 17.7243 7.10801 17.666 6.98301 17.541C6.74134 17.2993 6.74134 16.8993 6.98301 16.6576L12.4163 11.2243C12.8163 10.8243 12.8163 10.1743 12.4163 9.77428L6.98301 4.34095C6.74134 4.09928 6.74134 3.69928 6.98301 3.45762C7.22467 3.21595 7.62467 3.21595 7.86634 3.45762L13.2997 8.89095C13.7247 9.31595 13.9663 9.89095 13.9663 10.4993C13.9663 11.1076 13.733 11.6826 13.2997 12.1076L7.86634 17.541C7.74134 17.6576 7.58301 17.7243 7.42467 17.7243Z" fill="#515158"/>
</svg>
