<svg width="16" height="17" viewBox="0 0 16 17" fill="none" xmlns="http://www.w3.org/2000/svg">
<path d="M7.99967 15.6663C4.04634 15.6663 0.833008 12.453 0.833008 8.49967C0.833008 4.54634 4.04634 1.33301 7.99967 1.33301C11.953 1.33301 15.1663 4.54634 15.1663 8.49967C15.1663 12.453 11.953 15.6663 7.99967 15.6663ZM7.99967 2.33301C4.59967 2.33301 1.83301 5.09967 1.83301 8.49967C1.83301 11.8997 4.59967 14.6663 7.99967 14.6663C11.3997 14.6663 14.1663 11.8997 14.1663 8.49967C14.1663 5.09967 11.3997 2.33301 7.99967 2.33301Z" fill="#808089"/>
<path d="M10.4731 11.1202C10.3864 11.1202 10.2998 11.1002 10.2198 11.0468L8.1531 9.8135C7.63977 9.50684 7.25977 8.8335 7.25977 8.24017V5.50684C7.25977 5.2335 7.48643 5.00684 7.75977 5.00684C8.0331 5.00684 8.25977 5.2335 8.25977 5.50684V8.24017C8.25977 8.48017 8.45977 8.8335 8.66643 8.9535L10.7331 10.1868C10.9731 10.3268 11.0464 10.6335 10.9064 10.8735C10.8064 11.0335 10.6398 11.1202 10.4731 11.1202Z" fill="#808089"/>
</svg>
