<svg width="16" height="17" viewBox="0 0 16 17" fill="none" xmlns="http://www.w3.org/2000/svg">
<path d="M11.633 15.6663C10.8797 15.6663 10.0863 15.4863 9.26634 15.1397C8.46634 14.7997 7.65968 14.333 6.87301 13.7663C6.09301 13.193 5.33967 12.553 4.62634 11.853C3.91967 11.1397 3.27967 10.3863 2.71301 9.61301C2.13967 8.81301 1.67967 8.01301 1.35301 7.23967C1.00634 6.41301 0.833008 5.61301 0.833008 4.85967C0.833008 4.33967 0.926341 3.84634 1.10634 3.38634C1.29301 2.91301 1.59301 2.47301 1.99967 2.09301C2.51301 1.58634 3.09967 1.33301 3.72634 1.33301C3.98634 1.33301 4.25301 1.39301 4.47967 1.49967C4.73967 1.61967 4.95967 1.79967 5.11967 2.03967L6.66634 4.21967C6.80634 4.41301 6.91301 4.59967 6.98634 4.78634C7.07301 4.98634 7.11967 5.18634 7.11967 5.37967C7.11967 5.63301 7.04634 5.87967 6.90634 6.11301C6.80634 6.29301 6.65301 6.48634 6.45967 6.67968L6.00634 7.15301C6.01301 7.17301 6.01967 7.18634 6.02634 7.19967C6.10634 7.33967 6.26634 7.57967 6.57301 7.93967C6.89967 8.31301 7.20634 8.65301 7.51301 8.96634C7.90634 9.35301 8.23301 9.65967 8.53967 9.91301C8.91967 10.233 9.16634 10.393 9.31301 10.4663L9.29967 10.4997L9.78634 10.0197C9.99301 9.81301 10.193 9.65967 10.3863 9.55968C10.753 9.33301 11.2197 9.29301 11.6863 9.48634C11.8597 9.55967 12.0463 9.65967 12.2463 9.79967L14.4597 11.373C14.7063 11.5397 14.8863 11.753 14.993 12.0063C15.093 12.2597 15.1397 12.493 15.1397 12.7263C15.1397 13.0463 15.0663 13.3663 14.9263 13.6663C14.7863 13.9663 14.613 14.2263 14.393 14.4663C14.013 14.8863 13.5997 15.1863 13.1197 15.3797C12.6597 15.5663 12.1597 15.6663 11.633 15.6663ZM3.72634 2.33301C3.35967 2.33301 3.01967 2.49301 2.69301 2.81301C2.38634 3.09967 2.17301 3.41301 2.03967 3.75301C1.89967 4.09967 1.83301 4.46634 1.83301 4.85967C1.83301 5.47967 1.97967 6.15301 2.27301 6.84634C2.57301 7.55301 2.99301 8.28634 3.52634 9.01967C4.05967 9.75301 4.66634 10.4663 5.33301 11.1397C5.99967 11.7997 6.71967 12.413 7.45967 12.953C8.17967 13.4797 8.91967 13.9063 9.65301 14.213C10.793 14.6997 11.8597 14.813 12.7397 14.4463C13.0797 14.3063 13.3797 14.093 13.653 13.7863C13.8063 13.6197 13.9263 13.4397 14.0263 13.2263C14.1063 13.0597 14.1463 12.8863 14.1463 12.713C14.1463 12.6063 14.1263 12.4997 14.073 12.3797C14.053 12.3397 14.013 12.2663 13.8863 12.1797L11.673 10.6063C11.5397 10.513 11.4197 10.4463 11.3063 10.3997C11.1597 10.3397 11.0997 10.2797 10.873 10.4197C10.7397 10.4863 10.6197 10.5863 10.4863 10.7197L9.97968 11.2197C9.71968 11.473 9.31968 11.533 9.01301 11.4197L8.83301 11.3397C8.55967 11.193 8.23967 10.9663 7.88634 10.6663C7.56634 10.393 7.21967 10.073 6.79967 9.65967C6.47301 9.32634 6.14634 8.97301 5.80634 8.57967C5.49301 8.21301 5.26634 7.89967 5.12634 7.63967L5.04634 7.43967C5.00634 7.28634 4.99301 7.19967 4.99301 7.10634C4.99301 6.86634 5.07967 6.65301 5.24634 6.48634L5.74634 5.96634C5.87967 5.83301 5.97967 5.70634 6.04634 5.59301C6.09967 5.50634 6.11967 5.43301 6.11967 5.36634C6.11967 5.31301 6.09967 5.23301 6.06634 5.15301C6.01967 5.04634 5.94634 4.92634 5.85301 4.79967L4.30634 2.61301C4.23967 2.51967 4.15967 2.45301 4.05967 2.40634C3.95301 2.35967 3.83967 2.33301 3.72634 2.33301ZM9.29967 10.5063L9.19301 10.9597L9.37301 10.493C9.33967 10.4863 9.31301 10.493 9.29967 10.5063Z" fill="#808089"/>
</svg>
