<svg width="16" height="17" viewBox="0 0 16 17" fill="none" xmlns="http://www.w3.org/2000/svg">
<path d="M8.00033 8.99967C5.88699 8.99967 4.16699 7.27967 4.16699 5.16634C4.16699 3.05301 5.88699 1.33301 8.00033 1.33301C10.1137 1.33301 11.8337 3.05301 11.8337 5.16634C11.8337 7.27967 10.1137 8.99967 8.00033 8.99967ZM8.00033 2.33301C6.44033 2.33301 5.16699 3.60634 5.16699 5.16634C5.16699 6.72634 6.44033 7.99967 8.00033 7.99967C9.56033 7.99967 10.8337 6.72634 10.8337 5.16634C10.8337 3.60634 9.56033 2.33301 8.00033 2.33301Z" fill="#808089"/>
<path d="M13.7268 15.6667C13.4534 15.6667 13.2268 15.44 13.2268 15.1667C13.2268 12.8667 10.8801 11 8.0001 11C5.1201 11 2.77344 12.8667 2.77344 15.1667C2.77344 15.44 2.54677 15.6667 2.27344 15.6667C2.0001 15.6667 1.77344 15.44 1.77344 15.1667C1.77344 12.32 4.56677 10 8.0001 10C11.4334 10 14.2268 12.32 14.2268 15.1667C14.2268 15.44 14.0001 15.6667 13.7268 15.6667Z" fill="#808089"/>
</svg>
