<svg width="165" height="130" viewBox="0 0 165 130" fill="none" xmlns="http://www.w3.org/2000/svg">
<path opacity="0.7" d="M82.5 105.594C126.959 105.594 163 102.16 163 97.9232C163 93.6865 126.959 90.2519 82.5 90.2519C38.0411 90.2519 2 93.6865 2 97.9232C2 102.16 38.0411 105.594 82.5 105.594Z" fill="#FAFAFC"/>
<path opacity="0.4" d="M137.397 41.7314H27.6506L29.4246 94.2793C29.5205 96.5328 31.3424 98.3067 33.5479 98.3067H131.452C133.705 98.3067 135.527 96.5328 135.575 94.2793L137.397 41.7314Z" fill="#D6DCE8"/>
<g filter="url(#filter0_d_2268_345526)">
<path d="M137.397 39.8135L136.63 61.8683L135.575 92.4094C135.48 94.6629 133.658 96.3889 131.452 96.3889H33.548C31.2946 96.3889 29.4726 94.6149 29.4247 92.4094L28.3699 61.8683L27.6028 39.8135H137.397Z" fill="url(#paint0_linear_2268_345526)"/>
</g>
<path d="M98.0342 26.7725H66.9657C62.5068 26.7725 58.9109 23.1766 58.9109 18.7177V8.74506C58.9109 4.28615 62.5068 0.690262 66.9657 0.690262H98.0342C102.493 0.690262 106.089 4.28615 106.089 8.74506V18.7177C106.089 23.1766 102.493 26.7725 98.0342 26.7725ZM66.9657 6.44369C65.7191 6.44369 64.6643 7.49848 64.6643 8.74506V18.7177C64.6643 19.9642 65.7191 21.019 66.9657 21.019H98.0342C99.2808 21.019 100.336 19.9642 100.336 18.7177V8.74506C100.336 7.49848 99.2808 6.44369 98.0342 6.44369H66.9657Z" fill="#D5DDEA"/>
<g filter="url(#filter1_d_2268_345526)">
<path d="M137.158 57.3614H27.8425C24.8699 57.3614 22.6165 54.7724 22.9521 51.8477L26.6918 20.0121C26.9316 17.9984 28.6096 16.5121 30.6233 16.5121H134.329C136.343 16.5121 138.069 18.0463 138.26 20.0121L142 51.8477C142.384 54.7724 140.13 57.3614 137.158 57.3614Z" fill="url(#paint1_linear_2268_345526)"/>
</g>
<path d="M57.0411 66.1358H46.4931C45.5342 66.1358 44.7671 65.3686 44.7671 64.4097V53.8618C44.7671 52.9029 45.5342 52.1358 46.4931 52.1358H57.0411C58 52.1358 58.7671 52.9029 58.7671 53.8618V64.4097C58.7671 65.3686 58 66.1358 57.0411 66.1358ZM48.2191 62.6358H55.315V55.5399H48.2191V62.6358Z" fill="#989FB0"/>
<path d="M118.507 66.1355H107.959C107 66.1355 106.233 65.3684 106.233 64.4095V53.8615C106.233 52.9026 107 52.1355 107.959 52.1355H118.507C119.466 52.1355 120.233 52.9026 120.233 53.8615V64.4095C120.233 65.3684 119.466 66.1355 118.507 66.1355ZM109.733 62.6355H116.829V55.5396H109.733V62.6355Z" fill="#989FB0"/>
<defs>
<filter id="filter0_d_2268_345526" x="5.60278" y="28.8135" width="153.795" height="100.575" filterUnits="userSpaceOnUse" color-interpolation-filters="sRGB">
<feFlood flood-opacity="0" result="BackgroundImageFix"/>
<feColorMatrix in="SourceAlpha" type="matrix" values="0 0 0 0 0 0 0 0 0 0 0 0 0 0 0 0 0 0 127 0" result="hardAlpha"/>
<feOffset dy="11"/>
<feGaussianBlur stdDeviation="11"/>
<feColorMatrix type="matrix" values="0 0 0 0 0.397708 0 0 0 0 0.47749 0 0 0 0 0.575 0 0 0 0.27 0"/>
<feBlend mode="normal" in2="BackgroundImageFix" result="effect1_dropShadow_2268_345526"/>
<feBlend mode="normal" in="SourceGraphic" in2="effect1_dropShadow_2268_345526" result="shape"/>
</filter>
<filter id="filter1_d_2268_345526" x="0.918945" y="5.51208" width="163.124" height="84.8493" filterUnits="userSpaceOnUse" color-interpolation-filters="sRGB">
<feFlood flood-opacity="0" result="BackgroundImageFix"/>
<feColorMatrix in="SourceAlpha" type="matrix" values="0 0 0 0 0 0 0 0 0 0 0 0 0 0 0 0 0 0 127 0" result="hardAlpha"/>
<feOffset dy="11"/>
<feGaussianBlur stdDeviation="11"/>
<feColorMatrix type="matrix" values="0 0 0 0 0.397708 0 0 0 0 0.47749 0 0 0 0 0.575 0 0 0 0.27 0"/>
<feBlend mode="normal" in2="BackgroundImageFix" result="effect1_dropShadow_2268_345526"/>
<feBlend mode="normal" in="SourceGraphic" in2="effect1_dropShadow_2268_345526" result="shape"/>
</filter>
<linearGradient id="paint0_linear_2268_345526" x1="82.4643" y1="38.5049" x2="82.4643" y2="96.9988" gradientUnits="userSpaceOnUse">
<stop stop-color="#FDFEFF"/>
<stop offset="0.9964" stop-color="#ECF0F5"/>
</linearGradient>
<linearGradient id="paint1_linear_2268_345526" x1="82.442" y1="15.5672" x2="82.442" y2="57.8018" gradientUnits="userSpaceOnUse">
<stop stop-color="#F3F6FB"/>
<stop offset="0.9964" stop-color="#ECF0F5"/>
</linearGradient>
</defs>
</svg>
