<svg width="20" height="21" viewBox="0 0 20 21" fill="none" xmlns="http://www.w3.org/2000/svg">
<path d="M14.2494 1.32635H10.7493C7.49102 1.32635 6.04102 2.77635 6.04102 6.03469V6.95135C6.04102 7.29302 6.32435 7.57635 6.66602 7.57635H9.24935C11.8327 7.57635 12.7077 8.45135 12.7077 11.0347V13.618C12.7077 13.9597 12.991 14.243 13.3327 14.243H14.2494C17.5077 14.243 18.9577 12.793 18.9577 9.53469V6.03469C18.9577 2.77635 17.5077 1.32635 14.2494 1.32635ZM7.29102 6.32635V6.03469C7.29102 3.45135 8.16602 2.57635 10.7493 2.57635H14.2494C16.8327 2.57635 17.7077 3.45135 17.7077 6.03469V9.53469C17.7077 12.118 16.8327 12.993 14.2494 12.993H13.9577V11.0347C13.9577 7.77635 12.5077 6.32635 9.24935 6.32635H7.29102Z" fill="#515158"/>
<path d="M9.24935 6.32635H5.74935C2.49102 6.32635 1.04102 7.77635 1.04102 11.0347V14.5347C1.04102 17.793 2.49102 19.243 5.74935 19.243H9.24935C12.5077 19.243 13.9577 17.793 13.9577 14.5347V11.0347C13.9577 7.77635 12.5077 6.32635 9.24935 6.32635ZM5.74935 17.993C3.16602 17.993 2.29102 17.118 2.29102 14.5347V11.0347C2.29102 8.45135 3.16602 7.57636 5.74935 7.57636H9.24935C11.8327 7.57636 12.7077 8.45135 12.7077 11.0347V14.5347C12.7077 17.118 11.8327 17.993 9.24935 17.993H5.74935Z" fill="#515158"/>
<path d="M6.69128 15.0347C6.53294 15.0347 6.37461 14.9764 6.24961 14.8514L4.62461 13.2264C4.38294 12.9847 4.38294 12.5847 4.62461 12.343C4.86628 12.1014 5.26628 12.1014 5.50794 12.343L6.69128 13.5264L9.49128 10.7264C9.73294 10.4847 10.1329 10.4847 10.3746 10.7264C10.6163 10.968 10.6163 11.368 10.3746 11.6097L7.12461 14.8514C7.00794 14.968 6.84961 15.0347 6.69128 15.0347Z" fill="#515158"/>
</svg>
