<svg width="78" height="19" viewBox="0 0 78 19" fill="none" xmlns="http://www.w3.org/2000/svg">
<rect x="0.5" y="0.284668" width="77" height="18" rx="4" fill="#DDD8F7"/>
<g clip-path="url(#clip0_397_43446)">
<path d="M6.93672 4.78467H14.0637C14.1426 4.78466 14.2204 4.80332 14.2907 4.83912C14.361 4.87492 14.4218 4.92685 14.4682 4.99067L16.3797 7.61867C16.4137 7.66543 16.4304 7.72252 16.4271 7.78023C16.4237 7.83793 16.4004 7.89269 16.3612 7.93517L10.6837 14.0857C10.6603 14.111 10.6319 14.1311 10.6004 14.145C10.5688 14.1588 10.5347 14.1659 10.5002 14.1659C10.4658 14.1659 10.4317 14.1588 10.4001 14.145C10.3685 14.1311 10.3401 14.111 10.3167 14.0857L4.63922 7.93567C4.5999 7.89315 4.57655 7.8383 4.57318 7.78048C4.5698 7.72267 4.58661 7.66547 4.62072 7.61867L6.53222 4.99067C6.57861 4.92685 6.63944 4.87492 6.70975 4.83912C6.78005 4.80332 6.85783 4.78466 6.93672 4.78467Z" fill="#270DB8"/>
<path opacity="0.42" d="M7.22705 7.03238L10.1461 10.6483L14.3998 5.08466L10.1461 8.561L7.22705 7.03238Z" fill="#DDD8F7"/>
</g>
<path d="M21.2173 12.7847V5.51194H22.5348V8.85356H22.6236L25.4609 5.51194H27.0696L24.2571 8.77543L27.0945 12.7847H25.5107L23.3409 9.66677L22.5348 10.6185V12.7847H21.2173ZM28.2699 12.7847V7.33012H29.5554V12.7847H28.2699ZM28.9162 6.55597C28.7126 6.55597 28.5374 6.4885 28.3906 6.35356C28.2438 6.21625 28.1705 6.05171 28.1705 5.85995C28.1705 5.66582 28.2438 5.50129 28.3906 5.36634C28.5374 5.22903 28.7126 5.16038 28.9162 5.16038C29.1222 5.16038 29.2973 5.22903 29.4418 5.36634C29.5885 5.50129 29.6619 5.66582 29.6619 5.85995C29.6619 6.05171 29.5885 6.21625 29.4418 6.35356C29.2973 6.4885 29.1222 6.55597 28.9162 6.55597ZM30.8773 12.7847V7.33012H32.106V8.25697H32.1699C32.2836 7.94447 32.4718 7.70062 32.7346 7.52543C32.9973 7.34788 33.311 7.2591 33.6756 7.2591C34.0449 7.2591 34.3562 7.34906 34.6096 7.52899C34.8652 7.70654 35.0452 7.9492 35.1493 8.25697H35.2061C35.3269 7.95394 35.5305 7.71246 35.8169 7.53254C36.1058 7.35025 36.4479 7.2591 36.8432 7.2591C37.3451 7.2591 37.7547 7.41772 38.0719 7.73495C38.3891 8.05219 38.5478 8.51502 38.5478 9.12345V12.7847H37.2587V9.32231C37.2587 8.98377 37.1687 8.73637 36.9888 8.58012C36.8089 8.4215 36.5887 8.3422 36.3283 8.3422C36.0182 8.3422 35.7755 8.43926 35.6003 8.63339C35.4275 8.82515 35.3411 9.07491 35.3411 9.38268V12.7847H34.0804V9.26904C34.0804 8.98732 33.9952 8.76241 33.8248 8.59433C33.6567 8.42624 33.4365 8.3422 33.1642 8.3422C32.9796 8.3422 32.8115 8.38954 32.66 8.48424C32.5085 8.57657 32.3877 8.70796 32.2978 8.87842C32.2078 9.04651 32.1628 9.243 32.1628 9.46791V12.7847H30.8773ZM44.7116 12.8912C44.1671 12.8912 43.6996 12.7716 43.3089 12.5325C42.9207 12.2934 42.6212 11.9632 42.4105 11.5418C42.2022 11.118 42.098 10.6303 42.098 10.0787C42.098 9.52472 42.2045 9.03585 42.4176 8.61208C42.6307 8.18595 42.9313 7.85451 43.3196 7.61776C43.7102 7.37865 44.1719 7.2591 44.7045 7.2591C45.1473 7.2591 45.5391 7.34078 45.88 7.50413C46.2232 7.66511 46.4967 7.89357 46.7003 8.1895C46.9039 8.48306 47.0199 8.82633 47.0483 9.21933H45.8196C45.7699 8.95654 45.6515 8.73756 45.4645 8.56237C45.2798 8.38481 45.0324 8.29603 44.7223 8.29603C44.4595 8.29603 44.2287 8.36705 44.0298 8.5091C43.831 8.64878 43.6759 8.85001 43.5646 9.11279C43.4557 9.37558 43.4013 9.69044 43.4013 10.0574C43.4013 10.4291 43.4557 10.7487 43.5646 11.0162C43.6735 11.2814 43.8262 11.4861 44.0227 11.6305C44.2216 11.7726 44.4548 11.8436 44.7223 11.8436C44.9117 11.8436 45.081 11.8081 45.2301 11.7371C45.3816 11.6637 45.5083 11.5583 45.6101 11.421C45.7119 11.2837 45.7817 11.1168 45.8196 10.9203H47.0483C47.0175 11.3062 46.9039 11.6483 46.7074 11.9466C46.5109 12.2425 46.2434 12.4745 45.9048 12.6426C45.5663 12.8083 45.1686 12.8912 44.7116 12.8912ZM53.5868 7.04958H54.4142C54.4142 7.44257 54.3574 7.77283 54.2438 8.04035C54.1325 8.3055 53.9419 8.50555 53.6721 8.64049C53.4022 8.77543 53.0293 8.84291 52.5534 8.84291V8.1966C52.8707 8.1966 53.1015 8.15635 53.2459 8.07586C53.3903 7.993 53.4827 7.86634 53.5229 7.69589C53.5632 7.52543 53.5845 7.31 53.5868 7.04958ZM51.6017 10.4906V7.33012H52.8908V12.7847H51.6408V11.8152H51.584C51.4609 12.1206 51.2585 12.3704 50.9767 12.5645C50.6974 12.7586 50.3529 12.8557 49.9434 12.8557C49.5859 12.8557 49.2698 12.7764 48.9952 12.6178C48.723 12.4568 48.5099 12.2236 48.356 11.9182C48.2021 11.6104 48.1252 11.2387 48.1252 10.8031V7.33012H49.4107V10.6043C49.4131 10.9499 49.5078 11.2245 49.6948 11.4281C49.8842 11.6317 50.1328 11.7335 50.4405 11.7335C50.6299 11.7335 50.8134 11.6874 50.9909 11.595C51.1709 11.5027 51.3176 11.3654 51.4313 11.1831C51.5473 10.9984 51.6041 10.7676 51.6017 10.4906ZM59.5882 6.98211H60.4476C60.4476 7.55976 60.3127 8.01431 60.0428 8.34575C59.7753 8.67482 59.3302 8.83936 58.7076 8.83936V8.23566C58.9538 8.23566 59.1396 8.18476 59.2651 8.08296C59.3929 7.98116 59.4782 7.83675 59.5208 7.64972C59.5658 7.46033 59.5882 7.23779 59.5882 6.98211ZM57.28 12.8912C56.7473 12.8912 56.2857 12.774 55.8951 12.5396C55.5044 12.3053 55.2014 11.9774 54.986 11.556C54.7729 11.1346 54.6664 10.6421 54.6664 10.0787C54.6664 9.51525 54.7729 9.02165 54.986 8.59788C55.2014 8.17411 55.5044 7.84504 55.8951 7.61066C56.2857 7.37629 56.7473 7.2591 57.28 7.2591C57.8127 7.2591 58.2743 7.37629 58.665 7.61066C59.0556 7.84504 59.3574 8.17411 59.5705 8.59788C59.7859 9.02165 59.8936 9.51525 59.8936 10.0787C59.8936 10.6421 59.7859 11.1346 59.5705 11.556C59.3574 11.9774 59.0556 12.3053 58.665 12.5396C58.2743 12.774 57.8127 12.8912 57.28 12.8912ZM57.2871 11.8614C57.5759 11.8614 57.8174 11.7821 58.0115 11.6234C58.2057 11.4625 58.3501 11.247 58.4448 10.9771C58.5418 10.7073 58.5904 10.4066 58.5904 10.0752C58.5904 9.74134 58.5418 9.4395 58.4448 9.16961C58.3501 8.89736 58.2057 8.68074 58.0115 8.51975C57.8174 8.35877 57.5759 8.27828 57.2871 8.27828C56.9912 8.27828 56.745 8.35877 56.5485 8.51975C56.3543 8.68074 56.2087 8.89736 56.1117 9.16961C56.017 9.4395 55.9696 9.74134 55.9696 10.0752C55.9696 10.4066 56.017 10.7073 56.1117 10.9771C56.2087 11.247 56.3543 11.4625 56.5485 11.6234C56.745 11.7821 56.9912 11.8614 57.2871 11.8614ZM62.3972 9.58865V12.7847H61.1117V7.33012H62.3404V8.25697H62.4043C62.5298 7.95157 62.7298 7.70891 63.0044 7.52899C63.2814 7.34906 63.6235 7.2591 64.0307 7.2591C64.4071 7.2591 64.735 7.33959 65.0144 7.50058C65.2961 7.66156 65.5139 7.89475 65.6678 8.20015C65.824 8.50555 65.901 8.87605 65.8986 9.31166V12.7847H64.6131V9.51052C64.6131 9.14594 64.5184 8.86066 64.329 8.6547C64.142 8.44873 63.8828 8.34575 63.5513 8.34575C63.3264 8.34575 63.1264 8.39546 62.9512 8.4949C62.7783 8.59196 62.6422 8.73282 62.5428 8.91748C62.4457 9.10214 62.3972 9.32586 62.3972 9.58865ZM69.5776 14.9438C69.1159 14.9438 68.7194 14.881 68.388 14.7555C68.0565 14.6324 67.7902 14.4667 67.589 14.2584C67.3877 14.0501 67.248 13.8192 67.1699 13.5659L68.3276 13.2854C68.3797 13.3919 68.4554 13.4973 68.5549 13.6014C68.6543 13.708 68.7881 13.7956 68.9561 13.8642C69.1266 13.9352 69.3408 13.9707 69.5989 13.9707C69.9635 13.9707 70.2653 13.882 70.5044 13.7044C70.7435 13.5292 70.8631 13.2404 70.8631 12.8379V11.8046H70.7992C70.7329 11.9371 70.6358 12.0733 70.508 12.2129C70.3825 12.3526 70.2156 12.4698 70.0073 12.5645C69.8013 12.6592 69.5421 12.7065 69.2296 12.7065C68.8105 12.7065 68.4306 12.6083 68.0897 12.4118C67.7511 12.2129 67.4812 11.917 67.28 11.524C67.0811 11.1287 66.9817 10.6339 66.9817 10.0396C66.9817 9.44068 67.0811 8.93524 67.28 8.5233C67.4812 8.10901 67.7523 7.79532 68.0932 7.58225C68.4341 7.36682 68.8141 7.2591 69.2331 7.2591C69.5527 7.2591 69.8155 7.31355 70.0215 7.42245C70.2298 7.52899 70.3955 7.65801 70.5186 7.80953C70.6417 7.95867 70.7353 8.09954 70.7992 8.23211H70.8702V7.33012H72.138V12.8734C72.138 13.3398 72.0267 13.7257 71.8042 14.0311C71.5816 14.3365 71.2774 14.565 70.8915 14.7165C70.5056 14.868 70.0676 14.9438 69.5776 14.9438ZM69.5882 11.698C69.8605 11.698 70.0925 11.6317 70.2843 11.4992C70.476 11.3666 70.6216 11.176 70.7211 10.9274C70.8205 10.6788 70.8702 10.3805 70.8702 10.0325C70.8702 9.68926 70.8205 9.3886 70.7211 9.13055C70.624 8.8725 70.4796 8.67245 70.2878 8.53041C70.0984 8.38599 69.8652 8.31379 69.5882 8.31379C69.3018 8.31379 69.0627 8.38836 68.8709 8.53751C68.6792 8.68666 68.5347 8.89144 68.4377 9.15186C68.3406 9.4099 68.2921 9.70347 68.2921 10.0325C68.2921 10.3663 68.3406 10.6587 68.4377 10.9097C68.5371 11.1582 68.6827 11.3524 68.8745 11.4921C69.0686 11.6294 69.3065 11.698 69.5882 11.698Z" fill="#270DB8"/>
<defs>
<clipPath id="clip0_397_43446">
<rect width="12" height="12" fill="white" transform="translate(4.5 3.28467)"/>
</clipPath>
</defs>
</svg>
