<svg width="20" height="20" viewBox="0 0 20 20" fill="none" xmlns="http://www.w3.org/2000/svg">
<path d="M13.3333 18.9578H6.66667C3.625 18.9578 1.875 17.2078 1.875 14.1661V5.8328C1.875 2.79114 3.625 1.04114 6.66667 1.04114H13.3333C16.375 1.04114 18.125 2.79114 18.125 5.8328V14.1661C18.125 17.2078 16.375 18.9578 13.3333 18.9578ZM6.66667 2.29114C4.28333 2.29114 3.125 3.44947 3.125 5.8328V14.1661C3.125 16.5495 4.28333 17.7078 6.66667 17.7078H13.3333C15.7167 17.7078 16.875 16.5495 16.875 14.1661V5.8328C16.875 3.44947 15.7167 2.29114 13.3333 2.29114H6.66667Z" fill="#515158"/>
<path d="M15.4154 7.70785H13.7487C12.482 7.70785 11.457 6.68285 11.457 5.41618V3.74951C11.457 3.40785 11.7404 3.12451 12.082 3.12451C12.4237 3.12451 12.707 3.40785 12.707 3.74951V5.41618C12.707 5.99118 13.1737 6.45785 13.7487 6.45785H15.4154C15.757 6.45785 16.0404 6.74118 16.0404 7.08285C16.0404 7.42451 15.757 7.70785 15.4154 7.70785Z" fill="#515158"/>
<path d="M10.0013 11.4579H6.66797C6.3263 11.4579 6.04297 11.1746 6.04297 10.8329C6.04297 10.4912 6.3263 10.2079 6.66797 10.2079H10.0013C10.343 10.2079 10.6263 10.4912 10.6263 10.8329C10.6263 11.1746 10.343 11.4579 10.0013 11.4579Z" fill="#515158"/>
<path d="M13.3346 14.7911H6.66797C6.3263 14.7911 6.04297 14.5078 6.04297 14.1661C6.04297 13.8245 6.3263 13.5411 6.66797 13.5411H13.3346C13.6763 13.5411 13.9596 13.8245 13.9596 14.1661C13.9596 14.5078 13.6763 14.7911 13.3346 14.7911Z" fill="black"/>
</svg>
