<svg width="20" height="21" viewBox="0 0 20 21" fill="none" xmlns="http://www.w3.org/2000/svg">
<path d="M13.3333 19.243H6.66667C3.625 19.243 1.875 17.493 1.875 14.4514V6.11802C1.875 3.07635 3.625 1.32635 6.66667 1.32635H13.3333C16.375 1.32635 18.125 3.07635 18.125 6.11802V14.4514C18.125 17.493 16.375 19.243 13.3333 19.243ZM6.66667 2.57635C4.28333 2.57635 3.125 3.73469 3.125 6.11802V14.4514C3.125 16.8347 4.28333 17.993 6.66667 17.993H13.3333C15.7167 17.993 16.875 16.8347 16.875 14.4514V6.11802C16.875 3.73469 15.7167 2.57635 13.3333 2.57635H6.66667Z" fill="#515158"/>
<path d="M15.4173 7.993H13.7507C12.484 7.993 11.459 6.968 11.459 5.70133V4.03467C11.459 3.693 11.7423 3.40967 12.084 3.40967C12.4257 3.40967 12.709 3.693 12.709 4.03467V5.70133C12.709 6.27633 13.1757 6.743 13.7507 6.743H15.4173C15.759 6.743 16.0423 7.02633 16.0423 7.368C16.0423 7.70967 15.759 7.993 15.4173 7.993Z" fill="#515158"/>
<path d="M9.99935 11.743H6.66602C6.32435 11.743 6.04102 11.4596 6.04102 11.118C6.04102 10.7763 6.32435 10.493 6.66602 10.493H9.99935C10.341 10.493 10.6243 10.7763 10.6243 11.118C10.6243 11.4596 10.341 11.743 9.99935 11.743Z" fill="#515158"/>
<path d="M13.3327 15.0764H6.66602C6.32435 15.0764 6.04102 14.793 6.04102 14.4514C6.04102 14.1097 6.32435 13.8264 6.66602 13.8264H13.3327C13.6743 13.8264 13.9577 14.1097 13.9577 14.4514C13.9577 14.793 13.6743 15.0764 13.3327 15.0764Z" fill="black"/>
</svg>
