<svg width="20" height="21" viewBox="0 0 20 21" fill="none" xmlns="http://www.w3.org/2000/svg">
<path d="M4.61763 16.5514C4.1093 16.5514 3.6343 16.3764 3.29263 16.0514C2.8593 15.643 2.65097 15.0264 2.72597 14.3597L3.0343 11.6597C3.09263 11.1514 3.40097 10.4764 3.7593 10.1097L10.601 2.86802C12.3093 1.05969 14.0926 1.00969 15.901 2.71802C17.7093 4.42636 17.7593 6.20969 16.051 8.01802L9.2093 15.2597C8.8593 15.6347 8.2093 15.9847 7.70096 16.068L5.01763 16.5264C4.87597 16.5347 4.75097 16.5514 4.61763 16.5514ZM13.276 2.70969C12.6343 2.70969 12.076 3.10969 11.5093 3.70969L4.66763 10.9597C4.50097 11.1347 4.3093 11.5514 4.27597 11.793L3.96763 14.493C3.9343 14.768 4.00097 14.993 4.15097 15.1347C4.30097 15.2764 4.52597 15.3264 4.80097 15.2847L7.4843 14.8264C7.72597 14.7847 8.12597 14.568 8.29263 14.393L15.1343 7.15136C16.1676 6.05136 16.5426 5.03469 15.0343 3.61802C14.3676 2.97636 13.7926 2.70969 13.276 2.70969Z" fill="#515158"/>
<path d="M14.4497 9.40964C14.433 9.40964 14.408 9.40964 14.3914 9.40964C11.7914 9.15131 9.69971 7.17631 9.29971 4.59298C9.24971 4.25131 9.48305 3.93464 9.82471 3.87631C10.1664 3.82631 10.483 4.05964 10.5414 4.40131C10.858 6.41798 12.4914 7.96798 14.5247 8.16798C14.8664 8.20131 15.1164 8.50964 15.083 8.85131C15.0414 9.16798 14.7664 9.40964 14.4497 9.40964Z" fill="#515158"/>
<path d="M17.5 19.243H2.5C2.15833 19.243 1.875 18.9596 1.875 18.618C1.875 18.2763 2.15833 17.993 2.5 17.993H17.5C17.8417 17.993 18.125 18.2763 18.125 18.618C18.125 18.9596 17.8417 19.243 17.5 19.243Z" fill="#515158"/>
</svg>
