<svg width="14" height="11" viewBox="0 0 14 11" fill="none" xmlns="http://www.w3.org/2000/svg">
<g clip-path="url(#clip0_397_43425)">
<mask id="mask0_397_43425" style="mask-type:alpha" maskUnits="userSpaceOnUse" x="0" y="0" width="14" height="11">
<path d="M12.2619 0.284973H1.7381C1.05431 0.284973 0.5 0.881927 0.5 1.61831V8.95164C0.5 9.68802 1.05431 10.285 1.7381 10.285H12.2619C12.9457 10.285 13.5 9.68802 13.5 8.95164V1.61831C13.5 0.881927 12.9457 0.284973 12.2619 0.284973Z" fill="white"/>
</mask>
<g mask="url(#mask0_397_43425)">
<path d="M12.2619 0.284302H1.7381C1.05431 0.284302 0.5 0.881255 0.5 1.61764V8.95097C0.5 9.68735 1.05431 10.2843 1.7381 10.2843H12.2619C12.9457 10.2843 13.5 9.68735 13.5 8.95097V1.61764C13.5 0.881255 12.9457 0.284302 12.2619 0.284302Z" fill="#D93843"/>
<path fill-rule="evenodd" clip-rule="evenodd" d="M7.00107 6.50512L5.70726 7.23845L5.95488 5.68712L4.90869 4.58912L6.35479 4.36245L7.00107 2.95178L7.64798 4.36245L9.09345 4.58912L8.04726 5.68712L8.29488 7.23778" fill="#FFD530"/>
<path d="M12.262 0.618164H1.73814C1.22531 0.618164 0.80957 1.06588 0.80957 1.61816V8.9515C0.80957 9.50378 1.22531 9.9515 1.73814 9.9515H12.262C12.7748 9.9515 13.1905 9.50378 13.1905 8.9515V1.61816C13.1905 1.06588 12.7748 0.618164 12.262 0.618164Z" stroke="black" stroke-opacity="0.1" stroke-width="1.6"/>
</g>
</g>
<defs>
<clipPath id="clip0_397_43425">
<rect width="13" height="10" fill="white" transform="translate(0.5 0.284668)"/>
</clipPath>
</defs>
</svg>
