<svg width="75" height="19" viewBox="0 0 75 19" fill="none" xmlns="http://www.w3.org/2000/svg">
<rect x="0.5" y="0.284668" width="74" height="18" rx="4" fill="#D7FAE0"/>
<g clip-path="url(#clip0_397_43453)">
<path d="M13.6589 12.7318C13.5741 12.4296 13.2604 12.2533 12.9581 12.3382L12.7294 12.4024L12.2652 13.061C11.898 13.5821 11.2963 13.886 10.6704 13.886C10.6458 13.886 10.6212 13.8854 10.5967 13.8844C10.7577 13.9115 10.9206 13.9252 11.0839 13.9251C11.3666 13.9251 11.6538 13.8852 11.9387 13.8051L13.2654 13.4326C13.5676 13.3478 13.7438 13.034 13.6589 12.7318Z" fill="url(#paint0_linear_397_43453)"/>
<path d="M13.6589 12.7318C13.5741 12.4296 13.2604 12.2533 12.9581 12.3382L12.7294 12.4024L12.2652 13.061C11.898 13.5821 11.2963 13.886 10.6704 13.886C10.6458 13.886 10.6212 13.8854 10.5967 13.8844C10.7577 13.9115 10.9206 13.9252 11.0839 13.9251C11.3666 13.9251 11.6538 13.8852 11.9387 13.8051L13.2654 13.4326C13.5676 13.3478 13.7438 13.034 13.6589 12.7318Z" fill="url(#paint1_linear_397_43453)"/>
<path d="M10.7167 14.1458C10.6051 14.1447 10.4939 14.1339 10.3842 14.1135C10.0755 14.0562 9.87176 13.7596 9.92909 13.4509C9.9864 13.1423 10.2831 12.9385 10.5917 12.9959C10.8988 13.0529 11.2148 12.926 11.3972 12.6726L12.1533 11.6223C12.3367 11.3676 12.6919 11.3097 12.9467 11.4931C13.2014 11.6765 13.2593 12.0317 13.0759 12.2865L12.3197 13.3368C11.9472 13.8542 11.3426 14.1521 10.7167 14.1458Z" fill="url(#paint2_linear_397_43453)"/>
<path d="M12.1918 11.7188L11.8056 12.1051L11.3973 12.6722C11.2812 12.8333 11.1111 12.943 10.9236 12.9871L10.0259 13.8847C10.1112 14.0045 10.2397 14.0864 10.3843 14.113C10.494 14.1334 10.6053 14.1442 10.7169 14.1453C11.3427 14.1516 11.9474 13.8537 12.3198 13.3363L12.9433 12.4703L12.1918 11.7188Z" fill="url(#paint3_linear_397_43453)"/>
<path d="M12.1918 11.7188L11.8056 12.1051L11.3973 12.6722C11.2812 12.8333 11.1111 12.943 10.9236 12.9871L10.0259 13.8847C10.1112 14.0045 10.2397 14.0864 10.3843 14.113C10.494 14.1334 10.6053 14.1442 10.7169 14.1453C11.3427 14.1516 11.9474 13.8537 12.3198 13.3363L12.9433 12.4703L12.1918 11.7188Z" fill="url(#paint4_linear_397_43453)"/>
<path d="M9.66928 14.3455C9.65564 14.3438 9.64209 14.342 9.62845 14.34L8.57995 14.1876C8.26931 14.1425 8.05409 13.854 8.09925 13.5434C8.1438 13.2368 8.42529 13.0232 8.73117 13.061C8.73527 13.0615 8.73935 13.0621 8.74348 13.0627L9.79198 13.2151C10.1002 13.2599 10.4118 13.1208 10.5842 12.8605L11.2985 11.7813C11.4718 11.5196 11.8244 11.4478 12.0862 11.6211C12.348 11.7944 12.4197 12.1471 12.2465 12.4088L11.5321 13.488C11.1256 14.102 10.398 14.4355 9.66928 14.3455Z" fill="url(#paint5_linear_397_43453)"/>
<path d="M11.3454 12.0023L10.7745 12.5731L10.5843 12.8605C10.4836 13.0126 10.3353 13.1228 10.168 13.1797L9.08643 14.2612L9.62856 14.34C9.6422 14.342 9.65575 14.3439 9.66939 14.3455C10.3982 14.4356 11.1257 14.102 11.5322 13.488L12.0495 12.7065L11.3454 12.0023Z" fill="url(#paint6_linear_397_43453)"/>
<path d="M11.3454 12.0023L10.7745 12.5731L10.5843 12.8605C10.4836 13.0126 10.3353 13.1228 10.168 13.1797L9.08643 14.2612L9.62856 14.34C9.6422 14.342 9.65575 14.3439 9.66939 14.3455C10.3982 14.4356 11.1257 14.102 11.5322 13.488L12.0495 12.7065L11.3454 12.0023Z" fill="url(#paint7_linear_397_43453)"/>
<path d="M11.2652 11.9234C11.023 11.7241 10.6648 11.759 10.4652 12.0015L10.1216 12.419C9.86625 12.2849 9.63789 12.1028 9.43985 11.8739L9.37467 11.7989C9.69826 11.6013 10.0107 11.386 10.3106 11.154C10.5971 10.9322 10.6423 10.5166 10.4122 10.237C10.3862 10.2054 10.3573 10.1764 10.3258 10.1503C10.1113 9.97222 9.80008 9.95051 9.55933 10.1097C9.08071 10.4265 8.5414 10.6403 7.97568 10.7374C7.87968 10.7541 7.78193 10.7604 7.68466 10.7591C7.35147 10.7553 6.50395 10.7508 6.22757 10.8018C6.22504 10.8023 6.18818 10.8094 6.1725 10.8129C5.8345 10.8864 5.53338 11.0779 5.3126 11.3444L4.9165 11.8216V14.6479H5.35047C5.83225 14.6479 6.3089 14.5491 6.751 14.3576C6.94464 14.267 7.15928 14.2308 7.37193 14.2528C7.37193 14.2528 8.85529 14.4327 9.01317 14.4327C9.58786 14.4327 10.1471 14.1775 10.521 13.7231L11.343 12.7235C11.5426 12.4812 11.5077 12.123 11.2652 11.9234Z" fill="url(#paint8_linear_397_43453)"/>
<path d="M7.99586 10.7344C7.98911 10.7356 7.98243 10.737 7.97568 10.7382C7.87968 10.7548 7.78193 10.7612 7.68466 10.7599C7.35147 10.7561 6.50395 10.7515 6.22757 10.8026C6.22504 10.8031 6.18818 10.8101 6.1725 10.8137C5.8345 10.8872 5.53338 11.0787 5.3126 11.3452L4.9165 11.8224V14.6486H5.35047C5.83225 14.6486 6.3089 14.5499 6.751 14.3584C6.94464 14.2678 7.15928 14.2315 7.37193 14.2536C7.37193 14.2536 7.66007 14.2885 7.99586 14.3276V10.7344Z" fill="url(#paint9_linear_397_43453)"/>
<path d="M10.3108 11.1547C10.0109 11.3867 9.69846 11.602 9.37487 11.7996L9.44005 11.8747C9.6381 12.1035 9.86647 12.2857 10.1218 12.4198L9.64314 13.0016C9.6027 13.0507 9.55657 13.0949 9.50572 13.1332C9.09458 12.1021 8.26621 11.3097 5.96104 11.5258C5.66753 11.5533 5.378 11.5523 5.09912 11.6026L5.31282 11.3451C5.53361 11.0786 5.83473 10.8871 6.17272 10.8136C6.18838 10.8101 6.22527 10.803 6.2278 10.8025C6.50415 10.7515 7.35168 10.7561 7.68489 10.7599C7.78215 10.7611 7.87991 10.7548 7.97591 10.7381C8.54162 10.641 9.08093 10.4272 9.55956 10.1104C9.80031 9.95124 10.1115 9.97296 10.326 10.151C10.3575 10.1771 10.3864 10.2061 10.4124 10.2377C10.6425 10.5174 10.5973 10.9329 10.3108 11.1547Z" fill="url(#paint10_linear_397_43453)"/>
<path d="M9.01339 14.4321C8.85362 14.4321 8.69448 14.4123 8.5396 14.3731L7.25325 14.0475C6.94894 13.9704 6.7647 13.6613 6.84174 13.357C6.9188 13.0527 7.22799 12.8685 7.53223 12.9455L8.81857 13.2711C9.12122 13.3478 9.44489 13.2415 9.6432 13.0004L10.4654 12.0009C10.6648 11.7585 11.023 11.7236 11.2654 11.923C11.5079 12.1224 11.5427 12.4806 11.3433 12.723L10.5211 13.7225C10.1473 14.177 9.5881 14.4321 9.01339 14.4321Z" fill="url(#paint11_linear_397_43453)"/>
<path d="M10.3256 10.1511C10.1111 9.97294 9.79978 9.95126 9.55905 10.1104C9.08049 10.4272 8.54124 10.6409 7.97559 10.7379C7.8795 10.7547 7.78184 10.761 7.68438 10.7599C7.54441 10.7582 7.31344 10.7564 7.07227 10.7587V13.0281C7.20209 12.9397 7.3677 12.905 7.5319 12.9466L8.81824 13.2723C9.12089 13.3489 9.44456 13.2426 9.64287 13.0015L10.1215 12.4197C9.86616 12.2855 9.63762 12.1033 9.43959 11.8747L9.37441 11.7994C9.69804 11.6018 10.0105 11.3866 10.3104 11.1545C10.5969 10.9328 10.6421 10.5171 10.4119 10.2375C10.386 10.206 10.3571 10.177 10.3256 10.1511Z" fill="url(#paint12_linear_397_43453)"/>
<path d="M10.3105 11.1547C10.0106 11.3867 9.69817 11.602 9.37458 11.7996L7.3557 12.9303L7.35544 12.9306C7.25313 12.9369 7.15538 12.9717 7.07227 13.0283V10.7588C7.31351 10.7566 7.54465 10.7583 7.68459 10.7599C7.78186 10.7611 7.87962 10.7548 7.97562 10.7381C8.54133 10.641 9.08064 10.4272 9.55927 10.1104C9.80002 9.95124 10.1112 9.97296 10.3257 10.151C10.3572 10.1771 10.3861 10.2061 10.4121 10.2377C10.6422 10.5173 10.597 10.9329 10.3105 11.1547Z" fill="url(#paint13_linear_397_43453)"/>
<path d="M10.3105 11.1547C10.0106 11.3867 9.69817 11.602 9.37458 11.7996L7.3557 12.9303L7.35544 12.9306C7.25313 12.9369 7.15538 12.9717 7.07227 13.0283V10.7588C7.31351 10.7566 7.54465 10.7583 7.68459 10.7599C7.78186 10.7611 7.87962 10.7548 7.97562 10.7381C8.54133 10.641 9.08064 10.4272 9.55927 10.1104C9.80002 9.95124 10.1112 9.97296 10.3257 10.151C10.3572 10.1771 10.3861 10.2061 10.4121 10.2377C10.6422 10.5173 10.597 10.9329 10.3105 11.1547Z" fill="url(#paint14_linear_397_43453)"/>
<path d="M6.20454 14.9331H4.87254C4.66678 14.9331 4.5 14.7663 4.5 14.5606V10.3757C4.5 10.17 4.66678 10.0032 4.87254 10.0032H6.20454C6.41027 10.0032 6.57708 10.17 6.57708 10.3757V14.5606C6.57705 14.7663 6.41027 14.9331 6.20454 14.9331Z" fill="url(#paint15_linear_397_43453)"/>
<path d="M6.57705 14.5593V11.7233H4.5V14.5593C4.5 14.765 4.66678 14.9318 4.87254 14.9318H6.20454C6.41027 14.9318 6.57705 14.765 6.57705 14.5593Z" fill="url(#paint16_linear_397_43453)"/>
<path d="M12.7195 10.7388L14.3522 11.25C14.7888 11.3866 15.2336 11.0635 15.2385 10.606L15.2569 8.89526C15.2584 8.75616 15.3024 8.62083 15.383 8.50742L16.3736 7.11258C16.6385 6.7396 16.4686 6.21671 16.0351 6.07067L14.4137 5.52453C14.2819 5.48012 14.1668 5.39649 14.0838 5.28483L13.0634 3.91163C12.7905 3.54443 12.2407 3.54443 11.9679 3.91163L10.9474 5.28483C10.8644 5.39649 10.7493 5.48012 10.6175 5.52453L8.99617 6.07067C8.56262 6.21671 8.39272 6.7396 8.65764 7.11258L9.64829 8.50742C9.72884 8.62083 9.77282 8.75616 9.77432 8.89526L9.79271 10.606C9.79764 11.0635 10.2424 11.3866 10.679 11.25L12.3117 10.7388C12.4445 10.6973 12.5868 10.6973 12.7195 10.7388Z" fill="url(#paint17_linear_397_43453)"/>
<path d="M8.59934 6.4209C8.49685 6.6343 8.50524 6.89806 8.65749 7.11242L9.64815 8.50726C9.7287 8.62067 9.77267 8.75598 9.77417 8.89508L9.79257 10.6058C9.79749 11.0633 10.2423 11.3865 10.6789 11.2498L12.3116 10.7386C12.4443 10.6971 12.5866 10.6971 12.7194 10.7386L14.3521 11.2498C14.7887 11.3865 15.2335 11.0633 15.2384 10.6058L15.2568 8.89508C15.2576 8.82847 15.2681 8.76234 15.2881 8.69879L8.59934 6.4209Z" fill="url(#paint18_linear_397_43453)"/>
<path d="M16.4319 6.4209C16.5344 6.6343 16.526 6.89806 16.3738 7.11242L15.3831 8.50726C15.3026 8.62067 15.2586 8.75598 15.2571 8.89508L15.2387 10.6058C15.2338 11.0633 14.789 11.3865 14.3524 11.2498L12.7197 10.7386C12.5869 10.6971 12.4446 10.6971 12.3119 10.7386L10.6792 11.2498C10.2426 11.3865 9.7978 11.0633 9.79288 10.6058L9.77448 8.89508C9.77368 8.82847 9.76313 8.76234 9.74316 8.69879L16.4319 6.4209Z" fill="url(#paint19_linear_397_43453)"/>
<path d="M16.0351 6.07071L14.4137 5.52454C14.2819 5.48014 14.1668 5.3965 14.0838 5.28485L13.0634 3.91164C12.927 3.72804 12.7213 3.63623 12.5156 3.63623V10.7077C12.5844 10.7077 12.6532 10.718 12.7195 10.7388L14.3522 11.25C14.7888 11.3867 15.2336 11.0635 15.2385 10.606L15.2569 8.89528C15.2584 8.75618 15.3024 8.62086 15.383 8.50746L16.3736 7.11262C16.6385 6.73964 16.4686 6.21675 16.0351 6.07071Z" fill="url(#paint20_linear_397_43453)"/>
<path d="M16.0351 6.07071L14.4137 5.52454C14.2819 5.48014 14.1668 5.3965 14.0838 5.28485L13.0634 3.91164C12.927 3.72804 12.7213 3.63623 12.5156 3.63623V10.7077C12.5844 10.7077 12.6532 10.718 12.7195 10.7388L14.3522 11.25C14.7888 11.3867 15.2336 11.0635 15.2385 10.606L15.2569 8.89528C15.2584 8.75618 15.3024 8.62086 15.383 8.50746L16.3736 7.11262C16.6385 6.73964 16.4686 6.21675 16.0351 6.07071Z" fill="url(#paint21_linear_397_43453)"/>
<path d="M9.74609 8.70898C9.76404 8.76926 9.77356 8.83173 9.77438 8.89461L9.79278 10.6054C9.7977 11.0628 10.2425 11.386 10.6791 11.2493L12.3118 10.7382C12.4446 10.6966 12.5868 10.6966 12.7196 10.7382L14.3523 11.2493C14.7889 11.386 15.2337 11.0628 15.2386 10.6054L15.257 8.89461C15.2577 8.83135 15.2676 8.76898 15.2853 8.70898H9.74609Z" fill="url(#paint22_linear_397_43453)"/>
<path d="M12.6331 9.34501L13.5724 9.63908C13.8236 9.71772 14.0794 9.53181 14.0823 9.26863L14.0929 8.28444C14.0937 8.20442 14.119 8.12657 14.1654 8.06132L14.7353 7.25889C14.8877 7.04432 14.7899 6.7435 14.5405 6.65947L13.6078 6.34527C13.5319 6.31972 13.4657 6.27161 13.418 6.20739L12.8309 5.4174C12.674 5.20616 12.3577 5.20616 12.2007 5.4174L11.6136 6.20739C11.5659 6.27162 11.4997 6.31973 11.4238 6.34527L10.4911 6.65947C10.2417 6.7435 10.1439 7.04429 10.2963 7.25889L10.8663 8.06132C10.9126 8.12657 10.9379 8.20442 10.9388 8.28444L10.9494 9.26863C10.9522 9.53181 11.2081 9.71772 11.4592 9.63908L12.3985 9.34501C12.4749 9.32108 12.5567 9.32108 12.6331 9.34501Z" fill="url(#paint23_linear_397_43453)"/>
</g>
<path d="M27.4425 7.96578H26.1143C26.0765 7.74797 26.0066 7.55503 25.9048 7.38694C25.803 7.21649 25.6764 7.07207 25.5249 6.9537C25.3733 6.83533 25.2005 6.74655 25.0064 6.68737C24.8146 6.62581 24.6075 6.59504 24.3849 6.59504C23.9896 6.59504 23.6392 6.69447 23.3338 6.89333C23.0284 7.08983 22.7893 7.37865 22.6165 7.75981C22.4437 8.1386 22.3572 8.60143 22.3572 9.1483C22.3572 9.70465 22.4437 10.1734 22.6165 10.5546C22.7917 10.9333 23.0308 11.2198 23.3338 11.4139C23.6392 11.6057 23.9884 11.7016 24.3814 11.7016C24.5992 11.7016 24.8028 11.6732 24.9922 11.6163C25.1839 11.5572 25.3556 11.4707 25.5071 11.3571C25.661 11.2435 25.79 11.1038 25.8942 10.9381C26.0007 10.7724 26.0741 10.583 26.1143 10.3699L27.4425 10.377C27.3928 10.7226 27.285 11.047 27.1193 11.35C26.956 11.653 26.7417 11.9206 26.4766 12.1526C26.2114 12.3822 25.9013 12.5621 25.5462 12.6923C25.1911 12.8202 24.7969 12.8841 24.3636 12.8841C23.7244 12.8841 23.1539 12.7361 22.652 12.4402C22.1501 12.1443 21.7547 11.717 21.4659 11.1582C21.1771 10.5995 21.0327 9.92955 21.0327 9.1483C21.0327 8.36469 21.1783 7.69471 21.4695 7.13836C21.7607 6.57965 22.1572 6.15233 22.6591 5.8564C23.161 5.56047 23.7292 5.41251 24.3636 5.41251C24.7685 5.41251 25.1449 5.46933 25.4929 5.58296C25.8409 5.6966 26.151 5.8635 26.4233 6.08367C26.6955 6.30148 26.9193 6.569 27.0945 6.88623C27.272 7.2011 27.388 7.56095 27.4425 7.96578ZM30.9714 12.8912C30.4387 12.8912 29.9771 12.774 29.5865 12.5396C29.1958 12.3053 28.8928 11.9774 28.6774 11.556C28.4643 11.1346 28.3578 10.6421 28.3578 10.0787C28.3578 9.51525 28.4643 9.02165 28.6774 8.59788C28.8928 8.17411 29.1958 7.84504 29.5865 7.61066C29.9771 7.37629 30.4387 7.2591 30.9714 7.2591C31.5041 7.2591 31.9657 7.37629 32.3564 7.61066C32.747 7.84504 33.0488 8.17411 33.2619 8.59788C33.4773 9.02165 33.585 9.51525 33.585 10.0787C33.585 10.6421 33.4773 11.1346 33.2619 11.556C33.0488 11.9774 32.747 12.3053 32.3564 12.5396C31.9657 12.774 31.5041 12.8912 30.9714 12.8912ZM30.9785 11.8614C31.2673 11.8614 31.5088 11.7821 31.7029 11.6234C31.8971 11.4625 32.0415 11.247 32.1362 10.9771C32.2333 10.7073 32.2818 10.4066 32.2818 10.0752C32.2818 9.74134 32.2333 9.4395 32.1362 9.16961C32.0415 8.89736 31.8971 8.68074 31.7029 8.51975C31.5088 8.35877 31.2673 8.27828 30.9785 8.27828C30.6826 8.27828 30.4364 8.35877 30.2399 8.51975C30.0458 8.68074 29.9002 8.89736 29.8031 9.16961C29.7084 9.4395 29.661 9.74134 29.661 10.0752C29.661 10.4066 29.7084 10.7073 29.8031 10.9771C29.9002 11.247 30.0458 11.4625 30.2399 11.6234C30.4364 11.7821 30.6826 11.8614 30.9785 11.8614ZM29.1284 6.70512L30.5666 5.5368H31.3691L32.8145 6.70512H31.7456L30.975 6.05171L30.2008 6.70512H29.1284ZM32.4345 5.99489L33.2228 4.68453H34.3521L33.2548 5.99489H32.4345ZM35.9616 9.58865V12.7847H34.6761V7.33012H35.9048V8.25697H35.9688C36.0942 7.95157 36.2943 7.70891 36.5689 7.52899C36.8459 7.34906 37.188 7.2591 37.5952 7.2591C37.9716 7.2591 38.2995 7.33959 38.5788 7.50058C38.8606 7.66156 39.0784 7.89475 39.2322 8.20015C39.3885 8.50555 39.4654 8.87605 39.4631 9.31166V12.7847H38.1776V9.51052C38.1776 9.14594 38.0829 8.86066 37.8935 8.6547C37.7064 8.44873 37.4472 8.34575 37.1158 8.34575C36.8909 8.34575 36.6908 8.39546 36.5156 8.4949C36.3428 8.59196 36.2067 8.73282 36.1072 8.91748C36.0102 9.10214 35.9616 9.32586 35.9616 9.58865ZM43.142 14.9438C42.6804 14.9438 42.2839 14.881 41.9524 14.7555C41.621 14.6324 41.3546 14.4667 41.1534 14.2584C40.9522 14.0501 40.8125 13.8192 40.7344 13.5659L41.892 13.2854C41.9441 13.3919 42.0199 13.4973 42.1193 13.6014C42.2188 13.708 42.3525 13.7956 42.5206 13.8642C42.6911 13.9352 42.9053 13.9707 43.1634 13.9707C43.5279 13.9707 43.8298 13.882 44.0689 13.7044C44.308 13.5292 44.4276 13.2404 44.4276 12.8379V11.8046H44.3636C44.2973 11.9371 44.2003 12.0733 44.0724 12.2129C43.947 12.3526 43.7801 12.4698 43.5717 12.5645C43.3658 12.6592 43.1065 12.7065 42.794 12.7065C42.375 12.7065 41.995 12.6083 41.6541 12.4118C41.3156 12.2129 41.0457 11.917 40.8445 11.524C40.6456 11.1287 40.5462 10.6339 40.5462 10.0396C40.5462 9.44068 40.6456 8.93524 40.8445 8.5233C41.0457 8.10901 41.3168 7.79532 41.6577 7.58225C41.9986 7.36682 42.3786 7.2591 42.7976 7.2591C43.1172 7.2591 43.38 7.31355 43.5859 7.42245C43.7943 7.52899 43.96 7.65801 44.0831 7.80953C44.2062 7.95867 44.2997 8.09954 44.3636 8.23211H44.4347V7.33012H45.7024V12.8734C45.7024 13.3398 45.5911 13.7257 45.3686 14.0311C45.1461 14.3365 44.8419 14.565 44.456 14.7165C44.0701 14.868 43.6321 14.9438 43.142 14.9438ZM43.1527 11.698C43.425 11.698 43.657 11.6317 43.8487 11.4992C44.0405 11.3666 44.1861 11.176 44.2855 10.9274C44.3849 10.6788 44.4347 10.3805 44.4347 10.0325C44.4347 9.68926 44.3849 9.3886 44.2855 9.13055C44.1884 8.8725 44.044 8.67245 43.8523 8.53041C43.6629 8.38599 43.4297 8.31379 43.1527 8.31379C42.8662 8.31379 42.6271 8.38836 42.4354 8.53751C42.2436 8.68666 42.0992 8.89144 42.0021 9.15186C41.9051 9.4099 41.8565 9.70347 41.8565 10.0325C41.8565 10.3663 41.9051 10.6587 42.0021 10.9097C42.1016 11.1582 42.2472 11.3524 42.4389 11.4921C42.633 11.6294 42.871 11.698 43.1527 11.698ZM50.7859 9.58865V12.7847H49.5004V5.51194H50.7575V8.25697H50.8214C50.9492 7.9492 51.1469 7.70654 51.4144 7.52899C51.6843 7.34906 52.0276 7.2591 52.4442 7.2591C52.823 7.2591 53.1533 7.33841 53.435 7.49703C53.7167 7.65564 53.9345 7.88765 54.0884 8.19305C54.2447 8.49845 54.3228 8.87132 54.3228 9.31166V12.7847H53.0373V9.51052C53.0373 9.14357 52.9426 8.85829 52.7532 8.6547C52.5662 8.44873 52.3034 8.34575 51.9648 8.34575C51.7376 8.34575 51.534 8.39546 51.354 8.4949C51.1765 8.59196 51.0368 8.73282 50.935 8.91748C50.8356 9.10214 50.7859 9.32586 50.7859 9.58865ZM55.6332 12.7847V7.33012H56.9187V12.7847H55.6332ZM56.2795 6.55597C56.0759 6.55597 55.9007 6.4885 55.7539 6.35356C55.6071 6.21625 55.5337 6.05171 55.5337 5.85995C55.5337 5.66582 55.6071 5.50129 55.7539 5.36634C55.9007 5.22903 56.0759 5.16038 56.2795 5.16038C56.4854 5.16038 56.6606 5.22903 56.805 5.36634C56.9518 5.50129 57.0252 5.66582 57.0252 5.85995C57.0252 6.05171 56.9518 6.21625 56.805 6.35356C56.6606 6.4885 56.4854 6.55597 56.2795 6.55597ZM60.6554 12.8912C60.1085 12.8912 59.6362 12.7776 59.2385 12.5503C58.8431 12.3207 58.5389 11.9963 58.3258 11.5773C58.1127 11.1559 58.0062 10.6599 58.0062 10.0894C58.0062 9.52828 58.1127 9.03585 58.3258 8.61208C58.5413 8.18595 58.8419 7.85451 59.2278 7.61776C59.6137 7.37865 60.0671 7.2591 60.5879 7.2591C60.9241 7.2591 61.2413 7.31355 61.5396 7.42245C61.8403 7.52899 62.1054 7.69471 62.335 7.91961C62.5671 8.14452 62.7493 8.43097 62.8819 8.77899C63.0145 9.12463 63.0808 9.53656 63.0808 10.0148V10.409H58.6099V9.54248H61.8485C61.8462 9.29627 61.7929 9.07728 61.6887 8.88552C61.5846 8.69139 61.439 8.53869 61.252 8.42742C61.0673 8.31615 60.8519 8.26052 60.6056 8.26052C60.3429 8.26052 60.112 8.32444 59.9132 8.45228C59.7143 8.57775 59.5592 8.74347 59.448 8.94944C59.3391 9.15304 59.2834 9.37676 59.2811 9.62061V10.377C59.2811 10.6942 59.3391 10.9665 59.4551 11.1938C59.5711 11.4187 59.7333 11.5915 59.9416 11.7122C60.1499 11.8306 60.3938 11.8898 60.6731 11.8898C60.8601 11.8898 61.0294 11.8637 61.1809 11.8117C61.3324 11.7572 61.4638 11.6779 61.5751 11.5737C61.6864 11.4696 61.7704 11.3405 61.8272 11.1867L63.0275 11.3216C62.9518 11.6388 62.8074 11.9158 62.5943 12.1526C62.3836 12.3869 62.1137 12.5692 61.7846 12.6994C61.4556 12.8273 61.0791 12.8912 60.6554 12.8912ZM58.7058 6.70512L60.144 5.5368H60.9466L62.3919 6.70512H61.323L60.5524 6.05171L59.7782 6.70512H58.7058ZM62.0119 5.99489L62.8002 4.68453H63.9295L62.8322 5.99489H62.0119ZM65.4538 9.58865V12.7847H64.1683V7.33012H65.397V8.25697H65.4609C65.5864 7.95157 65.7865 7.70891 66.0611 7.52899C66.3381 7.34906 66.6802 7.2591 67.0874 7.2591C67.4638 7.2591 67.7917 7.33959 68.071 7.50058C68.3527 7.66156 68.5705 7.89475 68.7244 8.20015C68.8807 8.50555 68.9576 8.87605 68.9553 9.31166V12.7847H67.6697V9.51052C67.6697 9.14594 67.575 8.86066 67.3857 8.6547C67.1986 8.44873 66.9394 8.34575 66.608 8.34575C66.383 8.34575 66.183 8.39546 66.0078 8.4949C65.835 8.59196 65.6989 8.73282 65.5994 8.91748C65.5024 9.10214 65.4538 9.32586 65.4538 9.58865Z" fill="#04592C"/>
<defs>
<linearGradient id="paint0_linear_397_43453" x1="11.9796" y1="12.8354" x2="12.2678" y2="13.7538" gradientUnits="userSpaceOnUse">
<stop stop-color="#FFDFCF"/>
<stop offset="1" stop-color="#FFA78F"/>
</linearGradient>
<linearGradient id="paint1_linear_397_43453" x1="12.9738" y1="13.6068" x2="12.2355" y2="13.2526" gradientUnits="userSpaceOnUse">
<stop stop-color="#F89580" stop-opacity="0"/>
<stop offset="0.286" stop-color="#EE8E79" stop-opacity="0.287"/>
<stop offset="0.762" stop-color="#D57B65" stop-opacity="0.765"/>
<stop offset="0.997" stop-color="#C5715A"/>
</linearGradient>
<linearGradient id="paint2_linear_397_43453" x1="11.444" y1="12.6419" x2="12.1553" y2="13.3892" gradientUnits="userSpaceOnUse">
<stop stop-color="#FFDFCF"/>
<stop offset="1" stop-color="#FFA78F"/>
</linearGradient>
<linearGradient id="paint3_linear_397_43453" x1="12.413" y1="13.6653" x2="11.238" y2="12.9089" gradientUnits="userSpaceOnUse">
<stop stop-color="#F89580" stop-opacity="0"/>
<stop offset="0.286" stop-color="#EE8E79" stop-opacity="0.287"/>
<stop offset="0.762" stop-color="#D57B65" stop-opacity="0.765"/>
<stop offset="0.997" stop-color="#C5715A"/>
</linearGradient>
<linearGradient id="paint4_linear_397_43453" x1="11.4553" y1="13.0688" x2="11.7074" y2="14.0052" gradientUnits="userSpaceOnUse">
<stop stop-color="#F89580" stop-opacity="0"/>
<stop offset="0.286" stop-color="#EE8E79" stop-opacity="0.287"/>
<stop offset="0.762" stop-color="#D57B65" stop-opacity="0.765"/>
<stop offset="0.997" stop-color="#C5715A"/>
</linearGradient>
<linearGradient id="paint5_linear_397_43453" x1="10.2443" y1="12.8872" x2="11.1537" y2="13.7966" gradientUnits="userSpaceOnUse">
<stop stop-color="#FFDFCF"/>
<stop offset="1" stop-color="#FFA78F"/>
</linearGradient>
<linearGradient id="paint6_linear_397_43453" x1="11.104" y1="13.8398" x2="10.2456" y2="13.1555" gradientUnits="userSpaceOnUse">
<stop stop-color="#F89580" stop-opacity="0"/>
<stop offset="0.286" stop-color="#EE8E79" stop-opacity="0.287"/>
<stop offset="0.762" stop-color="#D57B65" stop-opacity="0.765"/>
<stop offset="0.997" stop-color="#C5715A"/>
</linearGradient>
<linearGradient id="paint7_linear_397_43453" x1="10.5432" y1="13.3117" x2="10.6873" y2="14.3141" gradientUnits="userSpaceOnUse">
<stop stop-color="#F89580" stop-opacity="0"/>
<stop offset="0.286" stop-color="#EE8E79" stop-opacity="0.287"/>
<stop offset="0.762" stop-color="#D57B65" stop-opacity="0.765"/>
<stop offset="0.997" stop-color="#C5715A"/>
</linearGradient>
<linearGradient id="paint8_linear_397_43453" x1="7.55599" y1="11.5634" x2="8.67248" y2="14.8768" gradientUnits="userSpaceOnUse">
<stop stop-color="#FFDFCF"/>
<stop offset="1" stop-color="#FFA78F"/>
</linearGradient>
<linearGradient id="paint9_linear_397_43453" x1="7.16749" y1="12.6915" x2="5.97881" y2="12.6915" gradientUnits="userSpaceOnUse">
<stop stop-color="#F89580" stop-opacity="0"/>
<stop offset="0.286" stop-color="#EE8E79" stop-opacity="0.287"/>
<stop offset="0.762" stop-color="#D57B65" stop-opacity="0.765"/>
<stop offset="0.997" stop-color="#C5715A"/>
</linearGradient>
<linearGradient id="paint10_linear_397_43453" x1="7.83948" y1="11.3318" x2="7.29922" y2="12.9345" gradientUnits="userSpaceOnUse">
<stop stop-color="#F89580" stop-opacity="0"/>
<stop offset="0.286" stop-color="#EE8E79" stop-opacity="0.287"/>
<stop offset="0.762" stop-color="#D57B65" stop-opacity="0.765"/>
<stop offset="0.997" stop-color="#C5715A"/>
</linearGradient>
<linearGradient id="paint11_linear_397_43453" x1="9.57446" y1="13.3484" x2="10.3308" y2="14.0928" gradientUnits="userSpaceOnUse">
<stop stop-color="#F89580" stop-opacity="0"/>
<stop offset="0.286" stop-color="#EE8E79" stop-opacity="0.287"/>
<stop offset="0.762" stop-color="#D57B65" stop-opacity="0.765"/>
<stop offset="0.997" stop-color="#C5715A"/>
</linearGradient>
<linearGradient id="paint12_linear_397_43453" x1="8.87269" y1="11.7025" x2="10.4754" y2="12.765" gradientUnits="userSpaceOnUse">
<stop stop-color="#F89580" stop-opacity="0"/>
<stop offset="0.286" stop-color="#EE8E79" stop-opacity="0.287"/>
<stop offset="0.762" stop-color="#D57B65" stop-opacity="0.765"/>
<stop offset="0.997" stop-color="#C5715A"/>
</linearGradient>
<linearGradient id="paint13_linear_397_43453" x1="9.07645" y1="11.8088" x2="10.0489" y2="12.385" gradientUnits="userSpaceOnUse">
<stop stop-color="#F89580" stop-opacity="0"/>
<stop offset="0.286" stop-color="#EE8E79" stop-opacity="0.287"/>
<stop offset="0.762" stop-color="#D57B65" stop-opacity="0.765"/>
<stop offset="0.997" stop-color="#C5715A"/>
</linearGradient>
<linearGradient id="paint14_linear_397_43453" x1="8.97834" y1="11.1203" x2="10.0365" y2="10.6859" gradientUnits="userSpaceOnUse">
<stop stop-color="#F89580" stop-opacity="0"/>
<stop offset="0.286" stop-color="#EE8E79" stop-opacity="0.287"/>
<stop offset="0.762" stop-color="#D57B65" stop-opacity="0.765"/>
<stop offset="0.997" stop-color="#C5715A"/>
</linearGradient>
<linearGradient id="paint15_linear_397_43453" x1="4.78334" y1="12.4682" x2="6.46453" y2="12.4682" gradientUnits="userSpaceOnUse">
<stop stop-color="#B3DAFE"/>
<stop offset="1" stop-color="#0182FC"/>
</linearGradient>
<linearGradient id="paint16_linear_397_43453" x1="5.53854" y1="13.7629" x2="5.53854" y2="15.02" gradientUnits="userSpaceOnUse">
<stop stop-color="#314DC9" stop-opacity="0"/>
<stop offset="0.276" stop-color="#304BC4" stop-opacity="0.276"/>
<stop offset="0.563" stop-color="#2B45B8" stop-opacity="0.563"/>
<stop offset="0.854" stop-color="#243BA3" stop-opacity="0.854"/>
<stop offset="1" stop-color="#1F3596"/>
</linearGradient>
<linearGradient id="paint17_linear_397_43453" x1="11.2496" y1="6.76116" x2="15.5466" y2="11.0582" gradientUnits="userSpaceOnUse">
<stop stop-color="#FEF0AE"/>
<stop offset="1" stop-color="#FAC600"/>
</linearGradient>
<linearGradient id="paint18_linear_397_43453" x1="11.9765" y1="8.44372" x2="12.604" y2="6.96898" gradientUnits="userSpaceOnUse">
<stop stop-color="#FE9738" stop-opacity="0"/>
<stop offset="1" stop-color="#FE9738"/>
</linearGradient>
<linearGradient id="paint19_linear_397_43453" x1="13.0029" y1="8.21077" x2="12.6504" y2="7.10916" gradientUnits="userSpaceOnUse">
<stop stop-color="#FE9738" stop-opacity="0"/>
<stop offset="1" stop-color="#FE9738"/>
</linearGradient>
<linearGradient id="paint20_linear_397_43453" x1="13.1149" y1="7.47302" x2="11.7783" y2="7.51708" gradientUnits="userSpaceOnUse">
<stop stop-color="#FE9738" stop-opacity="0"/>
<stop offset="1" stop-color="#FE9738"/>
</linearGradient>
<linearGradient id="paint21_linear_397_43453" x1="15.0693" y1="7.97824" x2="16.042" y2="8.292" gradientUnits="userSpaceOnUse">
<stop stop-color="#FE9738" stop-opacity="0"/>
<stop offset="1" stop-color="#FE9738"/>
</linearGradient>
<linearGradient id="paint22_linear_397_43453" x1="12.5157" y1="9.94841" x2="12.5157" y2="11.1842" gradientUnits="userSpaceOnUse">
<stop stop-color="#FE9738" stop-opacity="0"/>
<stop offset="1" stop-color="#FE9738"/>
</linearGradient>
<linearGradient id="paint23_linear_397_43453" x1="13.9826" y1="9.25183" x2="10.2424" y2="5.51167" gradientUnits="userSpaceOnUse">
<stop stop-color="#FEF0AE"/>
<stop offset="1" stop-color="#FAC600"/>
</linearGradient>
<clipPath id="clip0_397_43453">
<rect width="12" height="12" fill="white" transform="translate(4.5 3.28467)"/>
</clipPath>
</defs>
</svg>
