<svg width="20" height="21" viewBox="0 0 20 21" fill="none" xmlns="http://www.w3.org/2000/svg">
<path d="M13.9582 6.74296H6.0415C5.69984 6.74296 5.4165 6.45963 5.4165 6.11796V4.45129C5.4165 2.31796 6.40817 1.32629 8.5415 1.32629H11.4582C13.5915 1.32629 14.5832 2.31796 14.5832 4.45129V6.11796C14.5832 6.45963 14.2998 6.74296 13.9582 6.74296ZM6.6665 5.49296H13.3332V4.45129C13.3332 3.03463 12.8748 2.57629 11.4582 2.57629H8.5415C7.12484 2.57629 6.6665 3.03463 6.6665 4.45129V5.49296Z" fill="#515158"/>
<path d="M10.8332 19.243H9.1665C7.14984 19.243 6.0415 18.1347 6.0415 16.118V12.7847C6.0415 12.443 6.32484 12.1597 6.6665 12.1597H13.3332C13.6748 12.1597 13.9582 12.443 13.9582 12.7847V16.118C13.9582 18.1347 12.8498 19.243 10.8332 19.243ZM7.2915 13.4097V16.118C7.2915 17.4347 7.84984 17.993 9.1665 17.993H10.8332C12.1498 17.993 12.7082 17.4347 12.7082 16.118V13.4097H7.2915Z" fill="#515158"/>
<path d="M15 15.9097H13.3333C12.9917 15.9097 12.7083 15.6264 12.7083 15.2847V13.4097H7.29167V15.2847C7.29167 15.6264 7.00833 15.9097 6.66667 15.9097H5C2.98333 15.9097 1.875 14.8014 1.875 12.7847V8.61804C1.875 6.60138 2.98333 5.49304 5 5.49304H15C17.0167 5.49304 18.125 6.60138 18.125 8.61804V12.7847C18.125 14.8014 17.0167 15.9097 15 15.9097ZM13.9583 14.6597H15C16.3167 14.6597 16.875 14.1014 16.875 12.7847V8.61804C16.875 7.30138 16.3167 6.74304 15 6.74304H5C3.68333 6.74304 3.125 7.30138 3.125 8.61804V12.7847C3.125 14.1014 3.68333 14.6597 5 14.6597H6.04167V12.7847C6.04167 12.443 6.325 12.1597 6.66667 12.1597H13.3333C13.675 12.1597 13.9583 12.443 13.9583 12.7847V14.6597Z" fill="#515158"/>
<path d="M14.1668 13.4097H5.8335C5.49183 13.4097 5.2085 13.1263 5.2085 12.7847C5.2085 12.443 5.49183 12.1597 5.8335 12.1597H14.1668C14.5085 12.1597 14.7918 12.443 14.7918 12.7847C14.7918 13.1263 14.5085 13.4097 14.1668 13.4097Z" fill="#515158"/>
<path d="M8.3335 10.0763H5.8335C5.49183 10.0763 5.2085 9.79296 5.2085 9.45129C5.2085 9.10963 5.49183 8.82629 5.8335 8.82629H8.3335C8.67516 8.82629 8.9585 9.10963 8.9585 9.45129C8.9585 9.79296 8.67516 10.0763 8.3335 10.0763Z" fill="#515158"/>
</svg>
