<svg width="41" height="19" viewBox="0 0 41 19" fill="none" xmlns="http://www.w3.org/2000/svg">
<rect y="0.284668" width="41" height="18" rx="4" fill="url(#paint0_linear_397_43433)"/>
<path d="M11.6665 6.09467H8.33317C7.33317 6.09467 6.6665 6.76133 6.6665 7.76133V9.76133C6.6665 10.7613 7.33317 11.428 8.33317 11.428H9.6665L11.1498 12.4147C11.3698 12.5613 11.6665 12.4047 11.6665 12.138V11.428C12.6665 11.428 13.3332 10.7613 13.3332 9.76133V7.76133C13.3332 6.76133 12.6665 6.09467 11.6665 6.09467ZM11.1665 9.03467H8.83317C8.6965 9.03467 8.58317 8.92133 8.58317 8.78467C8.58317 8.648 8.6965 8.53467 8.83317 8.53467H11.1665C11.3032 8.53467 11.4165 8.648 11.4165 8.78467C11.4165 8.92133 11.3032 9.03467 11.1665 9.03467Z" fill="white"/>
<path d="M18.7472 9.83865V9.02046L22.6335 7.22501V8.23353L19.8722 9.41819L19.9034 9.36421V9.4949L19.8722 9.44092L22.6335 10.6256V11.6341L18.7472 9.83865ZM28.2507 6.46649V12.2847H27.1967V7.49205H27.1626L25.8018 8.36137V7.39546L27.2479 6.46649H28.2507ZM30.7678 9.72785V12.2847H29.7393V6.46649H30.745V8.66251H30.7962C30.8984 8.4163 31.0566 8.22217 31.2706 8.08012C31.4865 7.93618 31.7611 7.86421 32.0945 7.86421C32.3975 7.86421 32.6617 7.92766 32.8871 8.05455C33.1125 8.18145 33.2867 8.36705 33.4098 8.61137C33.5348 8.85569 33.5973 9.15399 33.5973 9.50626V12.2847H32.5689V9.66535C32.5689 9.37179 32.4931 9.14357 32.3416 8.98069C32.192 8.81592 31.9818 8.73353 31.7109 8.73353C31.5291 8.73353 31.3662 8.7733 31.2223 8.85285C31.0803 8.9305 30.9685 9.04319 30.8871 9.19092C30.8075 9.33865 30.7678 9.51762 30.7678 9.72785Z" fill="white"/>
<defs>
<linearGradient id="paint0_linear_397_43433" x1="20.5" y1="0.284668" x2="20.5" y2="18.2847" gradientUnits="userSpaceOnUse">
<stop stop-color="#9996EA"/>
<stop offset="1" stop-color="#967BE2"/>
</linearGradient>
</defs>
</svg>
