<svg width="16" height="17" viewBox="0 0 16 17" fill="none" xmlns="http://www.w3.org/2000/svg">
<path d="M14.4001 6.7078L10.4014 6.20129C10.3238 6.18995 10.25 6.15979 10.1865 6.11341C10.123 6.06703 10.0716 6.00582 10.0369 5.93506L8.43428 2.67065C8.2567 2.30892 7.74355 2.30892 7.56596 2.67065L5.96333 5.93506C5.92859 6.00582 5.87726 6.06703 5.81376 6.11341C5.75025 6.15979 5.67648 6.18995 5.5988 6.20129L2.13111 6.7078H1.6001V7.25103H1.60195C1.61132 7.35967 1.65751 7.4674 1.74682 7.55491L4.33995 10.0959C4.39616 10.151 4.4382 10.219 4.46246 10.294C4.48672 10.3691 4.49247 10.4489 4.4792 10.5267L3.94321 13.6683H3.85976V14.2115H3.86011C3.86809 14.5591 4.24385 14.7998 4.56954 14.6277L7.7748 12.9337C7.84428 12.897 7.9216 12.8778 8.0001 12.8778C8.0786 12.8778 8.15592 12.897 8.2254 12.9337L11.4307 14.6277C11.765 14.8044 12.1523 14.5461 12.1401 14.1836V13.6682H12.057L11.521 10.5266C11.5077 10.4489 11.5135 10.369 11.5377 10.294C11.562 10.2189 11.604 10.1509 11.6603 10.0958L14.2534 7.55487C14.3427 7.46736 14.4001 7.37822 14.4001 7.25099V6.7078Z" fill="white"/>
<path d="M7.77482 12.419L4.56955 14.113C4.21435 14.3007 3.79924 13.9975 3.86708 13.5999L4.47922 10.012C4.4925 9.93419 4.48676 9.85434 4.4625 9.77929C4.43824 9.70424 4.39619 9.63624 4.33997 9.58117L1.74684 7.0402C1.45948 6.75864 1.61805 6.26805 2.01515 6.21006L5.59874 5.68658C5.67641 5.67523 5.75018 5.64507 5.81369 5.59869C5.87719 5.55231 5.92853 5.49111 5.96327 5.42035L7.5659 2.15594C7.74348 1.79421 8.25663 1.79421 8.43422 2.15594L10.0368 5.42035C10.0716 5.49111 10.1229 5.55232 10.1864 5.5987C10.2499 5.64508 10.3237 5.67524 10.4014 5.68658L13.985 6.21006C14.3821 6.26805 14.5407 6.75864 14.2533 7.0402L11.6602 9.58117C11.604 9.63625 11.5619 9.70425 11.5377 9.77929C11.5134 9.85434 11.5077 9.93419 11.5209 10.012L12.1331 13.5999C12.2009 13.9975 11.7858 14.3007 11.4306 14.113L8.22534 12.419C8.15587 12.3823 8.07856 12.3631 8.00008 12.3631C7.92159 12.3631 7.84428 12.3823 7.77482 12.419Z" fill="white"/>
<path d="M11.6561 14.0841C11.5921 14.0841 11.5296 14.0683 11.4704 14.037L8.26514 12.343C8.18378 12.3 8.0921 12.2773 8.00015 12.2773C7.9082 12.2773 7.81652 12.3 7.73516 12.343L4.52985 14.037C4.47069 14.0683 4.40822 14.0841 4.34417 14.0841C4.22842 14.0842 4.11379 14.0299 4.03749 13.9389C3.96158 13.8484 3.93091 13.7331 3.95118 13.6144L4.56332 10.0264C4.57892 9.93496 4.57217 9.84104 4.54365 9.75277C4.51512 9.6645 4.46567 9.58452 4.39957 9.51973L1.80644 6.97876C1.69524 6.86984 1.6575 6.71619 1.70547 6.56778C1.75345 6.41937 1.87381 6.31736 2.02741 6.29492L5.61103 5.77144C5.70241 5.75811 5.78919 5.72264 5.86389 5.66809C5.93859 5.61353 5.99896 5.54153 6.03982 5.4583L7.64245 2.19388C7.71117 2.05394 7.84485 1.9704 8.00011 1.9704C8.15536 1.9704 8.28909 2.05394 8.35772 2.19388L9.96036 5.4583C10.0012 5.54154 10.0616 5.61354 10.1363 5.6681C10.211 5.72265 10.2978 5.75812 10.3892 5.77144L13.9728 6.29492C14.1264 6.31736 14.2468 6.41937 14.2947 6.56778C14.3427 6.71619 14.305 6.86984 14.1938 6.97876L11.6006 9.51973C11.5345 9.58452 11.4851 9.66451 11.4566 9.75279C11.4281 9.84107 11.4213 9.935 11.4369 10.0265L12.049 13.6144C12.0693 13.7331 12.0386 13.8484 11.9627 13.9389C11.8865 14.0298 11.7719 14.0841 11.6561 14.0841Z" fill="#FFB700"/>
</svg>
