<svg width="24" height="25" viewBox="0 0 24 25" fill="none" xmlns="http://www.w3.org/2000/svg">
<path d="M4 12.3345C4 12.8782 4.21597 13.3996 4.60039 13.784C4.98481 14.1684 5.50619 14.3844 6.04984 14.3844C6.5935 14.3844 7.11488 14.1684 7.4993 13.784C7.88372 13.3996 8.09969 12.8782 8.09969 12.3345C8.09969 11.7909 7.88372 11.2695 7.4993 10.8851C7.11488 10.5006 6.5935 10.2847 6.04984 10.2847C5.50619 10.2847 4.98481 10.5006 4.60039 10.8851C4.21597 11.2695 4 11.7909 4 12.3345V12.3345Z" fill="#64646D"/>
<path d="M10.1484 12.3345C10.1484 12.8782 10.3644 13.3995 10.7488 13.784C11.1332 14.1684 11.6546 14.3844 12.1983 14.3844C12.7419 14.3844 13.2633 14.1684 13.6477 13.784C14.0322 13.3995 14.2481 12.8782 14.2481 12.3345C14.2481 11.7909 14.0322 11.2695 13.6477 10.8851C13.2633 10.5006 12.7419 10.2847 12.1983 10.2847C11.6546 10.2847 11.1332 10.5006 10.7488 10.8851C10.3644 11.2695 10.1484 11.7909 10.1484 12.3345Z" fill="#64646D"/>
<path d="M16.2988 12.3345C16.2988 12.8782 16.5148 13.3995 16.8992 13.784C17.2836 14.1684 17.805 14.3844 18.3487 14.3844C18.8923 14.3844 19.4137 14.1684 19.7981 13.784C20.1826 13.3995 20.3985 12.8782 20.3985 12.3345C20.3985 11.7909 20.1826 11.2695 19.7981 10.8851C19.4137 10.5006 18.8923 10.2847 18.3487 10.2847C17.805 10.2847 17.2836 10.5006 16.8992 10.8851C16.5148 11.2695 16.2988 11.7909 16.2988 12.3345Z" fill="#64646D"/>
</svg>
