<svg width="20" height="21" viewBox="0 0 20 21" fill="none" xmlns="http://www.w3.org/2000/svg">
<path d="M14.1665 17.5764H5.83317C2.15817 17.5764 1.0415 16.4597 1.0415 12.7847V12.368C1.0415 12.0264 1.32484 11.743 1.6665 11.743C2.4665 11.743 3.12484 11.0847 3.12484 10.2847C3.12484 9.48471 2.4665 8.82638 1.6665 8.82638C1.32484 8.82638 1.0415 8.54304 1.0415 8.20138V7.78471C1.0415 4.10971 2.15817 2.99304 5.83317 2.99304H14.1665C17.8415 2.99304 18.9582 4.10971 18.9582 7.78471V8.61804C18.9582 8.95971 18.6748 9.24304 18.3332 9.24304C17.5332 9.24304 16.8748 9.90138 16.8748 10.7014C16.8748 11.5014 17.5332 12.1597 18.3332 12.1597C18.6748 12.1597 18.9582 12.443 18.9582 12.7847C18.9582 16.4597 17.8415 17.5764 14.1665 17.5764ZM2.2915 12.918C2.30817 15.7847 2.89984 16.3264 5.83317 16.3264H14.1665C16.9498 16.3264 17.6248 15.8347 17.6998 13.3347C16.5082 13.0514 15.6248 11.9764 15.6248 10.7014C15.6248 9.42638 16.5165 8.35138 17.7082 8.06804V7.78471C17.7082 4.80971 17.1415 4.24304 14.1665 4.24304H5.83317C2.89984 4.24304 2.30817 4.78471 2.2915 7.65138C3.48317 7.93471 4.37484 9.00971 4.37484 10.2847C4.37484 11.5597 3.48317 12.6347 2.2915 12.918Z" fill="#515158"/>
<path d="M12.4999 13.518C12.0332 13.518 11.6582 13.143 11.6582 12.6847C11.6582 12.2263 12.0332 11.8513 12.4915 11.8513C12.9499 11.8513 13.3249 12.2263 13.3249 12.6847C13.3249 13.143 12.9665 13.518 12.4999 13.518Z" fill="#515158"/>
<path d="M7.49987 9.35136C7.0332 9.35136 6.6582 8.97636 6.6582 8.51803C6.6582 8.05969 7.0332 7.68469 7.49154 7.68469C7.94987 7.68469 8.32487 8.05969 8.32487 8.51803C8.32487 8.97636 7.96654 9.35136 7.49987 9.35136Z" fill="#515158"/>
<path d="M7.19176 13.9764C7.03343 13.9764 6.8751 13.918 6.7501 13.793C6.50843 13.5514 6.50843 13.1514 6.7501 12.9097L12.3584 7.30137C12.6001 7.0597 13.0001 7.0597 13.2418 7.30137C13.4834 7.54303 13.4834 7.94303 13.2418 8.1847L7.63343 13.793C7.51676 13.918 7.3501 13.9764 7.19176 13.9764Z" fill="#515158"/>
</svg>
