<svg width="56" height="56" viewBox="0 0 56 56" fill="none" xmlns="http://www.w3.org/2000/svg">
<rect x="0.5" y="0.5" width="55" height="55" rx="7.5" fill="#FAFAFC" stroke="#DDDDE3"/>
<path d="M43.9999 30.4074C43.9999 40.1336 36.8222 48.016 27.9724 48C19.1728 47.984 11.9902 40.0643 11.9999 30.3879C12.0031 27.0509 12.852 23.9331 14.3223 21.2758C14.5434 20.8774 15.0639 20.8454 15.3229 21.2154C15.3294 21.2234 15.3351 21.2323 15.3407 21.2403C15.8547 21.9705 16.9005 21.7602 17.1628 20.8836C18.8488 15.2465 21.9125 9.81295 25.5656 8.06464C26.0311 7.84189 26.5452 8.22268 26.5382 8.78087L26.5377 8.8364C26.5224 12.2164 28.9956 15.0287 32.0686 15.1186C32.1819 15.1219 32.2945 15.1216 32.4062 15.1177C35.0321 15.0264 37.4367 16.7209 38.3671 19.4224C38.5335 19.9056 38.6902 20.3927 38.8371 20.8835C39.0993 21.7602 40.1451 21.9704 40.6591 21.2402C40.6648 21.2322 40.6704 21.2234 40.6769 21.2154C40.9383 20.8418 41.4596 20.8827 41.6823 21.2855C43.1526 23.9455 43.9999 27.0678 43.9999 30.4074Z" fill="url(#paint0_linear_183_4889)"/>
<path d="M40.0731 34.7253C40.0731 42.0643 34.657 48.0121 27.9793 48C21.3393 47.9879 15.9196 42.012 15.9269 34.7105C15.9293 32.1926 16.5699 29.84 17.6793 27.8349C17.8461 27.5342 18.2389 27.5102 18.4343 27.7893C18.4392 27.7953 18.4435 27.802 18.4477 27.808C18.8356 28.359 19.6247 28.2003 19.8226 27.5389C21.0949 23.2853 23.4066 19.1853 26.1632 17.8662C26.5144 17.6981 26.9023 17.9854 26.8971 18.4066C26.8969 18.4205 26.8968 18.4345 26.8967 18.4485C26.8852 20.9989 28.7513 23.1211 31.0701 23.1888C31.1556 23.1913 31.2406 23.1911 31.3249 23.1881C33.3063 23.1193 35.1207 24.3979 35.8227 26.4363C35.9482 26.801 36.0665 27.1686 36.1774 27.5389C36.3752 28.2004 37.1644 28.3591 37.5522 27.8081C37.5565 27.8021 37.5608 27.7954 37.5656 27.7894C37.7629 27.5075 38.1562 27.5383 38.3243 27.8422C39.4338 29.8494 40.0731 32.2054 40.0731 34.7253Z" fill="url(#paint1_linear_183_4889)"/>
<path d="M11.9999 30.3877C11.9902 40.0641 19.1728 47.9838 27.9724 47.9998C36.8222 48.0158 43.9999 40.1333 43.9999 30.4072C43.9999 29.5953 43.9494 28.7964 43.8525 28.0137H12.1473C12.0499 28.8005 12.0006 29.5936 11.9999 30.3877Z" fill="url(#paint2_linear_183_4889)"/>
<path d="M39.791 10.564H39.7862C39.5851 10.5647 39.4605 10.8131 39.5626 11.0035C39.7329 11.3211 39.8181 11.7001 39.7834 12.1035C39.7134 12.9148 39.1451 13.5866 38.4143 13.7226C38.2392 13.7557 38.0604 13.7575 37.8847 13.728C37.6021 13.6802 37.3404 13.9176 37.3397 14.2319V14.2383C37.3397 15.7269 38.4372 16.9336 39.791 16.9336C41.1448 16.9336 42.2423 15.7269 42.2423 14.2383C42.2423 12.7497 41.1448 10.564 39.791 10.564Z" fill="url(#paint3_linear_183_4889)"/>
<path d="M42.2756 38.3588L32.1687 27.246C31.988 26.8816 31.5966 26.6602 31.2333 26.6602C30.9167 26.6602 30.6352 26.815 30.4944 27.1438L24.3195 41.0905C24.2667 41.2066 24.2314 41.342 24.2314 41.458C24.2314 41.7925 24.4168 42.1545 24.729 42.3461L29.7727 47.8918C35.2469 47.2281 39.8887 43.5294 42.2756 38.3588Z" fill="url(#paint4_linear_183_4889)"/>
<path d="M26.39 28.424C25.9225 27.7333 25.1144 27.4536 24.1788 27.4536C22.6835 27.4536 21.5399 28.1499 21.5399 30.065V32.8118C21.5399 33.7999 21.8449 34.4628 22.345 34.8738L33.3616 46.9869C35.6672 46.0854 37.7289 44.6193 39.4097 42.7396L26.39 28.424Z" fill="url(#paint5_linear_183_4889)"/>
<path d="M34.4506 34.6329C33.9831 33.9423 33.175 33.6626 32.2394 33.6626C30.7441 33.6626 29.6005 34.3589 29.6005 36.274V39.0208C29.6005 40.0089 29.9054 40.6718 30.4055 41.0827L35.0586 46.199C37.2008 45.0393 39.0727 43.3689 40.5426 41.3314L34.4506 34.6329Z" fill="url(#paint6_linear_183_4889)"/>
<path d="M21.4686 32.7329V29.9861C21.4686 28.0711 22.6121 27.3747 24.1075 27.3747C25.5853 27.3747 26.7465 28.071 26.7465 29.9861V32.7329C26.7465 34.6479 25.5854 35.3443 24.1075 35.3443C22.6122 35.3443 21.4686 34.6479 21.4686 32.7329ZM24.9872 29.9861C24.9872 29.3477 24.6529 29.0576 24.1075 29.0576C23.5622 29.0576 23.2456 29.3478 23.2456 29.9861V32.7329C23.2456 33.3713 23.5622 33.6614 24.1075 33.6614C24.6529 33.6614 24.9872 33.3712 24.9872 32.7329V29.9861ZM32.2002 27.6068C32.2002 27.7229 32.1825 27.8582 32.1297 27.9744L25.9372 41.9211C25.814 42.2113 25.4797 42.4047 25.1455 42.4047C24.5474 42.4047 24.1602 41.8631 24.1602 41.3794C24.1602 41.2633 24.1955 41.128 24.2483 41.0119L30.4232 27.0652C30.564 26.7363 30.8455 26.5815 31.1621 26.5815C31.6548 26.5816 32.2002 26.9878 32.2002 27.6068ZM29.5436 38.9615V36.2147C29.5436 34.2997 30.6871 33.6033 32.1825 33.6033C33.6603 33.6033 34.8214 34.2997 34.8214 36.2147V38.9615C34.8214 40.8766 33.6604 41.5729 32.1825 41.5729C30.6872 41.5729 29.5436 40.8766 29.5436 38.9615ZM33.0621 36.2147C33.0621 35.5764 32.7279 35.2862 32.1825 35.2862C31.6372 35.2862 31.3205 35.5764 31.3205 36.2147V38.9615C31.3205 39.5999 31.6372 39.89 32.1825 39.89C32.7279 39.89 33.0621 39.5999 33.0621 38.9615V36.2147Z" fill="url(#paint7_linear_183_4889)"/>
<defs>
<linearGradient id="paint0_linear_183_4889" x1="17.4823" y1="19.1723" x2="35.4892" y2="35.5491" gradientUnits="userSpaceOnUse">
<stop stop-color="#FEE45A"/>
<stop offset="1" stop-color="#FEA613"/>
</linearGradient>
<linearGradient id="paint1_linear_183_4889" x1="14.3431" y1="19.9576" x2="34.0871" y2="37.9143" gradientUnits="userSpaceOnUse">
<stop stop-color="#FEDBBD"/>
<stop offset="1" stop-color="#FD3581"/>
</linearGradient>
<linearGradient id="paint2_linear_183_4889" x1="27.9999" y1="30.588" x2="27.9999" y2="45.764" gradientUnits="userSpaceOnUse">
<stop stop-color="#FE646F" stop-opacity="0"/>
<stop offset="0.297" stop-color="#FC616A" stop-opacity="0.297"/>
<stop offset="0.621" stop-color="#F5575D" stop-opacity="0.621"/>
<stop offset="0.959" stop-color="#EB4747" stop-opacity="0.959"/>
<stop offset="1" stop-color="#E94444"/>
</linearGradient>
<linearGradient id="paint3_linear_183_4889" x1="36.9231" y1="10.7836" x2="40.8258" y2="14.333" gradientUnits="userSpaceOnUse">
<stop stop-color="#FEE45A"/>
<stop offset="1" stop-color="#FEA613"/>
</linearGradient>
<linearGradient id="paint4_linear_183_4889" x1="42.5879" y1="41.9722" x2="29.1055" y2="37.6056" gradientUnits="userSpaceOnUse">
<stop stop-color="#FE646F" stop-opacity="0"/>
<stop offset="0.297" stop-color="#FC616A" stop-opacity="0.297"/>
<stop offset="0.621" stop-color="#F5575D" stop-opacity="0.621"/>
<stop offset="0.959" stop-color="#EB4747" stop-opacity="0.959"/>
<stop offset="1" stop-color="#E94444"/>
</linearGradient>
<linearGradient id="paint5_linear_183_4889" x1="34.1069" y1="42.3576" x2="23.6466" y2="32.8443" gradientUnits="userSpaceOnUse">
<stop stop-color="#FE646F" stop-opacity="0"/>
<stop offset="0.297" stop-color="#FC616A" stop-opacity="0.297"/>
<stop offset="0.621" stop-color="#F5575D" stop-opacity="0.621"/>
<stop offset="0.959" stop-color="#EB4747" stop-opacity="0.959"/>
<stop offset="1" stop-color="#E94444"/>
</linearGradient>
<linearGradient id="paint6_linear_183_4889" x1="42.6803" y1="48.2277" x2="32.9395" y2="40.2593" gradientUnits="userSpaceOnUse">
<stop stop-color="#FE646F" stop-opacity="0"/>
<stop offset="0.297" stop-color="#FC616A" stop-opacity="0.297"/>
<stop offset="0.621" stop-color="#F5575D" stop-opacity="0.621"/>
<stop offset="0.959" stop-color="#EB4747" stop-opacity="0.959"/>
<stop offset="1" stop-color="#E94444"/>
</linearGradient>
<linearGradient id="paint7_linear_183_4889" x1="21.4686" y1="34.4931" x2="26.7464" y2="34.4931" gradientUnits="userSpaceOnUse">
<stop stop-color="#EAFFEF"/>
<stop offset="1" stop-color="#CBFEB3"/>
</linearGradient>
</defs>
</svg>
