<svg width="510" height="301" viewBox="0 0 510 301" fill="none" xmlns="http://www.w3.org/2000/svg">
<path d="M499.722 203.806C473.763 232.282 119.93 291.216 119.93 291.216L420.706 137.818C420.706 137.818 525.681 175.33 499.722 203.806Z" fill="url(#paint0_linear_3886_62490)"/>
<g filter="url(#filter0_d_3886_62490)">
<g clip-path="url(#clip0_3886_62490)">
<mask id="mask0_3886_62490" style="mask-type:luminance" maskUnits="userSpaceOnUse" x="9" y="6" width="471" height="275">
<path d="M473.157 111.995L190.038 277.356C181.556 282.309 167.315 282.018 158.218 276.704L16.4675 193.913C7.37015 188.599 6.87119 180.281 15.3527 175.328L298.471 9.96701C306.953 5.01326 321.194 5.30469 330.292 10.6182L472.042 93.4099C481.139 98.7234 481.638 107.041 473.157 111.995Z" fill="white"/>
</mask>
<g mask="url(#mask0_3886_62490)">
<path d="M312.851 -7.4199L-17.3326 185.43L172.75 296.451L502.934 103.601L312.851 -7.4199Z" fill="url(#paint1_linear_3886_62490)"/>
<g opacity="0.4">
<path opacity="0.0164" d="M567.974 105.105C498.82 119.542 430.925 131.156 360.401 140.592C298.584 148.863 244.083 154.203 197.857 158.561C51.5527 172.249 -22.7883 171.9 -23.5272 171.896L-23.5708 171.486C-22.8319 171.49 51.4614 171.832 197.69 158.154C298.27 148.68 418.107 135.949 567.686 104.712L567.974 105.105Z" fill="white"/>
<path opacity="0.0328" d="M562.683 102.27C420.465 137.977 308.08 148.637 217.777 157.199C211.336 157.808 205.008 158.409 198.776 159.011C53.4518 172.78 -21.3734 174.147 -22.1208 174.159L-22.1833 173.749C-21.4451 173.742 53.3514 172.369 198.618 158.599C204.851 157.996 211.189 157.401 217.62 156.786C307.885 148.224 420.222 137.569 562.366 101.881L562.683 102.27Z" fill="white"/>
<path opacity="0.0492" d="M557.382 99.4382C498.18 116.878 439.534 129.992 378.097 139.531C324.522 147.849 275.814 152.361 232.851 156.338C221.352 157.403 210.484 158.408 199.695 159.471C55.3518 173.321 -19.9766 176.403 -20.7226 176.438L-20.8231 176.026C-20.0862 175.997 55.2233 172.914 199.519 159.058C210.318 158.001 221.176 156.99 232.675 155.926C317.999 148.025 424.201 138.191 557.019 99.0657L557.382 99.4382Z" fill="white"/>
<path opacity="0.0656" d="M552.09 96.602C424.383 139.941 326.502 148.619 240.15 156.282C226.445 157.5 213.492 158.646 200.623 159.915C57.3187 174.04 -18.5713 178.654 -19.3258 178.705L-19.4452 178.293C-18.6998 178.248 57.1712 173.633 200.447 159.513C213.326 158.239 226.278 157.093 239.984 155.875C326.288 148.216 424.104 139.543 551.699 96.2455L552.09 96.602Z" fill="white"/>
<path opacity="0.082" d="M546.789 93.7722C423.426 141.326 329.046 149.334 245.784 156.397C230.464 157.699 215.982 158.924 201.533 160.37C59.2303 174.621 -17.1655 180.907 -17.9194 180.969L-18.0669 180.562C-17.3131 180.5 59.0729 174.209 201.366 159.963C215.825 158.511 230.307 157.286 245.627 155.985C328.823 148.926 423.128 140.927 546.37 93.4207L546.789 93.7722Z" fill="white"/>
<path opacity="0.0984" d="M541.488 90.9304C421.671 142.822 330.387 150.179 249.865 156.674C233.476 157.992 218.01 159.241 202.461 160.825C61.1319 175.196 -15.7501 183.164 -16.5124 183.242L-16.6789 182.835C-15.9257 182.762 60.9655 174.789 202.285 160.412C217.844 158.834 233.328 157.585 249.717 156.256C330.172 149.766 421.363 142.417 541.051 90.5896L541.488 90.9304Z" fill="white"/>
<path opacity="0.1148" d="M536.186 88.0996C484.01 113.255 433.142 130.688 380.686 141.401C334.433 150.842 293.04 153.994 253.014 157.047C235.904 158.35 219.746 159.579 203.37 161.269C63.0522 175.77 -14.3546 185.409 -15.1156 185.51L-15.3102 185.107C-14.5394 185.013 62.8668 175.363 203.204 160.873C219.589 159.178 235.766 157.949 252.876 156.646C330.808 150.712 419.128 143.985 535.713 87.7801L536.186 88.0996Z" fill="white"/>
<path opacity="0.1311" d="M530.877 85.2736C479.891 112.428 430.464 131.002 379.743 142.055C334.902 151.829 294.562 154.709 255.552 157.501C237.929 158.761 221.295 159.947 204.28 161.734C64.9542 176.344 -12.9577 187.665 -13.7273 187.782L-13.9408 187.379C-13.1713 187.262 64.7596 175.942 204.104 161.321C221.137 159.534 237.78 158.343 255.414 157.089C334.641 151.431 416.565 145.574 530.375 84.9591L530.877 85.2736Z" fill="white"/>
<path opacity="0.1475" d="M525.244 82.6249C414.033 147.58 334.566 152.862 257.702 157.976C240.516 159.118 222.746 160.303 205.206 162.167C66.8633 176.914 -11.5447 189.912 -12.3135 190.04L-12.5552 189.642C-11.7772 189.509 66.6589 176.506 205.03 161.765C222.58 159.896 240.369 158.711 257.573 157.57C334.324 152.464 413.678 147.18 524.724 82.3211C524.843 82.2516 524.953 82.1875 525.063 82.1233L525.573 82.4214C525.473 82.4912 525.354 82.5607 525.244 82.6249Z" fill="white"/>
<path opacity="0.1639" d="M498.917 92.6609C401.055 149.819 329.197 154.233 259.547 158.516C242.11 159.587 224.099 160.695 206.118 162.633C68.7767 177.495 -10.1463 192.169 -10.9237 192.313L-11.1745 191.921C-10.3971 191.776 68.5631 177.092 205.951 162.226C223.951 160.277 241.991 159.175 259.436 158.099C333.927 153.523 410.975 148.794 519.755 79.3093L520.284 79.5967C513.014 84.2324 505.898 88.5835 498.917 92.6609Z" fill="white"/>
<path opacity="0.1803" d="M477.153 100.97C442.824 121.02 409.339 135.236 375.667 144.127C334.723 154.937 297.339 157.032 261.19 159.058C243.598 160.047 225.401 161.069 207.046 163.077C70.6871 178.064 -8.74103 194.42 -9.52686 194.581L-9.80578 194.193C-9.01996 194.033 70.4546 177.661 206.861 162.681C225.234 160.662 243.45 159.64 261.062 158.651C333.283 154.598 407.958 150.407 514.417 76.4887L514.963 76.7654C502.218 85.6198 489.633 93.6811 477.153 100.97Z" fill="white"/>
<path opacity="0.1967" d="M458.325 108.343C451.253 112.474 444.211 116.323 437.172 119.907C416.037 130.681 395.38 138.837 374.026 144.843C334.306 156.005 297.872 157.854 262.637 159.633C244.935 160.526 226.619 161.457 207.946 163.536C72.5786 178.631 -7.34494 196.676 -8.13925 196.853L-8.42733 196.471C-7.64283 196.288 72.3369 178.234 207.78 163.14C226.5 161.056 244.816 160.126 262.547 159.227C335.745 155.52 404.893 152.024 509.097 73.6677L509.662 73.9337C492.02 87.1958 475.059 98.5691 458.325 108.343Z" fill="white"/>
<path opacity="0.2131" d="M441.984 114.851C372.641 155.352 319.534 157.733 264 160.225C246.226 161.023 227.856 161.847 208.884 163.998C74.4888 179.19 -5.93005 198.922 -6.73284 199.116L-7.04903 198.739C-6.25605 198.54 74.238 178.798 208.699 163.59C227.718 161.435 246.106 160.611 263.9 159.814C334.8 156.635 401.761 153.625 503.778 70.8486L504.361 71.1039C482.029 89.2148 461.371 103.527 441.984 114.851Z" fill="white"/>
<path opacity="0.2295" d="M428.308 120.178C365.397 156.923 316.381 158.829 265.24 160.819C247.449 161.511 229.054 162.225 209.802 164.436C76.4084 179.754 -4.53458 201.168 -5.33605 201.384L-5.6712 201.006C-4.86973 200.79 76.1387 179.361 209.607 164.033C228.907 161.818 247.321 161.105 265.139 160.408C333.759 157.735 398.572 155.212 498.458 68.0174L499.059 68.262C473.386 90.674 450.02 107.497 428.308 120.178Z" fill="white"/>
<path opacity="0.2459" d="M416.146 125.138C400.244 134.426 384.559 141.638 368.753 147.006C332.604 159.27 300.44 160.321 266.397 161.439C248.619 162.021 230.217 162.623 210.722 164.896C78.301 180.322 -3.13735 203.424 -3.9473 203.656L-4.2916 203.284C-3.48165 203.052 78.0312 179.93 210.527 164.494C230.069 162.216 248.49 161.614 266.296 161.027C332.654 158.851 395.336 156.804 493.12 65.1966L493.721 65.4301C466.447 90.9898 441.032 110.603 416.146 125.138Z" fill="white"/>
<path opacity="0.2623" d="M405.305 129.578C392.414 137.108 379.686 143.109 366.886 147.731C331.895 160.372 300.608 161.198 267.478 162.068C249.721 162.535 231.369 163.016 211.632 165.35C80.2112 180.881 -1.73169 205.676 -2.55013 205.924L-2.90358 205.558C-2.08514 205.309 79.9323 180.493 211.456 164.949C231.24 162.61 249.631 162.129 267.415 161.658C334.319 159.896 392.098 158.374 487.83 62.3828L488.44 62.611C458.944 92.1739 431.811 114.097 405.305 129.578Z" fill="white"/>
<path opacity="0.2787" d="M395.485 133.663C348.457 161.13 310.329 161.882 268.512 162.702C250.805 163.048 232.502 163.409 212.55 165.8C82.121 181.438 -0.336185 207.921 -1.15329 208.192L-1.53485 207.83C-0.707933 207.565 81.814 181.056 212.355 165.397C232.363 162.997 250.704 162.637 268.43 162.291C333.015 161.024 388.793 159.926 482.491 59.5511L483.119 59.7686C449.84 95.4158 421.323 118.572 395.485 133.663Z" fill="white"/>
<path opacity="0.2951" d="M386.852 137.329C378.865 141.994 370.947 145.92 363.044 149.16C330.353 162.567 300.791 162.936 269.498 163.341C251.869 163.561 233.644 163.797 213.469 166.249C84.0312 181.996 1.06947 210.172 0.243879 210.46L-0.146831 210.103C0.66961 209.821 83.7241 181.614 213.284 165.852C233.516 163.39 251.769 163.161 269.427 162.936C300.606 162.54 330.074 162.169 362.608 148.83C398.728 134.016 435.146 104.755 477.171 56.731L477.799 56.9375C444.91 94.512 415.444 120.63 386.852 137.329Z" fill="white"/>
<path opacity="0.3115" d="M378.953 140.751C372.96 144.251 367.006 147.293 361.072 149.887C329.503 163.683 300.819 163.837 270.44 164.007C252.898 164.107 234.759 164.2 214.398 166.715C85.9132 182.56 2.46599 212.429 1.64107 212.727L1.24121 212.376C2.06613 212.078 85.6154 182.172 214.194 166.307C234.63 163.783 252.797 163.684 270.377 163.596C301.959 163.424 329.223 163.274 360.626 149.552C395.333 134.382 430.679 103.993 471.852 53.9111L472.489 54.1122C438.297 95.6922 408.103 123.725 378.953 140.751Z" fill="white"/>
<path opacity="0.3279" d="M371.913 143.808C335.974 164.799 305.723 164.733 271.343 164.66C253.906 164.618 235.873 164.581 215.307 167.158C87.8139 183.111 3.86217 214.674 3.0196 214.994L2.6106 214.648C3.44401 214.334 87.4971 182.723 215.104 166.761C235.735 164.18 253.806 164.218 271.29 164.255C301.91 164.323 328.354 164.377 358.616 150.267C391.9 134.748 426.204 103.237 466.543 51.0852L467.179 51.2752C429.379 100.132 399.031 127.969 371.913 143.808Z" fill="white"/>
<path opacity="0.3443" d="M365.343 146.82C362.57 148.439 359.819 149.931 357.069 151.296C327.754 165.885 302.018 165.624 272.217 165.329C254.896 165.152 236.987 164.973 216.226 167.607C150.127 175.995 96.0598 189.048 62.347 198.524C25.8122 208.789 4.63867 217.178 4.41643 217.262L3.98846 216.916C4.19174 216.831 25.4025 208.432 61.9746 198.157C95.7246 188.671 149.848 175.607 216.022 167.21C236.858 164.567 254.805 164.746 272.174 164.919C301.833 165.216 327.445 165.469 356.576 150.977C388.467 135.113 421.718 102.474 461.213 48.2593L461.859 48.444C425.733 98.0432 394.804 129.612 365.343 146.82Z" fill="white"/>
<path opacity="0.3607" d="M359.574 149.467C329.5 167.032 303.505 166.555 273.064 166.004C255.876 165.691 238.101 165.366 217.154 168.063C151.57 176.505 97.6078 190.047 63.881 199.922C27.344 210.623 6.04468 219.441 5.83225 219.531L5.39512 219.19C5.60755 219.1 26.9441 210.272 63.5184 199.56C97.2825 189.676 151.3 176.113 216.959 167.661C238 164.955 255.814 165.281 273.049 165.589C330.556 166.633 372.099 167.395 455.921 45.4239L456.576 45.6033C416.842 103.409 386.565 133.702 359.574 149.467Z" fill="white"/>
<path opacity="0.377" d="M354.142 152.009C353.748 152.239 353.364 152.463 352.961 152.687C325.863 168.09 301.771 167.442 273.884 166.694C257.627 166.262 239.206 165.764 218.064 168.517C152.984 177.008 99.1185 191.045 65.3876 201.323C28.8483 212.461 7.42322 221.708 7.21079 221.797L6.76452 221.462C6.97695 221.372 28.4386 212.104 65.025 200.961C98.7932 190.673 152.715 176.616 217.86 168.12C239.087 165.352 257.554 165.846 273.859 166.285C301.594 167.029 325.554 167.674 352.45 152.389C381.526 135.854 412.73 100.972 450.584 42.614L451.238 42.7822C413.869 100.398 382.971 135.17 354.142 152.009Z" fill="white"/>
<path opacity="0.3934" d="M349.221 154.391C323.95 169.151 301.562 168.345 274.695 167.38C258.59 166.802 240.321 166.146 219.003 168.967C154.428 177.508 100.667 192.033 66.9322 202.715C30.3809 214.284 8.82088 223.965 8.60911 224.066L8.1537 223.736C8.36546 223.635 29.9628 213.944 66.5506 202.353C100.323 191.661 154.139 177.115 218.789 168.565C240.211 165.729 258.527 166.391 274.689 166.971C329.269 168.934 365.332 170.225 445.294 39.7786L445.957 39.9415C405.043 106.667 375.571 139.001 349.221 154.391Z" fill="white"/>
<path opacity="0.4098" d="M344.567 156.662C321.438 170.171 300.984 169.244 275.468 168.086C259.516 167.361 241.426 166.543 219.904 169.427C155.843 178.011 102.178 193.03 68.4387 204.115C31.8852 216.122 10.1994 226.232 9.98764 226.332L9.52307 226.008C9.73484 225.907 31.4481 215.781 68.0571 203.754C101.834 192.658 155.564 177.623 219.699 169.019C241.306 166.12 259.462 166.945 275.472 167.671C302.345 168.896 323.568 169.855 348.257 153.762C374.941 136.365 403.227 100.344 439.956 36.9575L440.628 37.1151C403.855 100.551 375.534 136.615 348.795 154.044C347.373 154.977 345.967 155.844 344.567 156.662Z" fill="white"/>
<path opacity="0.4262" d="M340.309 158.748C319.055 171.162 299.767 170.092 276.223 168.792C260.431 167.915 242.521 166.924 220.822 169.876C157.276 178.515 103.717 194.023 69.9731 205.512C33.4082 217.961 11.6058 228.494 11.3849 228.6L10.9111 228.281C11.1321 228.175 32.9711 217.62 69.5824 205.156C103.363 193.657 156.997 178.128 220.619 169.479C242.43 166.518 260.397 167.511 276.246 168.388C327.554 171.23 358.519 172.943 434.656 34.1381L435.327 34.2846C393.823 109.941 365.662 143.94 340.309 158.748Z" fill="white"/>
<path opacity="0.4426" d="M336.482 160.764C317.003 172.141 299.034 170.955 276.967 169.502C261.346 168.469 243.633 167.305 221.74 170.325C158.718 179.013 105.253 195.005 71.5056 206.897C34.9386 219.783 12.992 230.756 12.7809 230.868L12.3072 230.548C12.5281 230.442 34.5021 219.453 71.1058 206.546C104.9 194.638 158.42 178.625 221.545 169.922C243.561 166.888 261.321 168.059 276.999 169.094C301.852 170.731 321.494 172.029 343.993 155.105C367.888 137.136 394.197 98.9571 429.335 31.3063L430.006 31.4528C394.852 99.1475 368.498 137.365 344.558 155.371C341.831 157.422 339.135 159.214 336.482 160.764Z" fill="white"/>
<path opacity="0.459" d="M332.886 162.648C314.989 173.101 298.169 171.805 277.685 170.23C262.245 169.046 244.749 167.698 222.651 170.78C160.143 179.512 106.793 195.998 73.041 208.295C36.4718 221.617 14.3903 233.024 14.1792 233.136L13.6963 232.822C13.9166 232.705 36.0164 221.287 72.632 207.949C106.43 195.637 159.855 179.13 222.456 170.378C244.666 167.276 262.238 168.625 277.737 169.822C301.588 171.654 320.416 173.107 341.838 155.757C364.325 137.533 389.68 98.2838 424.016 28.4761L424.697 28.6172C390.334 98.4631 364.954 137.751 342.421 156.013C339.188 158.624 336.024 160.815 332.886 162.648Z" fill="white"/>
<path opacity="0.4754" d="M329.312 164.621C313.181 174.042 298.015 172.697 278.403 170.957C263.151 169.605 245.871 168.074 223.578 171.224C161.575 180.005 108.321 196.985 74.5652 209.685C37.9846 223.45 15.7865 235.281 15.5662 235.398L15.0742 235.089C15.2945 234.972 37.5194 223.115 74.1464 209.334C107.949 196.618 161.277 179.617 223.375 170.827C245.789 167.652 263.154 169.191 278.464 170.555C302.189 172.655 319.345 174.179 339.671 156.403C361.06 137.709 384.691 98.6065 418.715 25.6563L419.395 25.7864C385.354 98.7805 361.688 137.915 340.273 156.648C336.53 159.912 332.889 162.531 329.312 164.621Z" fill="white"/>
<path opacity="0.4918" d="M326.216 166.337C311.422 174.978 297.254 173.543 279.094 171.711C264.04 170.186 246.986 168.466 224.499 171.695C162.99 180.508 109.832 197.983 76.0721 211.086C39.4893 225.288 17.1752 237.553 16.9549 237.67L16.4538 237.367C16.6832 237.245 39.0339 224.958 75.6631 210.741C109.47 197.621 162.692 180.12 224.295 171.287C246.923 168.044 264.063 169.772 279.174 171.298C301.849 173.587 318.228 175.244 337.486 157.037C357.453 138.154 380.16 98.0201 413.397 22.8358L414.077 22.9658C380.823 98.194 358.1 138.36 338.097 157.277C334.027 161.098 330.105 164.066 326.216 166.337Z" fill="white"/>
<path opacity="0.5082" d="M323.323 167.968C309.773 175.883 296.557 174.373 279.775 172.459C265.672 170.848 248.108 168.841 225.417 172.143C164.423 181 111.37 198.964 77.6054 212.471C41.0204 227.11 18.5621 239.814 18.3426 239.943L17.8414 239.639C18.061 239.511 40.5466 226.79 77.178 212.136C110.989 198.613 164.115 180.618 225.204 171.74C248.045 168.419 265.695 170.434 279.864 172.051C301.471 174.518 317.08 176.303 335.271 157.654C354.068 138.376 375.161 98.4966 408.067 20.0091L408.757 20.1338C375.834 98.6653 354.723 138.566 335.9 157.883C331.59 162.28 327.449 165.558 323.323 167.968Z" fill="white"/>
<path opacity="0.5246" d="M320.555 169.62C316.749 171.843 312.812 173.306 308.551 174.109C300.05 175.728 290.964 174.557 280.438 173.208C266.533 171.424 249.25 169.207 226.336 172.582C165.847 181.499 112.899 199.952 79.1215 213.868C42.6082 228.912 20.051 242.018 19.7307 242.205L19.2204 241.907C19.5407 241.72 42.1247 228.587 78.6844 213.527C112.509 199.595 165.54 181.117 226.123 172.19C249.197 168.791 266.575 171.021 280.556 172.818C301.867 175.549 315.943 177.358 333.075 158.261C350.427 138.898 370.628 98.0274 402.777 17.1846L403.457 17.3036C371.29 98.1792 351.092 139.083 333.703 158.468C329.299 163.356 325.02 167.013 320.555 169.62Z" fill="white"/>
<path opacity="0.541" d="M317.917 171.208C306.837 177.679 295.747 176.086 281.094 173.983C267.415 172.021 250.393 169.582 227.247 173.036C167.281 181.991 114.439 200.933 80.6566 215.253C44.0581 230.771 21.3391 244.338 21.1202 244.478L20.6007 244.185C20.8295 244.051 43.5661 230.462 80.211 214.928C114.039 200.593 166.956 181.62 227.035 172.644C250.34 169.166 267.457 171.619 281.221 173.587C301.424 176.484 314.778 178.395 330.83 158.839C346.946 139.223 365.624 98.7143 397.44 14.3525L398.129 14.4661C366.296 98.8608 347.6 139.392 331.467 159.04C326.808 164.719 322.363 168.61 317.917 171.208Z" fill="white"/>
<path opacity="0.5574" d="M315.532 172.646C305.44 178.54 295.162 176.908 281.738 174.764C268.285 172.625 251.543 169.954 228.175 173.491C168.713 182.485 115.967 201.92 82.1896 216.639C45.5889 232.594 22.7448 246.601 22.5259 246.74L22.0064 246.448C22.2253 246.308 45.0969 232.285 81.744 216.314C115.567 201.569 168.397 182.108 227.972 173.094C251.518 169.533 268.356 172.217 281.894 174.375C301.658 177.528 313.6 179.426 328.602 159.406C343.412 139.648 360.629 99.5684 392.148 11.5279L392.837 11.6415C361.32 99.7152 344.085 139.817 329.257 159.597C324.529 165.866 320.043 170.011 315.532 172.646Z" fill="white"/>
<path opacity="0.5738" d="M313.238 174.147C311.719 175.034 310.189 175.732 308.602 176.259C300.934 178.834 292.75 177.389 282.366 175.556C269.148 173.222 252.704 170.319 229.085 173.934C170.138 182.983 117.487 202.913 83.7058 218.035C47.1028 234.427 24.1428 248.868 23.9238 249.008L23.3952 248.72C23.6233 248.576 46.6108 234.118 83.2693 217.705C117.096 202.556 169.831 182.6 228.891 173.543C252.688 169.893 269.247 172.82 282.541 175.167C292.754 176.974 300.822 178.395 308.23 175.902C327.807 169.317 343.965 134.935 386.819 8.69073L387.507 8.79332C364.587 76.3125 350.667 113.584 339.455 137.431C329.839 157.882 321.93 169.07 313.238 174.147Z" fill="white"/>
<path opacity="0.5902" d="M311.009 175.597C309.673 176.378 308.326 176.981 306.943 177.434C300.033 179.704 292.501 178.233 282.976 176.368C270.002 173.835 253.866 170.684 230.006 174.393C171.562 183.469 119.027 203.893 85.232 219.424C48.6177 236.258 25.5227 251.134 25.2946 251.279L24.7569 250.997C24.9941 250.847 48.1067 235.949 84.7674 219.099C118.599 203.547 171.227 183.091 229.793 174.002C253.86 170.263 270.111 173.439 283.162 175.985C292.533 177.813 299.931 179.259 306.571 177.077C316.332 173.876 324.617 162.651 335.176 138.337C346.958 111.21 362.215 65.7636 381.493 5.87469L382.181 5.97727C362.895 65.8825 347.637 111.329 335.856 138.467C326.729 159.492 319.252 170.783 311.009 175.597Z" fill="white"/>
<path opacity="0.6066" d="M309.056 176.945C307.848 177.65 306.63 178.189 305.385 178.584C299.178 180.559 292.289 179.079 283.569 177.203C271.538 174.611 255.055 171.055 230.926 174.853C172.987 183.967 120.537 204.88 86.7481 220.82C50.1316 238.091 26.9206 253.402 26.6932 253.558L26.1555 253.276C26.3829 253.12 49.6305 237.788 86.2934 220.501C120.138 204.54 172.661 183.595 230.714 174.462C255.058 170.629 271.656 174.21 283.792 176.82C292.34 178.66 299.094 180.115 305.032 178.228C322.697 172.6 335.051 137.802 376.193 3.05473L376.89 3.15193C338.555 128.637 325.159 167.539 309.056 176.945Z" fill="white"/>
<path opacity="0.623" d="M307.205 178.255C306.135 178.88 305.046 179.356 303.921 179.703C298.37 181.421 292.097 179.926 284.161 178.038C272.384 175.242 256.254 171.41 231.846 175.303C174.402 184.459 122.057 205.861 88.2731 222.2C51.6452 239.913 28.3091 255.664 28.0817 255.82L27.5348 255.543C27.7622 255.387 51.1349 239.615 87.7902 221.886C121.639 205.52 174.067 184.082 231.614 174.911C256.257 170.985 272.511 174.846 284.385 177.666C292.455 179.579 298.286 180.965 303.558 179.342C319.904 174.3 330.136 140.903 370.865 0.228819L371.563 0.326062C333.539 131.647 322.055 169.582 307.205 178.255Z" fill="white"/>
<path opacity="0.6393" d="M305.465 179.523C304.514 180.079 303.544 180.496 302.54 180.797C297.609 182.267 291.922 180.773 284.736 178.895C273.239 175.888 257.489 171.766 232.775 175.757C175.825 184.946 123.586 206.848 89.7888 223.596C53.1588 241.746 29.7067 257.931 29.4701 258.092L28.9232 257.815C29.1597 257.654 52.6484 241.448 89.3151 223.276C123.158 206.502 175.49 184.569 232.543 175.365C257.501 171.335 273.385 175.493 284.988 178.529C292.281 180.437 297.553 181.817 302.196 180.436C316.589 176.156 324.675 146.614 358.743 22.2807C360.911 14.3769 363.179 6.08242 365.565 -2.60234L366.252 -2.51083C363.866 6.17394 361.607 14.4631 359.439 22.3669C327.645 138.345 318.439 171.946 305.465 179.523Z" fill="white"/>
<path opacity="0.6557" d="M303.829 180.767C302.987 181.258 302.137 181.617 301.234 181.869C296.877 183.119 292.02 181.714 285.274 179.773C274.067 176.54 258.706 172.111 233.667 176.211C177.259 185.439 125.125 207.818 91.3138 224.975C54.6724 243.568 31.0854 260.187 30.8586 260.354L30.3026 260.083C30.5293 259.916 54.1529 243.275 90.8309 224.661C124.687 207.478 176.905 185.061 233.454 175.809C258.746 171.675 274.242 176.14 285.564 179.397C292.107 181.284 296.839 182.648 300.898 181.492C312.974 178.039 319.803 151.535 345.167 52.9206C349.575 35.7981 354.567 16.3976 360.237 -5.42819L360.934 -5.34203C355.263 16.4838 350.263 35.8896 345.863 53.0068C321.688 146.972 314.606 174.46 303.829 180.767Z" fill="white"/>
<path opacity="0.6721" d="M302.143 182.025C301.457 182.426 300.755 182.721 300.019 182.922C296.199 183.972 291.845 182.583 285.831 180.673C275.539 177.399 259.987 172.462 234.614 176.666C178.681 185.926 126.642 208.799 92.8464 226.36C56.2028 245.39 32.4906 262.449 32.2547 262.621L31.6986 262.35C31.9345 262.178 55.6742 245.102 92.3445 226.046C126.205 208.458 178.327 185.548 234.371 176.257C260.026 172.004 275.733 176.999 286.13 180.303C291.962 182.159 296.171 183.496 299.683 182.533C309.718 179.79 314.826 158.396 333.858 78.7834C339.422 55.5063 346.35 26.549 354.915 -8.27098L355.612 -8.18482C347.037 26.6294 340.119 55.5924 334.555 78.8695C316.832 152.994 311.155 176.761 302.143 182.025Z" fill="white"/>
<path opacity="0.6885" d="M300.683 183.198C300.098 183.54 299.488 183.793 298.854 183.957C295.534 184.818 291.684 183.467 286.335 181.593C276.352 178.092 261.261 172.795 235.506 177.118C180.087 186.422 128.154 209.784 94.3448 227.754C57.6997 247.231 33.8526 264.725 33.6265 264.903L33.0613 264.637C33.2972 264.465 57.1711 246.944 93.8437 227.451C127.709 209.46 179.724 186.049 235.274 176.726C261.329 172.354 276.575 177.71 286.665 181.252C291.811 183.06 295.526 184.364 298.528 183.585C306.733 181.441 310.489 164.333 324.447 100.685C330.373 73.6537 338.493 36.6288 349.6 -11.0708L350.296 -10.9847C339.189 36.7039 331.078 73.7234 325.151 100.754C312.189 159.832 308.003 178.923 300.683 183.198Z" fill="white"/>
<path opacity="0.7049" d="M299.314 184.342C298.82 184.631 298.311 184.836 297.77 184.969C294.914 185.673 291.531 184.36 286.857 182.538C277.2 178.79 262.608 173.121 236.444 177.569C181.528 186.899 129.682 210.761 95.8776 229.129C59.2302 249.043 35.2678 266.983 35.0228 267.16L34.4575 266.894C34.7026 266.717 58.6827 248.756 95.3764 228.826C129.245 210.42 181.165 186.526 236.202 177.171C262.685 172.674 278.033 178.635 287.215 182.203C291.705 183.948 294.962 185.21 297.463 184.586C304.051 182.951 306.971 168.165 316.646 119.17C322.688 88.5517 330.959 46.6238 344.298 -13.9121L345.004 -13.8312C331.674 46.6993 323.393 88.6325 317.36 119.245C308.162 165.773 305.169 180.922 299.314 184.342Z" fill="white"/>
<path opacity="0.7213" d="M298.02 185.465C297.618 185.7 297.192 185.868 296.744 185.97C294.325 186.534 291.398 185.263 287.344 183.515C278.605 179.747 263.983 173.43 237.373 178.013C182.962 187.381 131.22 211.732 97.4032 230.52C60.7537 250.871 36.6753 269.245 36.4309 269.434L35.8565 269.173C36.0918 268.99 60.2068 250.595 96.8929 230.222C130.766 211.413 182.58 187.019 237.123 177.631C264.08 172.995 278.886 179.388 287.723 183.202C291.583 184.869 294.383 186.076 296.437 185.599C301.62 184.383 303.602 172.896 310.191 134.817C315.577 103.677 323.711 56.6241 338.979 -16.7431L339.675 -16.668C324.397 56.6934 316.272 103.741 310.885 134.87C304.65 170.954 302.613 182.782 298.02 185.465Z" fill="white"/>
<path opacity="0.7377" d="M296.782 186.567C296.461 186.754 296.119 186.885 295.754 186.96C293.744 187.4 291.384 186.257 287.796 184.535C279.419 180.498 265.396 173.739 238.274 178.472C184.357 187.872 132.73 212.718 98.9091 231.91C62.2574 252.698 38.0447 271.517 37.8095 271.7L37.2351 271.44C37.4795 271.251 61.7007 252.416 98.3982 231.601C132.265 212.382 183.994 187.5 238.032 178.074C265.51 173.283 279.729 180.133 288.213 184.223C291.47 185.794 293.83 186.926 295.456 186.573C299.391 185.707 300.781 176.206 304.885 148.004C309.311 117.596 316.722 66.6899 333.67 -19.5691L334.365 -19.494C317.417 66.7539 310.016 117.654 305.59 148.062C301.618 175.465 300.295 184.514 296.782 186.567Z" fill="white"/>
<path opacity="0.7541" d="M295.569 187.653C295.331 187.792 295.08 187.88 294.809 187.936C293.172 188.273 291.204 187.198 288.229 185.589C280.78 181.548 266.89 174.023 239.2 178.916C185.797 188.349 134.256 213.683 100.44 233.274C63.7678 254.509 39.4392 273.763 39.2046 273.957L38.6302 273.697C38.8746 273.508 63.2013 254.221 99.9298 232.975C133.81 213.348 185.424 187.971 238.958 178.518C267.042 173.556 281.128 181.195 288.694 185.294C291.376 186.743 293.304 187.794 294.539 187.543C297.402 186.96 298.212 179.941 300.58 159.104C303.847 130.371 309.948 76.8936 328.348 -22.4001L329.044 -22.325C310.653 76.9633 304.552 130.44 301.275 159.168C299.027 178.995 298.213 186.108 295.569 187.653Z" fill="white"/>
<path opacity="0.7705" d="M294.462 188.711C294.288 188.813 294.103 188.876 293.907 188.921C292.614 189.16 291.12 188.245 288.632 186.717C282.084 182.689 268.475 174.313 240.113 179.38C187.204 188.845 135.778 214.663 101.949 234.673C65.2845 256.352 40.8306 276.045 40.5869 276.245L40.0034 275.99C40.2471 275.79 64.7284 256.08 101.43 234.381C135.305 214.355 186.832 188.478 239.872 178.993C268.655 173.841 282.49 182.36 289.128 186.451C291.173 187.709 292.776 188.699 293.647 188.534C295.594 188.165 296.011 182.797 297.119 168.428C299.148 142.114 303.383 87.3653 323.033 -25.2107L323.738 -25.1409C304.078 87.4182 299.852 142.161 297.822 168.464C296.734 182.535 296.347 187.611 294.462 188.711Z" fill="white"/>
<path opacity="0.7869" d="M293.445 189.73C293.317 189.805 293.178 189.852 293.037 189.877C292.043 190.045 290.965 189.276 289.007 187.886C282.904 183.552 270.204 174.542 241.041 179.825C188.635 189.317 137.306 215.64 103.482 236.049C66.8058 258.169 42.2269 278.303 41.9832 278.502L41.3997 278.247C41.6434 278.048 66.2399 257.892 102.953 235.75C136.831 215.309 188.253 188.944 240.799 179.427C270.412 174.065 283.824 183.576 289.541 187.632C291.004 188.668 292.271 189.568 292.805 189.474C293.985 189.266 294.118 185.164 294.42 176.149C295.19 152.829 296.99 98.2191 317.74 -28.057L318.445 -27.9873C297.676 98.2884 295.875 152.888 295.105 176.196C294.781 185.786 294.68 189.009 293.445 189.73Z" fill="white"/>
<path opacity="0.8033" d="M292.477 190.742C292.386 190.796 292.293 190.827 292.171 190.841C291.457 190.948 290.739 190.347 289.304 189.157C284.159 184.848 272.086 174.75 241.933 180.278C190.022 189.802 138.798 216.614 104.96 237.432C68.2921 259.995 43.588 280.568 43.3443 280.768L42.7516 280.518C43.0045 280.313 67.7262 259.718 104.422 237.139C138.305 216.294 189.631 189.434 241.664 179.885C272.312 174.262 285.054 184.921 289.849 188.93C290.677 189.627 291.624 190.415 291.928 190.433C292.466 190.233 292.405 187.334 292.287 182.519C291.88 164.529 290.643 109.802 312.366 -30.8796L313.061 -30.8156C291.347 109.849 292.583 164.566 292.989 182.545C293.165 188.633 293.182 190.331 292.477 190.742Z" fill="white"/>
<path opacity="0.8197" d="M291.572 191.73C291.508 191.768 291.433 191.788 291.358 191.798C290.87 191.865 290.537 191.532 289.588 190.55C285.823 186.673 274.387 174.885 242.881 180.734C191.473 190.285 140.344 217.591 106.513 238.818C69.833 261.824 45.0129 282.832 44.7699 283.043L44.1773 282.793C44.4203 282.582 69.2671 261.547 105.974 238.525C139.861 217.266 191.082 189.917 242.63 180.341C274.697 174.382 286.366 186.414 290.193 190.369C290.526 190.713 290.869 191.063 291.099 191.262C291.174 190.782 291.039 189.485 290.864 187.662C285.561 133.99 296.762 37.6629 307.093 -33.7035L307.789 -33.6395C297.466 37.7105 286.254 134.021 291.546 187.664C291.865 190.768 291.92 191.527 291.572 191.73Z" fill="white"/>
<path opacity="0.8361" d="M290.734 192.702C290.688 192.729 290.622 192.733 290.538 192.748C290.199 192.785 290.107 192.667 289.744 192.146C281.915 180.978 265.601 177.083 243.811 181.189C192.898 190.772 141.874 218.567 108.029 240.204C71.3568 263.652 46.4025 285.105 46.1594 285.316L45.5668 285.066C45.819 284.85 70.7909 263.375 107.49 239.911C141.381 218.247 192.496 190.399 243.541 180.796C272.42 175.358 284.846 184.689 289.853 191.291C286.25 175.11 280.446 120.975 301.785 -36.5288L302.489 -36.4701C280.997 122.109 287.024 175.851 290.62 191.599C290.811 192.405 290.862 192.628 290.734 192.702Z" fill="white"/>
<path opacity="0.8525" d="M289.747 193.747L289.478 193.687C289.161 193.608 288.73 192.736 288.257 191.327C286.912 189.27 284.081 186.109 278.799 183.623C270.272 179.615 258.802 178.943 244.701 181.631C194.282 191.235 143.364 219.53 109.524 241.565C72.8402 265.455 47.7705 287.354 47.5184 287.57L46.9264 287.331C47.1786 287.115 72.2658 265.195 108.977 241.288C142.871 219.21 193.891 190.879 244.441 181.244C266.706 176.998 278.577 181.826 284.613 186.623C285.896 187.64 286.934 188.684 287.74 189.646C287.33 188.189 286.912 186.416 286.53 184.483C285.374 178.624 283.87 167.913 283.252 150.195C282.189 119.692 283.618 62.0428 296.456 -39.367L297.16 -39.3083C284.458 61.0478 282.958 118.452 283.924 148.931C284.742 174.397 287.356 186.558 288.871 191.141C289.777 192.503 290.101 193.484 289.911 193.629L289.747 193.747Z" fill="white"/>
<path opacity="0.8689" d="M289.108 194.58C288.971 194.66 288.782 194.678 288.59 194.63C287.869 194.444 286.737 192.629 285.516 188.688C284.647 187.774 283.548 186.833 282.205 185.91C276.547 182.038 265.598 178.23 245.63 182.086C195.714 191.717 144.892 220.496 111.048 242.945C74.3721 267.278 49.1773 289.617 48.9258 289.844L48.3338 289.605C48.5853 289.378 73.7886 267.023 110.511 242.674C144.409 220.193 195.323 191.361 245.37 181.699C266.892 177.543 278.262 182.068 283.998 186.594C284.425 186.929 284.834 187.274 285.205 187.619C283.268 180.898 281.177 168.925 280.119 149.871C278.427 119.288 278.963 61.1395 291.156 -42.1752L291.861 -42.1165C279.732 60.5412 279.139 118.528 280.773 149.099C281.921 170.599 284.332 182.535 286.253 188.659C288.873 191.461 289.742 194.106 289.154 194.553C289.135 194.564 289.117 194.575 289.108 194.58ZM286.727 190.101C287.549 192.43 288.237 193.644 288.643 194.084C288.655 193.503 288.146 191.966 286.727 190.101Z" fill="white"/>
<path opacity="0.8852" d="M288.397 195.499C288.196 195.617 287.933 195.644 287.654 195.578C286.443 195.276 284.63 192.69 282.776 186.722C277.797 182.97 267.198 178.511 246.558 182.541C197.127 192.199 146.41 221.477 112.572 244.336C75.8849 269.111 50.584 291.89 50.3325 292.117L49.7404 291.879C49.992 291.651 75.3295 268.851 112.034 244.054C145.936 221.157 196.745 191.837 246.307 182.149C265.945 178.314 276.765 181.865 282.536 185.877C276.176 164.314 269.699 102.272 285.864 -45.0114L286.569 -44.9528C274.965 60.7689 275.348 119.572 277.721 150.285C279.14 168.738 281.453 179.986 283.536 186.611C283.546 186.616 283.546 186.616 283.556 186.622C288.177 190.24 289.567 194.632 288.499 195.451C288.443 195.472 288.416 195.488 288.397 195.499ZM283.821 187.568C285.716 193.27 287.372 195.135 287.906 195.201C288.463 195.014 288.184 192.253 285.36 189.076C284.955 188.625 284.451 188.117 283.821 187.568Z" fill="white"/>
<path opacity="0.9016" d="M287.708 196.406C287.415 196.577 287.038 196.613 286.645 196.522C285.087 196.137 282.583 193.06 280.069 185.254C274.344 182.017 264.41 179.646 247.471 183.005C198.543 192.69 147.922 222.462 114.08 245.725C77.3914 270.948 51.9653 294.167 51.7046 294.399L51.1035 294.166C51.3641 293.933 76.8078 270.693 113.524 245.453C147.43 222.153 198.133 192.333 247.202 182.623C264.272 179.245 274.339 181.779 279.871 184.636C277.575 177.31 275.299 166.041 273.725 149.282C269.569 104.938 271.92 36.7764 280.52 -47.8171L281.215 -47.7642C270.351 59.0843 271.53 118.363 274.426 149.275C276.054 166.631 278.408 177.924 280.682 185.056C281.682 185.619 282.502 186.183 283.177 186.706C288.183 190.591 289.183 195.269 287.826 196.325C287.79 196.358 287.753 196.379 287.708 196.406ZM280.903 185.741C283.367 193.198 285.704 195.845 286.877 196.134C286.983 196.164 287.097 196.178 287.242 196.059C288.274 195.261 287.54 190.761 282.613 186.932C282.106 186.54 281.533 186.141 280.903 185.741Z" fill="white"/>
<path opacity="0.918" d="M287.071 197.294C286.668 197.529 286.151 197.59 285.603 197.452C283.566 196.957 280.442 193.358 277.376 184.225C271.609 181.861 262.537 180.613 248.398 183.449C199.964 193.155 149.448 223.416 115.593 247.088C78.9019 272.748 53.3513 296.418 53.1005 296.657L52.4993 296.423C52.7502 296.185 78.3282 272.499 115.037 246.817C148.937 223.107 199.545 192.793 248.129 183.057C262.343 180.211 271.524 181.555 277.212 183.713C274.725 176.189 272.295 165.044 270.508 148.995C265.451 103.675 267.037 36.499 275.217 -50.6695L275.921 -50.6219C267.837 35.3096 266.201 104.337 271.2 149.004C273.023 165.341 275.514 176.565 277.998 184.033C280.164 184.934 281.778 185.941 282.939 186.833C288.34 190.992 288.819 195.964 287.253 197.176C287.199 197.219 287.135 197.257 287.071 197.294ZM278.173 184.573C281.127 193.245 284.058 196.646 285.836 197.075C286.047 197.124 286.362 197.169 286.679 196.915C288.163 195.762 287.38 190.923 282.385 187.065C281.254 186.201 279.876 185.343 278.173 184.573Z" fill="white"/>
<path opacity="0.9344" d="M286.491 198.161C285.942 198.482 285.255 198.562 284.525 198.381C281.68 197.692 278.089 193.232 274.698 183.589C269.111 182.014 261.003 181.522 249.318 183.899C201.368 193.631 150.958 224.382 117.108 248.463C80.4152 274.571 54.7395 298.681 54.4887 298.919L53.8875 298.686C54.1384 298.447 79.8317 274.315 116.552 248.191C150.456 224.067 200.968 193.269 249.048 183.506C260.79 181.119 268.976 181.668 274.548 183.149C271.832 175.278 269.226 164.051 267.257 148.751C261.353 103.054 262.243 35.001 269.899 -53.4891L270.603 -53.4415C262.946 35.0375 262.055 103.068 267.939 148.754C269.988 164.593 272.636 175.737 275.31 183.38C278.838 184.415 281.223 185.807 282.771 186.99C288.051 191.025 288.798 196.366 286.727 198C286.655 198.054 286.573 198.113 286.491 198.161ZM275.479 183.831C278.983 193.616 282.5 197.465 284.749 198.009C285.306 198.142 285.765 198.058 286.163 197.745C287.817 196.435 287.586 191.319 282.227 187.227C280.608 185.983 278.414 184.754 275.479 183.831Z" fill="white"/>
<path opacity="0.9508" d="M285.931 199.026C285.226 199.438 284.333 199.547 283.391 199.317C279.99 198.506 275.894 193.677 272.033 183.31C266.807 182.384 259.743 182.395 250.22 184.357C202.764 194.111 152.469 225.355 118.605 249.846C81.9108 276.391 56.1107 300.952 55.8605 301.201L55.2502 300.973C55.5102 300.729 81.3188 276.152 118.031 249.585C151.93 225.051 202.346 193.759 249.932 183.975C259.502 182.008 266.635 182.038 271.868 182.925C268.935 174.917 266.149 163.681 263.953 148.537C257.256 102.409 257.459 33.4842 264.572 -56.3168L265.276 -56.2692C258.171 33.5154 257.967 102.418 264.662 148.523C266.886 163.802 269.702 175.076 272.652 183.052C277.653 184.006 280.826 185.752 282.682 187.167C288.278 191.419 288.535 196.978 286.248 198.795C286.159 198.881 286.05 198.957 285.931 199.026ZM272.8 183.458C276.566 193.525 280.512 198.202 283.606 198.94C284.413 199.133 285.096 198.998 285.684 198.54C287.871 196.804 287.346 191.356 282.137 187.405C280.103 185.853 277.114 184.332 272.8 183.458Z" fill="white"/>
<path opacity="0.9672" d="M285.391 199.822C284.504 200.341 283.385 200.478 282.213 200.2C278.438 199.31 273.833 194.215 269.505 183.308C264.792 182.885 258.797 183.199 251.156 184.796C204.163 194.532 153.953 226.265 120.115 251.176C83.4196 278.18 57.5336 303.204 57.2743 303.459L56.664 303.23C56.9142 302.981 82.8368 277.936 119.541 250.915C153.443 225.967 203.743 194.169 250.877 184.409C258.555 182.802 264.618 182.516 269.358 182.923C266.161 174.771 263.132 163.437 260.68 148.281C253.172 101.733 252.697 31.943 259.27 -59.1468L259.973 -59.0992C253.4 31.9684 253.872 101.736 261.371 148.279C263.953 164.322 267.031 175.375 270.016 182.997C276.582 183.679 280.492 185.717 282.634 187.321C288.337 191.614 288.321 197.504 285.828 199.522C285.693 199.635 285.547 199.732 285.391 199.822ZM270.172 183.377C275.732 197.302 280.996 199.478 282.427 199.823C283.522 200.077 284.468 199.892 285.244 199.266C287.629 197.346 287.593 191.692 282.089 187.559C279.699 185.756 275.957 183.998 270.172 183.377Z" fill="white"/>
<path opacity="0.9836" d="M284.915 200.674C283.817 201.315 282.463 201.475 281.023 201.147C278.766 200.62 272.964 197.84 266.94 183.602C262.883 183.541 257.967 184.004 252.057 185.255C205.569 195.029 155.465 227.262 121.622 252.577C84.9247 280.018 58.9037 305.476 58.6444 305.73L58.0341 305.502C58.2934 305.247 84.3327 279.779 121.048 252.316C154.945 226.958 205.15 194.677 251.778 184.868C257.735 183.613 262.69 183.161 266.784 183.222C263.521 175.396 260.197 164.177 257.367 148.106C249.063 101.072 247.91 30.3939 253.951 -61.9678L254.655 -61.9202C248.622 30.4251 249.773 101.081 258.067 148.099C260.779 163.47 264.092 174.97 267.543 183.249C275.712 183.499 280.32 185.806 282.69 187.575C288.559 191.965 288.261 198.043 285.47 200.303C285.298 200.438 285.107 200.561 284.915 200.674ZM267.698 183.617C272.356 194.653 277.25 199.831 281.246 200.764C283.013 201.177 284.209 200.593 284.895 200.032C287.506 197.922 287.726 191.97 282.154 187.796C279.458 185.794 274.994 183.85 267.698 183.617Z" fill="white"/>
<path d="M284.475 201.516C283.157 202.285 281.531 202.49 279.803 202.089C276.797 201.392 272.13 198.58 266.979 189.116C266.128 187.561 265.308 185.896 264.51 184.105C261.186 184.269 257.361 184.76 252.967 185.699C206.992 195.516 156.974 228.238 123.128 253.956C86.4278 281.834 60.2817 307.732 60.0223 307.987L59.412 307.759C59.6714 307.504 85.8358 281.595 122.563 253.69C156.463 227.929 206.572 195.154 252.697 185.306C257.129 184.357 261.001 183.872 264.354 183.714C260.323 174.616 256.866 162.615 254.052 147.911C244.962 100.406 243.14 28.8355 248.632 -64.7986L249.326 -64.7568C243.833 28.8551 245.663 100.41 254.753 147.914C257.888 164.334 261.509 175.758 265.025 183.7C274.9 183.355 280.224 185.908 282.791 187.814C288.262 191.875 288.569 198.253 285.175 201.027C284.959 201.21 284.722 201.371 284.475 201.516ZM265.199 184.08C271.604 198.337 277.674 201.166 280.026 201.707C282.235 202.217 283.725 201.484 284.582 200.777C287.453 198.435 287.976 192.306 282.238 188.057C279.303 185.862 274.119 183.754 265.199 184.08Z" fill="white"/>
</g>
</g>
<path d="M78.679 192.441L74.5757 194.838L62.717 180.608L67.6515 177.726L92.0058 184.658L87.9025 187.054L69.3936 181.543L69.2521 181.626L78.679 192.441ZM71.3037 188.433L80.9959 182.772L83.985 184.518L74.2928 190.179L71.3037 188.433ZM90.0293 176.639L97.8821 181.225L94.1149 183.426L80.5317 175.492L84.122 173.395L86.5186 174.795L86.6777 174.702C86.1884 174.065 86.0676 173.406 86.3152 172.724C86.5569 172.039 87.1818 171.402 88.1899 170.813C89.1332 170.262 90.162 169.902 91.2762 169.733C92.3905 169.564 93.5254 169.59 94.6809 169.811C95.8305 170.028 96.933 170.444 97.9883 171.061L106.637 176.112L102.87 178.312L94.8931 173.653C94.0677 173.165 93.207 172.91 92.3109 172.889C91.4089 172.865 90.5806 173.073 89.8259 173.514C89.3189 173.81 88.9799 174.136 88.809 174.49C88.6439 174.841 88.6616 175.203 88.862 175.575C89.0625 175.94 89.4516 176.295 90.0293 176.639ZM121.102 173.944C119.882 174.657 118.667 175.17 117.459 175.483C116.262 175.797 115.121 175.936 114.037 175.902C112.952 175.867 111.976 175.686 111.109 175.359L114.125 173.05C114.502 173.147 114.924 173.197 115.39 173.2C115.855 173.204 116.348 173.137 116.866 172.999C117.397 172.861 117.936 172.632 118.485 172.312C119.304 171.833 119.779 171.322 119.908 170.778C120.05 170.234 119.655 169.69 118.723 169.146L116.239 167.694L116.079 167.787C116.292 168.104 116.401 168.457 116.407 168.846C116.412 169.235 116.262 169.643 115.956 170.07C115.649 170.497 115.136 170.921 114.417 171.341C113.397 171.937 112.233 172.341 110.924 172.555C109.615 172.761 108.224 172.723 106.75 172.441C105.276 172.152 103.787 171.568 102.284 170.69C100.745 169.791 99.7105 168.894 99.1799 167.999C98.6493 167.104 98.5432 166.264 98.8615 165.478C99.1858 164.69 99.8461 164.005 100.842 163.423C101.603 162.979 102.369 162.682 103.142 162.534C103.908 162.383 104.639 162.328 105.335 162.369C106.03 162.404 106.647 162.478 107.183 162.591L107.325 162.509L105.043 161.176L108.784 158.991L122.5 167.002C123.655 167.677 124.339 168.407 124.551 169.192C124.763 169.977 124.563 170.776 123.95 171.589C123.348 172.401 122.399 173.186 121.102 173.944ZM112.781 168.991C113.388 168.636 113.751 168.249 113.869 167.829C113.986 167.402 113.874 166.957 113.532 166.496C113.191 166.028 112.622 165.561 111.826 165.096C111.03 164.631 110.228 164.294 109.42 164.084C108.607 163.87 107.826 163.793 107.077 163.851C106.328 163.91 105.65 164.117 105.043 164.471C104.424 164.833 104.07 165.236 103.982 165.68C103.887 166.121 104.026 166.577 104.397 167.049C104.769 167.52 105.341 167.982 106.113 168.433C106.897 168.891 107.684 169.223 108.474 169.43C109.264 169.629 110.025 169.698 110.756 169.636C111.487 169.567 112.162 169.352 112.781 168.991ZM131.82 161.713C130.423 162.529 128.937 163.066 127.363 163.325C125.789 163.576 124.209 163.555 122.623 163.263C121.032 162.967 119.519 162.4 118.087 161.563C116.69 160.747 115.734 159.873 115.222 158.94C114.709 158.006 114.65 157.08 115.045 156.161C115.446 155.238 116.312 154.387 117.645 153.609C118.541 153.086 119.519 152.683 120.581 152.401C121.642 152.111 122.747 151.965 123.897 151.962C125.052 151.955 126.225 152.11 127.416 152.426C128.601 152.74 129.772 153.234 130.927 153.909L131.962 154.513L120.492 161.212L118.157 159.849L126.081 155.221C125.539 154.904 124.94 154.692 124.286 154.585C123.631 154.479 122.977 154.479 122.323 154.585C121.668 154.685 121.067 154.895 120.519 155.216C119.947 155.55 119.572 155.923 119.396 156.336C119.219 156.743 119.228 157.147 119.422 157.55C119.611 157.95 119.97 158.308 120.501 158.624L122.721 159.921C123.393 160.313 124.097 160.58 124.834 160.721C125.577 160.859 126.311 160.871 127.036 160.758C127.761 160.644 128.439 160.403 129.07 160.035C129.489 159.79 129.813 159.532 130.043 159.26C130.273 158.988 130.394 158.711 130.405 158.428C130.417 158.146 130.317 157.867 130.105 157.591L133.819 155.691C134.479 156.283 134.848 156.922 134.924 157.607C135.001 158.285 134.783 158.977 134.27 159.683C133.757 160.382 132.94 161.059 131.82 161.713ZM125.904 143.703L144.015 154.281L140.248 156.481L122.137 145.903L125.904 143.703Z" fill="#FAFAFC"/>
<g clip-path="url(#clip1_3886_62490)">
<path d="M152.036 145.539C152.862 145.121 153.551 144.771 154.392 144.347C151.856 144.741 149.492 145.332 147.349 145.377C144.854 145.432 143.562 144.433 143.165 142.967C143.966 142.642 144.691 142.35 145.418 142.056C145.398 141.959 145.375 141.86 145.355 141.763C144.68 141.891 144.005 142.019 143.327 142.142C139.234 142.883 135.694 141.627 135.804 139.468C135.844 138.668 136.258 138.228 137.798 138.472C150.9 140.544 153.345 140.375 169.76 136.293C167.335 139.823 165.474 143.309 161.248 146.436C160.653 146.878 159.246 147.171 158.261 147.267C155.329 147.555 153.338 146.9 152.036 145.539Z" fill="white"/>
<path d="M169.188 135.589C163.123 137.805 156.952 138.995 150.714 139.131C148.083 139.188 149.033 137.797 148.915 136.806C149.873 136.606 150.697 136.431 151.525 136.259C151.537 136.155 151.542 136.05 151.554 135.946C150.859 135.959 150.154 135.984 149.462 135.98C145.637 135.958 143.36 134.05 144.586 131.843C144.764 131.525 145.188 131.131 145.655 130.941C145.909 130.837 146.613 131.015 146.895 131.187C152.466 134.589 159.928 135.991 169.188 135.589Z" fill="white"/>
</g>
<path d="M168.466 234.886L177.465 254.514C177.506 254.603 177.586 254.685 177.698 254.751C177.81 254.816 177.95 254.863 178.103 254.887C178.256 254.911 178.417 254.911 178.57 254.887C178.723 254.863 178.863 254.815 178.975 254.75L203.591 240.372C203.703 240.306 203.783 240.225 203.824 240.135C203.865 240.045 203.864 239.951 203.822 239.862C203.78 239.772 203.699 239.691 203.586 239.626C203.473 239.561 203.332 239.515 203.179 239.492L169.574 234.235C169.42 234.211 169.257 234.21 169.102 234.234C168.948 234.258 168.807 234.305 168.694 234.372C168.582 234.438 168.501 234.521 168.461 234.611C168.421 234.701 168.423 234.796 168.466 234.886Z" fill="#ED6203"/>
<path d="M174.749 248.601L186.682 249.207L184.763 236.614L182.938 247.02L174.749 248.601Z" fill="white"/>
</g>
</g>
<defs>
<filter id="filter0_d_3886_62490" x="-8.71878" y="-4.81252" width="505.947" height="302.76" filterUnits="userSpaceOnUse" color-interpolation-filters="sRGB">
<feFlood flood-opacity="0" result="BackgroundImageFix"/>
<feColorMatrix in="SourceAlpha" type="matrix" values="0 0 0 0 0 0 0 0 0 0 0 0 0 0 0 0 0 0 127 0" result="hardAlpha"/>
<feOffset dy="2.90626"/>
<feGaussianBlur stdDeviation="4.35939"/>
<feComposite in2="hardAlpha" operator="out"/>
<feColorMatrix type="matrix" values="0 0 0 0 0 0 0 0 0 0 0 0 0 0 0 0 0 0 0.09 0"/>
<feBlend mode="normal" in2="BackgroundImageFix" result="effect1_dropShadow_3886_62490"/>
<feBlend mode="normal" in="SourceGraphic" in2="effect1_dropShadow_3886_62490" result="shape"/>
</filter>
<linearGradient id="paint0_linear_3886_62490" x1="486.091" y1="165.392" x2="139.701" y2="256.776" gradientUnits="userSpaceOnUse">
<stop stop-opacity="0"/>
<stop offset="0.510417" stop-opacity="0.06"/>
<stop offset="1" stop-opacity="0"/>
</linearGradient>
<linearGradient id="paint1_linear_3886_62490" x1="65.304" y1="130.291" x2="574.57" y2="189.473" gradientUnits="userSpaceOnUse">
<stop offset="0.2365" stop-color="#84B4CF"/>
<stop offset="0.4135" stop-color="#7A99C1"/>
<stop offset="0.6501" stop-color="#6E7CB2"/>
<stop offset="0.854" stop-color="#6769A9"/>
<stop offset="1" stop-color="#6563A6"/>
</linearGradient>
<clipPath id="clip0_3886_62490">
<rect width="363.431" height="202.298" rx="18.8907" transform="matrix(0.863503 -0.504344 0.863503 0.504344 0 184.295)" fill="white"/>
</clipPath>
<clipPath id="clip1_3886_62490">
<rect width="27.1388" height="27.1388" fill="white" transform="matrix(0.863503 -0.504344 0.863503 0.504344 129.989 138.699)"/>
</clipPath>
</defs>
</svg>
