<svg width="1174" height="400" viewBox="0 0 1174 400" fill="none" xmlns="http://www.w3.org/2000/svg">
<g opacity="0.8">
<g opacity="0.4">
<mask id="mask0_3886_62597" style="mask-type:alpha" maskUnits="userSpaceOnUse" x="521" y="-253" width="658" height="794">
<rect x="590.532" y="-252.788" width="590.415" height="742.359" transform="rotate(5.30217 590.532 -252.788)" fill="url(#paint0_linear_3886_62597)"/>
</mask>
<g mask="url(#mask0_3886_62597)">
<path d="M1055.11 269.194C1043.99 388.96 937.894 477.039 818.128 465.924C698.361 454.81 610.282 348.709 621.397 228.943C632.512 109.177 723.635 182.479 843.401 193.594C963.167 204.709 1066.22 149.428 1055.11 269.194Z" fill="#FF9457"/>
<g filter="url(#filter0_f_3886_62597)">
<path d="M1054.71 273.519C1046.1 366.229 942.038 432.374 822.272 421.259C702.506 410.144 612.391 325.978 620.995 233.269C629.599 140.559 733.664 74.414 853.43 85.529C973.196 96.6439 1063.31 180.81 1054.71 273.519Z" fill="#FF9457"/>
</g>
<g filter="url(#filter1_f_3886_62597)">
<ellipse cx="838.652" cy="244.751" rx="217.788" ry="168.586" transform="rotate(5.30217 838.652 244.751)" fill="#FF9457"/>
</g>
<g filter="url(#filter2_f_3886_62597)">
<ellipse cx="840.859" cy="220.973" rx="217.788" ry="169.31" transform="rotate(5.30217 840.859 220.973)" fill="#FF9457"/>
</g>
<g filter="url(#filter3_f_3886_62597)">
<ellipse cx="847.478" cy="149.65" rx="217.788" ry="168.586" transform="rotate(5.30217 847.478 149.65)" fill="#FF9457"/>
</g>
<g filter="url(#filter4_f_3886_62597)">
<ellipse cx="856.438" cy="53.11" rx="183.057" ry="168.586" transform="rotate(5.30217 856.438 53.11)" fill="#FF9457"/>
</g>
</g>
<mask id="mask1_3886_62597" style="mask-type:alpha" maskUnits="userSpaceOnUse" x="582" y="-192" width="926" height="856">
<rect x="1250.92" y="-191.499" width="590.414" height="742.359" transform="rotate(64.2136 1250.92 -191.499)" fill="url(#paint1_linear_3886_62597)"/>
</mask>
<g mask="url(#mask1_3886_62597)">
<path d="M1043.8 475.885C935.501 528.209 805.286 482.829 752.962 374.526C700.638 266.222 746.018 136.007 854.322 83.6833C962.625 31.3591 946.904 147.245 999.228 255.548C1051.55 363.852 1152.11 423.561 1043.8 475.885Z" fill="#FF8D4D"/>
<g filter="url(#filter5_f_3886_62597)">
<path d="M1039.89 477.774C956.059 518.277 845.679 463.314 793.354 355.011C741.03 246.707 766.576 126.075 850.412 85.5721C934.248 45.0686 1044.63 100.031 1096.95 208.335C1149.28 316.639 1123.73 437.271 1039.89 477.774Z" fill="#FF8D4D"/>
</g>
<g filter="url(#filter6_f_3886_62597)">
<ellipse cx="952.973" cy="277.894" rx="217.788" ry="168.586" transform="rotate(64.2136 952.973 277.894)" fill="#FF8D4D"/>
</g>
<g filter="url(#filter7_f_3886_62597)">
<ellipse cx="974.47" cy="267.508" rx="217.788" ry="169.31" transform="rotate(64.2136 974.47 267.508)" fill="#FF8D4D"/>
</g>
<g filter="url(#filter8_f_3886_62597)">
<ellipse cx="1038.97" cy="236.347" rx="217.788" ry="168.586" transform="rotate(64.2136 1038.97 236.347)" fill="#FF8D4D"/>
</g>
<g filter="url(#filter9_f_3886_62597)">
<ellipse cx="1126.27" cy="194.17" rx="183.057" ry="168.586" transform="rotate(64.2136 1126.27 194.17)" fill="#FF8D4D"/>
</g>
</g>
</g>
<g opacity="0.4">
<mask id="mask2_3886_62597" style="mask-type:alpha" maskUnits="userSpaceOnUse" x="596" y="179" width="918" height="326">
<rect x="1513.91" y="263.924" width="241.509" height="899.037" transform="rotate(95.4175 1513.91 263.924)" fill="url(#paint2_linear_3886_62597)"/>
</mask>
<g mask="url(#mask2_3886_62597)">
<path d="M919.309 417.425C774.293 403.673 660.5 352.817 665.145 303.836C669.791 254.855 791.115 226.297 936.131 240.049C1081.15 253.802 999.535 286.126 994.89 335.107C990.245 384.089 1064.33 431.178 919.309 417.425Z" fill="#FF7F57"/>
<g filter="url(#filter10_f_3886_62597)">
<path d="M914.073 416.927C801.818 406.281 714.584 357.944 719.229 308.963C723.874 259.982 818.64 228.905 930.895 239.551C1043.15 250.197 1130.38 298.534 1125.74 347.515C1121.09 396.496 1026.33 427.573 914.073 416.927Z" fill="#FF7F57"/>
</g>
<g filter="url(#filter11_f_3886_62597)">
<ellipse cx="932.95" cy="329.232" rx="89.086" ry="204.167" transform="rotate(95.4175 932.95 329.232)" fill="#FF7F57"/>
</g>
<g filter="url(#filter12_f_3886_62597)">
<ellipse cx="961.741" cy="331.963" rx="89.086" ry="205.044" transform="rotate(95.4175 961.741 331.963)" fill="#FF7F57"/>
</g>
<g filter="url(#filter13_f_3886_62597)">
<ellipse cx="1048.1" cy="340.152" rx="89.086" ry="204.167" transform="rotate(95.4175 1048.1 340.152)" fill="#FF7F57"/>
</g>
<g filter="url(#filter14_f_3886_62597)">
<ellipse cx="1165" cy="351.238" rx="74.8796" ry="204.167" transform="rotate(95.4175 1165 351.238)" fill="#FF7F57"/>
</g>
</g>
<mask id="mask3_3886_62597" style="mask-type:alpha" maskUnits="userSpaceOnUse" x="429" y="231" width="1060" height="370">
<rect width="624.801" height="531.927" transform="matrix(-0.994335 0.106288 -0.822244 -0.569136 1488.3 534.006)" fill="url(#paint3_linear_3886_62597)"/>
</mask>
<g mask="url(#mask3_3886_62597)">
<path d="M669.621 396.968C598.718 347.921 643.858 297.204 770.444 283.69C897.03 270.175 1057.13 298.98 1128.03 348.027C1198.93 397.075 1058.25 381.701 931.666 395.216C805.081 408.73 740.524 446.015 669.621 396.968Z" fill="#FF9F46"/>
<g filter="url(#filter15_f_3886_62597)">
<path d="M667.062 395.197C612.178 357.23 670.303 315.496 796.889 301.982C923.475 288.467 1070.59 308.29 1125.47 346.256C1180.36 384.223 1122.23 425.957 995.644 439.472C869.058 452.986 721.947 433.164 667.062 395.197Z" fill="#FF9F46"/>
</g>
<g filter="url(#filter16_f_3886_62597)">
<ellipse cx="230.472" cy="120.798" rx="230.472" ry="120.798" transform="matrix(-0.994499 0.106175 -0.822675 -0.569089 1229.97 418.542)" fill="#FF9F46"/>
</g>
<g filter="url(#filter17_f_3886_62597)">
<ellipse cx="230.472" cy="121.317" rx="230.472" ry="121.317" transform="matrix(-0.994499 0.106175 -0.822675 -0.569089 1244.47 428.573)" fill="#FF9F46"/>
</g>
<g filter="url(#filter18_f_3886_62597)">
<ellipse cx="230.472" cy="120.798" rx="230.472" ry="120.798" transform="matrix(-0.994499 0.106175 -0.822675 -0.569089 1286.27 457.487)" fill="#FF9F46"/>
</g>
<g filter="url(#filter19_f_3886_62597)">
<ellipse cx="193.719" cy="120.798" rx="193.719" ry="120.798" transform="matrix(-0.994499 0.106175 -0.822675 -0.569089 1306.87 500.925)" fill="#FF9F46"/>
</g>
</g>
</g>
<g opacity="0.4">
<mask id="mask4_3886_62597" style="mask-type:alpha" maskUnits="userSpaceOnUse" x="238" y="-381" width="890" height="975">
<rect x="238.579" y="-132.176" width="628.325" height="790.026" transform="rotate(-23.2549 238.579 -132.176)" fill="url(#paint4_linear_3886_62597)"/>
</mask>
<g mask="url(#mask4_3886_62597)">
<path d="M938.386 119.399C988.925 237.004 934.557 373.311 816.953 423.85C699.348 474.389 563.041 420.021 512.502 302.417C461.963 184.812 584.43 206.973 702.035 156.434C819.639 105.896 887.847 1.7946 938.386 119.399Z" fill="#FF842C"/>
<g filter="url(#filter20_f_3886_62597)">
<path d="M940.214 123.641C979.335 214.677 915.712 329.446 798.108 379.985C680.503 430.524 553.451 397.695 514.33 306.658C475.208 215.622 538.831 100.853 656.436 50.3142C774.041 -0.224738 901.092 32.6047 940.214 123.641Z" fill="#FF842C"/>
</g>
<g filter="url(#filter21_f_3886_62597)">
<ellipse cx="723.621" cy="206.662" rx="231.772" ry="179.411" transform="rotate(-23.2549 723.621 206.662)" fill="#FF842C"/>
</g>
<g filter="url(#filter22_f_3886_62597)">
<ellipse cx="713.59" cy="183.317" rx="231.772" ry="180.181" transform="rotate(-23.2549 713.59 183.317)" fill="#FF842C"/>
</g>
<g filter="url(#filter23_f_3886_62597)">
<ellipse cx="683.493" cy="113.278" rx="231.772" ry="179.411" transform="rotate(-23.2549 683.493 113.278)" fill="#FF842C"/>
</g>
<g filter="url(#filter24_f_3886_62597)">
<ellipse cx="642.753" cy="18.4806" rx="194.811" ry="179.411" transform="rotate(0.143965 642.753 18.4806)" fill="#FF842C"/>
</g>
</g>
<mask id="mask5_3886_62597" style="mask-type:alpha" maskUnits="userSpaceOnUse" x="300" y="14" width="539" height="454">
<rect x="300.281" y="400.375" width="389.149" height="489.298" transform="rotate(-82.1664 300.281 400.375)" fill="url(#paint5_linear_3886_62597)"/>
</mask>
<g mask="url(#mask5_3886_62597)">
<path d="M657.514 109.663C736.052 120.468 790.961 192.896 780.155 271.434C769.35 349.973 696.922 404.882 618.384 394.076C539.845 383.271 590.765 325.403 601.57 246.865C612.376 168.326 578.975 98.8574 657.514 109.663Z" fill="#FF7F09"/>
<g filter="url(#filter25_f_3886_62597)">
<path d="M660.35 110.053C721.145 118.418 761.67 188.866 750.865 267.405C740.06 345.944 682.016 402.831 621.22 394.467C560.424 386.103 519.899 315.654 530.704 237.115C541.51 158.577 599.554 101.689 660.35 110.053Z" fill="#FF7F09"/>
</g>
<g filter="url(#filter26_f_3886_62597)">
<ellipse cx="635.115" cy="251.48" rx="143.546" ry="111.117" transform="rotate(-82.1664 635.115 251.48)" fill="#FF7F09"/>
</g>
<g filter="url(#filter27_f_3886_62597)">
<ellipse cx="619.521" cy="249.335" rx="143.546" ry="111.594" transform="rotate(-82.1664 619.521 249.335)" fill="#FF7F09"/>
</g>
<g filter="url(#filter28_f_3886_62597)">
<ellipse cx="572.751" cy="242.9" rx="143.546" ry="111.117" transform="rotate(-82.1664 572.751 242.9)" fill="#FF7F09"/>
</g>
<g filter="url(#filter29_f_3886_62597)">
<ellipse cx="509.442" cy="234.191" rx="120.655" ry="111.117" transform="rotate(-82.1664 509.442 234.191)" fill="#FF7F09"/>
</g>
</g>
</g>
<g opacity="0.4">
<mask id="mask6_3886_62597" style="mask-type:alpha" maskUnits="userSpaceOnUse" x="448" y="30" width="713" height="709">
<rect x="755.618" y="738.182" width="444.737" height="559.191" transform="rotate(-133.6 755.618 738.182)" fill="url(#paint6_linear_3886_62597)"/>
</mask>
<g mask="url(#mask6_3886_62597)">
<path d="M750.366 211.841C815.978 149.36 919.819 151.898 982.3 217.51C1044.78 283.123 1042.24 386.963 976.631 449.444C911.019 511.926 895.589 425.196 833.107 359.584C770.626 293.971 684.754 274.322 750.366 211.841Z" fill="#FF9900"/>
<g filter="url(#filter30_f_3886_62597)">
<path d="M752.732 209.584C803.521 161.218 895.346 175.199 957.827 240.812C1020.31 306.424 1029.79 398.822 978.997 447.188C928.207 495.554 836.383 481.573 773.901 415.96C711.42 350.348 701.942 257.95 752.732 209.584Z" fill="#FF9900"/>
</g>
<g filter="url(#filter31_f_3886_62597)">
<ellipse cx="861.13" cy="332.897" rx="164.051" ry="126.99" transform="rotate(-133.6 861.13 332.897)" fill="#FF9900"/>
</g>
<g filter="url(#filter32_f_3886_62597)">
<ellipse cx="848.105" cy="345.298" rx="164.051" ry="127.535" transform="rotate(-133.6 848.105 345.298)" fill="#FF9900"/>
</g>
<g filter="url(#filter33_f_3886_62597)">
<ellipse cx="809.03" cy="382.509" rx="164.051" ry="126.99" transform="rotate(-133.6 809.03 382.509)" fill="#FF9900"/>
</g>
<g filter="url(#filter34_f_3886_62597)">
<ellipse cx="756.142" cy="432.875" rx="137.89" ry="126.99" transform="rotate(-133.6 756.142 432.875)" fill="#FF9900"/>
</g>
</g>
<mask id="mask7_3886_62597" style="mask-type:alpha" maskUnits="userSpaceOnUse" x="749" y="228" width="345" height="398">
<rect x="1093.87" y="566.18" width="275.445" height="346.332" transform="rotate(167.489 1093.87 566.18)" fill="url(#paint7_linear_3886_62597)"/>
</mask>
<g mask="url(#mask7_3886_62597)">
<path d="M813.023 400.64C800.867 345.858 835.422 291.594 890.204 279.438C944.986 267.282 999.25 301.837 1011.41 356.619C1023.56 411.4 972.627 391.848 917.845 404.004C863.063 416.16 825.179 455.422 813.023 400.64Z" fill="#FF9C09"/>
<g filter="url(#filter35_f_3886_62597)">
<path d="M812.584 398.662C803.175 356.256 839.956 312.025 894.738 299.868C949.52 287.712 1001.56 312.235 1010.97 354.64C1020.38 397.046 983.596 441.278 928.814 453.434C874.032 465.59 821.994 441.068 812.584 398.662Z" fill="#FF9C09"/>
</g>
<g filter="url(#filter36_f_3886_62597)">
<ellipse cx="912.653" cy="380.606" rx="101.604" ry="78.6504" transform="rotate(167.489 912.653 380.606)" fill="#FF9C09"/>
</g>
<g filter="url(#filter37_f_3886_62597)">
<ellipse cx="915.069" cy="391.482" rx="101.604" ry="78.9879" transform="rotate(167.489 915.069 391.482)" fill="#FF9C09"/>
</g>
<g filter="url(#filter38_f_3886_62597)">
<ellipse cx="922.307" cy="424.105" rx="101.604" ry="78.6504" transform="rotate(167.489 922.307 424.105)" fill="#FF9C09"/>
</g>
<g filter="url(#filter39_f_3886_62597)">
<ellipse cx="932.104" cy="468.263" rx="85.4015" ry="78.6504" transform="rotate(167.489 932.104 468.263)" fill="#FF9C09"/>
</g>
</g>
</g>
</g>
<defs>
<filter id="filter0_f_3886_62597" x="614.318" y="78.2011" width="447.066" height="350.386" filterUnits="userSpaceOnUse" color-interpolation-filters="sRGB">
<feFlood flood-opacity="0" result="BackgroundImageFix"/>
<feBlend mode="normal" in="SourceGraphic" in2="BackgroundImageFix" result="shape"/>
<feGaussianBlur stdDeviation="3.0545" result="effect1_foregroundBlur_3886_62597"/>
</filter>
<filter id="filter1_f_3886_62597" x="599.846" y="54.285" width="477.611" height="380.931" filterUnits="userSpaceOnUse" color-interpolation-filters="sRGB">
<feFlood flood-opacity="0" result="BackgroundImageFix"/>
<feBlend mode="normal" in="SourceGraphic" in2="BackgroundImageFix" result="shape"/>
<feGaussianBlur stdDeviation="10.6908" result="effect1_foregroundBlur_3886_62597"/>
</filter>
<filter id="filter2_f_3886_62597" x="571.503" y="-0.752934" width="538.711" height="443.452" filterUnits="userSpaceOnUse" color-interpolation-filters="sRGB">
<feFlood flood-opacity="0" result="BackgroundImageFix"/>
<feBlend mode="normal" in="SourceGraphic" in2="BackgroundImageFix" result="shape"/>
<feGaussianBlur stdDeviation="25.9633" result="effect1_foregroundBlur_3886_62597"/>
</filter>
<filter id="filter3_f_3886_62597" x="517.037" y="-132.45" width="660.881" height="564.201" filterUnits="userSpaceOnUse" color-interpolation-filters="sRGB">
<feFlood flood-opacity="0" result="BackgroundImageFix"/>
<feBlend mode="normal" in="SourceGraphic" in2="BackgroundImageFix" result="shape"/>
<feGaussianBlur stdDeviation="56.5083" result="effect1_foregroundBlur_3886_62597"/>
</filter>
<filter id="filter4_f_3886_62597" x="474.946" y="-314.161" width="762.984" height="734.541" filterUnits="userSpaceOnUse" color-interpolation-filters="sRGB">
<feFlood flood-opacity="0" result="BackgroundImageFix"/>
<feBlend mode="normal" in="SourceGraphic" in2="BackgroundImageFix" result="shape"/>
<feGaussianBlur stdDeviation="99.2713" result="effect1_foregroundBlur_3886_62597"/>
</filter>
<filter id="filter5_f_3886_62597" x="760.082" y="66.1415" width="370.142" height="431.063" filterUnits="userSpaceOnUse" color-interpolation-filters="sRGB">
<feFlood flood-opacity="0" result="BackgroundImageFix"/>
<feBlend mode="normal" in="SourceGraphic" in2="BackgroundImageFix" result="shape"/>
<feGaussianBlur stdDeviation="3.0545" result="effect1_foregroundBlur_3886_62597"/>
</filter>
<filter id="filter6_f_3886_62597" x="752.63" y="47.0904" width="400.687" height="461.608" filterUnits="userSpaceOnUse" color-interpolation-filters="sRGB">
<feFlood flood-opacity="0" result="BackgroundImageFix"/>
<feBlend mode="normal" in="SourceGraphic" in2="BackgroundImageFix" result="shape"/>
<feGaussianBlur stdDeviation="10.6908" result="effect1_foregroundBlur_3886_62597"/>
</filter>
<filter id="filter7_f_3886_62597" x="743.028" y="6.04882" width="462.884" height="522.919" filterUnits="userSpaceOnUse" color-interpolation-filters="sRGB">
<feFlood flood-opacity="0" result="BackgroundImageFix"/>
<feBlend mode="normal" in="SourceGraphic" in2="BackgroundImageFix" result="shape"/>
<feGaussianBlur stdDeviation="25.9633" result="effect1_foregroundBlur_3886_62597"/>
</filter>
<filter id="filter8_f_3886_62597" x="746.99" y="-86.0917" width="583.958" height="644.878" filterUnits="userSpaceOnUse" color-interpolation-filters="sRGB">
<feFlood flood-opacity="0" result="BackgroundImageFix"/>
<feBlend mode="normal" in="SourceGraphic" in2="BackgroundImageFix" result="shape"/>
<feGaussianBlur stdDeviation="56.5083" result="effect1_foregroundBlur_3886_62597"/>
</filter>
<filter id="filter9_f_3886_62597" x="756.274" y="-184.826" width="739.992" height="757.991" filterUnits="userSpaceOnUse" color-interpolation-filters="sRGB">
<feFlood flood-opacity="0" result="BackgroundImageFix"/>
<feBlend mode="normal" in="SourceGraphic" in2="BackgroundImageFix" result="shape"/>
<feGaussianBlur stdDeviation="99.2713" result="effect1_foregroundBlur_3886_62597"/>
</filter>
<filter id="filter10_f_3886_62597" x="714.774" y="233.183" width="415.421" height="190.111" filterUnits="userSpaceOnUse" color-interpolation-filters="sRGB">
<feFlood flood-opacity="0" result="BackgroundImageFix"/>
<feBlend mode="normal" in="SourceGraphic" in2="BackgroundImageFix" result="shape"/>
<feGaussianBlur stdDeviation="2.13896" result="effect1_foregroundBlur_3886_62597"/>
</filter>
<filter id="filter11_f_3886_62597" x="714.545" y="223.481" width="436.811" height="211.501" filterUnits="userSpaceOnUse" color-interpolation-filters="sRGB">
<feFlood flood-opacity="0" result="BackgroundImageFix"/>
<feBlend mode="normal" in="SourceGraphic" in2="BackgroundImageFix" result="shape"/>
<feGaussianBlur stdDeviation="7.48635" result="effect1_foregroundBlur_3886_62597"/>
</filter>
<filter id="filter12_f_3886_62597" x="721.075" y="204.805" width="481.333" height="254.315" filterUnits="userSpaceOnUse" color-interpolation-filters="sRGB">
<feFlood flood-opacity="0" result="BackgroundImageFix"/>
<feBlend mode="normal" in="SourceGraphic" in2="BackgroundImageFix" result="shape"/>
<feGaussianBlur stdDeviation="18.1811" result="effect1_foregroundBlur_3886_62597"/>
</filter>
<filter id="filter13_f_3886_62597" x="765.527" y="170.233" width="565.148" height="339.838" filterUnits="userSpaceOnUse" color-interpolation-filters="sRGB">
<feFlood flood-opacity="0" result="BackgroundImageFix"/>
<feBlend mode="normal" in="SourceGraphic" in2="BackgroundImageFix" result="shape"/>
<feGaussianBlur stdDeviation="39.5707" result="effect1_foregroundBlur_3886_62597"/>
</filter>
<filter id="filter14_f_3886_62597" x="822.582" y="135.19" width="684.826" height="432.096" filterUnits="userSpaceOnUse" color-interpolation-filters="sRGB">
<feFlood flood-opacity="0" result="BackgroundImageFix"/>
<feBlend mode="normal" in="SourceGraphic" in2="BackgroundImageFix" result="shape"/>
<feGaussianBlur stdDeviation="69.5161" result="effect1_foregroundBlur_3886_62597"/>
</filter>
<filter id="filter15_f_3886_62597" x="642.104" y="293.458" width="508.325" height="154.537" filterUnits="userSpaceOnUse" color-interpolation-filters="sRGB">
<feFlood flood-opacity="0" result="BackgroundImageFix"/>
<feBlend mode="normal" in="SourceGraphic" in2="BackgroundImageFix" result="shape"/>
<feGaussianBlur stdDeviation="2.13896" result="effect1_foregroundBlur_3886_62597"/>
</filter>
<filter id="filter16_f_3886_62597" x="636.528" y="286.304" width="529.714" height="175.926" filterUnits="userSpaceOnUse" color-interpolation-filters="sRGB">
<feFlood flood-opacity="0" result="BackgroundImageFix"/>
<feBlend mode="normal" in="SourceGraphic" in2="BackgroundImageFix" result="shape"/>
<feGaussianBlur stdDeviation="7.48635" result="effect1_foregroundBlur_3886_62597"/>
</filter>
<filter id="filter17_f_3886_62597" x="629.042" y="274.373" width="572.833" height="219.261" filterUnits="userSpaceOnUse" color-interpolation-filters="sRGB">
<feFlood flood-opacity="0" result="BackgroundImageFix"/>
<feBlend mode="normal" in="SourceGraphic" in2="BackgroundImageFix" result="shape"/>
<feGaussianBlur stdDeviation="18.1811" result="effect1_foregroundBlur_3886_62597"/>
</filter>
<filter id="filter18_f_3886_62597" x="628.658" y="261.081" width="658.052" height="304.264" filterUnits="userSpaceOnUse" color-interpolation-filters="sRGB">
<feFlood flood-opacity="0" result="BackgroundImageFix"/>
<feBlend mode="normal" in="SourceGraphic" in2="BackgroundImageFix" result="shape"/>
<feGaussianBlur stdDeviation="39.5707" result="effect1_foregroundBlur_3886_62597"/>
</filter>
<filter id="filter19_f_3886_62597" x="658.984" y="241.941" width="711.704" height="421.614" filterUnits="userSpaceOnUse" color-interpolation-filters="sRGB">
<feFlood flood-opacity="0" result="BackgroundImageFix"/>
<feBlend mode="normal" in="SourceGraphic" in2="BackgroundImageFix" result="shape"/>
<feGaussianBlur stdDeviation="69.5161" result="effect1_foregroundBlur_3886_62597"/>
</filter>
<filter id="filter20_f_3886_62597" x="495.719" y="19.5056" width="463.105" height="391.288" filterUnits="userSpaceOnUse" color-interpolation-filters="sRGB">
<feFlood flood-opacity="0" result="BackgroundImageFix"/>
<feBlend mode="normal" in="SourceGraphic" in2="BackgroundImageFix" result="shape"/>
<feGaussianBlur stdDeviation="3.53844" result="effect1_foregroundBlur_3886_62597"/>
</filter>
<filter id="filter21_f_3886_62597" x="474.377" y="-6.6746" width="498.489" height="426.672" filterUnits="userSpaceOnUse" color-interpolation-filters="sRGB">
<feFlood flood-opacity="0" result="BackgroundImageFix"/>
<feBlend mode="normal" in="SourceGraphic" in2="BackgroundImageFix" result="shape"/>
<feGaussianBlur stdDeviation="12.3845" result="effect1_foregroundBlur_3886_62597"/>
</filter>
<filter id="filter22_f_3886_62597" x="428.865" y="-66.0231" width="569.451" height="498.68" filterUnits="userSpaceOnUse" color-interpolation-filters="sRGB">
<feFlood flood-opacity="0" result="BackgroundImageFix"/>
<feBlend mode="normal" in="SourceGraphic" in2="BackgroundImageFix" result="shape"/>
<feGaussianBlur stdDeviation="30.0767" result="effect1_foregroundBlur_3886_62597"/>
</filter>
<filter id="filter23_f_3886_62597" x="328.096" y="-206.211" width="710.796" height="638.979" filterUnits="userSpaceOnUse" color-interpolation-filters="sRGB">
<feFlood flood-opacity="0" result="BackgroundImageFix"/>
<feBlend mode="normal" in="SourceGraphic" in2="BackgroundImageFix" result="shape"/>
<feGaussianBlur stdDeviation="65.4612" result="effect1_foregroundBlur_3886_62597"/>
</filter>
<filter id="filter24_f_3886_62597" x="217.943" y="-390.93" width="849.62" height="818.82" filterUnits="userSpaceOnUse" color-interpolation-filters="sRGB">
<feFlood flood-opacity="0" result="BackgroundImageFix"/>
<feBlend mode="normal" in="SourceGraphic" in2="BackgroundImageFix" result="shape"/>
<feGaussianBlur stdDeviation="114.999" result="effect1_foregroundBlur_3886_62597"/>
</filter>
<filter id="filter25_f_3886_62597" x="521.883" y="102.16" width="237.803" height="300.199" filterUnits="userSpaceOnUse" color-interpolation-filters="sRGB">
<feFlood flood-opacity="0" result="BackgroundImageFix"/>
<feBlend mode="normal" in="SourceGraphic" in2="BackgroundImageFix" result="shape"/>
<feGaussianBlur stdDeviation="3.53844" result="effect1_foregroundBlur_3886_62597"/>
</filter>
<filter id="filter26_f_3886_62597" x="498.521" y="83.6877" width="273.187" height="335.584" filterUnits="userSpaceOnUse" color-interpolation-filters="sRGB">
<feFlood flood-opacity="0" result="BackgroundImageFix"/>
<feBlend mode="normal" in="SourceGraphic" in2="BackgroundImageFix" result="shape"/>
<feGaussianBlur stdDeviation="12.3845" result="effect1_foregroundBlur_3886_62597"/>
</filter>
<filter id="filter27_f_3886_62597" x="447.078" y="46.1517" width="344.886" height="406.367" filterUnits="userSpaceOnUse" color-interpolation-filters="sRGB">
<feFlood flood-opacity="0" result="BackgroundImageFix"/>
<feBlend mode="normal" in="SourceGraphic" in2="BackgroundImageFix" result="shape"/>
<feGaussianBlur stdDeviation="30.0767" result="effect1_foregroundBlur_3886_62597"/>
</filter>
<filter id="filter28_f_3886_62597" x="330.004" y="-31.0451" width="485.493" height="547.89" filterUnits="userSpaceOnUse" color-interpolation-filters="sRGB">
<feFlood flood-opacity="0" result="BackgroundImageFix"/>
<feBlend mode="normal" in="SourceGraphic" in2="BackgroundImageFix" result="shape"/>
<feGaussianBlur stdDeviation="65.4612" result="effect1_foregroundBlur_3886_62597"/>
</filter>
<filter id="filter29_f_3886_62597" x="168.127" y="-116.306" width="682.631" height="700.993" filterUnits="userSpaceOnUse" color-interpolation-filters="sRGB">
<feFlood flood-opacity="0" result="BackgroundImageFix"/>
<feBlend mode="normal" in="SourceGraphic" in2="BackgroundImageFix" result="shape"/>
<feGaussianBlur stdDeviation="114.999" result="effect1_foregroundBlur_3886_62597"/>
</filter>
<filter id="filter30_f_3886_62597" x="712.988" y="173.709" width="305.753" height="309.355" filterUnits="userSpaceOnUse" color-interpolation-filters="sRGB">
<feFlood flood-opacity="0" result="BackgroundImageFix"/>
<feBlend mode="normal" in="SourceGraphic" in2="BackgroundImageFix" result="shape"/>
<feGaussianBlur stdDeviation="3.53844" result="effect1_foregroundBlur_3886_62597"/>
</filter>
<filter id="filter31_f_3886_62597" x="690.561" y="160.527" width="341.137" height="344.739" filterUnits="userSpaceOnUse" color-interpolation-filters="sRGB">
<feFlood flood-opacity="0" result="BackgroundImageFix"/>
<feBlend mode="normal" in="SourceGraphic" in2="BackgroundImageFix" result="shape"/>
<feGaussianBlur stdDeviation="12.3845" result="effect1_foregroundBlur_3886_62597"/>
</filter>
<filter id="filter32_f_3886_62597" x="641.903" y="137.321" width="412.404" height="415.954" filterUnits="userSpaceOnUse" color-interpolation-filters="sRGB">
<feFlood flood-opacity="0" result="BackgroundImageFix"/>
<feBlend mode="normal" in="SourceGraphic" in2="BackgroundImageFix" result="shape"/>
<feGaussianBlur stdDeviation="30.0767" result="effect1_foregroundBlur_3886_62597"/>
</filter>
<filter id="filter33_f_3886_62597" x="532.308" y="103.986" width="553.443" height="557.046" filterUnits="userSpaceOnUse" color-interpolation-filters="sRGB">
<feFlood flood-opacity="0" result="BackgroundImageFix"/>
<feBlend mode="normal" in="SourceGraphic" in2="BackgroundImageFix" result="shape"/>
<feGaussianBlur stdDeviation="65.4612" result="effect1_foregroundBlur_3886_62597"/>
</filter>
<filter id="filter34_f_3886_62597" x="393.858" y="70.0568" width="724.569" height="725.636" filterUnits="userSpaceOnUse" color-interpolation-filters="sRGB">
<feFlood flood-opacity="0" result="BackgroundImageFix"/>
<feBlend mode="normal" in="SourceGraphic" in2="BackgroundImageFix" result="shape"/>
<feGaussianBlur stdDeviation="114.999" result="effect1_foregroundBlur_3886_62597"/>
</filter>
<filter id="filter35_f_3886_62597" x="804.039" y="289.678" width="215.474" height="173.945" filterUnits="userSpaceOnUse" color-interpolation-filters="sRGB">
<feFlood flood-opacity="0" result="BackgroundImageFix"/>
<feBlend mode="normal" in="SourceGraphic" in2="BackgroundImageFix" result="shape"/>
<feGaussianBlur stdDeviation="3.53844" result="effect1_foregroundBlur_3886_62597"/>
</filter>
<filter id="filter36_f_3886_62597" x="787.224" y="275.942" width="250.859" height="209.33" filterUnits="userSpaceOnUse" color-interpolation-filters="sRGB">
<feFlood flood-opacity="0" result="BackgroundImageFix"/>
<feBlend mode="normal" in="SourceGraphic" in2="BackgroundImageFix" result="shape"/>
<feGaussianBlur stdDeviation="12.3845" result="effect1_foregroundBlur_3886_62597"/>
</filter>
<filter id="filter37_f_3886_62597" x="754.243" y="251.116" width="321.653" height="280.732" filterUnits="userSpaceOnUse" color-interpolation-filters="sRGB">
<feFlood flood-opacity="0" result="BackgroundImageFix"/>
<feBlend mode="normal" in="SourceGraphic" in2="BackgroundImageFix" result="shape"/>
<feGaussianBlur stdDeviation="30.0767" result="effect1_foregroundBlur_3886_62597"/>
</filter>
<filter id="filter38_f_3886_62597" x="690.724" y="213.287" width="463.165" height="421.636" filterUnits="userSpaceOnUse" color-interpolation-filters="sRGB">
<feFlood flood-opacity="0" result="BackgroundImageFix"/>
<feBlend mode="normal" in="SourceGraphic" in2="BackgroundImageFix" result="shape"/>
<feGaussianBlur stdDeviation="65.4612" result="effect1_foregroundBlur_3886_62597"/>
</filter>
<filter id="filter39_f_3886_62597" x="616.992" y="159.266" width="630.224" height="617.994" filterUnits="userSpaceOnUse" color-interpolation-filters="sRGB">
<feFlood flood-opacity="0" result="BackgroundImageFix"/>
<feBlend mode="normal" in="SourceGraphic" in2="BackgroundImageFix" result="shape"/>
<feGaussianBlur stdDeviation="114.999" result="effect1_foregroundBlur_3886_62597"/>
</filter>
<linearGradient id="paint0_linear_3886_62597" x1="1023.94" y1="338.35" x2="1023.94" y2="-252.788" gradientUnits="userSpaceOnUse">
<stop stop-color="white"/>
<stop offset="1" stop-color="white" stop-opacity="0"/>
</linearGradient>
<linearGradient id="paint1_linear_3886_62597" x1="1684.33" y1="399.639" x2="1684.33" y2="-191.499" gradientUnits="userSpaceOnUse">
<stop stop-color="white"/>
<stop offset="1" stop-color="white" stop-opacity="0"/>
</linearGradient>
<linearGradient id="paint2_linear_3886_62597" x1="1691.2" y1="979.824" x2="1691.2" y2="263.924" gradientUnits="userSpaceOnUse">
<stop stop-color="white"/>
<stop offset="1" stop-color="white" stop-opacity="0"/>
</linearGradient>
<linearGradient id="paint3_linear_3886_62597" x1="458.647" y1="423.572" x2="458.647" y2="3.29532e-06" gradientUnits="userSpaceOnUse">
<stop stop-color="white"/>
<stop offset="1" stop-color="white" stop-opacity="0"/>
</linearGradient>
<linearGradient id="paint4_linear_3886_62597" x1="699.812" y1="496.919" x2="699.812" y2="-132.176" gradientUnits="userSpaceOnUse">
<stop stop-color="white"/>
<stop offset="1" stop-color="white" stop-opacity="0"/>
</linearGradient>
<linearGradient id="paint5_linear_3886_62597" x1="585.943" y1="790.001" x2="585.943" y2="400.375" gradientUnits="userSpaceOnUse">
<stop stop-color="white"/>
<stop offset="1" stop-color="white" stop-opacity="0"/>
</linearGradient>
<linearGradient id="paint6_linear_3886_62597" x1="1082.09" y1="1183.46" x2="1082.09" y2="738.182" gradientUnits="userSpaceOnUse">
<stop stop-color="white"/>
<stop offset="1" stop-color="white" stop-opacity="0"/>
</linearGradient>
<linearGradient id="paint7_linear_3886_62597" x1="1296.06" y1="841.962" x2="1296.06" y2="566.18" gradientUnits="userSpaceOnUse">
<stop stop-color="white"/>
<stop offset="1" stop-color="white" stop-opacity="0"/>
</linearGradient>
</defs>
</svg>
