<svg width="63" height="32" viewBox="0 0 63 32" fill="none" xmlns="http://www.w3.org/2000/svg">
<path fill-rule="evenodd" clip-rule="evenodd" d="M29.3945 22.0217V15.7611H32.6257C33.9498 15.7611 35.0673 15.3174 35.9784 14.4424L36.197 14.2206C37.8612 12.4089 37.7519 9.58671 35.9784 7.91063C35.0916 7.0233 33.8769 6.54266 32.6257 6.56731H27.4387V22.0217H29.3945ZM29.3947 13.863V8.46509H32.6751C33.3797 8.46509 34.048 8.73622 34.5461 9.22918C35.6031 10.2644 35.6274 11.9898 34.6068 13.062C34.1087 13.5919 33.404 13.8877 32.6751 13.863H29.3947ZM45.3199 12.2732C44.4817 11.4968 43.3398 11.1025 41.8943 11.1025C40.0357 11.1025 38.6388 11.7926 37.7156 13.1606L39.4405 14.2574C40.0722 13.3208 40.9346 12.8525 42.0279 12.8525C42.7203 12.8525 43.3884 13.1113 43.9108 13.5796C44.4209 14.0233 44.7125 14.6641 44.7125 15.3419V15.7979C43.9593 15.3789 43.0118 15.1571 41.8457 15.1571C40.4852 15.1571 39.3919 15.4775 38.578 16.1307C37.7641 16.7839 37.3511 17.6465 37.3511 18.7434C37.3268 19.7416 37.752 20.6906 38.5051 21.3314C39.2704 22.0216 40.2422 22.3667 41.3841 22.3667C42.7325 22.3667 43.8014 21.7628 44.6153 20.555H44.7003V22.0216H46.5711V15.5022C46.5711 14.1342 46.158 13.0497 45.3199 12.2732ZM40.0118 20.0742C39.6109 19.7785 39.3679 19.2978 39.3679 18.7802C39.3679 18.201 39.6352 17.7203 40.1576 17.3383C40.6922 16.9563 41.3604 16.7591 42.1501 16.7591C43.2436 16.7467 44.094 16.9932 44.7015 17.4862C44.7015 18.3242 44.3735 19.0513 43.7296 19.6675C43.1464 20.2591 42.3567 20.5919 41.5305 20.5919C40.9838 20.6042 40.4492 20.4193 40.0118 20.0742ZM50.774 26.6677L57.3093 11.4475H55.1835L52.1588 19.0391H52.1224L49.0248 11.4475H46.899L51.187 21.3437L48.7575 26.6677H50.774Z" fill="#3C4043"/>
<path d="M22.6427 14.4048C22.6427 13.8009 22.5941 13.197 22.4969 12.6055H14.2488V16.0192H18.9741C18.7798 17.1161 18.1481 18.102 17.2249 18.7182V20.9365H20.0431C21.6952 19.396 22.6427 17.1161 22.6427 14.4048Z" fill="#4285F4"/>
<path d="M14.2491 23.0808C16.6057 23.0808 18.5978 22.2921 20.0434 20.9364L17.2252 18.7181C16.4356 19.2604 15.4274 19.5685 14.2491 19.5685C11.9653 19.5685 10.0339 18.0033 9.34148 15.9082H6.43823V18.2005C7.92022 21.1952 10.9449 23.0808 14.2491 23.0808Z" fill="#34A853"/>
<path d="M9.34176 15.908C8.97728 14.8111 8.97728 13.6157 9.34176 12.5065V10.2266H6.43805C5.18666 12.7284 5.18666 15.6861 6.43805 18.1879L9.34176 15.908Z" fill="#FBBC04"/>
<path d="M14.2491 8.84688C15.5002 8.82224 16.7028 9.30288 17.6018 10.1779L20.1041 7.63912C18.5128 6.13559 16.4235 5.30987 14.2491 5.33452C10.9449 5.33452 7.92022 7.23243 6.43823 10.2272L9.34148 12.5195C10.0339 10.412 11.9653 8.84688 14.2491 8.84688Z" fill="#EA4335"/>
<rect x="0.832926" y="0.666667" width="61.1433" height="30.6667" rx="4.66667" stroke="#EBEBF0" stroke-width="1.33333"/>
</svg>
