<svg width="81" height="22" viewBox="0 0 81 22" fill="none" xmlns="http://www.w3.org/2000/svg">
<g id="International">
<path id="Fill 1" fill-rule="evenodd" clip-rule="evenodd" d="M9.9162 0.333984H3.68637C3.26001 0.333984 2.89744 0.641672 2.83084 1.05986L0.311205 16.9278C0.261194 17.2411 0.505376 17.5232 0.825083 17.5232H3.79915C4.22551 17.5232 4.58809 17.2157 4.65468 16.7968L5.33415 12.5168C5.39973 12.0978 5.76307 11.7901 6.18866 11.7901H8.16074C12.2644 11.7901 14.6327 9.81755 15.2515 5.90886C15.5301 4.19858 15.2632 2.85505 14.4569 1.91399C13.5715 0.880675 12.0011 0.333984 9.9162 0.333984ZM10.6345 6.12955C10.2939 8.35002 8.5859 8.35002 6.93454 8.35002H5.9943L6.65387 4.20308C6.69317 3.95241 6.91158 3.7679 7.16673 3.7679H7.59769C8.72266 3.7679 9.78384 3.7679 10.3322 4.40482C10.6593 4.78474 10.7593 5.34943 10.6345 6.12955Z" fill="#28356A"/>
<path id="Fill 2" fill-rule="evenodd" clip-rule="evenodd" d="M28.6973 5.93895H25.714C25.4599 5.93895 25.2402 6.12346 25.2012 6.37412L25.069 7.2029L24.8606 6.90257C24.2148 5.97139 22.7744 5.66016 21.3371 5.66016C18.0403 5.66016 15.2247 8.14041 14.6764 11.6195C14.3914 13.3549 14.7965 15.0145 15.7878 16.1717C16.6969 17.2357 17.9977 17.6792 19.5452 17.6792C22.2016 17.6792 23.6743 15.9826 23.6743 15.9826L23.5414 16.8061C23.4914 17.1209 23.7356 17.4032 24.0535 17.4032H26.7405C27.1679 17.4032 27.5287 17.0955 27.5961 16.6766L29.2084 6.5343C29.2594 6.22205 29.016 5.93895 28.6973 5.93895ZM24.5389 11.7065C24.251 13.3993 22.8985 14.5358 21.1731 14.5358C20.3069 14.5358 19.6147 14.2598 19.1699 13.7369C18.729 13.2176 18.5616 12.4783 18.7017 11.6548C18.9706 9.97646 20.3459 8.80273 22.045 8.80273C22.8921 8.80273 23.5808 9.08254 24.0344 9.60972C24.4889 10.1427 24.6692 10.8866 24.5389 11.7065Z" fill="#28356A"/>
<path id="Fill 3" fill-rule="evenodd" clip-rule="evenodd" d="M44.3561 6.19141H41.358C41.072 6.19141 40.8033 6.33258 40.6413 6.56879L36.5066 12.6184L34.7539 6.80475C34.6437 6.44105 34.3059 6.19141 33.9231 6.19141H30.9774C30.6191 6.19141 30.3706 6.53889 30.4844 6.87369L33.7866 16.4992L30.6822 20.8524C30.438 21.1954 30.6839 21.6668 31.1057 21.6668H34.0999C34.3842 21.6668 34.6501 21.5291 34.8113 21.2977L44.7822 7.00118C45.021 6.65927 44.7758 6.19141 44.3561 6.19141Z" fill="#28356A"/>
<path id="Fill 4" fill-rule="evenodd" clip-rule="evenodd" d="M54.3503 0.333984H48.1197C47.6943 0.333984 47.3318 0.641672 47.2652 1.05986L44.7455 16.9278C44.6955 17.2411 44.9397 17.5232 45.2576 17.5232H48.455C48.7517 17.5232 49.0058 17.308 49.0523 17.0148L49.7675 12.5168C49.833 12.0978 50.1966 11.7901 50.622 11.7901H52.5933C56.6977 11.7901 59.0652 9.81755 59.6848 5.90886C59.9644 4.19858 59.6957 2.85505 58.8894 1.91399C58.0048 0.880675 56.4354 0.333984 54.3503 0.333984ZM55.0692 6.12955C54.7293 8.35002 53.0213 8.35002 51.3689 8.35002H50.43L51.0903 4.20308C51.1293 3.95241 51.3462 3.7679 51.6021 3.7679H52.0331C53.1571 3.7679 54.2193 3.7679 54.7676 4.40482C55.0947 4.78474 55.1939 5.34943 55.0692 6.12955Z" fill="#298FC2"/>
<path id="Fill 5" fill-rule="evenodd" clip-rule="evenodd" d="M73.1271 5.93895H70.1457C69.8897 5.93895 69.6721 6.12346 69.6338 6.37412L69.5016 7.2029L69.2922 6.90257C68.6464 5.97139 67.2071 5.66016 65.7695 5.66016C62.4729 5.66016 59.6583 8.14041 59.11 11.6195C58.8258 13.3549 59.2292 15.0145 60.2202 16.1717C61.1313 17.2357 62.4301 17.6792 63.9778 17.6792C66.634 17.6792 68.107 15.9826 68.107 15.9826L67.974 16.8061C67.924 17.1209 68.168 17.4032 68.4879 17.4032H71.1742C71.5995 17.4032 71.9621 17.0955 72.0287 16.6766L73.6418 6.5343C73.691 6.22205 73.4468 5.93895 73.1271 5.93895ZM68.9687 11.7065C68.6827 13.3993 67.3281 14.5358 65.6028 14.5358C64.7383 14.5358 64.0443 14.2598 63.5995 13.7369C63.1589 13.2176 62.993 12.4783 63.1313 11.6548C63.4021 9.97646 64.7755 8.80273 66.4746 8.80273C67.3217 8.80273 68.0104 9.08254 68.464 9.60972C68.9203 10.1427 69.1006 10.8866 68.9687 11.7065Z" fill="#298FC2"/>
<path id="Fill 6" fill-rule="evenodd" clip-rule="evenodd" d="M76.3957 0.770171L73.8388 16.9286C73.7888 17.2418 74.0327 17.5239 74.3506 17.5239H76.9213C77.3487 17.5239 77.711 17.2165 77.7766 16.7976L80.298 0.930351C80.3483 0.617087 80.1041 0.333984 79.7862 0.333984H76.9078C76.6537 0.334745 76.435 0.519509 76.3957 0.770171Z" fill="#298FC2"/>
</g>
</svg>
