<svg width="51" height="22" viewBox="0 0 51 22" fill="none" xmlns="http://www.w3.org/2000/svg">
<g id="International">
<path id="ApplePay" fill-rule="evenodd" clip-rule="evenodd" d="M10.0818 3.08439C9.49746 3.80497 8.56245 4.37332 7.62744 4.29213C7.51056 3.31781 7.96833 2.28261 8.50401 1.64322C9.08839 0.902333 10.1111 0.374581 10.9389 0.333984C11.0363 1.34889 10.6565 2.3435 10.0818 3.08439ZM10.9292 4.48477C10.1054 4.43537 9.35382 4.74291 8.74672 4.99132C8.35604 5.15117 8.02521 5.28654 7.77351 5.28654C7.49106 5.28654 7.14656 5.14394 6.75977 4.98382C6.25295 4.77401 5.67351 4.53415 5.06588 4.54566C3.67311 4.56596 2.37773 5.38803 1.66674 6.69727C0.205784 9.31573 1.28689 13.1927 2.69914 15.324C3.39066 16.3795 4.21853 17.5365 5.30937 17.4959C5.78928 17.477 6.13449 17.3244 6.49176 17.1664C6.90307 16.9845 7.33035 16.7956 7.99752 16.7956C8.64156 16.7956 9.05016 16.9796 9.44238 17.1562C9.81533 17.3242 10.1735 17.4855 10.7052 17.4756C11.835 17.4553 12.5459 16.4201 13.2375 15.3646C13.9837 14.2317 14.3117 13.1262 14.3614 12.9584L14.3673 12.9389C14.3661 12.9377 14.3569 12.9333 14.3406 12.9255C14.0911 12.8065 12.1844 11.8969 12.1661 9.45781C12.1477 7.41052 13.6785 6.37323 13.9194 6.20994C13.9341 6.20001 13.944 6.19331 13.9485 6.18981C12.9745 4.68775 11.4551 4.52536 10.9292 4.48477ZM18.7502 17.3641V1.54167H24.4479C27.3893 1.54167 29.4443 3.65267 29.4443 6.73799C29.4443 9.82331 27.3503 11.9546 24.37 11.9546H21.1072V17.3641H18.7502ZM21.1069 3.6123H23.8243C25.8696 3.6123 27.0384 4.749 27.0384 6.74837C27.0384 8.74774 25.8696 9.89458 23.8146 9.89458H21.1069V3.6123ZM37.2264 15.466C36.6031 16.7042 35.2298 17.4857 33.7494 17.4857C31.5579 17.4857 30.0288 16.1257 30.0288 14.0756C30.0288 12.0458 31.5092 10.8787 34.2461 10.7061L37.1875 10.5234V9.65061C37.1875 8.36168 36.3791 7.6614 34.9376 7.6614C33.7494 7.6614 32.8825 8.30079 32.7072 9.2751H30.584C30.6521 7.22499 32.5027 5.73307 35.0058 5.73307C37.7037 5.73307 39.4568 7.20469 39.4568 9.48823V17.3639H37.2751V15.466H37.2264ZM34.3824 15.6084C33.126 15.6084 32.3273 14.9792 32.3273 14.015C32.3273 13.0204 33.0967 12.4419 34.5674 12.3506L37.1874 12.1781V13.0712C37.1874 14.5529 35.9797 15.6084 34.3824 15.6084ZM46.6933 17.9831C45.7485 20.7538 44.6674 21.6672 42.3689 21.6672C42.1936 21.6672 41.6092 21.6469 41.4728 21.6063V19.7085C41.6189 19.7288 41.9793 19.7491 42.1643 19.7491C43.2065 19.7491 43.7909 19.2923 44.1512 18.1049L44.3655 17.4046L40.3722 5.88542H42.8364L45.6122 15.2327H45.6609L48.4367 5.88542H50.8327L46.6933 17.9831Z" fill="black"/>
</g>
</svg>
