<svg width="34" height="22" viewBox="0 0 34 22" fill="none" xmlns="http://www.w3.org/2000/svg">
<g id="International">
<path id="Vector" d="M7.30254 0.335938H15.5712C16.7255 0.335938 17.4434 1.30441 17.1741 2.49654L13.3244 19.5108C13.0528 20.6988 11.8971 21.6681 10.7421 21.6681H2.47417C1.32155 21.6681 0.602042 20.6988 0.871303 19.5108L4.72258 2.49654C4.99185 1.30441 6.14689 0.335938 7.30254 0.335938Z" fill="#E21836"/>
<path id="Vector_2" d="M14.8827 0.333984H24.3915C25.5455 0.333984 25.0251 1.30246 24.7537 2.49458L20.9046 19.5088C20.6345 20.6968 20.7188 21.6661 19.5623 21.6661H10.0535C8.89708 21.6661 8.18141 20.6968 8.45309 19.5088L12.3019 2.49458C12.5752 1.30246 13.7279 0.333984 14.8827 0.333984Z" fill="#00447C"/>
<path id="Vector_3" d="M24.0145 0.333984H32.2832C33.4391 0.333984 34.157 1.30246 33.8855 2.49458L30.0364 19.5088C29.7647 20.6968 28.6083 21.6661 27.4526 21.6661H19.1878C18.0313 21.6661 17.314 20.6968 17.5849 19.5088L21.4346 2.49458C21.7038 1.30246 22.8581 0.333984 24.0145 0.333984Z" fill="#007B84"/>
<path id="Vector_4" d="M9.46148 5.7859C8.61117 5.79482 8.36005 5.7859 8.27983 5.7664C8.249 5.91723 7.6752 8.64194 7.67359 8.64422C7.55005 9.19547 7.46016 9.58842 7.15482 9.84216C6.98149 9.98967 6.77915 10.0608 6.54455 10.0608C6.16746 10.0608 5.94778 9.86809 5.9109 9.50253L5.90384 9.37701C5.90384 9.37701 6.01872 8.63862 6.01872 8.63447C6.01872 8.63447 6.62093 6.15146 6.72876 5.82325C6.7344 5.80457 6.73602 5.79482 6.73743 5.7859C5.56525 5.79648 5.35746 5.7859 5.34315 5.7664C5.33529 5.79316 5.30627 5.94711 5.30627 5.94711L4.69136 8.74568L4.63856 8.98302L4.53638 9.75938C4.53638 9.98967 4.58031 10.1776 4.66778 10.3366C4.94793 10.8405 5.74704 10.916 6.1991 10.916C6.78156 10.916 7.32795 10.7886 7.69717 10.5561C8.33808 10.1662 8.50576 9.55689 8.65531 9.01539L8.72464 8.73758C8.72464 8.73758 9.34499 6.15873 9.45039 5.82325C9.45442 5.80457 9.45604 5.79482 9.46148 5.7859ZM11.5722 7.86629C11.4226 7.86629 11.1493 7.90364 10.9039 8.0275C10.8148 8.07459 10.7305 8.12895 10.6417 8.1831L10.7219 7.88496L10.6779 7.83475C10.1573 7.94326 10.0409 7.95779 9.55997 8.0275L9.51966 8.05509C9.46384 8.53165 9.41426 8.88995 9.20727 9.82668C9.12847 10.1719 9.04664 10.5205 8.96461 10.8649L8.98678 10.9086C9.47956 10.8819 9.6291 10.8819 10.0574 10.8891L10.092 10.8503C10.1465 10.5634 10.1535 10.4962 10.274 9.91506C10.3307 9.63954 10.4488 9.03414 10.507 8.81858C10.614 8.76754 10.7197 8.71733 10.8204 8.71733C11.0605 8.71733 11.0312 8.9329 11.022 9.01879C11.0117 9.16298 10.9242 9.63394 10.8345 10.0383L10.7747 10.2993C10.733 10.492 10.6872 10.6794 10.6455 10.8705L10.6636 10.9086C11.1493 10.8819 11.2975 10.8819 11.7122 10.8891L11.761 10.8503C11.836 10.4022 11.858 10.2823 11.991 9.62979L12.0579 9.33C12.1879 8.74327 12.2532 8.44576 12.1548 8.20343C12.0508 7.93185 11.8013 7.86629 11.5722 7.86629ZM13.9301 8.48059C13.6719 8.53163 13.5072 8.56565 13.3436 8.58764C13.1813 8.61441 13.0231 8.63868 12.7736 8.67437L12.7539 8.69283L12.7357 8.70756C12.7097 8.89885 12.6916 9.06421 12.6571 9.25861C12.6279 9.45964 12.583 9.68807 12.5098 10.0163C12.4532 10.2675 12.4239 10.3551 12.3917 10.4435C12.3602 10.5319 12.3256 10.6177 12.2619 10.8648L12.2768 10.8877L12.2893 10.9086C12.5225 10.8972 12.6751 10.8891 12.8319 10.8877C12.9885 10.8819 13.1507 10.8877 13.4018 10.8891L13.4238 10.8707L13.4474 10.8503C13.4836 10.6275 13.4891 10.5675 13.5113 10.4588C13.5332 10.3422 13.5711 10.1808 13.664 9.74969C13.708 9.5472 13.7569 9.34533 13.8025 9.13869C13.8499 8.93288 13.8994 8.73018 13.9466 8.52769L13.9395 8.5032L13.9301 8.48059ZM13.9356 7.65233C13.701 7.50979 13.2892 7.55502 13.0121 7.75191C12.7358 7.94486 12.7043 8.21872 12.9381 8.36312C13.1687 8.50171 13.5821 8.46042 13.8568 8.26187C14.1325 8.06478 14.1669 7.79341 13.9356 7.65233ZM15.3543 10.9533C15.829 10.9533 16.3155 10.8186 16.6817 10.419C16.9634 10.095 17.0926 9.61282 17.1374 9.41427C17.2831 8.75617 17.1696 8.44891 17.0271 8.26177C16.8107 7.9765 16.4281 7.885 16.0313 7.885C15.7927 7.885 15.2243 7.90928 14.7803 8.33065C14.4615 8.6346 14.3142 9.04705 14.2253 9.44249C14.1356 9.84539 14.0324 10.5707 14.6804 10.8406C14.8803 10.929 15.1685 10.9533 15.3543 10.9533ZM15.3172 9.47257C15.4267 8.97422 15.5559 8.55596 15.8856 8.55596C16.144 8.55596 16.1627 8.86717 16.0478 9.36717C16.0273 9.47817 15.933 9.89083 15.8054 10.0666C15.7163 10.1962 15.6109 10.2749 15.4944 10.2749C15.4597 10.2749 15.2536 10.2749 15.2503 9.95971C15.2487 9.80411 15.2796 9.64518 15.3172 9.47257ZM18.3239 10.8892L18.3609 10.8504C18.4135 10.5635 18.4222 10.496 18.5387 9.91512C18.597 9.6396 18.7175 9.0342 18.7741 8.81864C18.8813 8.7674 18.9851 8.71719 19.0891 8.71719C19.3275 8.71719 19.2985 8.93275 19.289 9.01864C19.2804 9.16304 19.1929 9.63379 19.1016 10.0382L19.045 10.2992C19.0016 10.4921 18.9545 10.6792 18.9128 10.8705L18.9309 10.9087C19.4182 10.8819 19.5607 10.8819 19.9779 10.8892L20.0283 10.8504C20.1015 10.4021 20.1212 10.2821 20.2583 9.62985L20.3236 9.32985C20.4542 8.74312 20.5203 8.44582 20.4235 8.20349C20.3165 7.93191 20.0654 7.86635 19.8395 7.86635C19.6897 7.86635 19.415 7.90349 19.1709 8.02756C19.0837 8.07465 18.9962 8.1288 18.9104 8.18316L18.9851 7.88503L18.945 7.83461C18.4246 7.94332 18.3057 7.95785 17.8254 8.02756L17.7886 8.05515C17.7303 8.53171 17.683 8.88981 17.476 9.82674C17.3972 10.172 17.3153 10.5205 17.2335 10.8649L17.2555 10.9087C17.7491 10.8819 17.8964 10.8819 18.3239 10.8892ZM21.9044 10.9086C21.935 10.7547 22.117 9.8422 22.1186 9.8422C22.1186 9.8422 22.2736 9.17269 22.2831 9.14842C22.2831 9.14842 22.3318 9.07871 22.3806 9.05111H22.4524C23.1293 9.05111 23.8938 9.05111 24.493 8.59738C24.9007 8.28617 25.1794 7.82662 25.3038 7.26811C25.336 7.13118 25.3598 6.96832 25.3598 6.80545C25.3598 6.59155 25.3181 6.37993 25.1976 6.21458C24.892 5.77453 24.2836 5.76644 23.5812 5.76312C23.579 5.76312 23.235 5.76644 23.235 5.76644C22.3359 5.77785 21.9753 5.77453 21.8272 5.75586C21.8147 5.82329 21.7911 5.94321 21.7911 5.94321C21.7911 5.94321 21.469 7.47973 21.469 7.48222C21.469 7.48222 20.6983 10.7491 20.6621 10.903C21.4471 10.8932 21.7689 10.8932 21.9044 10.9086ZM22.5011 8.17911C22.5011 8.17911 22.8436 6.6457 22.8419 6.65151L22.853 6.57288L22.8579 6.51292L22.9947 6.52744C22.9947 6.52744 23.7009 6.58989 23.7174 6.59155C23.9962 6.70255 24.1111 6.98865 24.0308 7.3621C23.9577 7.70338 23.7426 7.99032 23.4663 8.12891C23.2388 8.24634 22.9601 8.25609 22.6729 8.25609H22.487L22.5011 8.17911ZM24.6331 9.50097C24.5426 9.89807 24.4387 10.6234 25.0834 10.8819C25.289 10.9719 25.4732 10.9987 25.6604 10.9889C25.8581 10.978 26.0413 10.8759 26.211 10.729C26.1957 10.7894 26.1804 10.8497 26.1651 10.9103L26.1943 10.9491C26.658 10.929 26.8019 10.929 27.3044 10.9329L27.3499 10.8972C27.4233 10.4533 27.4924 10.0221 27.6831 9.17275C27.776 8.7659 27.8687 8.363 27.964 7.95781L27.9491 7.9132C27.4303 8.01216 27.2917 8.03333 26.7927 8.10615L26.7548 8.13789C26.7497 8.17918 26.7445 8.2188 26.7397 8.25843C26.6621 8.12938 26.5496 8.01922 26.3761 7.95054C26.1542 7.86071 25.633 7.97648 25.185 8.3964C24.8702 8.69619 24.719 9.10699 24.6331 9.50097ZM25.7227 9.52525C25.8337 9.03582 25.9613 8.62171 26.2918 8.62171C26.5008 8.62171 26.6109 8.82026 26.5885 9.15885C26.5708 9.24329 26.5516 9.3323 26.5288 9.43292C26.4958 9.57836 26.4599 9.72255 26.4251 9.86695C26.3896 9.96571 26.3483 10.0589 26.3029 10.1209C26.2179 10.245 26.0155 10.3219 25.899 10.3219C25.866 10.3219 25.662 10.3219 25.655 10.0124C25.6533 9.85824 25.6842 9.69952 25.7227 9.52525ZM31.4123 7.90924L31.3722 7.86214C30.8589 7.9692 30.766 7.98621 30.2944 8.05177L30.2597 8.08745C30.2581 8.09326 30.2567 8.10218 30.2543 8.11028L30.2527 8.10218C29.9016 8.93601 29.9118 8.75613 29.6261 9.41257C29.6244 9.38269 29.6244 9.36402 29.6228 9.33228L29.5513 7.90924L29.5063 7.86214C28.9686 7.9692 28.9559 7.98621 28.4593 8.05177L28.4206 8.08745C28.4152 8.10447 28.4152 8.12314 28.412 8.14347L28.4152 8.15073C28.4773 8.47729 28.4624 8.40447 28.5246 8.91983C28.5536 9.17273 28.5923 9.42709 28.6214 9.67689C28.6703 10.0949 28.6978 10.3008 28.7576 10.9387C28.4222 11.5084 28.3428 11.724 28.02 12.224L28.0222 12.229L27.7948 12.5991C27.7688 12.6381 27.7453 12.6649 27.7122 12.6763C27.6759 12.6948 27.6288 12.6981 27.5633 12.6981H27.4373L27.2501 13.3392L27.8924 13.3506C28.2695 13.3489 28.5065 13.1674 28.6341 12.9234L29.038 12.2109H29.0315L29.074 12.1607C29.3457 11.5586 31.4123 7.90924 31.4123 7.90924ZM24.6331 16.3289H24.3606L25.3692 12.8951H25.7037L25.8099 12.5413L25.8202 12.9347C25.8077 13.1778 25.9935 13.3934 26.4817 13.3577H27.0462L27.2405 12.6965H27.0281C26.9059 12.6965 26.8493 12.6648 26.8563 12.5967L26.8461 12.1965H25.8007V12.1986C25.4627 12.2058 24.4533 12.232 24.249 12.288C24.0017 12.3536 23.7411 12.5465 23.7411 12.5465L23.8435 12.1924H22.8656L22.6618 12.8951L21.6398 16.3814H21.4415L21.247 17.0378H23.1947L23.1294 17.2567H24.0892L24.1528 17.0378H24.4221L24.6331 16.3289ZM23.834 13.5928C23.6774 13.6374 23.386 13.7727 23.386 13.7727L23.6452 12.8951H24.4221L24.2347 13.5345C24.2347 13.5345 23.9946 13.549 23.834 13.5928ZM23.8489 14.8465C23.8489 14.8465 23.6048 14.8781 23.4442 14.9154C23.286 14.9648 22.9893 15.1204 22.9893 15.1204L23.257 14.2071H24.038L23.8489 14.8465ZM23.4136 16.337H22.6342L22.8601 15.5662H23.6371L23.4136 16.337ZM25.2905 14.2071H26.4139L26.2524 14.7453H25.1141L24.9432 15.3337H25.9392L25.1851 16.4268C25.1323 16.5071 25.0849 16.5355 25.0323 16.5582C24.9795 16.5858 24.9102 16.6181 24.8299 16.6181H24.5536L24.3638 17.2625H25.0865C25.4622 17.2625 25.6841 17.0866 25.8479 16.8557L26.3651 16.127L26.4761 16.8669C26.4997 17.0055 26.5965 17.0866 26.662 17.1181C26.7343 17.1555 26.8091 17.2196 26.9147 17.2291C27.028 17.2341 27.1098 17.238 27.1642 17.238H27.5193L27.7326 16.5169H27.5925C27.5121 16.5169 27.3736 16.503 27.35 16.477C27.3265 16.4455 27.3265 16.397 27.3138 16.3231L27.2011 15.5816H26.7398L26.9421 15.3337H28.0782L28.2529 14.7453H27.2011L27.365 14.2071H28.4136L28.6081 13.5434H25.4817L25.2905 14.2071ZM15.8022 16.4869L16.0644 15.5889H17.1421L17.339 14.9211H16.2603L16.425 14.3684H17.479L17.6743 13.7217H15.0369L14.8457 14.3684H15.4449L15.285 14.9211H14.6842L14.4851 15.6003H15.0841L14.7346 16.7883C14.6875 16.9456 14.7568 17.0055 14.8007 17.0786C14.8457 17.1497 14.8912 17.1968 14.9936 17.2236C15.0992 17.2479 15.1716 17.2624 15.2699 17.2624H16.4848L16.7013 16.5225L16.1628 16.5987C16.0588 16.5987 15.7708 16.5858 15.8022 16.4869ZM15.9258 12.1883L15.6527 12.6964C15.5943 12.8074 15.5417 12.8763 15.4943 12.908C15.4526 12.9348 15.3699 12.946 15.2502 12.946H15.1077L14.9173 13.596H15.3905C15.618 13.596 15.7928 13.5101 15.8762 13.4672C15.9659 13.4178 15.9895 13.446 16.0588 13.3771L16.2186 13.2346H17.6964L17.8925 12.5578H16.8108L16.9996 12.1883H15.9258ZM18.1074 16.4999C18.0822 16.4626 18.1003 16.3968 18.1388 16.2599L18.5427 14.8837H19.9795C20.1889 14.8806 20.3401 14.8781 20.4384 14.8708C20.544 14.8594 20.6589 14.8206 20.7841 14.7509C20.9133 14.6779 20.9794 14.6009 21.0352 14.5125C21.0975 14.4244 21.1974 14.2314 21.2833 13.9339L21.791 12.1924L20.3 12.2013C20.3 12.2013 19.8409 12.271 19.6387 12.348C19.4347 12.4339 19.1433 12.6737 19.1433 12.6737L19.2779 12.1963H18.3569L17.0674 16.5987C17.0217 16.7696 16.991 16.8937 16.984 16.9682C16.9816 17.0485 17.0823 17.1279 17.1476 17.1879C17.2248 17.2478 17.3389 17.2381 17.4483 17.2478C17.5634 17.2568 17.7271 17.2624 17.953 17.2624H18.6608L18.8781 16.5072L18.2444 16.5688C18.1767 16.5688 18.1277 16.5314 18.1074 16.4999ZM18.8033 13.9542H20.3125L20.2165 14.2638C20.203 14.2711 20.1708 14.2484 20.0172 14.2671H18.7104L18.8033 13.9542ZM19.1056 12.9161H20.6275L20.518 13.2889C20.518 13.2889 19.8007 13.2816 19.6859 13.3034C19.1804 13.3935 18.8851 13.6715 18.8851 13.6715L19.1056 12.9161ZM20.2503 15.3004C20.2378 15.3466 20.2181 15.3749 20.1904 15.396C20.1598 15.4164 20.1102 15.4236 20.0363 15.4236H19.8212L19.8339 15.0466H18.9395L18.9032 16.8896C18.9018 17.0226 18.9143 17.0996 19.0088 17.1612C19.1033 17.2381 19.3946 17.2479 19.7866 17.2479H20.347L20.5494 16.5581L20.0615 16.5857L19.8992 16.5954C19.877 16.5857 19.8559 16.5767 19.8323 16.5525C19.8117 16.5315 19.7771 16.5444 19.7827 16.4114L19.7866 15.939L20.2983 15.9172C20.5746 15.9172 20.6927 15.8247 20.7935 15.7365C20.8896 15.652 20.921 15.5549 20.9573 15.4236L21.0432 15.0054H20.34L20.2503 15.3004Z" fill="#FEFEFE"/>
</g>
</svg>
