<svg width="32" height="22" viewBox="0 0 32 22" fill="none" xmlns="http://www.w3.org/2000/svg">
<g id="International">
<rect id="Rectangle" x="1.00004" y="1.00065" width="29.4815" height="20" rx="4.66667" fill="#006FCF" stroke="#F3F3F3" stroke-width="1.33333"/>
<path id="Amex" fill-rule="evenodd" clip-rule="evenodd" d="M6.63627 15.744V11.3522H11.5898L12.1213 12.0026L12.6703 11.3522H30.6506V15.4411C30.6506 15.4411 30.1804 15.7396 29.6365 15.744H19.6805L19.0813 15.0517V15.744H17.1178V14.5622C17.1178 14.5622 16.8495 14.7272 16.2697 14.7272H15.6013V15.744H12.6283L12.0976 15.0796L11.5588 15.744H6.63627ZM0.864624 8.04232L1.97914 5.59766H3.90658L4.53908 6.96706V5.59766H6.93506L7.31159 6.58742L7.67662 5.59766H18.4321V6.09524C18.4321 6.09524 18.9975 5.59766 19.9267 5.59766L23.4165 5.60913L24.0381 6.96061V5.59766H26.0431L26.595 6.37397V5.59766H28.6185V9.9894H26.595L26.0661 9.21057V9.9894H23.1202L22.824 9.29711H22.032L21.7406 9.9894H19.7428C18.9432 9.9894 18.4321 9.50198 18.4321 9.50198V9.9894H15.4199L14.822 9.29711V9.9894H3.62104L3.32499 9.29711H2.53556L2.2416 9.9894H0.864624V8.04232ZM0.870483 9.4274L2.37372 6.139H3.51337L5.01517 9.4274H4.01493L3.739 8.76891H2.12654L1.84917 9.4274H0.870483ZM3.42149 8.05505L2.92999 6.90438L2.43705 8.05505H3.42149ZM5.11853 9.42708V6.13867L6.5093 6.14353L7.31821 8.26369L8.10776 6.13867H9.48741V9.42708H8.61363V7.00404L7.68741 9.42708H6.92111L5.99231 7.00404V9.42708H5.11853ZM10.0853 9.42708V6.13867H12.9366V6.87424H10.9683V7.43673H12.8906V8.12902H10.9683V8.71315H12.9366V9.42708H10.0853ZM13.4423 9.4274V6.139H15.3867C16.031 6.139 16.6083 6.51384 16.6083 7.20584C16.6083 7.79739 16.1215 8.17842 15.6497 8.21588L16.7994 9.4274H15.7316L14.6839 8.25915H14.316V9.4274H13.4423ZM15.3149 6.87476H14.3161V7.56705H15.3279C15.503 7.56705 15.7288 7.43937 15.7288 7.2209C15.7288 7.05109 15.5545 6.87476 15.3149 6.87476ZM17.8572 9.42708H16.965V6.13867H17.8572V9.42708ZM19.9727 9.42708H19.7801C18.8483 9.42708 18.2826 8.73641 18.2826 7.7964C18.2826 6.83316 18.842 6.13867 20.0186 6.13867H20.9844V6.9175H19.9833C19.5057 6.9175 19.1679 7.26823 19.1679 7.80451C19.1679 8.44135 19.5541 8.70882 20.1106 8.70882H20.3406L19.9727 9.42708ZM20.3708 9.4274L21.874 6.139H23.0137L24.5155 9.4274H23.5152L23.2393 8.76891H21.6269L21.3495 9.4274H20.3708ZM22.9218 8.05505L22.4303 6.90438L21.9373 8.05505H22.9218ZM24.6176 9.42708V6.13867H25.7285L27.1469 8.20474V6.13867H28.0207V9.42708H26.9457L25.4913 7.30692V9.42708H24.6176ZM7.23393 15.1816V11.8932H10.0852V12.6288H8.1169V13.1913H10.0392V13.8836H8.1169V14.4677H10.0852V15.1816H7.23393ZM21.2053 15.1816V11.8932H24.0565V12.6288H22.0883V13.1913H24.0014V13.8836H22.0883V14.4677H24.0565V15.1816H21.2053ZM10.1959 15.1816L11.5841 13.5577L10.1628 11.8932H11.2636L12.1101 12.9222L12.9595 11.8932H14.0172L12.6145 13.5374L14.0054 15.1816H12.9047L12.0828 14.1689L11.2809 15.1816H10.1959ZM14.1093 15.1823V11.8939H16.0393C16.8313 11.8939 17.2939 12.3741 17.2939 12.9999C17.2939 13.7554 16.704 14.1438 15.9258 14.1438H15.006V15.1823H14.1093ZM15.9745 12.6378H15.0059V13.395H15.9717C16.2269 13.395 16.4057 13.2358 16.4057 13.0164C16.4057 12.7828 16.2259 12.6378 15.9745 12.6378ZM17.6734 15.1816V11.8932H19.6178C20.2621 11.8932 20.8394 12.2681 20.8394 12.9601C20.8394 13.5516 20.3527 13.9326 19.8808 13.9701L21.0305 15.1816H19.9627L18.9151 14.0134H18.5472V15.1816H17.6734ZM19.5461 12.6288H18.5473V13.3211H19.559C19.7342 13.3211 19.96 13.1934 19.96 12.975C19.96 12.8052 19.7857 12.6288 19.5461 12.6288ZM24.4611 15.1816V14.4677H26.2098C26.4685 14.4677 26.5806 14.3361 26.5806 14.1919C26.5806 14.0536 26.4689 13.9139 26.2098 13.9139H25.4196C24.7327 13.9139 24.3501 13.5201 24.3501 12.929C24.3501 12.4017 24.7005 11.8932 25.7212 11.8932H27.4227L27.0548 12.6331H25.5832C25.3019 12.6331 25.2153 12.772 25.2153 12.9046C25.2153 13.041 25.3223 13.1913 25.5372 13.1913H26.365C27.1307 13.1913 27.463 13.5999 27.463 14.1351C27.463 14.7104 27.0927 15.1816 26.3233 15.1816H24.4611ZM27.5402 15.1816V14.4677H29.2889C29.5476 14.4677 29.6597 14.3361 29.6597 14.1919C29.6597 14.0536 29.548 13.9139 29.2889 13.9139H28.4987C27.8118 13.9139 27.4292 13.5201 27.4292 12.929C27.4292 12.4017 27.7796 11.8932 28.8003 11.8932H30.5018L30.1339 12.6331H28.6623C28.381 12.6331 28.2944 12.772 28.2944 12.9046C28.2944 13.041 28.4014 13.1913 28.6163 13.1913H29.4441C30.2098 13.1913 30.5421 13.5999 30.5421 14.1351C30.5421 14.7104 30.1718 15.1816 29.4024 15.1816H27.5402Z" fill="white"/>
</g>
</svg>
