<svg width="29" height="22" viewBox="0 0 29 22" fill="none" xmlns="http://www.w3.org/2000/svg">
<g id="International">
<path id="Vector" d="M21.4482 11.4318C22.1979 11.4486 22.9518 11.3977 23.6985 11.4582C24.4547 11.6035 24.6369 12.7819 23.9651 13.1678C23.5068 13.4221 22.9622 13.2625 22.4653 13.3074H21.4482V11.4318ZM24.132 9.30895C24.2985 9.91414 23.7318 10.4575 23.1656 10.3742H21.4482C21.4603 9.80346 21.4247 9.184 21.4656 8.64332C22.1536 8.66327 22.848 8.60264 23.532 8.67502C23.8259 8.75104 24.0718 8.99975 24.132 9.30895ZM28.2651 0.334027C28.297 1.4898 28.2697 2.70667 28.2789 3.88589C28.2768 8.68017 28.2834 13.4743 28.2752 18.2689C28.2451 20.0656 26.6982 21.6269 24.9648 21.6628C23.2298 21.67 21.4945 21.6639 19.7592 21.6659V14.4179C21.6499 14.4079 23.5415 14.4383 25.4314 14.4027C26.3081 14.3461 27.2685 13.7506 27.3093 12.7574C27.4125 11.7599 26.4989 11.07 25.6316 10.961C25.2982 10.9521 25.3079 10.861 25.6316 10.8212C26.4588 10.6372 27.1085 9.75578 26.8651 8.87308C26.6577 7.94468 25.6608 7.58535 24.8317 7.58714C23.1411 7.57531 21.4503 7.58549 19.7596 7.58205C19.7705 6.22895 19.7368 4.87439 19.7778 3.52227C19.9117 1.75793 21.4975 0.302921 23.2065 0.334489C24.8929 0.334224 26.5791 0.334225 28.2651 0.334159V0.334027Z" fill="url(#paint0_linear_3249_17672)"/>
<path id="Vector_2" d="M0.654465 3.70533C0.697641 1.91141 2.25112 0.362951 3.98225 0.336733C5.71087 0.331251 7.43975 0.335941 9.16837 0.334356C9.16362 6.33646 9.17774 12.3392 9.16125 18.341C9.09466 20.1131 7.55811 21.6321 5.84585 21.6634C4.11396 21.6699 2.38187 21.6644 0.64991 21.6661V14.1738C2.33221 14.583 4.09638 14.7571 5.81262 14.4857C6.8385 14.3158 7.96094 13.7972 8.30826 12.7016C8.56385 11.7644 8.41995 10.7781 8.458 9.81621V7.58238H5.48787C5.47453 9.05978 5.5152 10.5397 5.46638 12.0154C5.38632 12.9224 4.51376 13.4986 3.68278 13.4679C2.65221 13.4791 0.610006 12.699 0.610006 12.699C0.604874 9.93098 0.639902 6.46445 0.654465 3.7056V3.70533Z" fill="url(#paint1_linear_3249_17672)"/>
<path id="Vector_3" d="M10.276 8.48373C10.1197 8.51788 10.2446 7.93553 10.2046 7.71462C10.2153 6.31786 10.1824 4.91959 10.2228 3.52382C10.3564 1.75201 11.9544 0.293374 13.6703 0.334847H18.7235C18.7187 6.33695 18.7328 12.3397 18.7164 18.3415C18.6497 20.1136 17.1131 21.6325 15.4007 21.6639C13.6688 21.6707 11.9366 21.665 10.2046 21.6667V13.4578C11.3875 14.457 12.9952 14.6125 14.469 14.6152C15.58 14.6148 16.6845 14.4385 17.7634 14.1747V12.6708C16.5475 13.2947 15.1182 13.6909 13.7703 13.3325C12.8301 13.0916 12.1476 12.1562 12.1628 11.1573C12.0539 10.1186 12.6454 9.0219 13.637 8.71309C14.8681 8.31632 16.21 8.61978 17.364 9.13562C17.6113 9.26889 17.8622 9.43419 17.7634 9.00876V7.82669C15.8333 7.35398 13.7792 7.18003 11.8401 7.69428C11.2788 7.85727 10.732 8.10446 10.276 8.48387V8.48373Z" fill="url(#paint2_linear_3249_17672)"/>
</g>
<defs>
<linearGradient id="paint0_linear_3249_17672" x1="19.7011" y1="10.5439" x2="28.2251" y2="10.5439" gradientUnits="userSpaceOnUse">
<stop stop-color="#007B40"/>
<stop offset="1" stop-color="#55B330"/>
</linearGradient>
<linearGradient id="paint1_linear_3249_17672" x1="0.468669" y1="11.2045" x2="9.0287" y2="11.2045" gradientUnits="userSpaceOnUse">
<stop stop-color="#1D2970"/>
<stop offset="1" stop-color="#006DBA"/>
</linearGradient>
<linearGradient id="paint2_linear_3249_17672" x1="10.1921" y1="10.7513" x2="18.7219" y2="10.7513" gradientUnits="userSpaceOnUse">
<stop stop-color="#6E2B2F"/>
<stop offset="1" stop-color="#E30138"/>
</linearGradient>
</defs>
</svg>
