<svg width="65" height="22" viewBox="0 0 65 22" fill="none" xmlns="http://www.w3.org/2000/svg">
<g id="International">
<path id="visa-logo" fill-rule="evenodd" clip-rule="evenodd" d="M16.2926 20.837H10.7681L6.62547 5.60068C6.42884 4.89981 6.01134 4.2802 5.39722 3.98817C3.8646 3.25429 2.17575 2.67023 0.333374 2.37566V1.78906H9.23281C10.4611 1.78906 11.3822 2.67023 11.5358 3.6936L13.6852 14.6841L19.207 1.78906H24.5779L16.2926 20.837ZM27.6486 20.837H22.4312L26.7274 1.78906H31.9448L27.6486 20.837ZM38.6947 7.06577C38.8482 6.03986 39.7694 5.45326 40.8441 5.45326C42.5329 5.30597 44.3726 5.60054 45.9079 6.33189L46.8291 2.23078C45.2938 1.64418 43.605 1.34961 42.0723 1.34961C37.0085 1.34961 33.3238 3.98803 33.3238 7.64983C33.3238 10.4355 35.9338 11.8982 37.7762 12.7794C39.7694 13.658 40.537 14.2446 40.3835 15.1232C40.3835 16.4412 38.8482 17.0278 37.3156 17.0278C35.4732 17.0278 33.6308 16.5885 31.9447 15.8546L31.0235 19.9582C32.8659 20.6896 34.8591 20.9841 36.7014 20.9841C42.3794 21.1289 45.9079 18.493 45.9079 14.5366C45.9079 9.55437 38.6947 9.26234 38.6947 7.06577ZM64.1671 20.837L60.0244 1.78906H55.5747C54.6535 1.78906 53.7324 2.37566 53.4253 3.25429L45.7541 20.837H51.125L52.197 18.0538H58.7962L59.4103 20.837H64.1671ZM56.3425 6.91862L57.8752 14.0975H53.579L56.3425 6.91862Z" fill="#172B85"/>
</g>
</svg>
