<svg width="35" height="22" viewBox="0 0 35 22" fill="none" xmlns="http://www.w3.org/2000/svg">
<g id="International">
<path id="path3810" d="M22.0023 19.328H12.6362V2.60742H22.0023V19.328Z" fill="#FF5F00"/>
<path id="path3814" d="M13.2304 10.9677C13.2304 7.57581 14.8291 4.55446 17.3186 2.60737C15.4981 1.18357 13.2005 0.333752 10.7034 0.333752C4.79194 0.333752 0 5.09464 0 10.9677C0 16.8407 4.79194 21.6016 10.7034 21.6016C13.2005 21.6016 15.4981 20.7517 17.3186 19.3279C14.8291 17.3809 13.2304 14.3595 13.2304 10.9677Z" fill="#EB001B"/>
<path id="path3822" d="M34.6381 10.9677C34.6381 16.8407 29.8461 21.6016 23.9346 21.6016C21.4376 21.6016 19.14 20.7517 17.3187 19.3279C19.809 17.3809 21.4076 14.3595 21.4076 10.9677C21.4076 7.57581 19.809 4.55446 17.3187 2.60737C19.14 1.18357 21.4376 0.333752 23.9346 0.333752C29.8461 0.333752 34.6381 5.09464 34.6381 10.9677Z" fill="#F79E1B"/>
</g>
</svg>
