<svg width="122" height="22" viewBox="0 0 122 22" fill="none" xmlns="http://www.w3.org/2000/svg">
<g id="International">
<path id="DISC-VER" fill-rule="evenodd" clip-rule="evenodd" d="M112.88 0.806966C117.34 0.806966 119.793 2.87008 119.793 6.76707C120.016 9.74713 118.009 12.2687 115.333 12.7272L121.354 21.2089H116.671L111.542 12.9564H111.096V21.2089H107.305V0.806966H112.88ZM111.096 10.2057H112.211C114.664 10.2057 115.779 9.05953 115.779 6.99641C115.779 5.16253 114.664 4.01636 112.211 4.01636H111.096V10.2057ZM94.1487 21.2089H104.852V17.7703H97.9396V12.2687H104.629V8.83019H97.9396V4.24549H104.852V0.806966H94.1487V21.2089ZM82.9986 14.5611L77.8696 0.806966H73.8557L82.1066 21.6673H84.1135L92.3644 0.806966H88.3505L82.9986 14.5611ZM37.7307 11.1225C37.7307 16.8534 42.1906 21.6673 47.7655 21.6673C49.5495 21.6673 51.1105 21.2088 52.6714 20.5211V15.9364C51.5565 17.3118 49.9955 18.2288 48.2115 18.2288C44.6436 18.2288 41.7446 15.478 41.7446 11.8102V11.3517C41.5216 7.68399 44.4206 4.4747 47.9885 4.24546C49.7725 4.24546 51.5565 5.1624 52.6714 6.53781V1.95312C51.3335 1.03618 49.5495 0.806941 47.9885 0.806941C42.1906 0.348471 37.7307 5.1624 37.7307 11.1225ZM30.8178 8.60092C28.5878 7.68398 27.9188 7.22551 27.9188 6.07934C28.1418 4.70393 29.2568 3.55775 30.5948 3.78699C31.7098 3.78699 32.8248 4.47469 33.7167 5.39163L35.7237 2.64081C34.1627 1.2654 32.1558 0.348464 30.1488 0.348464C27.0269 0.119229 24.3509 2.64081 24.1279 5.8501V6.07934C24.1279 8.83016 25.2429 10.4348 28.8108 11.581C29.7028 11.8102 30.5948 12.2687 31.4868 12.7271C32.1558 13.1856 32.6018 13.8733 32.6018 14.7903C32.6018 16.3949 31.2638 17.7703 29.9258 17.7703H29.7028C27.9188 17.7703 26.3579 16.6241 25.6889 15.0195L23.2359 17.5411C24.5739 20.0627 27.2499 21.4381 29.9258 21.4381C33.4937 21.6673 36.3927 18.9165 36.6157 15.2487V14.561C36.3927 11.8102 35.2777 10.4348 30.8178 8.60092ZM17.884 21.2089H21.675V0.806966H17.884V21.2089ZM0.267334 0.806966H5.84223H6.95721C12.3091 1.0362 16.546 5.6209 16.323 11.1225C16.323 14.1026 14.9851 16.8534 12.7551 18.9165C10.7481 20.5212 8.29519 21.4381 5.84223 21.2089H0.267334V0.806966ZM5.17333 17.7704C6.9573 17.9996 8.96426 17.3119 10.3022 16.1657C11.6402 14.7903 12.3092 12.9564 12.3092 10.8933C12.3092 9.05943 11.6402 7.22556 10.3022 5.85015C8.96426 4.70397 6.9573 4.01627 5.17333 4.2455H4.05835V17.7704H5.17333Z" fill="black"/>
<path id="O" fill-rule="evenodd" clip-rule="evenodd" d="M64.0444 0.333984C58.4695 0.333984 53.7866 4.91868 53.7866 10.8788C53.7866 16.6097 58.2465 21.4236 64.0444 21.6528C69.8423 21.8821 74.3023 17.0681 74.5253 11.108C74.3023 5.14792 69.8423 0.333984 64.0444 0.333984V0.333984Z" fill="#FD6020"/>
</g>
</svg>
