<svg xmlns="http://www.w3.org/2000/svg" width="20" height="21" viewBox="0 0 20 21" fill="none">
<path d="M14.2503 1.82642H10.7503C7.49199 1.82642 6.04199 3.27642 6.04199 6.53475V7.45142C6.04199 7.79308 6.32533 8.07642 6.66699 8.07642H9.25033C11.8337 8.07642 12.7087 8.95142 12.7087 11.5347V14.1181C12.7087 14.4597 12.992 14.7431 13.3337 14.7431H14.2503C17.5087 14.7431 18.9587 13.2931 18.9587 10.0347V6.53475C18.9587 3.27642 17.5087 1.82642 14.2503 1.82642ZM7.29199 6.82642V6.53475C7.29199 3.95142 8.16699 3.07642 10.7503 3.07642H14.2503C16.8337 3.07642 17.7087 3.95142 17.7087 6.53475V10.0347C17.7087 12.6181 16.8337 13.4931 14.2503 13.4931H13.9587V11.5347C13.9587 8.27642 12.5087 6.82642 9.25033 6.82642H7.29199Z" fill="#515158"/>
<path d="M9.25033 6.82642H5.75033C2.49199 6.82642 1.04199 8.27642 1.04199 11.5347V15.0348C1.04199 18.2931 2.49199 19.7431 5.75033 19.7431H9.25033C12.5087 19.7431 13.9587 18.2931 13.9587 15.0348V11.5347C13.9587 8.27642 12.5087 6.82642 9.25033 6.82642ZM5.75033 18.4931C3.16699 18.4931 2.29199 17.6181 2.29199 15.0348V11.5347C2.29199 8.95142 3.16699 8.07642 5.75033 8.07642H9.25033C11.8337 8.07642 12.7087 8.95142 12.7087 11.5347V15.0348C12.7087 17.6181 11.8337 18.4931 9.25033 18.4931H5.75033Z" fill="#515158"/>
<path d="M6.69128 15.5347C6.53294 15.5347 6.37461 15.4764 6.24961 15.3514L4.62461 13.7264C4.38294 13.4847 4.38294 13.0847 4.62461 12.8431C4.86628 12.6014 5.26628 12.6014 5.50794 12.8431L6.69128 14.0264L9.49128 11.2264C9.73294 10.9847 10.1329 10.9847 10.3746 11.2264C10.6163 11.4681 10.6163 11.8681 10.3746 12.1097L7.12461 15.3514C7.00794 15.4681 6.84961 15.5347 6.69128 15.5347Z" fill="#515158"/>
</svg>