<svg xmlns="http://www.w3.org/2000/svg" width="20" height="21" viewBox="0 0 20 21" fill="none">
<path d="M14.167 18.493H5.83366C2.79199 18.493 1.04199 16.743 1.04199 13.7013V7.86796C1.04199 4.82629 2.79199 3.07629 5.83366 3.07629H14.167C17.2087 3.07629 18.9587 4.82629 18.9587 7.86796V13.7013C18.9587 16.743 17.2087 18.493 14.167 18.493ZM5.83366 4.32629C3.45033 4.32629 2.29199 5.48463 2.29199 7.86796V13.7013C2.29199 16.0846 3.45033 17.243 5.83366 17.243H14.167C16.5503 17.243 17.7087 16.0846 17.7087 13.7013V7.86796C17.7087 5.48463 16.5503 4.32629 14.167 4.32629H5.83366Z" fill="#515158"/>
<path d="M10 13.9097C8.275 13.9097 6.875 12.5097 6.875 10.7847C6.875 9.05967 8.275 7.65967 10 7.65967C11.725 7.65967 13.125 9.05967 13.125 10.7847C13.125 12.5097 11.725 13.9097 10 13.9097ZM10 8.90967C8.96667 8.90967 8.125 9.75133 8.125 10.7847C8.125 11.818 8.96667 12.6597 10 12.6597C11.0333 12.6597 11.875 11.818 11.875 10.7847C11.875 9.75133 11.0333 8.90967 10 8.90967Z" fill="#515158"/>
<path d="M4.58301 13.493C4.24134 13.493 3.95801 13.2096 3.95801 12.868V8.70129C3.95801 8.35963 4.24134 8.07629 4.58301 8.07629C4.92467 8.07629 5.20801 8.35963 5.20801 8.70129V12.868C5.20801 13.2096 4.92467 13.493 4.58301 13.493Z" fill="#515158"/>
<path d="M15.417 13.493C15.0753 13.493 14.792 13.2096 14.792 12.868V8.70129C14.792 8.35963 15.0753 8.07629 15.417 8.07629C15.7587 8.07629 16.042 8.35963 16.042 8.70129V12.868C16.042 13.2096 15.7587 13.493 15.417 13.493Z" fill="#515158"/>
</svg>
