<svg xmlns="http://www.w3.org/2000/svg" width="20" height="21" viewBox="0 0 20 21" fill="none">
<path d="M9.99993 14.3931C8.00827 14.3931 6.3916 12.7764 6.3916 10.7847C6.3916 8.79306 8.00827 7.17639 9.99993 7.17639C11.9916 7.17639 13.6083 8.79306 13.6083 10.7847C13.6083 12.7764 11.9916 14.3931 9.99993 14.3931ZM9.99993 8.42639C8.69993 8.42639 7.6416 9.48472 7.6416 10.7847C7.6416 12.0847 8.69993 13.1431 9.99993 13.1431C11.2999 13.1431 12.3583 12.0847 12.3583 10.7847C12.3583 9.48472 11.2999 8.42639 9.99993 8.42639Z" fill="#515158"/>
<path d="M10.0004 18.3013C6.86706 18.3013 3.90872 16.4679 1.87539 13.2846C0.992057 11.9096 0.992057 9.66794 1.87539 8.28461C3.91706 5.10128 6.87539 3.26794 10.0004 3.26794C13.1254 3.26794 16.0837 5.10128 18.1171 8.28461C19.0004 9.65961 19.0004 11.9013 18.1171 13.2846C16.0837 16.4679 13.1254 18.3013 10.0004 18.3013ZM10.0004 4.51794C7.30872 4.51794 4.73372 6.13461 2.93372 8.95961C2.30872 9.93461 2.30872 11.6346 2.93372 12.6096C4.73372 15.4346 7.30872 17.0513 10.0004 17.0513C12.6921 17.0513 15.2671 15.4346 17.0671 12.6096C17.6921 11.6346 17.6921 9.93461 17.0671 8.95961C15.2671 6.13461 12.6921 4.51794 10.0004 4.51794Z" fill="#515158"/>
</svg>