<svg xmlns="http://www.w3.org/2000/svg" width="20" height="21" viewBox="0 0 20 21" fill="none">
  <path d="M12.4749 19.7431H7.47493C2.94993 19.7431 1.0166 17.8097 1.0166 13.2847V8.28475C1.0166 3.75975 2.94993 1.82642 7.47493 1.82642H12.4749C16.9999 1.82642 18.9333 3.75975 18.9333 8.28475V13.2847C18.9333 17.8097 17.0083 19.7431 12.4749 19.7431ZM7.47493 3.07642C3.63327 3.07642 2.2666 4.44308 2.2666 8.28475V13.2847C2.2666 17.1264 3.63327 18.4931 7.47493 18.4931H12.4749C16.3166 18.4931 17.6833 17.1264 17.6833 13.2847V8.28475C17.6833 4.44308 16.3166 3.07642 12.4749 3.07642H7.47493Z" fill="#515158"/>
  <path d="M18.3337 8.49292H1.66699C1.32533 8.49292 1.04199 8.20959 1.04199 7.86792C1.04199 7.52625 1.32533 7.24292 1.66699 7.24292H18.3337C18.6753 7.24292 18.9587 7.52625 18.9587 7.86792C18.9587 8.20959 18.6753 8.49292 18.3337 8.49292Z" fill="#515158"/>
  <path d="M12.1337 14.3263C11.9754 14.3263 11.8171 14.268 11.6921 14.143L10.0004 12.4513L8.30872 14.143C8.06706 14.3847 7.66706 14.3847 7.42539 14.143C7.18372 13.9013 7.18372 13.5013 7.42539 13.2597L9.55872 11.1263C9.80039 10.8847 10.2004 10.8847 10.4421 11.1263L12.5754 13.2597C12.8171 13.5013 12.8171 13.9013 12.5754 14.143C12.4504 14.268 12.2921 14.3263 12.1337 14.3263Z" fill="#515158"/>
</svg>