<svg xmlns="http://www.w3.org/2000/svg" width="20" height="21" viewBox="0 0 20 21" fill="none">
  <path d="M4.61666 17.0513C4.10832 17.0513 3.63332 16.8763 3.29166 16.5513C2.85832 16.143 2.64999 15.5263 2.72499 14.8596L3.03332 12.1596C3.09166 11.6513 3.39999 10.9763 3.75832 10.6096L10.6 3.36796C12.3083 1.55963 14.0917 1.50963 15.9 3.21796C17.7083 4.92629 17.7583 6.70963 16.05 8.51796L9.20832 15.7596C8.85832 16.1346 8.20832 16.4846 7.69999 16.568L5.01666 17.0263C4.87499 17.0346 4.74999 17.0513 4.61666 17.0513ZM13.275 3.20963C12.6333 3.20963 12.075 3.60963 11.5083 4.20963L4.66666 11.4596C4.49999 11.6346 4.30832 12.0513 4.27499 12.293L3.96666 14.993C3.93332 15.268 3.99999 15.493 4.14999 15.6346C4.29999 15.7763 4.52499 15.8263 4.79999 15.7846L7.48332 15.3263C7.72499 15.2846 8.12499 15.068 8.29166 14.893L15.1333 7.65129C16.1667 6.55129 16.5417 5.53463 15.0333 4.11796C14.3667 3.47629 13.7917 3.20963 13.275 3.20963Z" fill="#515158"/>
  <path d="M14.4497 9.90971C14.433 9.90971 14.408 9.90971 14.3914 9.90971C11.7914 9.65137 9.69971 7.67637 9.29971 5.09304C9.24971 4.75137 9.48305 4.43471 9.82471 4.37637C10.1664 4.32637 10.483 4.55971 10.5414 4.90137C10.858 6.91804 12.4914 8.46804 14.5247 8.66804C14.8664 8.70137 15.1164 9.00971 15.083 9.35137C15.0414 9.66804 14.7664 9.90971 14.4497 9.90971Z" fill="#515158"/>
  <path d="M17.5 19.743H2.5C2.15833 19.743 1.875 19.4597 1.875 19.118C1.875 18.7764 2.15833 18.493 2.5 18.493H17.5C17.8417 18.493 18.125 18.7764 18.125 19.118C18.125 19.4597 17.8417 19.743 17.5 19.743Z" fill="#515158"/>
</svg>