<svg width="20" height="21" viewBox="0 0 20 21" fill="none" xmlns="http://www.w3.org/2000/svg">
<path d="M17.5001 5.89294C17.4834 5.89294 17.4584 5.89294 17.4334 5.89294C13.0251 5.45127 8.62505 5.28461 4.26672 5.72627L2.56672 5.89294C2.21672 5.92627 1.90839 5.67627 1.87505 5.32627C1.84172 4.97627 2.09172 4.67627 2.43339 4.64294L4.13339 4.47627C8.56672 4.02627 13.0584 4.20127 17.5584 4.64294C17.9001 4.67627 18.1501 4.98461 18.1167 5.32627C18.0917 5.65127 17.8167 5.89294 17.5001 5.89294Z" fill="#000"/>
<path d="M7.08314 5.05129C7.0498 5.05129 7.01647 5.05129 6.9748 5.04296C6.64147 4.98463 6.40814 4.65963 6.46647 4.32629L6.6498 3.23463C6.78314 2.43463 6.96647 1.32629 8.90814 1.32629H11.0915C13.0415 1.32629 13.2248 2.47629 13.3498 3.24296L13.5331 4.32629C13.5915 4.66796 13.3581 4.99296 13.0248 5.04296C12.6831 5.10129 12.3581 4.86796 12.3081 4.53463L12.1248 3.45129C12.0081 2.72629 11.9831 2.58463 11.0998 2.58463H8.91647C8.03314 2.58463 8.01647 2.70129 7.89147 3.44296L7.6998 4.52629C7.6498 4.83463 7.38314 5.05129 7.08314 5.05129Z" fill="#000"/>
<path d="M12.675 19.2429H7.325C4.41666 19.2429 4.3 17.6346 4.20833 16.3346L3.66666 7.94294C3.64166 7.60128 3.90833 7.30128 4.25 7.27628C4.6 7.25961 4.89166 7.51794 4.91666 7.85961L5.45833 16.2513C5.55 17.5179 5.58333 17.9929 7.325 17.9929H12.675C14.425 17.9929 14.4583 17.5179 14.5417 16.2513L15.0833 7.85961C15.1083 7.51794 15.4083 7.25961 15.75 7.27628C16.0917 7.30128 16.3583 7.59294 16.3333 7.94294L15.7917 16.3346C15.7 17.6346 15.5833 19.2429 12.675 19.2429Z" fill="#000"/>
<path d="M11.3834 14.6597H8.6084C8.26673 14.6597 7.9834 14.3763 7.9834 14.0347C7.9834 13.693 8.26673 13.4097 8.6084 13.4097H11.3834C11.7251 13.4097 12.0084 13.693 12.0084 14.0347C12.0084 14.3763 11.7251 14.6597 11.3834 14.6597Z" fill="#000"/>
<path d="M12.0832 11.3263H7.9165C7.57484 11.3263 7.2915 11.043 7.2915 10.7013C7.2915 10.3596 7.57484 10.0763 7.9165 10.0763H12.0832C12.4248 10.0763 12.7082 10.3596 12.7082 10.7013C12.7082 11.043 12.4248 11.3263 12.0832 11.3263Z" fill="#000"/>
</svg>
